<svg width="51" height="118" viewBox="0 0 51 118" fill="none" xmlns="http://www.w3.org/2000/svg">
<path d="M5.85855 45.5652L3.34678 43.9248L3.29154 44.0093L3.24211 44.0975L5.85855 45.5652ZM0.764907 107.147C0.378739 108.758 1.37184 110.377 2.98307 110.763L29.2395 117.056C30.8507 117.443 32.4699 116.449 32.8561 114.838C33.2422 113.227 32.2491 111.608 30.6379 111.222L7.29888 105.628L12.8926 82.2888C13.2788 80.6776 12.2857 79.0584 10.6745 78.6722C9.06324 78.2861 7.44404 79.2792 7.05787 80.8904L0.764907 107.147ZM16.5429 6.08906C26.036 10.2778 37.0868 19.8686 42.1582 29.7596C44.6775 34.6733 45.5395 39.2953 44.4608 43.2288C43.4116 47.0544 40.3431 50.8837 33.5666 53.9167L36.0177 59.3932C43.9363 55.849 48.5967 50.834 50.2471 44.8156C51.868 38.9053 50.4002 32.6838 47.4973 27.0221C41.7243 15.7625 29.561 5.27509 18.9651 0.599691L16.5429 6.08906ZM33.5666 53.9167C26.3997 57.1244 20.8781 58.6128 16.7625 58.983C12.633 59.3544 10.1785 58.5834 8.80767 57.6019C7.51157 56.6738 6.81493 55.2965 6.71902 53.4869C6.61953 51.6098 7.19058 49.3226 8.47499 47.0329L3.24211 44.0975C1.53605 47.1387 0.554796 50.5474 0.72743 53.8045C0.903643 57.1292 2.30356 60.3243 5.31471 62.4803C8.25114 64.5828 12.3146 65.4072 17.3 64.9588C22.2992 64.5092 28.4895 62.7626 36.0177 59.3932L33.5666 53.9167ZM8.37032 47.2056C11.6892 42.124 16.3204 40.0849 21.0488 40.1129C25.8944 40.1416 30.9918 42.359 34.8404 46.1316C38.6639 49.8796 41.1072 55.0145 40.9183 60.7596C40.7303 66.4782 37.9164 73.2349 30.3965 80.1799L34.4672 84.5877C42.8828 76.8157 46.6628 68.6291 46.9151 60.9567C47.1665 53.3108 43.8964 46.6068 39.0405 41.8469C34.2098 37.1115 27.662 34.1519 21.0843 34.113C14.3895 34.0734 7.81948 37.0763 3.34678 43.9248L8.37032 47.2056ZM30.3965 80.1799C14.4463 94.9104 7.76729 100.949 4.84707 103.449C3.27476 104.795 3.03806 104.889 3.16941 104.826C3.37709 104.726 3.75066 104.637 3.39885 104.727C2.95121 104.841 2.54995 105.021 2.11381 105.289L5.25076 110.403C5.27633 110.388 5.12381 110.479 4.88245 110.541C4.73693 110.578 5.27435 110.472 5.77395 110.231C6.48914 109.887 7.3486 109.206 8.74894 108.007C11.7741 105.417 18.5464 99.291 34.4672 84.5877L30.3965 80.1799Z" fill="#F58800"/>
</svg>
