<svg width="400" height="385" viewBox="0 0 400 385" fill="none" xmlns="http://www.w3.org/2000/svg">
<g opacity="0.15">
<path d="M200 0C123.086 0 73.5338 18.6474 42.9678 47.3214C12.4018 75.9953 1.33336 114.285 0.117211 151.933C-2.31509 227.231 33.9144 301.472 33.9144 301.472L42.4659 297.332C42.4659 297.332 7.30862 224.262 9.63544 152.23C10.7989 116.214 21.1464 80.8205 49.4744 54.246C77.8025 27.6715 124.623 9.50512 200 9.50512C275.377 9.50512 322.198 27.6715 350.526 54.246C378.854 80.8205 389.201 116.214 390.365 152.23C392.691 224.262 357.534 297.332 357.534 297.332L366.086 301.472C366.086 301.472 402.315 227.231 399.883 151.933C398.667 114.285 387.598 75.9953 357.032 47.3214C326.466 18.6474 276.914 0 200 0Z" fill="white"/>
<path d="M311.091 223.314L271.671 370.232L326.852 384.997L366.273 238.079L311.091 223.314ZM317.835 234.978L354.593 244.814L320.108 373.333L283.351 363.497L317.835 234.978Z" fill="white"/>
<path d="M87.5343 223.317L126.955 370.235L71.7737 385L32.3529 238.082L87.5343 223.317ZM80.7907 234.981L44.0331 244.817L78.5173 373.336L115.275 363.5L80.7907 234.981Z" fill="white"/>
<path d="M14.2794 303.422L24.1382 340.164L60.9318 330.319L51.073 293.576L14.2794 303.422ZM25.9596 310.156L44.3294 305.24L49.2516 323.585L30.8818 328.5L25.9596 310.156Z" fill="white"/>
<path d="M383.575 303.424L373.716 340.167L336.941 330.326L346.799 293.583L383.575 303.424ZM371.913 310.163L353.525 305.243L348.603 323.587L366.991 328.507L371.913 310.163Z" fill="white"/>
<path d="M324.053 306.354L310.501 356.85L296.725 353.156L294.253 362.345L317.249 368.49L333.255 308.823L324.053 306.354Z" fill="white"/>
<path d="M75.947 306.354L66.7448 308.823L82.7511 368.49L105.747 362.345L103.275 353.156L89.4993 356.85L75.947 306.354Z" fill="white"/>
<path d="M200 19.0102C132.693 19.0102 93.6073 33.4353 71.2437 48.3239C60.0618 55.7681 53.0814 63.3135 48.8981 69.0977C44.7149 74.882 43.1909 79.2897 43.1909 79.2897L52.2258 82.2972C52.2258 82.2972 53.0814 79.5761 56.6317 74.6671C60.182 69.7581 66.2891 63.0458 76.5233 56.2324C96.9917 42.6056 134.052 28.5153 200 28.5153C265.948 28.5153 303.008 42.6056 323.477 56.2324C333.711 63.0458 339.818 69.7581 343.368 74.6671C346.919 79.5761 347.774 82.2972 347.774 82.2972L356.809 79.2897C356.809 79.2897 355.285 74.882 351.102 69.0977C346.919 63.3135 339.938 55.7681 328.756 48.3239C306.393 33.4353 267.308 19.0102 200 19.0102Z" fill="white"/>
</g>
</svg>
