<svg width="119" height="119" viewBox="0 0 119 119" fill="none" xmlns="http://www.w3.org/2000/svg">
<path d="M60 33.5L59.2073 30.6066L59.1099 30.6333L59.0144 30.6665L60 33.5ZM1.27961 91.0423C-0.0777349 91.9924 -0.407839 93.863 0.542304 95.2204L16.0258 117.34C16.9759 118.697 18.8465 119.027 20.2039 118.077C21.5612 117.127 21.8913 115.256 20.9412 113.899L7.17808 94.2373L26.8396 80.4742C28.197 79.5241 28.5271 77.6535 27.577 76.2961C26.6268 74.9388 24.7562 74.6087 23.3989 75.5588L1.27961 91.0423ZM106.274 3.25174C112.105 15.954 114.686 35.4496 110.957 49.9922C109.101 57.2288 105.788 62.8449 100.971 65.9894C96.2476 69.0727 89.5011 70.1503 79.898 67.1376L78.102 72.8624C88.8989 76.2497 97.6232 75.3398 104.251 71.0137C110.785 66.7488 114.704 59.5337 116.768 51.4828C120.88 35.4504 118.061 14.546 111.726 0.748265L106.274 3.25174ZM79.898 67.1376C69.8869 63.9968 62.9769 60.5739 58.4424 57.2319C53.8966 53.8816 51.9436 50.7725 51.3747 48.2819C50.8262 45.8809 51.4577 43.5986 53.1105 41.5205C54.8054 39.3894 57.5592 37.5253 60.9856 36.3335L59.0144 30.6665C54.7741 32.1414 50.9696 34.5731 48.4145 37.7857C45.8173 41.0514 44.5071 45.1607 45.5253 49.6181C46.5231 53.9859 49.6451 58.2017 54.8826 62.0618C60.1314 65.9302 67.7131 69.6032 78.102 72.8624L79.898 67.1376ZM60.7927 36.3934C68.9001 34.1722 75.6424 36.3153 80.5587 40.7215C85.5621 45.206 88.7747 52.1474 89.295 59.5114C89.8128 66.8404 87.6516 74.379 82.1911 80.1507C76.7487 85.9033 67.7281 90.2133 53.9375 90.5006L54.0625 96.4994C69.0719 96.1867 79.7638 91.4467 86.5496 84.2743C93.3172 77.121 95.8997 67.8596 95.28 59.0886C94.6628 50.3526 90.8566 41.894 84.5632 36.2535C78.1826 30.5348 69.3499 27.8278 59.2073 30.6066L60.7927 36.3934ZM53.9375 90.5006C25.1175 91.1011 13.1398 91.2243 8.01301 91.1379C5.30193 91.0923 4.84301 90.9823 4.88103 90.9931C5.05172 91.0414 5.36827 91.2069 5.01433 91.0249C4.57243 90.7976 4.11268 90.65 3.52136 90.5456L2.47864 96.4544C2.59565 96.475 2.4609 96.4586 2.27043 96.3607C2.16792 96.308 2.66235 96.6008 3.2471 96.7663C4.11324 97.0114 5.42724 97.0952 7.91199 97.1371C13.1769 97.2257 25.2825 97.0989 54.0625 96.4994L53.9375 90.5006Z" fill="#FBBC24"/>
</svg>
