<svg width="421" height="393" viewBox="0 0 421 393" fill="none" xmlns="http://www.w3.org/2000/svg">
<g opacity="0.05">
<path d="M349.276 220.716C338.33 237.429 279.295 287.607 265.588 286.581C244.861 285.027 239.67 207.931 207.104 204.171C199.691 199.31 189.564 203.994 185.587 211.918C181.048 220.964 181.345 231.826 184.225 241.529C187.106 251.229 183.189 272.803 188.392 281.484C211.221 319.584 240.272 340.194 254.861 343.306C269.218 346.369 313.813 315.504 369.564 245.159C376.234 236.737 384.213 230.17 394.173 226.145C415.358 217.586 419.317 214.461 418.541 211.041C417.799 207.766 398.103 216.445 391.296 216.809C403.037 208.298 422.103 199.545 418.738 193.599C416.567 189.762 403.669 202.435 388.925 207.744C401.648 192.825 419.665 188.115 416.2 181.585C413.497 176.494 395.645 193.729 385.407 197.084C390.541 189.262 408.98 179.884 405.647 174.738C403.312 171.138 389.854 181.655 385.625 184.72C379.234 189.352 375.919 193.684 368.602 196.644C368.045 189.122 373.326 172.375 369.082 172.824C364.523 173.309 363.459 178.075 359.204 188.615C355.347 198.176 353.418 214.394 349.276 220.716Z" fill="white"/>
<path d="M200.438 203.419C199.179 203.419 198.025 203.622 197.066 203.879C192.739 205.043 188.762 208.333 186.686 212.47C182.714 220.387 182.257 230.582 185.402 241.179C186.683 245.493 186.673 251.821 186.666 258.521C186.653 267.197 186.641 276.171 189.446 280.852C213.089 320.311 242.275 339.362 255.118 342.102C267.919 344.845 311.591 316.324 368.599 244.394C375.849 235.246 384.063 228.906 393.711 225.006C411.283 217.906 417.621 214.321 417.379 211.553C415.762 211.156 409.04 213.262 404.538 214.676C399.297 216.322 394.346 217.879 391.363 218.039C390.811 218.054 390.319 217.734 390.136 217.219C389.956 216.707 390.134 216.135 390.573 215.813C393.883 213.414 397.773 210.994 401.535 208.653C409.962 203.409 419.512 197.464 417.666 194.204L417.581 194.134C416.297 193.816 412.135 196.434 408.105 198.97C402.867 202.27 396.344 206.38 389.339 208.9C388.815 209.09 388.23 208.9 387.913 208.443C387.596 207.983 387.626 207.369 387.988 206.944C393.916 199.992 400.871 195.288 406.457 191.508C412.854 187.179 416.412 184.611 415.113 182.162L414.798 181.913C412.757 181.41 406.694 185.55 401.35 189.205C395.897 192.934 390.259 196.787 385.789 198.253C385.292 198.413 384.748 198.248 384.43 197.831C384.113 197.416 384.093 196.847 384.38 196.409C386.581 193.057 390.953 189.554 395.185 186.167C399.996 182.315 405.985 177.518 404.616 175.407C404.588 175.365 404.538 175.29 404.313 175.247C401.256 174.698 391.498 181.913 387.82 184.631C387.253 185.05 386.756 185.418 386.346 185.717C384.3 187.199 382.574 188.65 380.905 190.054C377.445 192.964 374.178 195.715 369.064 197.783C368.699 197.931 368.287 197.896 367.955 197.689C367.62 197.481 367.405 197.126 367.378 196.734C367.148 193.651 367.833 189.237 368.495 184.97C369.069 181.253 370.028 175.07 369.214 174.051C366.239 174.386 365.06 177.041 362.109 184.606C361.582 185.962 361 187.451 360.346 189.075C358.702 193.144 357.393 198.55 356.124 203.779C354.395 210.906 352.764 217.636 350.305 221.391C339.966 237.177 280.482 288.949 265.495 287.807C255.485 287.055 249.322 271.322 242.185 253.103C233.791 231.676 224.278 207.391 206.963 205.393L206.429 205.198C204.385 203.859 202.297 203.419 200.438 203.419ZM256.929 344.735C256.095 344.735 255.318 344.66 254.606 344.508C237.993 340.963 208.775 317.893 187.335 282.116C184.18 276.848 184.193 267.53 184.208 258.516C184.215 252.001 184.225 245.848 183.046 241.879C179.721 230.679 180.236 219.845 184.487 211.366C186.868 206.622 191.442 202.845 196.426 201.506C200.373 200.441 204.305 200.969 207.53 202.985C226.127 205.373 235.87 230.247 244.473 252.206C251.023 268.926 257.211 284.719 265.68 285.354C271.331 285.781 287.439 275.814 307.692 259.348C326.051 244.419 343.108 227.891 348.247 220.045C350.473 216.645 352.132 209.81 353.735 203.199C355.022 197.886 356.356 192.392 358.065 188.153C358.717 186.539 359.294 185.06 359.818 183.714C362.836 175.974 364.35 172.09 368.949 171.603C369.731 171.52 370.441 171.773 370.955 172.312C372.584 174.021 372.005 178.378 370.925 185.345C370.406 188.68 369.876 192.105 369.799 194.778C373.623 192.967 376.291 190.724 379.324 188.173C381.025 186.739 382.784 185.26 384.902 183.724C385.31 183.431 385.799 183.067 386.359 182.655C393.276 177.541 400.973 172.145 404.753 172.829C405.585 172.982 406.249 173.409 406.679 174.068C409.257 178.048 403.449 182.7 396.721 188.086C394.52 189.849 392.28 191.643 390.371 193.397C393.401 191.66 396.716 189.395 399.961 187.174C407.593 181.955 412.427 178.792 415.385 179.527C416.222 179.732 416.879 180.246 417.284 181.008C419.682 185.527 414.713 188.89 407.836 193.544C403.599 196.412 398.557 199.822 393.843 204.334C398.6 202.053 403.034 199.26 406.794 196.889C412.265 193.444 415.877 191.171 418.181 191.75C418.885 191.928 419.447 192.357 419.807 192.992C422.812 198.306 413.554 204.069 402.834 210.741C400.916 211.936 398.965 213.15 397.079 214.369C399.182 213.782 401.51 213.05 403.801 212.33C412.033 209.745 416.787 208.336 418.768 209.477C419.272 209.767 419.617 210.227 419.742 210.769C420.791 215.405 415.63 218.8 394.633 227.287C385.39 231.021 377.505 237.117 370.526 245.921C318.699 311.315 274.476 344.735 256.929 344.735Z" fill="black"/>
<path d="M31.6774 287.493C29.8112 299.412 28.782 321.321 27.3356 344.753C34.5703 346.452 41.8299 348.049 49.1195 349.502C63.6164 352.395 78.2256 354.739 92.9423 356.17C100.289 356.882 107.654 357.267 115.021 357.664C122.296 358.053 129.58 358.228 136.865 358.161C151.359 358.024 165.849 356.905 180.168 354.644C185.459 353.807 190.728 352.813 195.957 351.656C196.426 324.618 197.37 297.733 199.614 285.914C213.259 271.757 237.119 257.31 251.591 251.964C242.345 226.995 230.561 187.422 171.637 171.364C149.706 163.704 124.409 157.646 101.211 157.206C90.599 157.007 48.1627 171.146 37.1159 180.782C5.44165 208.409 5.75145 259.491 1.6095 286.029C27.4605 278.899 17.9075 286.554 31.6774 287.493Z" fill="#ACD4F7"/>
<path d="M28.6275 343.794C35.9047 345.492 42.6972 346.966 49.3623 348.298C65.1482 351.448 79.4426 353.621 93.0626 354.945C100.13 355.63 107.347 356.019 114.327 356.394L115.086 356.434C122.441 356.829 129.768 356.996 136.855 356.929C151.635 356.791 166.144 355.615 179.979 353.429C184.95 352.642 189.914 351.713 194.745 350.661C195.357 316.271 196.522 295.612 198.408 285.686C198.453 285.451 198.563 285.234 198.73 285.062C212.128 271.16 235.408 256.927 250.017 251.244C249.712 250.417 249.403 249.573 249.09 248.714C240.219 224.406 226.812 187.673 171.315 172.547L171.233 172.522C153.601 166.367 127.138 158.927 101.189 158.435C90.8368 158.255 48.8376 172.187 37.9232 181.708C12.0422 204.284 7.8278 242.611 4.75256 270.597C4.21046 275.521 3.69588 280.208 3.10381 284.35C17.6231 280.483 20.3236 281.569 23.7137 283.78C25.3475 284.842 27.0337 285.941 31.7627 286.266C32.1075 286.288 32.4247 286.456 32.6396 286.726C32.8544 286.993 32.9469 287.343 32.8944 287.682C31.3855 297.318 30.4362 313.351 29.3395 331.92C29.1072 335.799 28.8723 339.772 28.6275 343.794ZM133.813 359.402C127.635 359.402 121.307 359.232 114.957 358.89L114.195 358.85C107.187 358.472 99.9451 358.083 92.8253 357.393C79.1229 356.062 64.7485 353.876 48.8801 350.708C41.8828 349.312 34.743 347.756 27.0537 345.95C26.4716 345.815 26.0719 345.278 26.1094 344.678C26.3792 340.306 26.634 335.984 26.8838 331.772C27.938 313.948 28.8549 298.449 30.2688 288.599C25.8596 288.112 23.941 286.863 22.3721 285.841C19.804 284.165 17.7755 282.846 1.93713 287.215C1.53742 287.328 1.10278 287.225 0.79051 286.948C0.480738 286.671 0.330829 286.253 0.395781 285.841C1.10026 281.32 1.68731 275.981 2.30935 270.328C5.42956 241.941 9.70144 203.062 36.3069 179.854C47.7235 169.896 89.6701 155.974 100.992 155.974L101.234 155.977C127.487 156.474 154.203 163.973 172.002 170.186C228.693 185.652 242.358 223.095 251.401 247.872C251.858 249.123 252.303 250.345 252.745 251.536C252.858 251.841 252.845 252.181 252.708 252.476C252.573 252.773 252.323 253.003 252.018 253.115C237.851 258.349 214.311 272.566 200.756 286.503C198.945 296.411 197.776 317.74 197.186 351.675C197.179 352.245 196.779 352.732 196.224 352.854C191.046 354.001 185.71 355.013 180.361 355.857C166.409 358.063 151.779 359.25 136.878 359.39C135.861 359.399 134.839 359.402 133.813 359.402Z" fill="black"/>
<path d="M205.769 50.5896C200.655 48.8109 194.782 51.409 191.242 55.7133C187.702 60.0202 186.124 65.6985 185.312 71.2844C184.542 76.5755 184.39 82.074 185.931 87.1527C187.475 92.229 190.92 96.8531 195.704 98.7192C202.237 101.267 210.021 98.0372 214.43 92.3214C218.842 86.6056 220.314 78.9487 220.056 71.6591C219.881 66.7527 218.947 61.7664 216.466 57.6194C213.988 53.47 209.776 50.2648 205.769 50.5896Z" fill="#ACD4F7"/>
<path d="M202.379 51.2614C198.794 51.2614 194.917 53.1801 192.192 56.4951C189.301 60.01 187.503 64.7665 186.528 71.4616C185.639 77.5696 185.829 82.5859 187.108 86.7953C188.674 91.9465 192.054 95.9761 196.151 97.5724C201.795 99.7758 209.074 97.2501 213.459 91.5718C218.255 85.3539 219.024 77.3348 218.827 71.7039C218.632 66.2429 217.483 61.7163 215.412 58.2488C212.954 54.1394 209.112 51.5513 205.869 51.8161L205.367 51.7511C204.418 51.4214 203.411 51.2614 202.379 51.2614ZM200.451 100.812C198.659 100.812 196.903 100.505 195.257 99.8632C190.465 97.9946 186.538 93.3755 184.755 87.5098C183.368 82.9481 183.153 77.5821 184.095 71.1069C185.137 63.9496 187.105 58.8084 190.293 54.9338C194.38 49.9624 200.773 47.6916 205.932 49.3478C210.104 49.163 214.61 52.1183 217.523 56.9872C219.809 60.8144 221.075 65.7358 221.283 71.6164C221.498 77.652 220.651 86.2757 215.405 93.0732C211.617 97.9796 205.884 100.812 200.451 100.812Z" fill="black"/>
<path d="M174.133 128.28C168.574 144.648 164.37 161.503 161.587 178.593C161.355 180.019 161.105 181.511 160.255 182.662C159.383 183.841 158.01 184.478 156.676 185.006C147.472 188.64 136.88 189.07 128.049 184.728C119.218 180.389 112.603 170.853 113.757 159.896C120.272 146.824 130.447 128.804 139.673 107.6C150.088 115.064 161.275 121.365 174.133 128.28Z" fill="white"/>
<path d="M114.957 160.244C113.905 171.245 121.025 179.907 128.592 183.626C136.583 187.553 146.656 187.641 156.226 183.861C157.328 183.426 158.562 182.884 159.267 181.93C159.946 181.008 160.163 179.682 160.373 178.395C163.106 161.618 167.231 144.96 172.634 128.872C159.744 121.922 149.669 116.151 140.193 109.478C133.808 123.998 126.925 137.17 121.362 147.82C119.031 152.279 116.83 156.494 114.957 160.244ZM142.114 189.092C136.918 189.092 131.927 188.006 127.507 185.832C117.43 180.878 111.414 170.404 112.533 159.766L112.656 159.347C114.559 155.527 116.805 151.233 119.181 146.683C124.904 135.729 132.027 122.097 138.544 107.11C138.694 106.768 138.986 106.513 139.346 106.413C139.703 106.316 140.086 106.386 140.388 106.6C150.343 113.733 160.903 119.771 174.715 127.195C175.242 127.483 175.49 128.107 175.297 128.674C169.771 144.942 165.569 161.802 162.799 178.79C162.554 180.291 162.279 181.993 161.245 183.391C160.206 184.798 158.652 185.547 157.128 186.149C152.157 188.113 147.043 189.092 142.114 189.092Z" fill="black"/>
<path d="M132.941 186.439C126.965 191.83 120.99 197.219 114.005 202.59C109.685 187.014 105.371 170.976 105.116 154.72C108.376 153.848 115.713 150.611 118.974 149.736C117.482 152.896 115.146 155.562 115.376 156.691C115.521 157.411 126.833 177.671 132.941 186.439Z" fill="white"/>
<path d="M106.365 155.635C106.757 171.246 110.882 186.695 114.701 200.495C120.744 195.751 126.12 190.934 131.319 186.248C125.471 177.604 114.411 158.133 114.169 156.934C113.939 155.798 114.706 154.571 115.865 152.715C116.03 152.45 116.203 152.175 116.375 151.893C115.166 152.338 113.817 152.86 112.493 153.374C110.2 154.264 108.011 155.113 106.365 155.635ZM114.004 203.82L113.617 203.757C113.227 203.627 112.93 203.313 112.82 202.918C108.758 188.264 104.152 171.656 103.887 154.741C103.879 154.176 104.254 153.679 104.799 153.532C106.365 153.115 109.028 152.08 111.604 151.081C114.359 150.012 116.962 149.003 118.653 148.55C119.116 148.426 119.608 148.58 119.917 148.948C120.222 149.315 120.29 149.83 120.085 150.262C119.43 151.648 118.643 152.907 117.951 154.016C117.427 154.858 116.72 155.99 116.605 156.45C117.654 158.715 128.179 177.454 133.95 185.738C134.304 186.245 134.224 186.94 133.765 187.354C127.874 192.666 121.786 198.159 114.754 203.565C114.536 203.732 114.274 203.82 114.004 203.82Z" fill="black"/>
<path d="M199.319 61.6689C198.675 73.4352 200.891 85.1566 200.901 96.9329C200.911 108.707 198.373 121.14 189.669 130.186C182.007 138.15 169.859 142.622 158.092 141.81C146.323 141 135.249 134.925 129.303 126.024C123.715 117.653 122.766 99.3187 121.946 90.1479C116.705 91.0223 110.897 89.3685 107.749 85.6312C104.602 81.8965 104.649 76.1632 108.284 72.7157C111.919 69.2683 116.535 68.7037 121.776 73.7724C121.449 66.2155 122.728 58.8234 123.3 55.4235C124.849 46.2027 125.079 32.5278 131.252 28.5607C134.747 26.3148 142.106 24.3238 146.228 23.1822C150.39 22.028 155.489 23.1272 160.495 24.2264C164.058 25.0108 167.573 25.7952 170.67 25.7653C178.117 25.6928 185.717 29.3451 191.702 33.1723C198.862 37.7539 199.802 52.8628 199.319 61.6689Z" fill="white"/>
<path d="M121.946 88.9186C122.215 88.9186 122.48 89.0061 122.698 89.1759C122.967 89.3833 123.14 89.6981 123.17 90.0379C123.255 90.9847 123.34 92.0264 123.432 93.1456C124.201 102.479 125.488 118.097 130.327 125.342C136.078 133.956 146.75 139.796 158.174 140.583C169.621 141.375 181.347 137.061 188.781 129.334C196.019 121.812 199.683 110.91 199.671 96.9328C199.666 91.854 199.239 86.6753 198.824 81.6665C198.284 75.1088 197.725 68.3263 198.092 61.6013C198.649 51.4038 197.135 38.111 191.04 34.2089C183.468 29.3649 176.64 26.9442 170.682 26.9942C167.485 27.0417 163.877 26.2297 160.382 25.4628C155.508 24.3911 150.467 23.2819 146.558 24.3661L146.09 24.496C141.988 25.6327 135.126 27.5338 131.916 29.5948C127.509 32.4277 126.377 41.4336 125.378 49.3803C125.101 51.5936 124.838 53.687 124.511 55.6281L124.474 55.858C123.894 59.298 122.69 66.4552 123.005 73.7198C123.027 74.222 122.74 74.6866 122.283 74.894C121.821 75.1013 121.284 75.0064 120.921 74.6567C116.684 70.5597 112.715 70.2049 109.13 73.6074C106.042 76.5353 105.847 81.4691 108.688 84.8392C111.461 88.1317 116.707 89.7755 121.743 88.9336L121.946 88.9186ZM160.854 143.134C159.903 143.134 158.953 143.101 158.007 143.036C145.838 142.199 134.449 135.942 128.281 126.708C123.09 118.934 121.821 103.535 120.981 93.3479C120.929 92.7159 120.879 92.1088 120.831 91.5318C115.378 92.0314 109.874 90.0628 106.807 86.4255C103.129 82.0587 103.407 75.6459 107.436 71.8237C109.82 69.5654 114.489 66.7525 120.494 71.0843C120.514 64.5691 121.528 58.541 122.048 55.4482L122.086 55.2209C122.405 53.3298 122.665 51.2613 122.94 49.0729C124.004 40.5917 125.213 30.9787 130.587 27.5263C134.109 25.2629 141.199 23.2994 145.433 22.1253L145.9 21.9954C150.397 20.7488 155.743 21.9229 160.909 23.0621C164.424 23.834 167.732 24.5934 170.657 24.536L170.885 24.5335C177.252 24.5335 184.477 27.0917 192.364 32.1379C201.377 37.9037 200.76 57.8041 200.545 61.7337C200.188 68.2913 200.74 74.9889 201.275 81.4641C201.694 86.5229 202.124 91.7516 202.129 96.9303C202.142 111.564 198.247 123.041 190.555 131.038C183.245 138.632 172.074 143.134 160.854 143.134Z" fill="black"/>
<path d="M107.072 49.6755C108.236 43.1353 109.667 35.301 112.63 29.4128C113.347 29.9375 114.484 29.9524 115.218 29.163C117.069 27.1695 118.531 24.7663 120.204 22.6103C121.791 20.5668 123.464 18.5958 125.218 16.7047C127.059 14.7187 129.02 12.905 131.024 11.1413C131.588 11.6884 132.385 11.9257 133.215 11.4536C138.001 8.72058 142.768 5.97011 147.782 3.71177L148.081 3.62931C153.168 2.44518 161.087 2.48264 166.243 2.23782C207.32 0.284252 218.887 16.5049 218.262 24.7563C217.875 29.8975 212.999 34.5291 208.46 33.1426C215.187 35.7582 218.969 44.9689 216.311 52.2635C213.653 59.5582 205.067 63.5327 198.487 60.515C194.18 58.5414 191.18 54.2995 187.09 50.0801C184.849 54.8566 182.888 57.105 178.054 56.338C173.22 55.5711 165.901 47.8293 165.096 42.5732C163.058 47.637 156.785 49.4706 151.711 47.4321C144.761 44.6367 142.89 41.0368 140.355 35.8132C138.513 40.8195 135.683 46.1031 130.14 49.7979C121.738 55.3987 106.984 50.1676 107.072 49.6755Z" fill="white"/>
<path d="M187.091 48.8506C187.42 48.8506 187.738 48.9855 187.972 49.2253C189.004 50.2896 189.961 51.3463 190.885 52.3706C193.626 55.4008 195.992 58.0189 198.999 59.3979C201.655 60.6145 204.9 60.5945 207.9 59.3404C211.293 57.9239 213.936 55.191 215.157 51.8434C217.581 45.1908 214.111 36.6571 208.015 34.2863C207.398 34.0465 207.083 33.362 207.298 32.7375C207.516 32.1129 208.188 31.7732 208.82 31.9655C210.254 32.4027 211.852 32.0904 213.326 31.0837C215.392 29.6722 216.849 27.1516 217.039 24.6634C217.266 21.6531 215.6 18.0008 212.579 14.8956C207.848 10.0292 195.542 2.08004 166.301 3.46652C165.159 3.51898 163.883 3.5614 162.534 3.60387C157.932 3.74876 152.209 3.93116 148.362 4.8255L148.207 4.87045C143.495 6.99889 138.899 9.62194 134.454 12.1601L133.822 12.5199C132.953 13.017 131.991 13.0619 131.137 12.6847C129.63 14.0262 127.824 15.7025 126.12 17.5411C124.397 19.3998 122.733 21.3608 121.174 23.3644C120.582 24.1288 120 24.9482 119.435 25.7401C118.411 27.1816 117.352 28.673 116.12 29.997C115.366 30.8114 114.272 31.1436 113.247 30.9738C110.757 36.4372 109.418 43.537 108.433 49.0405C111.334 50.2321 122.763 53.2399 129.458 48.7757C135.181 44.9585 137.759 39.3077 139.201 35.388C139.371 34.9259 139.8 34.6111 140.293 34.5861C140.787 34.5636 141.244 34.8334 141.459 35.2756C143.81 40.1145 145.509 43.612 152.171 46.29C156.373 47.9788 162.109 46.7022 163.958 42.1131C164.165 41.601 164.692 41.2862 165.239 41.3511C165.789 41.4161 166.228 41.8407 166.313 42.3878C167.028 47.0619 173.943 54.4415 178.247 55.1235C181.989 55.7181 183.651 54.519 185.976 49.5601C186.149 49.1929 186.489 48.9356 186.886 48.8681L187.091 48.8506ZM203.249 62.7554C201.405 62.7554 199.606 62.3806 197.975 61.6337C194.508 60.0449 191.862 57.117 189.062 54.0193C188.522 53.4247 187.972 52.8152 187.405 52.2056C185.22 56.3201 182.799 58.3337 177.862 57.5517C173.298 56.8298 167.07 50.8666 164.735 45.5456C161.739 49.1504 156.183 50.5543 151.255 48.5708C144.964 46.0427 142.548 42.8026 140.475 38.8205C138.761 42.7276 135.948 47.4017 130.822 50.8216C122.403 56.435 108.196 51.9233 106.515 50.8241C105.79 50.3495 105.818 49.7125 105.863 49.4577C106.945 43.3696 108.428 35.0283 111.531 28.8603C111.694 28.5356 111.991 28.3007 112.343 28.2158C112.693 28.1308 113.065 28.2058 113.357 28.4206C113.572 28.578 114.012 28.653 114.319 28.3232C115.441 27.1166 116.453 25.6927 117.432 24.3162C118.011 23.5018 118.608 22.6599 119.233 21.858C120.834 19.7945 122.546 17.781 124.317 15.8699C126.37 13.654 128.546 11.6855 130.212 10.2166C130.692 9.79187 131.422 9.80934 131.881 10.259C132.231 10.5963 132.473 10.4589 132.603 10.3839L133.233 10.0242C137.754 7.44359 142.431 4.77555 147.277 2.59216L147.48 2.5197L147.567 2.4947L147.802 2.42974C151.887 1.48044 157.747 1.2956 162.456 1.14571C163.793 1.10324 165.054 1.06326 166.186 1.0083C196.389 -0.433136 209.322 8.01814 214.341 13.1793C217.898 16.8367 219.774 21.091 219.489 24.8483C219.244 28.1034 217.413 31.2711 214.713 33.1147C214.023 33.5868 213.306 33.9491 212.579 34.1989C217.538 38.3883 219.839 46.1726 217.466 52.6853C216.014 56.6774 212.872 59.93 208.847 61.6113C207.021 62.3732 205.112 62.7554 203.249 62.7554Z" fill="black"/>
<path d="M187.888 78.1643C188.127 76.7254 187.146 75.3589 185.692 75.1091C184.238 74.8617 182.866 75.8285 182.624 77.265C182.384 78.7064 183.366 80.0729 184.82 80.3202C186.271 80.5675 187.645 79.6033 187.888 78.1643Z" fill="black"/>
<path d="M150.62 78.3421C150.86 76.9031 149.878 75.5341 148.424 75.2868C146.97 75.0395 145.599 76.0037 145.356 77.4427C145.117 78.8816 146.098 80.2481 147.552 80.4979C149.006 80.7453 150.378 79.781 150.62 78.3421Z" fill="black"/>
<path d="M159.733 124.705C155.374 124.705 151.067 122.589 148.424 118.972C148.024 118.425 148.144 117.655 148.691 117.256C149.241 116.853 150.007 116.973 150.41 117.523C153.06 121.15 157.737 122.949 162.039 121.997C162.701 121.852 163.36 122.269 163.505 122.931C163.652 123.593 163.233 124.25 162.571 124.398C161.634 124.605 160.68 124.705 159.733 124.705Z" fill="black"/>
<path d="M166.885 110.453C165.983 110.453 165.111 110.363 164.274 110.183C161.414 109.574 159.018 107.888 157.699 105.557C157.365 104.967 157.572 104.215 158.161 103.88C158.754 103.546 159.503 103.753 159.838 104.345C160.797 106.039 162.648 107.323 164.789 107.78C166.693 108.187 168.869 108.012 171.252 107.26C172.046 107.008 172.936 106.668 173.503 106.059C174.205 105.304 174.504 104.018 174.305 102.619C174.132 101.412 173.66 100.253 173.158 99.024L172.918 98.427C169.993 91.1098 168.709 83.0458 169.206 75.1017C169.248 74.4247 169.833 73.905 170.51 73.9525C171.187 73.9949 171.702 74.577 171.659 75.2565C171.187 82.8359 172.411 90.5353 175.201 97.5152L175.436 98.0972C175.971 99.4088 176.523 100.765 176.738 102.269C177.048 104.43 176.525 106.419 175.304 107.733C174.35 108.762 173.095 109.256 171.994 109.604C170.203 110.168 168.494 110.453 166.885 110.453Z" fill="black"/>
<path d="M122.313 81.2939C121.691 81.2939 121.159 80.8218 121.092 80.1897C120.822 77.5791 120.722 76.1702 120.542 73.617C120.492 72.94 121.004 72.3505 121.681 72.303C122.353 72.248 122.945 72.7652 122.993 73.4422C123.173 75.9703 123.273 77.3643 123.54 79.9374C123.607 80.6119 123.118 81.2165 122.443 81.2864L122.313 81.2939Z" fill="black"/>
<path d="M197.256 65.4609C197.128 65.4609 196.996 65.4534 196.863 65.4384C194.937 64.9113 193.386 63.4399 191.84 62.1983C190.078 60.6195 188.38 58.9632 186.713 57.277C186.126 57.9415 185.502 58.566 184.8 59.0981C183.473 59.98 181.959 60.3497 180.43 60.3497C178.839 60.3497 177.23 59.95 175.794 59.3154C173.046 58.1213 172.022 57.162 170.48 55.9529C168.976 54.6614 167.555 53.2574 166.326 51.6786C165.641 52.7853 164.779 53.777 163.753 54.539C162.406 55.4708 160.79 56.0629 159.176 56.0629C159.069 56.0629 158.964 56.0604 158.856 56.0554L159.079 56.0803L158.569 56.0903C156.391 56.0529 154.29 55.3809 152.284 54.564C149.358 53.3574 146.588 51.6561 144.317 49.3803C142.926 47.9139 141.644 46.2875 140.795 44.4114C140.735 44.254 140.712 44.1941 140.71 44.1941C140.705 44.1941 140.795 44.4389 140.88 44.6013C140.507 43.9193 140.188 43.2048 139.88 42.4853C139.7 42.0681 139.478 41.626 139.583 41.1538C139.64 40.2894 140.197 39.7399 140.859 39.5425C142.861 43.1973 145.349 46.1976 151.254 48.5708C152.781 49.1854 154.367 49.4752 155.918 49.4752C158.179 49.4752 160.368 48.8607 162.189 47.739L162.261 47.709C162.506 47.5741 162.778 47.5067 163.053 47.5067C163.143 47.5067 163.231 47.5141 163.32 47.5291L163.57 47.4192L163.633 47.2743L163.658 47.1794L163.585 46.7172C164 46.3575 164.385 45.9678 164.734 45.5456C167.07 50.8667 173.298 56.8298 177.862 57.5518C178.564 57.6642 179.216 57.7191 179.823 57.7191C183.483 57.7166 185.529 55.7356 187.405 52.2057C187.972 52.8152 188.522 53.4248 189.062 54.0193C191.862 57.1171 194.508 60.0449 197.975 61.6337C198.012 61.6487 198.05 61.6663 198.087 61.6837C198.022 62.9153 197.987 64.1469 197.977 65.381C197.75 65.4334 197.51 65.4609 197.256 65.4609Z" fill="#DEDEDE"/>
<path d="M197.978 65.3809C197.988 64.1468 198.023 62.9152 198.088 61.6836C198.794 61.9984 199.534 62.2457 200.293 62.4206C200.233 63.7796 199.377 65.0536 197.978 65.3809Z" fill="black"/>
<path d="M198.412 59.1108C196.084 57.8867 194.118 55.9107 192.004 53.6024C192.147 53.7323 192.291 53.8547 192.441 53.9671C194.337 55.8057 196.396 57.4271 198.412 59.1108ZM178.007 55.0788C176.825 54.8315 175.469 54.112 174.107 53.1052C175.157 53.7997 176.563 54.5841 178.007 55.0788ZM151.499 46.0104C149.733 45.246 148.339 44.4166 147.192 43.5123C148.376 44.0594 148.304 44.3467 149.385 44.8563C150.21 45.321 150.894 45.6982 151.499 46.0104Z" fill="#DEDEDE"/>
<path d="M200.293 62.4204C199.534 62.2455 198.794 61.9982 198.087 61.6835C198.05 61.666 198.012 61.6484 197.975 61.6335C194.508 60.0446 191.862 57.1168 189.062 54.0191C188.522 53.4245 187.972 52.8149 187.405 52.2054C185.529 55.7353 183.483 57.7164 179.823 57.7189C179.216 57.7189 178.564 57.6639 177.862 57.5515C173.298 56.8295 167.07 50.8664 164.734 45.5453C164.385 45.9675 164 46.3572 163.585 46.7169L163.583 46.6994C163.513 45.5927 164.495 44.521 165.541 44.521C165.629 44.521 165.719 44.5286 165.806 44.5435C166.96 44.5985 167.68 45.7726 167.785 46.9068C168.01 47.274 168.254 47.6288 168.517 47.971C169.618 49.2251 170.845 50.3593 172.062 51.4909C172.294 51.7083 172.946 52.2454 173.053 52.3503L173.213 52.4752C173.468 52.6676 173.768 52.8824 174.108 53.1048C175.469 54.1115 176.826 54.831 178.007 55.0783C178.587 55.2781 179.171 55.4305 179.741 55.513L179.778 55.518C179.901 55.523 180.026 55.5255 180.151 55.5255C180.6 55.5255 181.052 55.488 181.502 55.4206L182.012 55.2681L182.244 55.1407L182.776 54.7486L182.911 54.6212L183.086 54.4263C183.558 54.3439 184.025 54.179 184.437 53.9342C184.325 52.1829 185.622 50.3618 187.425 50.3618C187.72 50.3618 188.03 50.4092 188.347 50.5166C189.836 51.0063 190.818 52.5277 192.004 53.6019C194.118 55.9102 196.084 57.8862 198.412 59.1103C198.575 59.2427 198.734 59.3776 198.894 59.5125C199.914 60.267 200.341 61.3687 200.293 62.4204ZM155.918 49.4749C154.367 49.4749 152.781 49.1851 151.254 48.5705C145.349 46.1973 142.861 43.197 140.859 39.5422C141.042 39.4898 141.229 39.4623 141.419 39.4623C141.424 39.4623 141.429 39.4623 141.437 39.4623C142.094 40.2042 142.778 40.9187 143.48 41.6157C143.555 41.7781 143.682 42.0254 143.982 42.595C144.157 42.8823 144.347 43.1621 144.537 43.4394C144.904 43.217 145.336 43.0796 145.826 43.0796C145.946 43.0796 146.068 43.0871 146.193 43.1046C146.605 43.257 146.93 43.3894 147.192 43.5118C148.339 44.4161 149.733 45.2455 151.499 46.0099C153.458 47.0242 154.572 47.364 156.905 47.8611C157.635 47.951 158.179 48.3307 158.542 48.8429C159.406 48.668 160.717 48.3058 161.822 47.8911L162.189 47.7387C160.368 48.8604 158.179 49.4749 155.918 49.4749Z" fill="black"/>
<path d="M105.476 52.6831C105.84 51.9986 106.405 51.7937 107.025 51.7937C107.1 51.7937 107.174 51.7963 107.252 51.8037C106.652 52.0411 106.06 52.3359 105.476 52.6831Z" fill="#DEDEDE"/>
<path d="M159.9 167.381C159.595 167.064 159.318 166.696 159.031 166.402C156.73 164.268 154.419 162.05 152.106 159.744C143.312 150.988 135.651 142.157 128.978 133.561C128.918 133.511 128.861 133.456 128.808 133.401C129.388 132.257 129.97 131.098 130.557 129.918C131.106 130.508 131.686 131.065 132.291 131.592C138.766 138.105 148.131 142.357 158.007 143.036C158.953 143.101 159.903 143.134 160.855 143.134C163.39 143.134 165.926 142.904 168.411 142.459C166.543 148.997 164.882 155.607 163.438 162.257C162.388 163.928 161.197 165.652 159.9 167.381Z" fill="#DEDEDE"/>
<path d="M163.438 162.258C164.882 155.608 166.544 148.998 168.412 142.46C168.602 142.427 168.792 142.392 168.982 142.355C168.652 143.624 168.225 145.265 168.09 145.787C165.794 154.623 164.647 159.055 164.615 159.645C164.58 160.304 164.57 160.921 164.55 161.503C164.51 161.506 164.47 161.508 164.43 161.513C164.068 161.563 163.743 161.771 163.551 162.083C163.513 162.14 163.476 162.2 163.438 162.258ZM128.809 133.402C127.512 132.06 128.591 129.694 130.288 129.694C130.308 129.694 130.33 129.694 130.35 129.694C130.42 129.769 130.49 129.847 130.557 129.919C129.97 131.098 129.388 132.257 128.809 133.402Z" fill="black"/>
<path d="M160.855 143.134C159.903 143.134 158.954 143.101 158.007 143.036C148.132 142.357 138.766 138.105 132.291 131.592C133.085 132.282 133.927 132.921 134.802 133.518L134.987 133.718L135.056 133.693C138.429 135.942 142.264 137.575 145.958 138.987C146.673 139.297 147.39 139.589 148.109 139.854C148.109 139.854 148.886 140.136 149.688 140.383C150.732 140.703 155.337 141.055 162.047 141.055C164.27 141.055 166.721 141.018 169.354 140.925C169.284 141.188 169.144 141.725 168.982 142.354C168.792 142.392 168.602 142.427 168.412 142.459C165.926 142.904 163.391 143.134 160.855 143.134Z" fill="black"/>
<path d="M164.592 162.732C158.894 171.86 148.07 183.931 138.674 187.589C142.469 192.647 146.983 200.327 155.209 209.655C161.912 192.582 167.003 184.823 171.637 171.363C169.751 169.222 167.018 164.985 164.592 162.732Z" fill="white"/>
<path d="M140.577 188.106C141.429 189.293 142.321 190.592 143.312 192.033C146.215 196.258 149.77 201.434 154.811 207.324C157.664 200.22 160.252 194.686 162.561 189.755C165.404 183.679 167.872 178.406 170.245 171.623C169.613 170.856 168.916 169.929 168.189 168.963C167.112 167.529 165.926 165.95 164.794 164.696C158.843 173.762 149.111 184.096 140.577 188.106ZM155.209 210.884C154.859 210.884 154.522 210.734 154.284 210.467C148.439 203.837 144.472 198.064 141.284 193.425C139.947 191.479 138.793 189.8 137.689 188.326C137.459 188.019 137.384 187.621 137.492 187.252C137.597 186.882 137.869 186.582 138.229 186.442C146.995 183.032 157.602 171.606 163.55 162.083C163.742 161.77 164.067 161.563 164.429 161.513C164.794 161.463 165.159 161.583 165.429 161.833C167.01 163.299 168.681 165.523 170.155 167.486C171.037 168.66 171.871 169.77 172.558 170.549C172.851 170.879 172.943 171.343 172.801 171.761C170.313 178.99 167.752 184.461 164.787 190.797C162.296 196.12 159.473 202.156 156.353 210.105C156.195 210.502 155.843 210.792 155.421 210.867L155.209 210.884Z" fill="black"/>
<path d="M111.049 52.3304C116.141 50.3643 122.046 52.7476 125.639 56.9195C129.233 61.094 130.882 66.7148 131.767 72.2682C132.603 77.5294 132.826 83.0228 131.347 88.1566C129.868 93.2878 126.483 98.0368 121.724 100.078C115.224 102.866 107.402 99.9254 102.92 94.372C98.4361 88.821 96.8698 81.2167 97.0371 73.922C97.1471 69.0107 98.0189 63.9918 100.445 59.7524C102.873 55.513 107.04 52.1555 111.049 52.3304Z" fill="#ACD4F7"/>
<path d="M110.75 53.5543C107.545 53.5543 103.865 56.2548 101.511 60.3618C99.4805 63.9092 98.3888 68.4808 98.2664 73.9493C98.1365 79.5852 99.0083 87.5693 103.877 93.5998C108.324 99.1083 115.626 101.357 121.239 98.9484C125.326 97.1947 128.661 93.0328 130.165 87.8141C131.392 83.5597 131.517 78.5384 130.553 72.4604C129.493 65.8078 127.637 61.1262 124.707 57.7212C121.152 53.5918 115.719 51.8481 111.494 53.4794L110.997 53.5593L110.75 53.5543ZM116.453 102.358C111.187 102.358 105.683 99.7528 101.964 95.1462C96.6276 88.5361 95.6707 79.9399 95.8056 73.8943C95.9405 68.0112 97.1422 63.0473 99.378 59.1402C102.198 54.2138 106.628 51.0961 110.75 51.0961H110.845C115.986 49.2475 122.416 51.2885 126.571 56.1174C129.811 59.8822 131.847 64.9509 132.981 72.0757C134.005 78.5159 133.855 83.887 132.529 88.4961C130.825 94.4142 126.965 99.1683 122.209 101.209C120.398 101.986 118.442 102.358 116.453 102.358Z" fill="black"/>
<path d="M166.243 2.23779C160.542 2.47262 144.032 10.3444 139.79 14.7811C132.548 22.3605 125.436 30.6544 121.761 41.0917C118.553 50.205 118.216 60.2352 117.599 70.023C117.417 72.9009 117.187 75.8636 116.033 78.4318C114.881 81.0024 112.565 83.1033 110.074 82.8785C107.824 82.6737 105.96 80.6152 105.066 78.2295C104.169 75.8462 104.071 73.1681 104.061 70.56C103.996 53.9448 107.202 36.7874 115.783 23.3548C124.362 9.92465 150.64 -2.40379 166.243 2.23779Z" fill="#ACD4F7"/>
<path d="M158.764 2.46465C143.615 2.46465 123.737 13.1893 116.82 24.0163C107.2 39.0702 105.241 57.634 105.291 70.5545C105.301 72.9977 105.381 75.5709 106.218 77.7968C107.03 79.9627 108.623 81.5115 110.185 81.6514C112.201 81.8438 114.049 79.8502 114.914 77.9291C115.941 75.6383 116.183 72.9578 116.373 69.945L116.535 67.2645C117.075 58.3485 117.629 49.1253 120.602 40.684C124.327 30.1043 131.599 21.5756 138.901 13.9312C142.266 10.4113 152.539 5.0627 159.993 2.48959C159.589 2.47211 159.179 2.46465 158.764 2.46465ZM110.45 84.1221L109.965 84.1021C107.404 83.8698 105.086 81.7863 103.914 78.6611C102.935 76.053 102.843 73.2301 102.833 70.5645C102.78 57.3143 104.806 38.2508 114.746 22.6923C123.433 9.09476 150.135 -3.83825 166.593 1.05815C167.17 1.23052 167.538 1.79263 167.463 2.38969C167.39 2.98676 166.896 3.44143 166.294 3.46642C160.985 3.68626 144.707 11.4156 140.68 15.63C132.458 24.2336 126.293 31.923 122.923 41.4984C120.063 49.6175 119.518 58.6658 118.991 67.4119L118.826 70.0999C118.621 73.3575 118.354 76.2703 117.155 78.9359C115.971 81.5764 113.467 84.1221 110.45 84.1221Z" fill="black"/>
<path d="M153.515 212.976C152.953 212.976 152.381 212.788 151.864 212.351C146.233 208.179 138.864 197.564 136.321 194.414L136.141 194.274C135.816 194.122 135.274 193.865 134.957 193.785L134.829 193.742L134.342 193.622L134.32 193.617C134.025 193.727 133.733 193.852 133.453 194.002L133.108 194.194C131.844 194.979 130.58 195.773 129.386 196.67C127.727 197.964 126.078 199.278 124.177 200.165C122.611 200.947 120.987 201.599 119.428 202.396C118.289 202.94 117.107 203.732 115.843 203.797C115.786 203.802 115.726 203.805 115.671 203.805C115.331 203.805 115.014 203.722 114.734 203.583C114.742 203.578 114.749 203.57 114.754 203.565C121.529 198.356 127.43 193.065 133.121 187.934C134.734 188.369 136.398 188.681 138.094 188.871C139.076 190.21 140.11 191.716 141.284 193.425C144.472 198.064 148.439 203.837 154.285 210.467C154.522 210.735 154.86 210.885 155.209 210.885L155.422 210.867C155.844 210.792 156.196 210.502 156.353 210.105C156.398 209.985 156.446 209.868 156.491 209.753C156.618 211.439 155.114 212.976 153.515 212.976Z" fill="#96B9D7"/>
<path d="M138.094 188.87C136.397 188.68 134.734 188.368 133.12 187.933C133.335 187.741 133.55 187.546 133.764 187.354C133.874 187.251 133.964 187.136 134.029 187.009C134.184 186.997 134.339 186.991 134.494 186.991C134.689 186.991 134.886 187.001 135.081 187.021C135.905 187.159 136.7 187.431 137.459 187.788C137.492 187.981 137.569 188.166 137.689 188.326C137.824 188.505 137.959 188.685 138.094 188.87Z" fill="black"/>
<path d="M114.701 200.494C114.571 200.027 114.441 199.56 114.311 199.09C115.148 198.423 116.275 198.188 117.154 197.574C118.104 196.727 120.592 195.413 123.052 193.584C120.389 195.89 117.621 198.201 114.701 200.494Z" fill="#DEDEDE"/>
<path d="M114.734 203.582C113.395 202.91 112.801 200.869 113.845 199.552C113.987 199.375 114.145 199.222 114.312 199.09C114.442 199.56 114.572 200.027 114.702 200.494C117.622 198.201 120.39 195.89 123.053 193.584C123.62 193.164 124.187 192.717 124.732 192.24C126.631 190.731 128.642 189.384 130.703 188.138C131.724 187.528 132.863 187.101 134.03 187.009C133.965 187.136 133.875 187.251 133.765 187.353C133.55 187.546 133.336 187.741 133.121 187.933C127.43 193.064 121.529 198.355 114.754 203.564C114.749 203.569 114.742 203.577 114.734 203.582Z" fill="black"/>
<path d="M154.812 207.324C154.697 207.189 154.585 207.057 154.47 206.925C154.6 207.019 154.73 207.112 154.857 207.207C154.842 207.247 154.827 207.284 154.812 207.324Z" fill="#DEDEDE"/>
<path d="M155.209 210.884C154.86 210.884 154.522 210.734 154.285 210.467C148.439 203.837 144.472 198.064 141.285 193.425C140.111 191.716 139.076 190.209 138.095 188.87C137.96 188.686 137.825 188.506 137.69 188.326C137.57 188.166 137.492 187.981 137.46 187.789C138.267 188.168 139.034 188.648 139.753 189.168C140.698 190 141.32 191.096 142.019 192.138C144.387 195.431 146.858 198.643 149.506 201.696C151.655 204.277 152.229 204.976 153.795 206.36C154 206.565 154.233 206.747 154.47 206.925C154.585 207.057 154.697 207.189 154.812 207.324C154.827 207.284 154.842 207.247 154.857 207.207C155.344 207.567 155.809 207.944 156.079 208.496C156.331 208.911 156.461 209.335 156.491 209.753C156.446 209.868 156.399 209.985 156.354 210.105C156.196 210.502 155.844 210.792 155.422 210.867L155.209 210.884Z" fill="black"/>
<path d="M62.4601 286.514C60.4765 315.595 60.1118 327.661 60.1118 327.661C60.1118 327.661 169.599 336.952 194.118 336.872C208.937 336.825 237.924 368.152 236.015 373.667C234.269 378.726 210.784 355.463 202.462 351.129C216.867 362.85 234.531 382.273 229.36 385.594C226.889 387.18 214.491 367.527 197.256 359.847C212.182 368.249 230.729 388.352 225.155 391.3C221.008 393.492 205.138 372.703 191.55 366.453C195.62 371.794 217.678 386.925 214.024 390.413C210.306 393.96 197.468 385.599 185.43 377.754C178.08 372.965 163.778 370.752 148.794 370.935C121.339 371.266 20.526 391.779 7.4156 366.381C-1.8301 348.471 4.35534 311.803 7.77782 284.448C25.962 280.471 54.0713 284.091 62.4601 286.514Z" fill="white"/>
<path d="M191.55 365.22L192.062 365.335C199.107 368.575 206.769 375.642 212.927 381.321C217.056 385.13 223.297 390.908 224.581 390.212C224.758 390.117 224.933 389.984 224.938 389.485C225.005 384.413 210.116 368.498 196.654 360.916C196.082 360.596 195.864 359.881 196.159 359.295C196.454 358.708 197.158 358.458 197.758 358.722C208.535 363.526 217.361 372.809 223.202 378.952C225.408 381.273 227.888 383.884 228.888 384.384C228.97 384.269 229.03 384.101 229.047 383.832C229.31 379.17 216.012 363.739 201.688 352.08C201.198 351.683 201.088 350.978 201.435 350.451C201.783 349.924 202.472 349.744 203.032 350.036C206.324 351.753 211.688 356.15 217.369 360.804C223.054 365.462 232.455 373.169 234.806 373.169L234.873 373.167C234.953 372.524 234.354 370.489 231.511 366.511C223.224 354.918 204.561 338.1 194.153 338.1L193.811 338.103C168.924 338.103 61.0985 328.977 60.0068 328.887C59.3573 328.832 58.8627 328.275 58.8826 327.623C58.8851 327.503 59.2623 315.487 61.1659 287.438C52.5947 285.267 26.6838 281.862 8.88688 285.469C8.55462 288.107 8.19739 290.828 7.83266 293.605C4.53258 318.797 0.420597 350.151 8.50715 365.818C18.0052 384.214 77.8711 377.244 117.487 372.635C130.622 371.106 141.964 369.787 148.779 369.704C165.087 369.487 179.054 372.13 186.102 376.725C196.254 383.34 210.156 392.403 213.174 389.523L213.199 389.408C213.127 386.985 205.073 380.166 199.744 375.658C195.627 372.178 192.075 369.17 190.571 367.196C190.229 366.747 190.236 366.122 190.588 365.683C190.828 365.382 191.185 365.22 191.55 365.22ZM224.428 392.705C222.135 392.705 218.967 390.165 213.831 385.491C214.985 386.974 215.625 388.248 215.657 389.333C215.68 390.107 215.41 390.786 214.87 391.301C210.756 395.23 200.276 388.895 184.758 378.783C178.102 374.446 164.665 371.965 148.809 372.162C142.121 372.245 130.837 373.557 117.772 375.078C75.0732 380.047 16.5987 386.852 6.32126 366.944C-2.11754 350.596 1.87454 320.148 5.39695 293.286C5.79915 290.205 6.19384 287.198 6.55607 284.295C6.62102 283.778 7.00576 283.358 7.51289 283.246C26.4565 279.104 55.1104 283.111 62.8022 285.332C63.3568 285.494 63.7266 286.019 63.6866 286.598C62.0653 310.368 61.5232 322.866 61.3833 326.534C73.1871 327.528 170.413 335.642 193.806 335.642H194.153C206.347 335.642 225.952 354.506 233.512 365.083C238.076 371.468 237.399 373.424 237.177 374.068C236.927 374.795 236.392 375.311 235.673 375.512C233.259 376.195 228.803 373.189 220.541 366.554C226.909 373.544 231.708 380.307 231.503 383.969C231.421 385.435 230.651 386.224 230.022 386.629C228.978 387.299 227.826 386.837 226.142 385.383C226.961 386.969 227.414 388.376 227.399 389.515C227.381 390.806 226.789 391.826 225.73 392.385C225.328 392.598 224.896 392.705 224.428 392.705Z" fill="black"/>
<path d="M199.009 290.044L198.874 290.036C198.2 289.964 197.713 289.354 197.785 288.68C199.407 273.881 201.857 259.002 205.067 244.455C205.212 243.793 205.869 243.371 206.531 243.521C207.196 243.666 207.613 244.323 207.468 244.985C204.278 259.444 201.842 274.236 200.231 288.947C200.161 289.579 199.629 290.044 199.009 290.044Z" fill="black"/>
<path d="M68.9525 290.121L68.373 289.976C63.6765 287.465 55.1102 286.251 55.0228 286.238C54.3508 286.144 53.8811 285.521 53.9761 284.849C54.0685 284.177 54.6905 283.71 55.3626 283.803C55.6973 283.85 62.8746 284.867 68.0033 287.075C68.443 284.327 68.6353 282.729 68.8102 281.292C69.2499 277.64 69.5696 275.004 73.2919 257.902C73.4368 257.237 74.0938 256.818 74.7558 256.962C75.4178 257.107 75.84 257.762 75.6951 258.426C71.9978 275.411 71.6831 278.002 71.2509 281.587C71.0435 283.308 70.8062 285.262 70.1667 289.094C70.0992 289.486 69.8519 289.821 69.4947 289.996L68.9525 290.121Z" fill="black"/>
<path d="M60.1112 328.889L59.9838 328.884C58.6773 328.747 57.5006 328.622 56.2091 328.482C54.6552 328.315 52.9315 328.127 50.6082 327.887C49.9312 327.817 49.4416 327.213 49.5115 326.538C49.5815 325.861 50.181 325.372 50.8605 325.442C53.1888 325.682 54.915 325.869 56.4739 326.036C57.7604 326.176 58.9346 326.304 60.2361 326.436C60.9131 326.506 61.4027 327.11 61.3353 327.787C61.2678 328.419 60.7333 328.889 60.1112 328.889Z" fill="black"/>
<path d="M204.466 56.4072C202.365 56.4072 200.132 55.7452 198.061 54.4737C195.38 52.8299 193.254 50.4291 191.473 48.3082L191.523 47.7311L192.1 47.7811C193.841 49.852 195.915 52.1953 198.488 53.7767C201.203 55.4404 204.196 55.9925 206.702 55.2881L207.209 55.5728L206.924 56.0775C206.14 56.2973 205.313 56.4072 204.466 56.4072Z" fill="black"/>
<path d="M175.829 51.144L175.557 51.0416C172.981 48.7633 170.978 45.8629 169.756 42.6503L169.996 42.1207L170.523 42.358C171.695 45.4483 173.626 48.2387 176.099 50.4271L176.136 51.0042L175.829 51.144Z" fill="black"/>
<path d="M114.534 96.6406L114.124 96.2509C114.114 96.0236 114.287 95.8312 114.514 95.8212C118.528 95.6164 122.518 92.6061 124.442 88.3292C126.03 84.7968 126.435 80.5225 125.683 75.2638C124.941 70.0851 123.317 65.1188 120.857 60.5047L121.027 59.9476L121.581 60.1175C124.087 64.8165 125.738 69.8728 126.495 75.1464C127.272 80.5649 126.842 84.9867 125.189 88.6664C123.11 93.2856 118.938 96.4158 114.554 96.6381L114.534 96.6406Z" fill="black"/>
<path d="M107.881 94.6318L107.559 94.477L104.126 90.1851L104.191 89.6105L104.768 89.6755L108.201 93.9648L108.136 94.5419L107.881 94.6318Z" fill="black"/>
<path d="M101.513 182.865L101.131 182.602C98.7779 176.4 97.6937 169.62 97.996 162.994C98.0085 162.767 98.2058 162.582 98.4257 162.605C98.6505 162.612 98.8254 162.805 98.8154 163.032C98.5181 169.547 99.5824 176.215 101.896 182.31L101.658 182.84L101.513 182.865Z" fill="black"/>
<path d="M92.6922 172.899L92.285 172.54L91.1409 163.391L91.4981 162.934C91.7254 162.902 91.9278 163.064 91.9553 163.289L93.0995 172.437L92.7422 172.897L92.6922 172.899Z" fill="black"/>
<path d="M63.4161 290.605C63.4711 289.789 63.526 288.957 63.5835 288.11C63.8083 288.175 64.0332 288.245 64.2555 288.315C64.353 289.147 64.0906 290.016 63.4161 290.605Z" fill="#96B9D7"/>
<path d="M60.9132 291.197C60.2412 291.075 59.5692 290.82 58.9397 290.633C52.1547 289.169 46.6113 288.802 38.5872 288.11C33.9656 287.66 29.4588 287.375 25.117 287.375C19.8584 287.375 14.8371 287.795 10.1406 288.864C9.91572 288.931 9.69591 288.964 9.48107 288.964C9.12133 288.964 8.77908 288.876 8.4718 288.719C8.6117 287.625 8.75157 286.541 8.88647 285.469C14.5098 284.33 20.9426 283.89 27.3829 283.89C37.5054 283.89 47.648 284.977 54.6878 286.141C54.7927 286.188 54.9051 286.221 55.0225 286.238C55.0725 286.243 57.8854 286.643 61.163 287.453C61.0756 288.734 60.9932 289.981 60.9132 291.197Z" fill="#DEDEDE"/>
<path d="M61.6452 291.27C61.4029 291.27 61.1581 291.242 60.9132 291.197C60.9932 289.98 61.0756 288.734 61.1631 287.452C61.955 287.647 62.7719 287.865 63.5838 288.109C63.5263 288.956 63.4714 289.788 63.4164 290.605C63.2865 290.72 63.1391 290.822 62.9767 290.915C62.552 291.172 62.1023 291.27 61.6452 291.27ZM8.47182 288.719C7.28519 288.122 6.59568 286.543 7.3851 285.281C8.40435 283.62 11.0174 283.912 12.7361 283.48C16.958 282.846 21.2149 282.419 25.4893 282.364C26.0064 282.356 26.526 282.354 27.0456 282.354C32.4092 282.354 37.7552 282.746 43.0913 283.275C46.7761 283.525 50.4484 283.912 54.0957 284.467C54.0358 284.584 53.9933 284.712 53.9758 284.849C53.8984 285.404 54.2032 285.923 54.6878 286.141C47.648 284.977 37.5055 283.89 27.3829 283.89C20.9426 283.89 14.5099 284.33 8.88649 285.469C8.75159 286.541 8.61172 287.625 8.47182 288.719Z" fill="black"/>
<path d="M64.2558 288.314C64.0335 288.245 63.8086 288.175 63.5838 288.11C62.7719 287.865 61.955 287.647 61.1631 287.453C57.8855 286.643 55.0725 286.243 55.0226 286.238C54.9052 286.221 54.7928 286.188 54.6879 286.141C54.2032 285.924 53.8984 285.404 53.9759 284.849C53.9933 284.712 54.0358 284.585 54.0958 284.467C56.7663 284.874 59.4269 285.369 62.0674 285.964C63.3515 286.156 64.1259 287.198 64.2558 288.314Z" fill="black"/>
<path d="M51.4981 377.854C39.9891 377.854 29.6042 376.992 21.7924 374.706C19.7364 374.014 17.703 373.25 15.7319 372.371C12.3869 370.674 9.90367 368.518 8.50719 365.818C8.08501 364.996 7.69281 364.132 7.33557 363.23C7.6978 362.98 8.1275 362.827 8.59966 362.827C8.73955 362.827 8.88444 362.843 9.03183 362.87C10.0786 362.932 10.7531 363.889 11.61 364.391C12.9315 365.313 14.4104 365.972 15.8518 366.683C24.5005 370.824 35.8596 373.46 46.3344 373.46C46.6867 373.46 47.0414 373.457 47.3911 373.452C48.2155 373.455 49.0374 373.455 49.8593 373.455C60.1492 373.455 70.4616 373.274 80.7191 372.496C87.4442 371.891 94.1692 371.281 100.884 370.592C103.033 370.362 107.257 369.645 111.109 369.645C111.491 369.645 111.871 369.65 112.243 369.668C115.891 369.815 119.543 369.855 123.193 369.855C123.388 369.855 123.583 369.855 123.777 369.855C123.862 369.857 123.947 369.86 124.032 369.86C124.554 369.86 125.091 369.799 125.629 369.74C126.163 369.681 126.703 369.62 127.227 369.62C127.799 369.62 128.357 369.69 128.884 369.907C129.366 370.19 129.708 370.687 129.826 371.226C125.973 371.649 121.829 372.131 117.487 372.635C97.6142 374.949 72.6475 377.854 51.4981 377.854Z" fill="#DEDEDE"/>
<path d="M49.9818 378.728C42.882 378.728 35.7772 378.456 28.8273 376.837C26.489 376.18 24.1257 375.49 21.7925 374.706C29.6042 376.992 39.9891 377.854 51.4982 377.854C72.6476 377.854 97.6142 374.949 117.487 372.635C121.829 372.13 125.973 371.648 129.826 371.226C129.908 371.613 129.878 372.023 129.698 372.388C129.268 373.657 127.837 373.647 126.718 373.654C125.141 373.774 123.565 373.95 121.981 373.95C121.906 373.95 121.831 373.95 121.754 373.95C115.886 373.989 110.015 374.354 104.154 374.693C92.2507 375.91 89.3304 376.272 78.1236 377.599C72.87 378.166 62.0104 378.541 54.436 378.703C52.9521 378.716 51.4682 378.728 49.9818 378.728ZM15.732 372.37C12.5943 370.968 9.60898 369.275 6.92346 367.112C5.69686 365.96 6.14401 364.053 7.33563 363.23C7.69287 364.132 8.08506 364.996 8.50725 365.818C9.90373 368.518 12.3869 370.673 15.732 372.37Z" fill="black"/>
<path d="M200.788 297.785C200.366 297.221 199.941 296.646 199.519 296.069C199.891 292.157 200.303 288.974 200.756 286.503C211.882 275.064 229.737 263.435 243.612 256.74C244.031 257.807 244.449 258.859 244.866 259.898C244.154 260.59 243.052 260.815 242.25 261.414C234.833 265.694 227.391 269.981 220.381 274.912C214.913 278.887 204.063 287.428 202.772 295.679C202.477 296.796 201.697 297.493 200.788 297.785Z" fill="#DEDEDE"/>
<path d="M199.744 297.947C199.614 297.947 199.481 297.94 199.349 297.925C199.404 297.288 199.461 296.671 199.519 296.069C199.941 296.646 200.366 297.22 200.788 297.785C200.451 297.895 200.098 297.947 199.744 297.947ZM244.865 259.898C244.448 258.859 244.031 257.807 243.611 256.74C244.009 256.548 244.406 256.36 244.795 256.175C245.71 257.017 246.072 258.456 245.113 259.618C245.038 259.72 244.955 259.813 244.865 259.898Z" fill="black"/>
<path d="M197.006 296.434C196.819 296.097 196.694 295.705 196.649 295.26C196.539 293.626 197.131 291.97 197.668 290.411C197.433 292.202 197.213 294.208 197.006 296.434ZM208.228 276.406C209.584 275.25 210.991 274.15 212.432 273.096C210.998 274.185 209.594 275.29 208.228 276.406Z" fill="#96B9D7"/>
<path d="M199.349 297.925C198.395 297.818 197.493 297.311 197.006 296.434C197.213 294.208 197.433 292.202 197.668 290.411C197.718 290.266 197.768 290.119 197.818 289.976C197.875 289.821 197.935 289.664 197.995 289.509C198.19 289.794 198.505 289.996 198.875 290.036L199.01 290.044C199.629 290.044 200.161 289.579 200.231 288.947C200.403 287.378 200.583 285.807 200.776 284.235C202.952 281.32 205.485 278.747 208.228 276.406C209.594 275.289 210.998 274.185 212.432 273.096C215.697 270.705 219.145 268.539 222.575 266.446C226.567 264.038 230.736 261.937 234.701 259.479C237.289 257.922 239.984 256.626 241.601 255.929L241.796 255.839C242.218 255.586 242.652 255.474 243.067 255.474C243.719 255.474 244.331 255.749 244.796 256.176C244.406 256.361 244.009 256.548 243.612 256.741C229.737 263.436 211.883 275.065 200.756 286.504C200.304 288.974 199.891 292.157 199.519 296.069C199.462 296.671 199.404 297.288 199.349 297.925Z" fill="black"/>
<path d="M199.009 290.044L198.874 290.036C198.505 289.996 198.19 289.794 197.995 289.509C198.647 287.828 199.359 286.149 200.438 284.693C200.548 284.541 200.66 284.386 200.775 284.236C200.583 285.807 200.403 287.378 200.231 288.947C200.161 289.579 199.629 290.044 199.009 290.044Z" fill="black"/>
<path d="M102.513 94.7773L102.483 94.7549L102.491 94.7599L102.513 94.7773Z" fill="black"/>
<path d="M116.42 99.9087C111.896 99.9087 107.125 97.6253 103.877 93.6008C103.212 92.7789 102.623 91.9221 102.101 91.0377C102.513 90.673 103.045 90.4406 103.635 90.4406C103.897 90.4406 104.169 90.4856 104.449 90.5881L107.559 94.4777L107.882 94.6326L108.136 94.5426L108.201 93.9656L107.167 92.674C108.956 94.1354 110.472 95.0698 112.508 95.5369L112.823 95.5494C115.139 95.4545 114.492 95.4195 116.53 95.1697C117.275 94.9998 117.947 94.8374 118.564 94.6775C117.272 95.347 115.896 95.7493 114.514 95.8217C114.287 95.8317 114.114 96.024 114.124 96.2514L114.534 96.6411L114.554 96.6386C117.022 96.5137 119.426 95.467 121.422 93.7507C123.19 93.0113 124.524 92.0195 126.236 90.2533C126.788 89.6038 127.1 89.1641 128.107 87.6852C128.471 86.8433 129.231 86.1463 130.14 86.1463C130.28 86.1463 130.422 86.1638 130.57 86.1988C130.452 86.7509 130.318 87.288 130.165 87.8151C128.806 92.5341 125.948 96.3888 122.393 98.3798C121.229 98.8969 120.018 99.3491 118.776 99.6939C118.007 99.8387 117.217 99.9087 116.42 99.9087Z" fill="#96B9D7"/>
<path d="M113.777 100.423C112.873 100.423 111.963 100.343 111.064 100.171C107.219 98.4893 105.051 96.888 102.648 94.8894L102.498 94.802L102.583 94.8345L102.513 94.777L102.598 94.8395L102.998 95.0119L102.49 94.7595L102.368 94.6571L102.483 94.7545C100.809 93.7603 101.054 91.9691 102.101 91.0373C102.623 91.9216 103.212 92.7785 103.877 93.6004C107.125 97.6249 111.896 99.9082 116.42 99.9082C117.217 99.9082 118.007 99.8383 118.776 99.6934C117.142 100.151 115.461 100.423 113.777 100.423ZM122.393 98.3794C125.948 96.3883 128.806 92.5337 130.165 87.8146C130.317 87.2875 130.452 86.7504 130.57 86.1983C130.602 86.2058 130.635 86.2158 130.665 86.2233C133.747 87.4549 131.132 90.3353 129.953 92.0166C128.049 94.4698 125.756 96.803 122.918 98.1396C122.746 98.2195 122.568 98.2994 122.393 98.3794Z" fill="black"/>
<path d="M114.534 96.6406L114.124 96.2509C114.114 96.0236 114.287 95.8312 114.514 95.8212C115.895 95.7488 117.272 95.3465 118.563 94.677C119.668 94.3873 120.594 94.0975 121.421 93.7502C119.425 95.4665 117.022 96.5132 114.554 96.6381L114.534 96.6406Z" fill="black"/>
<path d="M107.882 94.6318L107.559 94.477L104.449 90.5873C104.844 90.7322 105.249 90.987 105.648 91.3767C106.183 91.8489 106.685 92.2785 107.167 92.6733L108.201 93.9648L108.137 94.5419L107.882 94.6318Z" fill="black"/>
<path d="M220.356 82.2119C220.543 81.4025 220.696 80.5931 220.821 79.7962C221.148 80.5507 220.828 81.4575 220.396 82.1445C220.383 82.1669 220.368 82.1894 220.356 82.2119Z" fill="#DEDEDE"/>
<path d="M202.119 98.2646C202.127 97.8225 202.129 97.3778 202.129 96.9306C202.129 95.774 202.107 94.6148 202.067 93.4532C203.109 93.2983 204.128 93.0185 205.097 92.6088L205.162 92.5813L205.512 92.4289C206.481 91.9967 207.465 91.5795 208.317 90.9375C210.251 89.586 210.441 89.5985 211.94 87.8673C213.416 85.6589 214.116 84.9769 215.307 83.0533C216.149 81.7942 216.811 79.7308 217.97 78.8414C218.138 78.744 218.32 78.674 218.507 78.6316C217.925 82.9559 216.501 87.6275 213.459 91.5721C210.523 95.3743 206.291 97.7625 202.119 98.2646Z" fill="#96B9D7"/>
<path d="M202.462 98.5215C202.345 98.5215 202.227 98.514 202.117 98.499C202.117 98.4191 202.12 98.3416 202.12 98.2642C206.292 97.7621 210.524 95.3738 213.459 91.5716C216.502 87.627 217.926 82.9554 218.508 78.6311C218.66 78.5961 218.818 78.5787 218.975 78.5787C219.582 78.5787 220.184 78.8385 220.534 79.3531C220.661 79.4905 220.754 79.6404 220.821 79.7953C220.696 80.5922 220.544 81.4016 220.356 82.211C219.637 83.525 219.01 84.8915 218.166 86.1281C215.662 89.8778 214.261 92.1712 210.371 94.7668L209.957 95.1015C207.951 96.6404 205.71 97.9719 203.192 98.4266C202.937 98.4915 202.694 98.5215 202.462 98.5215Z" fill="black"/>
<path d="M202.117 98.5C199.682 98.1627 198.992 94.3206 201.83 93.4862C201.91 93.4762 201.99 93.4662 202.067 93.4537C202.107 94.6154 202.13 95.7745 202.13 96.9311C202.13 97.3783 202.127 97.823 202.12 98.2652C202.12 98.3426 202.117 98.4201 202.117 98.5Z" fill="black"/>
</g>
</svg>
