<svg width="16" height="16" viewBox="0 0 16 16" fill="none" xmlns="http://www.w3.org/2000/svg">
<path d="M8 0C3.6 0 0 3.6 0 8C0 12.4 3.6 16 8 16C12.4 16 16 12.4 16 8V7.2C15.52 7.92 15.04 8.56 14.64 9.12C14.32 10.88 13.36 12.4 12 13.44C11.92 13.2 11.84 12.88 11.76 12.64C11.68 12.32 11.6 12 11.44 11.68C11.36 11.36 11.28 11.04 11.12 10.8C11.04 10.72 10.88 10.64 10.72 10.56C10.16 10.4 9.44 10.64 9.04 10.08C8.88 9.84 8.88 9.6 8.96 9.28C9.12 9.04 9.2 8.8 9.36 8.56C9.52 8.24 9.76 7.84 9.84 7.44C9.2 6.48 8.56 5.36 8.24 4.32H8.16C8.08 4.32 8.08 4.32 8 4.24C7.84 4.08 7.76 3.68 7.84 3.44C7.84 3.04 8.08 2.8 8 2.4C8 2.32 7.92 1.68 7.92 1.68C7.68 1.68 7.28 1.68 7.36 1.28V1.2H8H8.4C8.56 0.72 8.88 0.32 9.12 0H8ZM12.8 0C11.04 0 9.6 1.44 9.6 3.2C9.6 4.96 12.8 8.8 12.8 8.8C12.8 8.8 16 4.96 16 3.2C16 1.44 14.56 0 12.8 0ZM12.8 2C13.44 2 14 2.56 14 3.2C14 3.84 13.44 4.4 12.8 4.4C12.16 4.4 11.6 3.84 11.6 3.2C11.6 2.56 12.16 2 12.8 2ZM4.8 2.48C5.12 2.48 5.36 2.48 5.6 2.56C5.84 2.64 6.08 2.8 6.24 2.96C6.4 3.12 6.64 3.36 6.64 3.6C6.64 3.68 6.64 3.76 6.56 3.76C6.48 3.84 6.4 3.84 6.32 3.84C6.08 3.84 5.84 3.84 5.68 3.76C5.6 3.68 5.44 3.52 5.28 3.44C4.88 3.28 4.16 4.32 4.08 4.64C4 4.88 4 5.44 4.4 5.52C4.64 5.52 5.2 5.04 5.36 4.88C5.52 4.8 5.6 4.72 5.76 4.64C6.4 4.56 6.88 5.12 7.04 5.68C7.2 6.32 6.08 6.8 5.6 6.96C5.44 7.04 5.36 6.88 5.2 6.96C4.8 7.12 4.32 7.68 4.32 8.08C4.32 8.48 4.24 8.88 4.16 9.28C4.08 9.28 4 9.2 4 9.2V9.04C4 8.8 3.92 8.56 3.68 8.4C3.6 8.4 3.6 8.32 3.52 8.32C3.28 8.24 3.04 8 2.8 8.24C2.64 8.4 2.48 8.64 2.48 8.88C2.48 8.96 2.48 9.04 2.56 9.12C2.72 9.2 2.88 9.12 3.04 9.12C3.12 9.12 3.2 9.28 3.28 9.36C3.44 9.6 3.52 10 3.84 10H4.4H5.44C5.68 10.08 6.08 10.16 6.24 10.32C6.32 10.48 6.32 10.64 6.4 10.8C6.72 11.2 7.28 11.2 7.76 11.36C7.92 11.44 8 11.52 8 11.68C8 11.92 7.92 12.24 7.84 12.48C7.76 12.72 7.68 13.04 7.52 13.2C7.36 13.36 7.2 13.44 7.04 13.52C6.72 13.68 6.56 14 6.4 14.24C6.4 14.24 6.32 14.4 6.24 14.48C5.6 14.32 5.04 14.08 4.48 13.68V13.52C4.4 13.2 4.32 12.96 4.24 12.72C4.08 12.32 3.84 11.84 3.76 11.44C3.76 11.04 3.84 10.64 3.6 10.32C3.36 9.92 2.72 9.92 2.32 9.68C2 9.36 1.6 9.04 1.28 8.64V8C1.28 5.84 2.32 3.92 3.92 2.64C4.24 2.56 4.48 2.48 4.8 2.48Z" fill="#F58800"/>
</svg>
