<svg width="329" height="402" viewBox="0 0 329 402" fill="none" xmlns="http://www.w3.org/2000/svg">
<path d="M31.9146 194.822C31.9146 195.886 31.5973 196.925 31.0027 197.809C30.4081 198.694 29.563 199.383 28.5743 199.79C27.5855 200.197 26.4975 200.303 25.4478 200.096C24.3982 199.888 23.434 199.376 22.6772 198.624C21.9205 197.872 21.4051 196.914 21.1963 195.871C20.9875 194.828 21.0948 193.747 21.5043 192.765C21.9139 191.782 22.6073 190.943 23.4972 190.352C24.3871 189.761 25.4332 189.446 26.5034 189.446C27.9386 189.446 29.315 190.012 30.3298 191.02C31.3446 192.029 31.9146 193.396 31.9146 194.822Z" fill="#F58800"/>
<path d="M301.976 200.199C304.964 200.199 307.387 197.792 307.387 194.822C307.387 191.853 304.964 189.446 301.976 189.446C298.987 189.446 296.564 191.853 296.564 194.822C296.564 197.792 298.987 200.199 301.976 200.199Z" fill="#F58800"/>
<path fill-rule="evenodd" clip-rule="evenodd" d="M314.853 208.987C317.046 207.034 318.756 204.604 319.851 201.888C320.946 199.171 321.397 196.241 321.168 193.324C320.939 190.406 320.036 187.581 318.531 185.066C317.025 182.551 314.957 180.414 312.486 178.822V145.684L315.79 145.451C314.899 126.317 310.269 107.538 302.158 90.1604C293.979 72.8511 282.736 57.1437 268.963 43.7877C255.165 30.3242 238.969 19.5256 221.2 11.942C203.26 4.06757 183.865 0.000244141 164.253 0.000244141C144.641 0.000244141 125.245 4.06757 107.306 11.942C89.5275 19.5228 73.3224 30.3215 59.5164 43.7877C45.7436 57.1378 34.5074 72.8468 26.3473 90.1604C18.2285 107.536 13.5897 126.315 12.6894 145.451L15.9934 145.684V178.822C13.5174 180.408 11.4424 182.539 9.92964 185.051C8.41684 187.562 7.50686 190.387 7.27034 193.304C7.03382 196.222 7.47715 199.154 8.56585 201.874C9.65455 204.594 11.3594 207.028 13.548 208.987C8.50107 219.042 -4.50647 247.76 1.94524 266.475C2.91291 269.428 4.45943 272.161 6.49548 274.516C8.53153 276.872 11.0168 278.804 13.8081 280.201C13.8359 283.799 15.1652 287.267 17.5533 289.972C19.9413 292.677 23.2288 294.438 26.8156 294.934C26.935 303.404 30.2867 311.513 36.193 317.622C42.0992 323.73 50.1193 327.382 58.632 327.84C59.1801 329.834 60.2417 331.651 61.7124 333.113C63.183 334.575 65.0118 335.631 67.0183 336.176C69.0247 336.721 71.1397 336.738 73.1544 336.223C75.1692 335.709 77.0141 334.681 78.5073 333.242C80.2009 336.983 83.1355 340.033 86.8204 341.883C90.5053 343.732 94.7174 344.269 98.7528 343.404C102.788 342.538 106.402 340.323 108.991 337.128C111.58 333.933 112.987 329.952 112.977 325.85V217.672C112.949 213.601 111.525 209.661 108.941 206.501C106.357 203.341 102.766 201.15 98.7613 200.289C94.7563 199.428 90.5755 199.949 86.908 201.765C83.2405 203.581 80.3051 206.584 78.5854 210.28C77.0922 208.841 75.2471 207.813 73.2324 207.299C71.2176 206.784 69.1029 206.801 67.0964 207.346C65.0899 207.891 63.2611 208.947 61.7905 210.409C60.3198 211.871 59.2581 213.688 58.7099 215.682C50.195 216.146 42.1746 219.804 36.269 225.917C30.3634 232.029 27.0127 240.141 26.8937 248.613C24.2148 248.967 21.6817 250.033 19.5617 251.698C17.4417 253.363 15.8134 255.566 14.8487 258.074C13.1578 244.581 22.445 223.127 27.3098 213.899C31.383 213.734 35.2981 212.286 38.4877 209.764C41.6773 207.241 43.9761 203.776 45.0511 199.869C46.1262 195.962 45.9217 191.816 44.4673 188.032C43.0129 184.248 40.384 181.022 36.9615 178.822V147.079L41.462 147.364C43.0201 132.116 47.4317 117.291 54.4695 103.653C61.395 89.9492 70.7344 77.588 82.0455 67.155C93.2308 56.7273 106.176 48.3364 120.288 42.366C134.188 36.4985 149.137 33.4744 164.24 33.4744C179.343 33.4744 194.291 36.4985 208.192 42.366C236.71 54.4676 260.023 76.1676 274.036 103.653C281.063 117.296 285.474 132.118 287.043 147.364L291.544 147.079V178.822C288.12 181.024 285.491 184.252 284.037 188.038C282.583 191.824 282.381 195.972 283.459 199.88C284.538 203.789 286.841 207.254 290.034 209.775C293.228 212.295 297.146 213.739 301.222 213.899C306.086 223.127 315.374 244.581 313.683 258.074C312.714 255.564 311.081 253.36 308.956 251.695C306.832 250.03 304.294 248.965 301.612 248.613C301.485 240.133 298.121 232.017 292.199 225.908C286.278 219.799 278.242 216.153 269.717 215.708C269.169 213.714 268.108 211.897 266.637 210.435C265.166 208.973 263.338 207.917 261.331 207.372C259.325 206.827 257.21 206.81 255.195 207.325C253.18 207.839 251.335 208.867 249.842 210.306C248.148 206.565 245.214 203.515 241.529 201.665C237.844 199.816 233.632 199.279 229.597 200.144C225.561 201.01 221.947 203.225 219.358 206.42C216.769 209.615 215.362 213.596 215.372 217.698V325.875C215.362 329.977 216.769 333.959 219.358 337.154C221.947 340.349 225.561 342.564 229.597 343.43C233.632 344.295 237.844 343.758 241.529 341.909C245.214 340.059 248.148 337.009 249.842 333.268C251.335 334.707 253.18 335.735 255.195 336.249C257.21 336.763 259.325 336.747 261.331 336.202C263.338 335.656 265.166 334.601 266.637 333.139C268.108 331.677 269.169 329.86 269.717 327.866C278.23 327.408 286.25 323.756 292.157 317.647C298.063 311.539 301.414 303.43 301.534 294.96C305.121 294.464 308.408 292.703 310.796 289.998C313.184 287.293 314.513 283.825 314.541 280.227C320.167 277.39 324.432 272.455 326.404 266.501C332.908 247.709 319.9 219.042 314.853 208.987ZM107.098 281.364C107.133 281.699 107.097 282.037 106.992 282.357C106.887 282.677 106.716 282.972 106.489 283.222C106.262 283.472 105.985 283.672 105.675 283.809C105.365 283.946 105.03 284.017 104.691 284.017C104.353 284.017 104.017 283.946 103.708 283.809C103.398 283.672 103.121 283.472 102.894 283.222C102.667 282.972 102.496 282.677 102.391 282.357C102.286 282.037 102.25 281.699 102.285 281.364V273.609C102.25 273.274 102.286 272.936 102.391 272.616C102.496 272.296 102.667 272.001 102.894 271.751C103.121 271.501 103.398 271.301 103.708 271.164C104.017 271.027 104.353 270.956 104.691 270.956C105.03 270.956 105.365 271.027 105.675 271.164C105.985 271.301 106.262 271.501 106.489 271.751C106.716 272.001 106.887 272.296 106.992 272.616C107.097 272.936 107.133 273.274 107.098 273.609V281.364ZM94.0904 208.212C94.2169 207.924 94.4001 207.664 94.6293 207.448C94.8585 207.231 95.129 207.063 95.4248 206.952C95.7207 206.841 96.0357 206.79 96.3516 206.802C96.6676 206.815 96.9779 206.89 97.2642 207.023C100.165 208.385 102.618 210.535 104.34 213.225C106.062 215.915 106.982 219.034 106.994 222.222V264.33C106.932 264.921 106.652 265.468 106.207 265.866C105.763 266.264 105.186 266.484 104.587 266.484C103.989 266.484 103.412 266.264 102.968 265.866C102.523 265.468 102.243 264.921 102.181 264.33V222.325C102.187 220.046 101.536 217.812 100.305 215.888C99.0742 213.964 97.315 212.431 95.2351 211.469C94.9565 211.332 94.708 211.141 94.5044 210.907C94.3008 210.674 94.1462 210.402 94.0493 210.109C93.9524 209.815 93.9153 209.505 93.9402 209.197C93.9651 208.89 94.0516 208.59 94.1944 208.315L94.0904 208.212ZM65.4739 218.758C65.4739 217.49 65.9809 216.274 66.8835 215.377C67.786 214.48 69.0102 213.976 70.2866 213.976C71.5631 213.976 72.7873 214.48 73.6898 215.377C74.5924 216.274 75.0993 217.49 75.0993 218.758V324.557C75.0993 325.825 74.5924 327.042 73.6898 327.939C72.7873 328.835 71.5631 329.339 70.2866 329.339C69.0102 329.339 67.786 328.835 66.8835 327.939C65.9809 327.042 65.4739 325.825 65.4739 324.557V218.758ZM34.1258 249.053C34.1341 242.7 36.4532 236.564 40.6554 231.776C44.8576 226.988 50.6599 223.87 56.993 222.997V301.526C56.8109 297.545 56.6549 293.539 56.3687 289.532C55.9785 284.362 55.7443 279.193 55.198 273.842C54.6517 268.491 54.2615 263.502 53.5851 258.177C52.9087 263.347 52.3884 268.517 51.9461 273.842C51.5039 279.167 51.1656 284.311 50.7754 289.532C50.3852 294.754 50.2031 300.001 50.021 305.248C49.8649 302.405 49.6828 299.613 49.4486 296.796C49.1364 292.608 48.7982 288.446 48.2779 284.285C47.7576 280.123 47.3414 275.936 46.639 271.774C45.9626 275.936 45.4683 280.123 45.026 284.285C44.5838 288.446 44.1937 292.608 43.8555 296.796C43.8555 297.881 43.6993 298.941 43.6213 300.053C43.6213 297.855 43.3351 295.684 43.153 293.513C42.8148 289.635 42.4766 285.758 41.9823 281.881C41.488 278.004 41.0198 274.126 40.3434 270.275C39.667 274.126 39.1727 278.029 38.7044 281.881C38.2361 285.732 37.8719 289.635 37.5337 293.513C37.1955 297.39 36.9354 301.784 36.7533 305.92C35.026 302.348 34.1365 298.433 34.1518 294.469L34.1258 249.053ZM21.1183 263.399C21.1153 261.975 21.507 260.578 22.2504 259.36C22.9938 258.143 24.0603 257.152 25.3328 256.497V287.025C24.0643 286.372 23.0004 285.385 22.2572 284.173C21.5141 282.96 21.1201 281.569 21.1183 280.149V263.399ZM23.2515 146.149L29.8334 146.614V176.004C28.743 175.808 27.6376 175.704 26.5294 175.694C25.4299 175.704 24.3332 175.808 23.2515 176.004V146.149ZM38.5744 194.822C38.5901 197.04 37.9853 199.218 36.8276 201.114C35.6699 203.01 34.0048 204.549 32.0179 205.56C30.0311 206.57 27.8008 207.013 25.5758 206.837C23.3508 206.661 21.2187 205.875 19.4174 204.565C17.6161 203.256 16.2163 201.475 15.3745 199.421C14.5326 197.367 14.2816 195.121 14.6496 192.933C15.0176 190.746 15.9901 188.703 17.4585 187.033C18.9269 185.363 20.8334 184.131 22.9654 183.475H30.0935C32.5337 184.227 34.6691 185.733 36.1895 187.774C37.7098 189.814 38.5361 192.283 38.5483 194.822H38.5744ZM211.47 20.6014C211.313 21.0455 211.068 21.4542 210.751 21.804C210.434 22.1539 210.051 22.438 209.623 22.6398C209.195 22.8417 208.731 22.9573 208.257 22.9801C207.784 23.0029 207.311 22.9324 206.865 22.7727C175.608 11.6478 141.307 12.4492 110.61 25.0215C110.175 25.2063 109.704 25.2946 109.231 25.28C108.385 25.2987 107.559 25.0195 106.899 24.4917C106.24 23.9639 105.789 23.2215 105.627 22.3956C105.466 21.5698 105.603 20.7137 106.015 19.9786C106.426 19.2435 107.087 18.6767 107.878 18.3784C140.235 5.12645 176.393 4.28816 209.337 16.0261C210.225 16.3572 210.946 17.0244 211.34 17.8817C211.735 18.7391 211.773 19.7169 211.444 20.6014H211.47ZM238.317 34.0169C237.821 34.8252 237.025 35.4079 236.101 35.6398C235.177 35.8718 234.198 35.7346 233.375 35.2576C229.785 33.1122 226.064 31.096 222.318 29.2607C221.503 28.8143 220.892 28.0726 220.613 27.1899C220.334 26.3073 220.408 25.3517 220.821 24.5223C221.233 23.6928 221.952 23.0534 222.827 22.7371C223.702 22.4208 224.666 22.4521 225.518 22.8244C229.42 24.7372 233.322 26.8309 237.069 29.0798C237.885 29.5777 238.471 30.375 238.7 31.299C238.928 32.2231 238.782 33.1995 238.291 34.0169H238.317ZM226.22 281.467C226.256 281.802 226.219 282.141 226.115 282.461C226.01 282.781 225.838 283.076 225.611 283.326C225.384 283.576 225.107 283.776 224.798 283.913C224.488 284.049 224.153 284.12 223.814 284.12C223.475 284.12 223.14 284.049 222.831 283.913C222.521 283.776 222.244 283.576 222.017 283.326C221.79 283.076 221.619 282.781 221.514 282.461C221.409 282.141 221.373 281.802 221.408 281.467V273.713C221.373 273.378 221.409 273.039 221.514 272.719C221.619 272.399 221.79 272.104 222.017 271.854C222.244 271.604 222.521 271.404 222.831 271.267C223.14 271.13 223.475 271.06 223.814 271.06C224.153 271.06 224.488 271.13 224.798 271.267C225.107 271.404 225.384 271.604 225.611 271.854C225.838 272.104 226.01 272.399 226.115 272.719C226.219 273.039 226.256 273.378 226.22 273.713V281.467ZM233.166 211.469C231.09 212.436 229.335 213.971 228.105 215.893C226.874 217.816 226.221 220.047 226.22 222.325V264.433C226.158 265.024 225.878 265.572 225.434 265.97C224.989 266.368 224.412 266.588 223.814 266.588C223.216 266.588 222.639 266.368 222.194 265.97C221.75 265.572 221.47 265.024 221.408 264.433V222.325C221.419 219.134 222.341 216.011 224.068 213.321C225.795 210.63 228.256 208.482 231.163 207.126C231.45 206.996 231.76 206.924 232.075 206.914C232.39 206.904 232.704 206.955 232.999 207.066C233.294 207.176 233.564 207.343 233.793 207.558C234.023 207.772 234.208 208.03 234.337 208.315C234.471 208.6 234.547 208.908 234.559 209.222C234.571 209.536 234.52 209.849 234.408 210.143C234.297 210.437 234.127 210.706 233.91 210.933C233.692 211.161 233.43 211.343 233.14 211.469H233.166ZM263.006 324.661C263.006 325.929 262.499 327.145 261.596 328.042C260.693 328.939 259.469 329.443 258.193 329.443C256.916 329.443 255.692 328.939 254.79 328.042C253.887 327.145 253.38 325.929 253.38 324.661V218.862C253.38 217.593 253.887 216.377 254.79 215.48C255.692 214.583 256.916 214.079 258.193 214.079C259.469 214.079 260.693 214.583 261.596 215.48C262.499 216.377 263.006 217.593 263.006 218.862V324.661ZM294.38 294.469C294.395 298.433 293.506 302.348 291.778 305.92C291.622 301.784 291.362 297.649 291.024 293.513C290.685 289.377 290.347 285.758 289.827 281.881C289.307 278.004 288.865 274.126 288.188 270.275C287.512 274.126 287.017 278.029 286.549 281.881C286.081 285.732 285.717 289.635 285.378 293.513C285.222 295.684 285.04 297.855 284.936 300.053C284.936 298.941 284.78 297.881 284.676 296.796C284.338 292.608 284 288.446 283.505 284.285C283.011 280.123 282.569 275.936 281.893 271.774C281.19 275.936 280.696 280.123 280.254 284.285C279.811 288.446 279.421 292.608 279.083 296.796C278.875 299.613 278.667 302.405 278.537 305.248C278.328 300.078 278.146 294.779 277.756 289.532C277.366 284.285 277.132 279.193 276.611 273.842C276.091 268.491 275.649 263.502 274.972 258.177C274.296 263.347 273.776 268.517 273.334 273.842C272.891 279.167 272.553 284.311 272.163 289.532C271.877 293.539 271.721 297.545 271.538 301.526V222.997C277.872 223.87 283.674 226.988 287.876 231.776C292.078 236.564 294.397 242.7 294.406 249.053L294.38 294.469ZM307.387 280.149C307.385 281.569 306.991 282.96 306.248 284.173C305.505 285.385 304.441 286.372 303.173 287.025V256.497C304.445 257.152 305.512 258.143 306.255 259.36C306.999 260.578 307.39 261.975 307.387 263.399V280.149ZM298.672 146.614L305.28 146.149V176.004C304.19 175.808 303.084 175.704 301.976 175.694C300.868 175.705 299.763 175.809 298.672 176.004V146.614ZM301.976 206.764C299.125 206.742 296.375 205.71 294.219 203.855C292.064 202 290.644 199.443 290.215 196.642C289.786 193.841 290.375 190.979 291.878 188.571C293.38 186.163 295.696 184.365 298.412 183.5H305.54C308.256 184.365 310.572 186.163 312.074 188.571C313.577 190.979 314.166 193.841 313.737 196.642C313.308 199.443 311.888 202 309.733 203.855C307.578 205.71 304.828 206.742 301.976 206.764Z" fill="#F58800"/>
<path d="M170.679 72.3759C170.679 73.6386 170.302 74.873 169.596 75.923C168.89 76.9729 167.886 77.7913 166.712 78.2745C165.538 78.7578 164.246 78.8842 162.999 78.6378C161.753 78.3915 160.608 77.7834 159.709 76.8905C158.811 75.9976 158.199 74.86 157.951 73.6215C157.703 72.383 157.83 71.0992 158.316 69.9326C158.803 68.7659 159.626 67.7688 160.683 67.0673C161.74 66.3657 162.982 65.9912 164.253 65.9912C165.955 65.998 167.586 66.6729 168.789 67.8688C169.993 69.0646 170.672 70.6847 170.679 72.3759Z" fill="#F58800"/>
<path d="M146.848 87.8336C146.848 89.0964 146.471 90.3308 145.765 91.3807C145.059 92.4307 144.056 93.249 142.882 93.7323C141.707 94.2155 140.416 94.342 139.169 94.0956C137.923 93.8493 136.778 93.2412 135.879 92.3483C134.98 91.4554 134.368 90.3177 134.12 89.0792C133.872 87.8407 134 86.557 134.486 85.3904C134.972 84.2237 135.796 83.2266 136.853 82.525C137.909 81.8234 139.152 81.449 140.423 81.449C142.127 81.449 143.761 82.1217 144.966 83.319C146.171 84.5164 146.848 86.1403 146.848 87.8336Z" fill="#F58800"/>
<path d="M161.635 91.3807C162.341 90.3308 162.718 89.0964 162.718 87.8336C162.711 86.1424 162.032 84.5224 160.828 83.3265C159.625 82.1307 157.994 81.4558 156.292 81.449C155.021 81.449 153.779 81.8234 152.722 82.525C151.666 83.2266 150.842 84.2237 150.356 85.3904C149.869 86.557 149.742 87.8407 149.99 89.0792C150.238 90.3177 150.85 91.4554 151.749 92.3483C152.647 93.2412 153.792 93.8493 155.039 94.0956C156.285 94.342 157.577 94.2155 158.751 93.7323C159.925 93.249 160.929 92.4307 161.635 91.3807Z" fill="#F58800"/>
<path d="M178.614 87.8336C178.614 91.3598 175.737 94.2183 172.188 94.2183C168.639 94.2183 165.762 91.3598 165.762 87.8336C165.762 84.3075 168.639 81.449 172.188 81.449C175.737 81.449 178.614 84.3075 178.614 87.8336Z" fill="#F58800"/>
<path d="M193.371 91.3835C194.079 90.333 194.456 89.0975 194.456 87.8337C194.456 86.1448 193.783 84.5248 192.583 83.3282C191.384 82.1316 189.756 81.4559 188.057 81.449C186.785 81.4439 185.54 81.814 184.479 82.5125C183.419 83.2109 182.592 84.2062 182.101 85.3724C181.611 86.5386 181.48 87.8231 181.725 89.0633C181.97 90.3035 182.58 91.4436 183.478 92.3391C184.375 93.2346 185.52 93.8452 186.767 94.0937C188.014 94.3422 189.308 94.2172 190.483 93.7348C191.659 93.2523 192.664 92.434 193.371 91.3835Z" fill="#F58800"/>
<path d="M178.614 118.697C178.613 119.962 178.235 121.199 177.527 122.25C176.818 123.301 175.812 124.119 174.635 124.601C173.457 125.082 172.163 125.206 170.915 124.955C169.667 124.705 168.522 124.091 167.626 123.193C166.729 122.295 166.121 121.153 165.879 119.911C165.637 118.669 165.772 117.384 166.266 116.218C166.761 115.052 167.592 114.059 168.656 113.363C169.719 112.668 170.967 112.302 172.24 112.313C173.935 112.326 175.556 113.005 176.75 114.201C177.944 115.397 178.614 117.013 178.614 118.697Z" fill="#F58800"/>
<path d="M161.647 122.251C162.35 121.198 162.723 119.961 162.718 118.697C162.711 117.008 162.031 115.391 160.827 114.199C159.622 113.007 157.992 112.338 156.292 112.338C155.02 112.338 153.777 112.713 152.719 113.416C151.662 114.119 150.839 115.118 150.353 116.286C149.867 117.454 149.742 118.739 149.992 119.978C150.242 121.217 150.856 122.355 151.758 123.247C152.659 124.139 153.806 124.745 155.054 124.988C156.303 125.231 157.596 125.101 158.769 124.614C159.943 124.127 160.945 123.305 161.647 122.251Z" fill="#F58800"/>
<path d="M146.848 118.697C146.853 119.961 146.481 121.198 145.778 122.251C145.075 123.305 144.073 124.127 142.9 124.614C141.726 125.101 140.433 125.232 139.185 124.988C137.937 124.745 136.79 124.139 135.888 123.247C134.987 122.355 134.372 121.217 134.122 119.978C133.872 118.739 133.998 117.454 134.484 116.286C134.969 115.118 135.793 114.119 136.85 113.416C137.907 112.714 139.151 112.338 140.423 112.338C141.265 112.335 142.1 112.497 142.88 112.815C143.659 113.133 144.368 113.601 144.965 114.192C145.562 114.782 146.036 115.485 146.359 116.258C146.682 117.031 146.848 117.86 146.848 118.697Z" fill="#F58800"/>
<path d="M193.384 122.254C194.088 121.2 194.461 119.962 194.456 118.697C194.456 117.011 193.782 115.393 192.582 114.201C191.381 113.008 189.754 112.338 188.056 112.338C186.783 112.333 185.537 112.704 184.477 113.404C183.416 114.103 182.588 115.1 182.099 116.268C181.609 117.435 181.48 118.721 181.727 119.962C181.974 121.203 182.587 122.343 183.487 123.238C184.387 124.132 185.534 124.741 186.783 124.986C188.032 125.232 189.326 125.103 190.501 124.617C191.677 124.13 192.68 123.308 193.384 122.254Z" fill="#F58800"/>
<path d="M153.7 75.923C154.406 74.873 154.783 73.6386 154.783 72.3759C154.783 71.5374 154.617 70.7072 154.294 69.9326C153.971 69.1579 153.498 68.4541 152.901 67.8613C152.304 67.2684 151.596 66.7981 150.816 66.4772C150.037 66.1564 149.201 65.9912 148.357 65.9912C147.087 65.9912 145.844 66.3657 144.788 67.0673C143.731 67.7688 142.907 68.7659 142.421 69.9326C141.935 71.0992 141.807 72.383 142.055 73.6215C142.303 74.86 142.915 75.9976 143.814 76.8905C144.712 77.7834 145.857 78.3915 147.104 78.6378C148.35 78.8842 149.642 78.7578 150.816 78.2745C151.99 77.7913 152.994 76.9729 153.7 75.923Z" fill="#F58800"/>
<path d="M186.521 72.3759C186.521 73.6398 186.144 74.8752 185.436 75.9257C184.729 76.9762 183.724 77.7945 182.549 78.277C181.373 78.7595 180.08 78.8844 178.832 78.636C177.585 78.3875 176.44 77.7768 175.543 76.8813C174.645 75.9858 174.035 74.8458 173.79 73.6056C173.545 72.3654 173.676 71.0808 174.167 69.9147C174.657 68.7485 175.485 67.7531 176.545 67.0547C177.605 66.3562 178.85 65.9862 180.122 65.9913C181.821 65.9981 183.449 66.6738 184.648 67.8704C185.848 69.067 186.521 70.6871 186.521 72.3759Z" fill="#F58800"/>
<path d="M169.596 106.812C170.302 105.762 170.679 104.528 170.679 103.265C170.679 101.572 170.002 99.9479 168.797 98.7505C167.592 97.5532 165.957 96.8805 164.253 96.8805C162.982 96.8805 161.74 97.255 160.683 97.9565C159.626 98.6581 158.803 99.6552 158.316 100.822C157.83 101.988 157.703 103.272 157.951 104.511C158.199 105.749 158.811 106.887 159.709 107.78C160.608 108.673 161.753 109.281 162.999 109.527C164.246 109.773 165.538 109.647 166.712 109.164C167.886 108.681 168.89 107.862 169.596 106.812Z" fill="#F58800"/>
<path d="M154.783 103.265C154.783 104.528 154.406 105.762 153.7 106.812C152.994 107.862 151.991 108.681 150.816 109.164C149.642 109.647 148.35 109.774 147.104 109.527C145.857 109.281 144.712 108.673 143.814 107.78C142.915 106.887 142.303 105.749 142.055 104.511C141.807 103.272 141.935 101.989 142.421 100.822C142.907 99.6553 143.731 98.6581 144.788 97.9566C145.844 97.255 147.087 96.8805 148.358 96.8805C149.202 96.8771 150.039 97.0399 150.821 97.3596C151.602 97.6792 152.312 98.1494 152.909 98.743C153.506 99.3365 153.979 100.042 154.301 100.818C154.623 101.594 154.787 102.426 154.783 103.265Z" fill="#F58800"/>
<path d="M185.404 106.785C186.118 105.747 186.506 104.522 186.521 103.265C186.535 102.415 186.378 101.57 186.057 100.782C185.737 99.9932 185.261 99.2764 184.657 98.6739C184.053 98.0714 183.333 97.5953 182.541 97.274C181.749 96.9526 180.9 96.7924 180.044 96.8029C178.778 96.8132 177.544 97.1944 176.496 97.8987C175.448 98.6031 174.633 99.5993 174.152 100.762C173.672 101.925 173.547 103.203 173.795 104.436C174.042 105.669 174.651 106.802 175.544 107.693C176.436 108.584 177.574 109.193 178.814 109.444C180.054 109.694 181.341 109.576 182.513 109.103C183.686 108.63 184.691 107.824 185.404 106.785Z" fill="#F58800"/>
<path fill-rule="evenodd" clip-rule="evenodd" d="M201.922 362.555H213.863C218.452 362.545 222.998 363.434 227.241 365.171C231.484 366.908 235.341 369.459 238.591 372.679C241.841 375.898 244.42 379.723 246.181 383.933C247.942 388.144 248.85 392.658 248.853 397.218V402H79.6259V397.218C79.6328 388.027 83.3105 379.214 89.8514 372.715C96.3923 366.216 105.262 362.562 114.512 362.555H126.479C127.441 350.768 134.622 341.876 143.623 341.876H150.595V225.686C138.293 223.017 127.051 216.818 118.264 207.857C109.477 198.896 103.531 187.569 101.166 175.281H99.9955C99.3355 175.329 98.6725 175.241 98.0481 175.024C97.4236 174.806 96.8511 174.462 96.3662 174.015C95.8814 173.567 95.4946 173.025 95.2301 172.422C94.9657 171.82 94.8292 171.169 94.8292 170.511C94.8292 169.854 94.9657 169.203 95.2301 168.601C95.4946 167.998 95.8814 167.456 96.3662 167.008C96.8511 166.56 97.4236 166.217 98.0481 165.999C98.6725 165.782 99.3355 165.694 99.9955 165.742V163.39C99.9955 162.122 100.503 160.906 101.405 160.009C102.308 159.112 103.532 158.608 104.808 158.608C106.085 158.608 107.309 159.112 108.211 160.009C109.114 160.906 109.621 162.122 109.621 163.39V165.742H120.027V86.0506C120.027 77.1652 123.569 68.6415 129.877 62.3441C136.186 56.0466 144.748 52.4882 153.69 52.4472H174.502C183.472 52.4472 192.074 55.9875 198.416 62.2894C204.759 68.5913 208.322 77.1384 208.322 86.0506V165.742H218.728V163.39C218.728 162.122 219.235 160.906 220.138 160.009C221.04 159.112 222.264 158.608 223.541 158.608C224.817 158.608 226.041 159.112 226.944 160.009C227.846 160.906 228.354 162.122 228.354 163.39C228.354 163.778 228.321 164.172 228.288 164.566C228.256 164.96 228.223 165.355 228.223 165.742H228.354C229.014 165.694 229.677 165.782 230.301 165.999C230.925 166.217 231.498 166.56 231.983 167.008C232.468 167.456 232.854 167.998 233.119 168.601C233.383 169.203 233.52 169.854 233.52 170.511C233.52 171.169 233.383 171.82 233.119 172.422C232.854 173.025 232.468 173.567 231.983 174.015C231.498 174.462 230.925 174.806 230.301 175.024C229.677 175.241 229.014 175.329 228.354 175.281H227.209C224.841 187.568 218.894 198.893 210.108 207.854C201.321 216.814 190.081 223.014 177.78 225.686V341.876H184.752C193.754 341.876 200.96 350.768 201.922 362.555ZM136.716 69.0811C132.206 73.5622 129.666 79.6359 129.653 85.973L129.757 129.787H198.592V85.973C198.585 79.6338 196.048 73.5561 191.537 69.0736C187.025 64.591 180.909 62.0698 174.529 62.0629H153.717C147.339 62.0766 141.226 64.6001 136.716 69.0811ZM121.354 175.203H110.766C113.579 187.121 120.365 197.744 130.02 205.347C139.675 212.951 151.633 217.088 163.953 217.088C176.273 217.088 188.232 212.951 197.887 205.347C207.542 197.744 214.327 187.121 217.141 175.203H206.735C204.648 182.105 200.384 188.158 194.571 192.468C188.757 196.778 181.704 199.117 174.45 199.139H153.638C146.385 199.117 139.332 196.778 133.518 192.468C127.705 188.158 123.441 182.105 121.354 175.203ZM168.181 341.359V228.219L160.142 228.296V341.359H168.181ZM184.856 351.44H143.623C140.787 351.44 137.691 355.111 136.469 360.513H192.01C190.814 355.111 187.692 351.44 184.856 351.44ZM224.785 386.313C222.037 386.165 219.29 386.013 216.543 385.767C212.328 385.457 208.114 385.069 203.925 384.63C199.737 384.19 195.523 383.673 191.334 383.001C195.106 382.396 198.878 381.959 202.669 381.519C203.087 381.47 203.506 381.422 203.925 381.373C208.14 380.882 212.328 380.546 216.543 380.21L219.795 380.003L213.213 379.512C209.337 379.176 205.434 378.788 201.532 378.349C197.63 377.909 193.728 377.392 189.825 376.72C193.728 376.048 197.656 375.557 201.532 375.092C205.408 374.626 209.311 374.264 213.213 373.954C213.611 373.918 214.01 373.88 214.408 373.842C216.82 373.614 219.234 373.386 221.668 373.386C219.149 372.564 216.514 372.154 213.863 372.171H114.408C111.846 372.169 109.299 372.57 106.864 373.36C109.673 373.489 112.483 373.67 115.292 373.928C119.195 374.239 123.123 374.6 126.999 375.066C130.875 375.531 134.778 376.022 138.68 376.694C135.229 377.293 131.757 377.727 128.283 378.162C127.855 378.215 127.427 378.269 126.999 378.323C123.098 378.814 119.197 379.15 115.297 379.486L115.292 379.486L108.711 379.977L111.989 380.184C116.203 380.52 120.391 380.908 124.58 381.347C128.768 381.786 132.983 382.303 137.171 382.975C133.399 383.581 129.626 384.018 125.835 384.458C125.417 384.507 124.998 384.555 124.58 384.604C120.365 385.095 116.203 385.431 111.989 385.741C109.102 386 106.215 386.155 103.328 386.31L103.326 386.31H103.482C108.867 386.465 114.018 386.62 119.273 387.034C121.604 387.217 123.95 387.38 126.296 387.543C129.239 387.748 132.18 387.953 135.09 388.197C140.319 388.636 145.652 389.153 150.855 389.825C145.496 390.497 140.293 391.014 135.09 391.454C131.521 391.793 127.968 392.024 124.431 392.254C123.378 392.322 122.326 392.391 121.276 392.462H207.125C206.103 392.393 205.08 392.327 204.057 392.26C200.475 392.028 196.893 391.796 193.311 391.454C188.056 391.014 182.723 390.497 177.52 389.825C181.306 389.353 184.913 389.008 188.592 388.656C190.146 388.508 191.712 388.358 193.311 388.197C197.432 387.782 201.339 387.533 205.359 387.277C206.593 387.198 207.838 387.119 209.102 387.034C214.45 386.674 219.618 386.468 224.785 386.313ZM179.68 188.049C178.921 188.049 178.193 187.75 177.656 187.217C177.12 186.683 176.818 185.96 176.818 185.206C176.818 184.452 177.12 183.729 177.656 183.196C178.193 182.662 178.921 182.363 179.68 182.363C182.667 182.363 185.533 181.184 187.645 179.085C189.758 176.986 190.944 174.139 190.944 171.17V154.627C190.944 153.873 191.246 153.15 191.783 152.616C192.319 152.083 193.047 151.784 193.806 151.784C194.565 151.784 195.293 152.083 195.83 152.616C196.366 153.15 196.668 153.873 196.668 154.627V171.17C196.661 175.645 194.869 179.934 191.685 183.098C188.5 186.262 184.183 188.043 179.68 188.049ZM167.167 188.05H159.544C158.785 188.05 158.057 187.75 157.521 187.217C156.984 186.684 156.683 185.961 156.683 185.207C156.683 184.453 156.984 183.729 157.521 183.196C158.057 182.663 158.785 182.363 159.544 182.363H167.167C167.926 182.363 168.653 182.663 169.19 183.196C169.727 183.729 170.028 184.453 170.028 185.207C170.028 185.961 169.727 186.684 169.19 187.217C168.653 187.75 167.926 188.05 167.167 188.05Z" fill="#F58800"/>
</svg>
