<svg width="34" height="34" viewBox="0 0 34 34" fill="none" xmlns="http://www.w3.org/2000/svg">
<path fill-rule="evenodd" clip-rule="evenodd" d="M25.6309 15.1667C25.6309 14.3383 26.3025 13.6667 27.1309 13.6667H32.2559C33.0844 13.6667 33.7559 14.3383 33.7559 15.1667C33.7559 15.9952 33.0844 16.6667 32.2559 16.6667H27.1309C26.3025 16.6667 25.6309 15.9952 25.6309 15.1667ZM18.7976 22.0001C18.7976 21.1717 19.4692 20.5001 20.2976 20.5001H32.2559C33.0844 20.5001 33.7559 21.1717 33.7559 22.0001C33.7559 22.8285 33.0844 23.5001 32.2559 23.5001H20.2976C19.4692 23.5001 18.7976 22.8285 18.7976 22.0001ZM18.7976 28.8334C18.7976 28.005 19.4692 27.3334 20.2976 27.3334H32.2559C33.0844 27.3334 33.7559 28.005 33.7559 28.8334C33.7559 29.6618 33.0844 30.3334 32.2559 30.3334H20.2976C19.4692 30.3334 18.7976 29.6618 18.7976 28.8334Z" fill="#F58800"/>
<path fill-rule="evenodd" clip-rule="evenodd" d="M7.48503 21.7917C5.01125 21.7917 3.00586 23.7971 3.00586 26.2709C3.00586 28.7447 5.01125 30.7501 7.48503 30.7501C9.9588 30.7501 11.9642 28.7447 11.9642 26.2709C11.9642 23.7971 9.9588 21.7917 7.48503 21.7917ZM0.00585938 26.2709C0.00585938 22.1403 3.3544 18.7917 7.48503 18.7917C11.6157 18.7917 14.9642 22.1403 14.9642 26.2709C14.9642 30.4015 11.6157 33.7501 7.48503 33.7501C3.3544 33.7501 0.00585938 30.4015 0.00585938 26.2709Z" fill="#051821"/>
<path fill-rule="evenodd" clip-rule="evenodd" d="M12.9541 0.0894291C13.5483 -0.125368 14.2133 0.0551528 14.6173 0.540889C16.0813 2.30099 17.7008 3.92556 19.4561 5.39493C20.1515 5.81438 20.761 6.36288 21.2513 7.01132C21.7699 7.69699 22.1446 8.4803 22.3531 9.31429C22.5616 10.1483 22.5995 11.0158 22.4647 11.8648C22.3298 12.7138 22.025 13.5269 21.5683 14.2552C21.1283 14.9571 20.2025 15.1693 19.5007 14.7293C18.7988 14.2892 18.5865 13.3635 19.0266 12.6616C19.2687 12.2754 19.4303 11.8444 19.5018 11.3942C19.5733 10.944 19.5532 10.4841 19.4427 10.0419C19.3321 9.59971 19.1334 9.18439 18.8585 8.82084C18.5836 8.45729 18.2381 8.15299 17.8427 7.92619C17.7677 7.88313 17.6965 7.83365 17.6299 7.77832C16.7059 7.00975 15.8165 6.20144 14.9641 5.35584L14.9642 26.2709C14.9642 27.0993 14.2925 27.7709 13.4641 27.7709C12.6357 27.7709 11.9642 27.0993 11.9642 26.2709L11.9641 1.50008C11.9641 0.868287 12.36 0.304226 12.9541 0.0894291Z" fill="#051821"/>
</svg>
