<svg width="257" height="431" viewBox="0 0 257 431" fill="none" xmlns="http://www.w3.org/2000/svg">
<path d="M106.589 176.165C129.054 176.616 151.519 176.883 173.989 177.094C182.287 177.172 180.606 177.267 188.903 177.361C203.199 165.38 199.688 110.995 196.995 64.1672C196.995 10.5279 72.7489 10.9509 71.3799 65.4973C70.3783 105.525 66.3436 172.481 83.4888 175.82C95.8483 176.159 94.2291 175.914 106.589 176.165Z" fill="white"/>
<path d="M106.645 173.428C131.114 173.918 155.498 174.179 174.013 174.357C178.309 174.396 179.95 174.441 181.664 174.491C183.111 174.53 184.614 174.569 187.852 174.608C199.928 162.448 196.901 110.017 194.458 67.7297L194.258 64.3184C194.252 39.132 164.464 27.3568 136.779 27.0063L135.476 27.0007C105.243 27.0007 74.7585 40.1114 74.1241 65.5649C74.0183 69.694 73.8848 74.107 73.7401 78.7035C72.6884 112.899 70.9357 170.005 83.8182 173.088C90.3458 173.266 92.8722 173.278 95.7937 173.289C98.2701 173.3 101.014 173.311 106.645 173.428ZM188.904 180.1H188.876C184.819 180.056 183.133 180.011 181.514 179.967C179.822 179.916 178.203 179.872 173.963 179.833C155.437 179.66 131.025 179.399 106.534 178.904C100.947 178.787 98.2255 178.776 95.7715 178.765C92.7776 178.753 90.1954 178.742 83.4174 178.553L82.9724 178.508C66.6007 175.325 66.5839 133.233 68.2644 78.5365C68.4091 73.9511 68.5428 69.5438 68.6429 65.4314C69.3719 36.4609 102.594 21.525 135.487 21.525L136.851 21.5306C167.135 21.909 199.733 35.4147 199.733 64.1626L199.922 67.4125C202.749 116.316 205.671 166.889 190.663 179.46C190.173 179.878 189.55 180.1 188.904 180.1Z" fill="#266867"/>
<path d="M230.806 251.179C233.438 307.217 228.959 362.409 230.996 405.776C205.403 405.509 181.179 405.703 156.961 405.898C132.754 406.093 108.547 406.282 82.9767 406.021C76.7497 405.959 70.0998 406.015 64.9245 409.476C59.7492 412.932 57.3506 421.174 61.8915 425.431C64.7407 428.107 69.0648 428.263 72.9769 428.263C131.881 428.241 190.778 427.851 251.797 427.657C251.797 368.942 254.69 304.329 253.143 260.684C252.971 255.815 252.17 250.606 248.947 246.95C245.725 243.294 238.864 242.576 230.806 251.179Z" fill="#ACD4F7"/>
<path d="M81.1969 408.752C75.4373 408.752 70.3566 409.136 66.4501 411.751C64.1685 413.276 62.4826 416.159 62.2545 418.93C62.1487 420.238 62.3212 422.08 63.7625 423.432C65.8104 425.352 69.2605 425.519 72.9222 425.519H72.9779C110.941 425.513 148.103 425.346 187.446 425.174C207.797 425.085 228.309 424.996 249.06 424.929C249.093 401.79 249.555 377.834 250.006 354.634C250.679 319.62 251.319 286.548 250.407 260.783C250.279 257.188 249.772 252.03 246.895 248.758C246.244 248.023 245.07 247.138 243.144 247.111L243.05 247.105C240.256 247.105 236.928 248.913 233.601 252.236C234.931 281.729 234.335 310.483 233.757 338.307C233.256 362.547 232.783 385.446 233.729 405.641C233.762 406.398 233.49 407.133 232.966 407.672C232.443 408.212 231.809 408.513 230.963 408.513C205.426 408.245 180.829 408.446 157.04 408.635C133.211 408.824 108.57 409.019 82.95 408.757C82.3601 408.757 81.7756 408.752 81.1969 408.752ZM72.9276 431C68.3088 431 63.5177 430.716 60.0174 427.427C57.6468 425.202 56.506 422.03 56.7953 418.479C57.1626 414.066 59.7556 409.637 63.4006 407.199C69.4607 403.148 76.9676 403.226 83.0054 403.282C108.57 403.543 133.189 403.349 156.996 403.159C179.911 402.97 203.573 402.781 228.13 403.003C227.346 383.349 227.802 361.384 228.281 338.19C228.865 310.088 229.466 281.028 228.069 251.306C228.036 250.566 228.303 249.849 228.809 249.303C234.725 242.987 239.789 241.629 243.05 241.629H243.228C246.294 241.679 249.054 242.926 251.002 245.141C255.047 249.726 255.721 256.153 255.882 260.589C256.8 286.504 256.161 319.648 255.482 354.74C255.014 378.83 254.536 403.733 254.536 427.656C254.536 429.164 253.317 430.394 251.803 430.394C230.123 430.466 208.715 430.56 187.468 430.655C148.125 430.822 110.958 430.989 72.9779 431H72.9276Z" fill="#266867"/>
<path d="M187.252 177.362C188.07 213.395 186.083 305.887 166.918 322.96C160.936 328.291 153.178 329.093 145.838 329.599C129.511 330.718 111.097 330.25 99.6725 315.637C88.8211 301.758 80.5072 222.999 83.49 175.821C111.448 175.821 165.471 177.362 187.252 177.362Z" fill="#ACD4F7"/>
<path d="M86.0763 178.563C83.4998 226.654 92.1143 301.524 101.825 313.944C112.203 327.222 129.026 328.001 145.648 326.866C153.216 326.348 159.899 325.541 165.097 320.911C181.118 306.638 185.492 229.927 184.568 180.094C174.134 180.044 158.152 179.732 141.307 179.398C121.368 179.008 100.784 178.602 86.0763 178.563ZM135.904 332.714C121.246 332.714 107.234 329.765 97.5122 317.322C85.7092 302.219 77.8183 222.164 80.7566 175.642C80.8456 174.2 82.0474 173.076 83.4887 173.076C98.369 173.076 120.25 173.51 141.419 173.922C159.749 174.284 177.067 174.623 187.25 174.623C188.742 174.623 189.955 175.814 189.988 177.3C190.105 182.453 192.587 303.761 168.742 325.001C162.259 330.778 154.296 331.763 146.021 332.33C142.643 332.559 139.254 332.714 135.904 332.714Z" fill="#266867"/>
<path d="M141.163 206.27C138.503 203.337 130.584 203.922 127.946 206.871C125.303 209.82 124.557 214.456 125.225 218.596C125.47 220.11 125.887 221.612 126.65 222.892C127.384 224.116 128.414 225.096 129.555 225.813C133.89 228.54 139.922 227.004 142.821 222.436C145.721 217.867 147.045 212.758 141.163 206.27Z" fill="white"/>
<path d="M135.337 207.083H135.304C132.783 207.089 130.679 207.918 129.989 208.697C128.114 210.789 127.324 214.418 127.93 218.163C128.153 219.565 128.509 220.656 129.004 221.485C129.471 222.269 130.161 222.965 131.007 223.494C134.074 225.425 138.42 224.262 140.506 220.967C143.122 216.849 143.806 213.26 139.132 208.107C138.665 207.595 137.312 207.083 135.337 207.083ZM134.363 229.927C132.198 229.927 130.028 229.348 128.091 228.129C126.522 227.144 125.209 225.814 124.302 224.295C123.439 222.854 122.86 221.134 122.521 219.031C121.647 213.622 122.911 208.391 125.904 205.046C128.164 202.52 132.232 201.613 135.287 201.602C137.251 201.557 140.952 201.958 143.189 204.429C150.735 212.748 147.913 219.526 145.136 223.906C142.677 227.779 138.525 229.927 134.363 229.927Z" fill="#266867"/>
<path d="M193.239 247.021C154.425 244.567 115.615 242.113 75.5042 243.832C75.5431 249.636 75.5823 255.441 75.6213 261.245C113.913 263.215 152.199 265.185 190.49 267.149C191.336 258.768 192.182 250.388 193.239 247.021Z" fill="#ACD4F7"/>
<path d="M78.3412 258.647L188.024 264.284C188.608 258.58 189.181 253.266 189.855 249.554C153.6 247.261 116.199 245.013 78.2578 246.465L78.3412 258.647ZM190.489 269.888H190.35L75.4753 263.983C74.0285 263.905 72.8932 262.715 72.8821 261.262L72.7652 243.85C72.7541 242.381 73.9115 241.162 75.3862 241.095C115.625 239.376 155.141 241.869 193.36 244.284C194.201 244.34 194.991 244.779 195.47 245.469C195.948 246.165 196.104 247.038 195.853 247.845C194.88 250.939 194.034 259.32 193.216 267.422C193.071 268.825 191.886 269.888 190.489 269.888Z" fill="#266867"/>
<path d="M199.055 230.945C193.635 246.449 188.182 263.371 193.412 278.942C193.802 280.099 194.336 281.335 195.427 281.886C196.523 282.431 197.831 282.114 199.011 281.78C215.917 276.983 232.511 271.107 248.66 264.184C250.251 258.013 251.676 250.867 247.881 245.742C246.289 243.588 243.963 242.114 241.643 240.784C228.693 233.36 214.074 228.864 199.055 230.945Z" fill="#ACD4F7"/>
<path d="M201.08 233.454C195.655 249.152 191.398 264.35 196.011 278.067C196.378 279.163 196.606 279.397 196.667 279.442C196.84 279.492 197.385 279.392 198.259 279.141C214.564 274.517 230.729 268.824 246.333 262.196C247.63 256.915 248.515 251.2 245.677 247.372C244.358 245.585 242.199 244.261 240.279 243.159C226.74 235.402 213.562 232.146 201.08 233.454ZM196.795 284.917C195.966 284.917 195.076 284.767 194.202 284.333C191.96 283.209 191.158 280.833 190.819 279.814C185.493 263.983 190.457 247.238 196.473 230.043C196.812 229.069 197.663 228.373 198.682 228.234C212.878 226.259 227.791 229.687 243.005 238.407C245.404 239.787 248.131 241.473 250.084 244.111C254.964 250.705 252.588 259.92 251.308 264.867C251.097 265.691 250.518 266.37 249.739 266.704C233.529 273.643 216.712 279.603 199.756 284.411C199.049 284.611 197.986 284.917 196.795 284.917Z" fill="#266867"/>
<path d="M186.127 157.995C148.57 157.995 110.641 157.444 73.1672 156.365C72.6664 156.348 72.2658 155.925 72.2825 155.419C72.2936 154.918 72.7553 154.545 73.2172 154.534C114.814 155.741 156.99 156.292 198.565 156.148H198.57C199.071 156.148 199.483 156.554 199.483 157.06C199.483 157.567 199.077 157.973 198.57 157.973C194.43 157.99 190.279 157.995 186.127 157.995Z" fill="#266867"/>
<path d="M198.307 143.56C191.591 143.56 184.802 143.109 178.13 142.219C177.634 142.152 177.284 141.696 177.345 141.195L178.374 140.411C184.963 141.29 191.669 141.735 198.307 141.735C198.764 141.724 199.259 142.125 199.259 142.648C199.259 143.165 198.825 143.571 198.307 143.56Z" fill="#266867"/>
<path d="M198.08 128.725H198.046L177.918 128.012C177.412 127.99 177.017 127.573 177.039 127.066C177.056 126.56 177.479 126.193 177.98 126.182L198.108 126.899C198.614 126.916 199.009 127.339 198.992 127.84L198.08 128.725Z" fill="#266867"/>
<path d="M198.376 112.297L198.292 112.292L179.35 110.517C178.849 110.467 178.476 110.021 178.526 109.521L179.517 108.697L198.465 110.472C198.966 110.522 199.333 110.967 199.289 111.468L198.376 112.297Z" fill="#266867"/>
<path d="M197.546 96.1489L197.496 96.1434L178.759 95.0694C178.258 95.0416 177.874 94.6075 177.902 94.1067C177.93 93.6003 178.319 93.2107 178.865 93.2441L197.596 94.3238C198.102 94.3516 198.486 94.7857 198.458 95.2865L197.546 96.1489Z" fill="#266867"/>
<path d="M195.927 80.7568H195.899C190.791 80.6233 185.638 80.2728 180.596 79.7107C180.095 79.6495 179.733 79.1987 179.789 78.6979C179.845 78.197 180.307 77.8298 180.796 77.891C185.794 78.4475 190.891 78.8036 195.949 78.9316C196.45 78.9483 196.851 79.3656 196.84 79.8664L195.927 80.7568Z" fill="#266867"/>
<path d="M195.486 64.2007L195.414 64.1951L180.066 62.9987C179.565 62.9598 179.187 62.5202 179.226 62.0193C179.265 61.5185 179.715 61.1123 180.211 61.1846L195.558 62.3754C196.059 62.4199 196.432 62.854 196.393 63.3604L195.486 64.2007Z" fill="#266867"/>
<path d="M192.066 48.5356C186.79 48.5356 181.476 48.1572 176.267 47.4171L175.494 46.3876L176.523 45.6141C181.704 46.3487 187.063 46.7271 192.249 46.7104H192.255C192.756 46.7104 193.168 47.1165 193.168 47.6229C193.168 48.185 192.639 48.5356 192.066 48.5356Z" fill="#266867"/>
<path d="M41.6817 85.853C40.6411 85.853 39.645 85.2521 39.1887 84.2449C31.4759 67.1942 33.4236 46.2705 44.1359 30.9338C45.004 29.6929 46.7123 29.3924 47.9533 30.255C49.1887 31.1231 49.4947 32.8315 48.6266 34.0725C38.9939 47.8565 37.2467 66.66 44.1805 81.9855C44.8037 83.3656 44.1913 84.9849 42.8113 85.6082L41.6817 85.853Z" fill="#266867"/>
<path d="M19.6878 110.406C18.8809 110.406 18.0908 110.055 17.551 109.382C-4.34101 82.1197 -5.20361 40.3391 15.5476 12.1978C16.4491 10.9847 18.1631 10.7231 19.3818 11.6191C20.595 12.5206 20.8564 14.2345 19.9549 15.4532C0.633844 41.6579 1.43523 80.5616 21.8192 105.954C22.7652 107.134 22.576 108.853 21.4018 109.799C20.8954 110.205 20.2888 110.406 19.6878 110.406Z" fill="#266867"/>
<path d="M217.958 63.7769L217.463 63.7323C215.971 63.4596 214.986 62.035 215.259 60.5492C217.307 49.3695 214.886 37.5221 208.609 28.0507C207.774 26.7875 208.125 25.0902 209.382 24.2499C210.646 23.4208 212.343 23.7659 213.178 25.0235C220.229 35.669 222.95 48.9744 220.651 61.5342C220.406 62.8531 219.255 63.7769 217.958 63.7769Z" fill="#266867"/>
<path d="M241.447 89.499L240.574 89.3599C239.143 88.8813 238.364 87.3288 238.848 85.893C243.428 72.2258 248.158 58.0968 248.882 43.6004C249.666 27.8631 245.081 13.6672 236.311 4.64664C235.254 3.56151 235.276 1.8253 236.361 0.773552C237.452 -0.278198 239.182 -0.255882 240.234 0.829254C250.061 10.935 255.209 26.6221 254.352 43.8675C253.595 59.1207 248.737 73.6171 244.04 87.6349C243.657 88.7757 242.588 89.499 241.447 89.499Z" fill="#266867"/>
<path d="M196.712 170.3C196.974 169.638 197.224 168.959 197.469 168.258C197.386 168.97 197.141 169.671 196.712 170.3Z" fill="#DEDEDE"/>
<path d="M187.851 174.605C184.612 174.567 183.109 174.528 181.663 174.489C179.949 174.439 178.307 174.394 174.011 174.355C167.188 174.288 159.565 174.216 151.429 174.121C148.151 174.055 144.801 173.988 141.418 173.921C120.394 173.509 98.6578 173.086 83.7886 173.075C80.5999 172.296 78.3129 168.2 76.688 161.962C77.6396 161.139 78.8582 160.616 80.2828 160.616C80.6223 160.616 80.9784 160.649 81.3401 160.71C82.1526 160.749 82.9038 160.988 83.5995 161.434C84.4509 161.873 85.3078 162.302 86.187 162.691L86.7047 162.897C92.8761 164.978 100.477 166.013 102.581 166.192C110.973 167.087 119.42 166.659 127.834 167.143C136.543 167.41 145.252 167.989 153.966 167.989C156.86 167.989 159.759 167.928 162.659 167.761C164.523 167.672 166.243 167.649 167.845 167.649C168.797 167.649 169.704 167.661 170.577 167.666C171.451 167.677 172.297 167.683 173.115 167.683C177.088 167.683 180.494 167.488 184.189 166.136C186.148 165.385 186.176 165.646 189.648 163.443L189.904 163.281L189.926 163.27L189.915 163.276C190.694 162.814 191.59 162.591 192.52 162.53C192.57 162.53 192.62 162.53 192.67 162.53C192.948 162.53 193.221 162.552 193.482 162.602C192.141 167.989 190.31 172.135 187.851 174.605Z" fill="#DEDEDE"/>
<path d="M189.131 175.374C188.642 174.907 187.979 174.623 187.25 174.623C178.947 174.623 165.904 174.395 151.43 174.122C159.565 174.217 167.189 174.289 174.011 174.356C178.307 174.395 179.949 174.439 181.663 174.489C183.11 174.528 184.612 174.567 187.851 174.606C190.311 172.135 192.142 167.99 193.483 162.603C196.093 163.07 197.751 165.758 197.467 168.257C197.222 168.958 196.972 169.637 196.71 170.299C196.527 170.572 196.31 170.828 196.054 171.061C193.917 172.892 191.591 174.3 189.131 175.374ZM81.7245 173.721C80.2943 173.187 78.8752 172.586 77.4729 171.918C73.4718 169.642 73.856 164.434 76.6884 161.963C78.3134 168.201 80.6004 172.297 83.789 173.076C83.6889 173.076 83.5887 173.076 83.4885 173.076C82.8207 173.076 82.2031 173.321 81.7245 173.721Z" fill="#266867"/>
<path d="M146.211 178.669C143.545 178.669 140.88 178.636 138.209 178.53C133.885 178.224 129.494 178.169 125.081 178.169C123.529 178.169 121.976 178.174 120.418 178.18C118.86 178.185 117.307 178.197 115.749 178.197C104.135 178.197 92.5438 177.768 81.7258 173.722C82.2044 173.322 82.8221 173.077 83.4898 173.077C83.59 173.077 83.6902 173.077 83.7904 173.077C98.6596 173.088 120.396 173.511 141.42 173.923C144.803 173.989 148.153 174.056 151.431 174.123C165.905 174.396 178.949 174.624 187.251 174.624C187.98 174.624 188.643 174.908 189.133 175.375C183.167 177.979 176.439 178.631 169.823 178.631C168.181 178.631 166.551 178.592 164.937 178.536C164.13 178.525 163.323 178.519 162.516 178.519C159.8 178.519 157.09 178.558 154.374 178.597C151.653 178.631 148.932 178.669 146.211 178.669Z" fill="#266867"/>
<path d="M134.325 224.429C133.167 224.429 132.015 224.128 131.008 223.494C130.162 222.965 129.472 222.27 129.005 221.485C128.509 220.656 128.153 219.565 127.931 218.163C127.708 216.799 127.675 215.453 127.808 214.189C127.864 214.189 127.925 214.184 127.986 214.184C129.639 214.184 131.153 215.158 132.538 216.07L133.757 216.705L135.193 217.122L136.2 217.128C136.868 216.972 137.541 216.866 138.198 216.866C139.038 216.866 139.867 217.039 140.657 217.506C141.13 217.762 141.525 218.085 141.859 218.452C141.514 219.281 141.052 220.11 140.507 220.967C139.11 223.182 136.69 224.429 134.325 224.429Z" fill="#DEDEDE"/>
<path d="M135.509 227.2C131.958 227.2 128.452 225.775 125.47 223.816C121.585 221.713 122.409 215.419 126.699 214.389C127.072 214.267 127.445 214.206 127.807 214.189C127.673 215.452 127.707 216.799 127.929 218.162C128.152 219.565 128.508 220.655 129.003 221.485C129.471 222.269 130.161 222.965 131.007 223.494C132.014 224.128 133.166 224.428 134.323 224.428C136.688 224.428 139.109 223.182 140.506 220.967C141.051 220.11 141.513 219.281 141.858 218.452C144.129 220.984 143.083 225.697 139.476 226.56C138.163 226.999 136.833 227.2 135.509 227.2Z" fill="#266867"/>
<path d="M174.631 316.855C175.916 314.351 177.09 311.497 178.17 308.347C178.326 309.009 178.348 309.738 178.209 310.523C177.925 312.966 176 314.891 174.631 316.855ZM93.3954 309.12C93.3119 308.948 93.2283 308.77 93.1449 308.586C92.6663 307.813 92.4382 307.017 92.4104 306.238C92.7332 307.251 93.0615 308.213 93.3954 309.12Z" fill="#DEDEDE"/>
<path d="M136.032 327.232C122.76 327.232 110.194 324.655 101.825 313.943C100.005 311.617 98.2246 307.093 96.5496 300.966C96.9224 300.871 97.3007 300.821 97.6902 300.821C98.7086 300.821 99.7493 301.166 100.69 301.962C102.676 303.559 103.333 306.325 104.919 308.3C106.505 310.409 107.251 311.55 110.094 313.203C115.932 316.069 124.652 316.809 134.769 317.399C138.514 317.583 141.658 317.727 144.429 317.727C151.808 317.727 156.549 316.698 162.893 312.624C166.371 309.436 165.142 310.454 167.674 306.881C168.753 304.956 170.578 304.116 172.415 304.116C172.871 304.116 173.327 304.166 173.778 304.266C171.363 312.051 168.491 317.883 165.097 320.91C159.899 325.54 153.216 326.347 145.648 326.865C142.431 327.082 139.209 327.232 136.032 327.232Z" fill="#96B9D7"/>
<path d="M143.483 330.505C138.018 330.505 132.52 329.859 127.089 329.392C110.395 327.622 100.985 324.985 93.3942 309.119C93.0603 308.212 92.732 307.249 92.4092 306.237C92.3202 303.777 94.24 301.54 96.5494 300.967C98.2244 307.094 100.005 311.618 101.825 313.944C110.194 324.656 122.76 327.233 136.032 327.233C139.209 327.233 142.431 327.082 145.648 326.865C153.216 326.348 159.899 325.541 165.097 320.911C168.491 317.884 171.363 312.052 173.778 304.267C175.837 304.729 177.673 306.209 178.169 308.346C177.089 311.495 175.915 314.35 174.629 316.854C174.596 316.899 174.568 316.949 174.535 316.993C170.205 323.232 163.372 327.121 156.104 328.952C151.953 330.115 147.729 330.505 143.483 330.505Z" fill="#266867"/>
<path d="M177.724 276.109C175.821 276.109 173.851 275.72 171.998 275.698C161.764 275.686 151.53 275.475 141.319 274.735C131.168 274.557 121.035 274.368 110.924 273.36C104.235 273.026 97.5403 272.859 90.9182 271.847C90.5843 269.526 90.267 267.15 89.9609 264.729L180.54 269.381C180.267 271.607 179.978 273.789 179.672 275.937C179.037 276.059 178.381 276.109 177.724 276.109Z" fill="#96B9D7"/>
<path d="M179.672 275.937C179.978 273.789 180.267 271.607 180.54 269.381L184.474 269.587C184.708 272.058 183.511 274.668 180.946 275.564C180.529 275.731 180.106 275.853 179.672 275.937ZM90.9185 271.846C90.5234 271.785 90.1338 271.718 89.7387 271.652C86.4221 270.834 84.9809 267.4 85.6431 264.506L89.9613 264.729C90.2673 267.15 90.5847 269.526 90.9185 271.846Z" fill="#266867"/>
<path d="M184.474 269.586L180.539 269.38L89.9607 264.728L85.6426 264.506C86.0321 262.803 87.1451 261.284 89.0372 260.594C89.7606 260.221 90.5174 260.098 91.2965 260.098C92.7935 260.098 94.3514 260.555 95.8261 260.577C99.8216 260.944 103.834 260.916 107.841 261.028C129.087 262.397 150.362 262.97 171.614 264.35C171.742 264.35 171.87 264.35 171.998 264.35C172.804 264.35 173.628 264.305 174.451 264.261C175.275 264.211 176.104 264.166 176.922 264.166C178.564 264.166 180.172 264.35 181.647 265.096C183.372 266.036 184.307 267.772 184.474 269.586Z" fill="#266867"/>
<path d="M236.578 280.065C235.799 280.065 235.042 279.898 234.341 279.603C234.318 277.399 234.285 275.185 234.246 272.97C239.46 270.983 244.63 268.891 249.738 266.704C250.05 266.57 250.334 266.375 250.573 266.142C250.634 268.64 250.69 271.2 250.735 273.816C250.557 273.86 250.384 273.905 250.206 273.944L249.338 274.233C246.138 275.997 242.905 277.694 239.577 279.208C238.581 279.804 237.557 280.065 236.578 280.065Z" fill="#96B9D7"/>
<path d="M234.341 279.604C232.238 278.72 230.646 276.661 230.429 274.407C231.704 273.934 232.972 273.455 234.247 272.971C234.286 275.186 234.319 277.401 234.341 279.604ZM250.735 273.817C250.691 271.202 250.635 268.642 250.574 266.143C250.925 265.798 251.186 265.364 251.309 264.869C251.509 264.106 251.732 263.238 251.949 262.298C255.287 263.862 256.684 268.608 254.147 271.524C253.367 272.693 252.099 273.439 250.735 273.817Z" fill="#266867"/>
<path d="M230.429 274.406C230.295 273.031 230.668 271.59 231.742 270.288C233.094 268.301 235.732 267.845 237.718 266.682C240.25 265.502 242.549 263.877 245.17 262.892C246.221 262.614 246.783 261.779 248.998 261.779C249.549 261.779 250.2 261.829 250.979 261.952C251.319 262.035 251.642 262.152 251.948 262.297C251.731 263.237 251.508 264.105 251.308 264.868C251.185 265.363 250.924 265.797 250.573 266.142C250.334 266.376 250.05 266.57 249.738 266.704C244.63 268.891 239.46 270.983 234.246 272.97C232.972 273.454 231.703 273.933 230.429 274.406Z" fill="#266867"/>
</svg>
