<svg width="28" height="21" viewBox="0 0 28 21" fill="none" xmlns="http://www.w3.org/2000/svg">
<path fill-rule="evenodd" clip-rule="evenodd" d="M14 5.72727C12.3816 5.72727 11.0698 7.00936 11.0698 8.59091V12.4091C11.0698 13.9907 12.3816 15.2727 14 15.2727C15.6184 15.2727 16.9302 13.9907 16.9302 12.4091V8.59091C16.9302 7.00936 15.6184 5.72727 14 5.72727ZM9.11628 8.59091C9.11628 5.95502 11.3027 3.81818 14 3.81818C16.6973 3.81818 18.8837 5.95502 18.8837 8.59091V12.4091C18.8837 15.0451 16.6973 17.1818 14 17.1818C11.3027 17.1818 9.11628 15.0451 9.11628 12.4091V8.59091Z" fill="white"/>
<path fill-rule="evenodd" clip-rule="evenodd" d="M14.3256 8.59091C14.3256 8.06373 14.7629 7.63636 15.3023 7.63636H17.907C18.4464 7.63636 18.8837 8.06373 18.8837 8.59091C18.8837 9.11809 18.4464 9.54545 17.907 9.54545H15.3023C14.7629 9.54545 14.3256 9.11809 14.3256 8.59091Z" fill="white"/>
<path fill-rule="evenodd" clip-rule="evenodd" d="M14.3256 12.4091C14.3256 11.8819 14.7629 11.4545 15.3023 11.4545H17.907C18.4464 11.4545 18.8837 11.8819 18.8837 12.4091C18.8837 12.9363 18.4464 13.3636 17.907 13.3636H15.3023C14.7629 13.3636 14.3256 12.9363 14.3256 12.4091Z" fill="white"/>
<path fill-rule="evenodd" clip-rule="evenodd" d="M9.11628 8.59091C9.11628 8.06373 9.55358 7.63636 10.093 7.63636H11.3953C11.9348 7.63636 12.3721 8.06373 12.3721 8.59091C12.3721 9.11809 11.9348 9.54545 11.3953 9.54545H10.093C9.55358 9.54545 9.11628 9.11809 9.11628 8.59091Z" fill="white"/>
<path fill-rule="evenodd" clip-rule="evenodd" d="M9.11628 12.4091C9.11628 11.8819 9.55358 11.4545 10.093 11.4545H11.3953C11.9348 11.4545 12.3721 11.8819 12.3721 12.4091C12.3721 12.9363 11.9348 13.3636 11.3953 13.3636H10.093C9.55358 13.3636 9.11628 12.9363 9.11628 12.4091Z" fill="white"/>
<path d="M20.4483 6.36355C20.6281 6.8606 21.1861 7.12111 21.6948 6.94544C22.2034 6.76976 22.4699 6.2244 22.2901 5.72736L20.4483 6.36355ZM7.16274 13.8776V8.59088H5.20925V13.8776H7.16274ZM5.20925 13.8776C5.20925 14.6481 4.57012 15.2727 3.78171 15.2727V17.1818C5.64899 17.1818 7.16274 15.7025 7.16274 13.8776H5.20925ZM20.8371 13.8776C20.8371 15.7025 22.3509 17.1818 24.2182 17.1818V15.2727C23.4297 15.2727 22.7906 14.6481 22.7906 13.8776H20.8371ZM13.9999 0C9.14497 0 5.20925 3.84627 5.20925 8.59088H7.16274C7.16274 4.90064 10.2239 1.90909 13.9999 1.90909V0ZM13.9999 1.90909C16.9754 1.90909 19.5092 3.76707 20.4483 6.36355L22.2901 5.72736C21.0839 2.39196 17.829 0 13.9999 0V1.90909Z" fill="white"/>
<path fill-rule="evenodd" clip-rule="evenodd" d="M3.5814 9.54545C2.68232 9.54545 1.95349 10.2577 1.95349 11.1364V13.6818C1.95349 14.5605 2.68232 15.2727 3.5814 15.2727C4.48047 15.2727 5.2093 14.5605 5.2093 13.6818V11.1364C5.2093 10.2577 4.48047 9.54545 3.5814 9.54545ZM0 11.1364C0 9.20332 1.60345 7.63636 3.5814 7.63636C5.55934 7.63636 7.16279 9.20332 7.16279 11.1364V13.6818C7.16279 15.6149 5.55934 17.1818 3.5814 17.1818C1.60345 17.1818 0 15.6149 0 13.6818V11.1364Z" fill="white"/>
<path fill-rule="evenodd" clip-rule="evenodd" d="M24.4186 9.54545C23.5195 9.54545 22.7907 10.2577 22.7907 11.1364V13.6818C22.7907 14.5605 23.5195 15.2727 24.4186 15.2727C25.3177 15.2727 26.0465 14.5605 26.0465 13.6818V11.1364C26.0465 10.2577 25.3177 9.54545 24.4186 9.54545ZM20.8372 11.1364C20.8372 9.20333 22.4406 7.63636 24.4186 7.63636C26.3966 7.63636 28 9.20333 28 11.1364V13.6818C28 15.6149 26.3966 17.1818 24.4186 17.1818C22.4406 17.1818 20.8372 15.6149 20.8372 13.6818V11.1364Z" fill="white"/>
<path fill-rule="evenodd" clip-rule="evenodd" d="M14 15.2727C14.5394 15.2727 14.9767 15.7001 14.9767 16.2273V20.0455C14.9767 20.5726 14.5394 21 14 21C13.4606 21 13.0233 20.5726 13.0233 20.0455V16.2273C13.0233 15.7001 13.4606 15.2727 14 15.2727Z" fill="white"/>
</svg>
