<svg width="239" height="48" viewBox="0 0 239 48" fill="none" xmlns="http://www.w3.org/2000/svg">
<path d="M9.46638 0.818398C4.23197 0.803492 -0.0145873 5.13172 3.76627e-05 10.4668V34.5336C-0.0145873 39.8686 4.23197 44.1969 9.46638 44.182H33.0791C38.3135 44.1969 42.56 39.8686 42.5454 34.5336V10.4668C42.56 5.13172 38.3135 0.803492 33.0791 0.818398H9.46638ZM21.0294 5.45423C25.1709 5.45423 28.9163 7.08579 31.7708 10.1334C33.9393 12.4276 35.1571 14.8614 35.7807 18.0676C35.9948 19.1341 35.9948 22.0408 35.7927 23.2401C35.1279 27.0574 33.0791 30.475 30.053 32.8112C28.9734 33.6446 26.3343 35.0919 25.9115 35.0919C25.752 35.0919 25.74 34.9293 25.8091 34.2585C25.9408 33.1852 26.0644 32.9671 26.66 32.7123C27.608 32.3112 29.2287 31.1309 30.2192 30.1227C31.949 28.357 33.1828 26.1495 33.7784 23.7279C34.152 22.2373 34.1028 18.9268 33.6946 17.3968C32.4063 12.5252 28.5001 8.74444 23.7231 7.72675C22.339 7.43812 19.8102 7.43812 18.4049 7.72675C13.5707 8.74444 9.56743 12.7176 8.34957 17.7153C8.02383 19.0758 8.02383 22.3877 8.34957 23.7428C9.15926 27.0534 11.2586 30.0861 14.0068 31.8938C14.5479 32.261 15.198 32.6351 15.4693 32.7489C16.0636 33.0091 16.1965 33.2299 16.3056 34.2937C16.3747 34.9509 16.3601 35.1339 16.2098 35.1339C16.1128 35.1339 15.3855 34.8154 14.6157 34.4414L14.5466 34.3859C10.1631 32.1906 7.35773 28.4722 6.33398 23.5233C6.08536 22.2454 6.03616 19.2045 6.28612 18.0324C6.92297 14.8845 8.14216 12.429 10.1697 10.2554C13.0934 7.11289 16.8533 5.45423 21.0347 5.45423H21.0294ZM21.2727 10.5373C21.992 10.544 22.6927 10.6077 23.2311 10.727C28.1704 11.849 31.6658 16.8832 30.9864 21.8782C30.7165 23.8959 30.0384 25.5492 28.8338 27.0872C28.2382 27.8637 26.7903 29.1633 26.5351 29.1633C26.4925 29.1633 26.4513 28.6686 26.4513 28.0751V26.9802L27.1852 26.0844C29.9679 22.6899 29.7685 17.947 26.7345 14.8424C25.5578 13.6283 24.1924 12.9141 22.4334 12.5916C21.2993 12.3734 21.0627 12.3734 19.8714 12.5767C18.0579 12.8735 16.6579 13.5849 15.4108 14.8424C12.3648 17.9199 12.1627 22.6899 14.9481 26.0844L15.682 26.9802V28.0819C15.682 28.689 15.6328 29.1755 15.5703 29.1755C15.5225 29.1755 15.1063 28.8868 14.6622 28.5264L14.5997 28.5047C13.1253 27.3054 11.8237 25.1806 11.2825 23.091C10.9581 21.828 10.9581 19.4363 11.2972 18.1787C12.1906 14.7842 14.6489 12.1512 18.0499 10.9167C18.7772 10.6552 20.0562 10.5142 21.2621 10.5359L21.2727 10.5373ZM21.0374 15.936C21.5918 15.936 22.1383 16.0498 22.5411 16.2612C23.3987 16.7206 24.114 17.6014 24.3825 18.5338C25.2068 21.3849 22.2433 23.8837 19.555 22.6059H19.535C18.268 22.0056 17.5886 20.8768 17.5739 19.4078C17.5739 18.0812 18.2932 16.9307 19.547 16.2531C19.9419 16.0417 20.4896 15.9347 21.0427 15.9347L21.0374 15.936ZM21.0228 24.4841C22.7764 24.4773 24.0422 25.1115 24.5128 26.2335C24.8652 27.0737 24.7349 29.7202 24.1246 34.0051C23.7164 36.9972 23.4877 37.752 22.9214 38.2615C22.1383 38.9661 21.0374 39.1653 19.9844 38.7832H19.9791C18.712 38.317 18.4408 37.6883 17.9143 34.0037C17.3133 29.7202 17.1804 27.0723 17.5354 26.2322C17.9981 25.1169 19.2585 24.4908 21.0241 24.4827L21.0228 24.4841Z" fill="#616161"/>
<path d="M232.576 42.0046C231.42 42.0046 230.402 41.8395 229.522 41.5094C228.66 41.1609 227.991 40.6932 227.514 40.1063C227.037 39.501 226.798 38.8316 226.798 38.098V37.8504C226.798 37.7587 226.826 37.6853 226.881 37.6303C226.954 37.5569 227.037 37.5202 227.128 37.5202H229.549C229.641 37.5202 229.715 37.5569 229.77 37.6303C229.843 37.6853 229.88 37.7587 229.88 37.8504V37.9054C229.88 38.3639 230.127 38.7674 230.622 39.1159C231.136 39.446 231.778 39.6111 232.548 39.6111C233.282 39.6111 233.878 39.4644 234.336 39.1709C234.795 38.8591 235.024 38.474 235.024 38.0154C235.024 37.5936 234.832 37.2818 234.446 37.0801C234.08 36.86 233.474 36.6307 232.631 36.3923L231.585 36.0621C230.65 35.787 229.861 35.4936 229.219 35.1818C228.577 34.87 228.036 34.4482 227.596 33.9163C227.156 33.366 226.936 32.6691 226.936 31.8254C226.936 30.5416 227.44 29.5237 228.449 28.7717C229.458 28.0014 230.787 27.6162 232.438 27.6162C233.557 27.6162 234.538 27.7996 235.382 28.1664C236.226 28.5149 236.877 29.0101 237.335 29.652C237.794 30.2756 238.023 30.9909 238.023 31.7979C238.023 31.8896 237.986 31.9721 237.913 32.0455C237.858 32.1005 237.784 32.128 237.693 32.128H235.354C235.263 32.128 235.18 32.1005 235.107 32.0455C235.052 31.9721 235.024 31.8896 235.024 31.7979C235.024 31.3211 234.786 30.9267 234.309 30.6149C233.85 30.2848 233.218 30.1197 232.411 30.1197C231.695 30.1197 231.108 30.2573 230.65 30.5324C230.21 30.7892 229.99 31.156 229.99 31.6328C229.99 32.073 230.201 32.4123 230.622 32.6508C231.063 32.8708 231.787 33.1184 232.796 33.3936L233.401 33.5586C234.373 33.8521 235.189 34.1547 235.85 34.4665C236.51 34.76 237.069 35.1818 237.528 35.732C237.986 36.2639 238.215 36.9608 238.215 37.8229C238.215 39.1251 237.702 40.1521 236.675 40.9041C235.648 41.6377 234.281 42.0046 232.576 42.0046Z" fill="#616161"/>
<path d="M225.065 30.0376C225.065 30.1293 225.028 30.2119 224.955 30.2852C224.9 30.3403 224.826 30.3678 224.734 30.3678H221.928C221.837 30.3678 221.791 30.4136 221.791 30.5053V37.1355C221.791 37.8325 221.937 38.3368 222.231 38.6486C222.543 38.9604 223.029 39.1163 223.689 39.1163H224.514C224.606 39.1163 224.679 39.153 224.734 39.2264C224.808 39.2814 224.844 39.3548 224.844 39.4465V41.5098C224.844 41.7116 224.734 41.8308 224.514 41.8674L223.084 41.895C221.635 41.895 220.553 41.6474 219.837 41.1522C219.122 40.657 218.755 39.7216 218.737 38.346V30.5053C218.737 30.4136 218.691 30.3678 218.599 30.3678H217.031C216.94 30.3678 216.857 30.3403 216.784 30.2852C216.729 30.2119 216.701 30.1293 216.701 30.0376V28.1119C216.701 28.0201 216.729 27.9468 216.784 27.8918C216.857 27.8184 216.94 27.7817 217.031 27.7817H218.599C218.691 27.7817 218.737 27.7359 218.737 27.6442V24.4253C218.737 24.3336 218.765 24.2603 218.82 24.2053C218.893 24.1319 218.975 24.0952 219.067 24.0952H221.461C221.552 24.0952 221.626 24.1319 221.681 24.2053C221.754 24.2603 221.791 24.3336 221.791 24.4253V27.6442C221.791 27.7359 221.837 27.7817 221.928 27.7817H224.734C224.826 27.7817 224.9 27.8184 224.955 27.8918C225.028 27.9468 225.065 28.0201 225.065 28.1119V30.0376Z" fill="#616161"/>
<path d="M209.846 42.0046C208.69 42.0046 207.672 41.8395 206.792 41.5094C205.93 41.1609 205.261 40.6932 204.784 40.1063C204.307 39.501 204.068 38.8316 204.068 38.098V37.8504C204.068 37.7587 204.096 37.6853 204.151 37.6303C204.224 37.5569 204.307 37.5202 204.398 37.5202H206.819C206.911 37.5202 206.985 37.5569 207.04 37.6303C207.113 37.6853 207.15 37.7587 207.15 37.8504V37.9054C207.15 38.3639 207.397 38.7674 207.892 39.1159C208.406 39.446 209.048 39.6111 209.818 39.6111C210.552 39.6111 211.148 39.4644 211.606 39.1709C212.065 38.8591 212.294 38.474 212.294 38.0154C212.294 37.5936 212.102 37.2818 211.716 37.0801C211.35 36.86 210.744 36.6307 209.901 36.3923L208.855 36.0621C207.92 35.787 207.131 35.4936 206.489 35.1818C205.847 34.87 205.306 34.4482 204.866 33.9163C204.426 33.366 204.206 32.6691 204.206 31.8254C204.206 30.5416 204.71 29.5237 205.719 28.7717C206.728 28.0014 208.057 27.6162 209.708 27.6162C210.827 27.6162 211.808 27.7996 212.652 28.1664C213.496 28.5149 214.147 29.0101 214.605 29.652C215.064 30.2756 215.293 30.9909 215.293 31.7979C215.293 31.8896 215.256 31.9721 215.183 32.0455C215.128 32.1005 215.054 32.128 214.963 32.128H212.624C212.533 32.128 212.45 32.1005 212.377 32.0455C212.322 31.9721 212.294 31.8896 212.294 31.7979C212.294 31.3211 212.056 30.9267 211.579 30.6149C211.12 30.2848 210.488 30.1197 209.681 30.1197C208.965 30.1197 208.378 30.2573 207.92 30.5324C207.48 30.7892 207.26 31.156 207.26 31.6328C207.26 32.073 207.471 32.4123 207.892 32.6508C208.333 32.8708 209.057 33.1184 210.066 33.3936L210.671 33.5586C211.643 33.8521 212.459 34.1547 213.12 34.4665C213.78 34.76 214.339 35.1818 214.798 35.732C215.256 36.2639 215.486 36.9608 215.486 37.8229C215.486 39.1251 214.972 40.1521 213.945 40.9041C212.918 41.6377 211.551 42.0046 209.846 42.0046Z" fill="#616161"/>
<path d="M196.16 27.5615C197.316 27.5615 198.334 27.7633 199.214 28.1668C200.094 28.5703 200.773 29.1297 201.25 29.845C201.727 30.5419 201.965 31.3397 201.965 32.2384V41.5097C201.965 41.6014 201.928 41.6839 201.855 41.7573C201.8 41.8123 201.727 41.8398 201.635 41.8398H199.104C199.012 41.8398 198.93 41.8123 198.856 41.7573C198.801 41.6839 198.774 41.6014 198.774 41.5097V40.6293C198.774 40.5743 198.755 40.5468 198.719 40.5468C198.682 40.5285 198.645 40.5376 198.609 40.5743C197.71 41.5647 196.408 42.0599 194.702 42.0599C193.327 42.0599 192.189 41.7114 191.291 41.0145C190.41 40.3175 189.97 39.2813 189.97 37.9057C189.97 36.4752 190.465 35.3655 191.456 34.5769C192.465 33.7699 193.877 33.3664 195.693 33.3664H198.636C198.728 33.3664 198.774 33.3205 198.774 33.2288V32.5686C198.774 31.8533 198.563 31.303 198.141 30.9179C197.719 30.5144 197.086 30.3126 196.243 30.3126C195.546 30.3126 194.977 30.441 194.537 30.6978C194.115 30.9362 193.849 31.2755 193.739 31.7157C193.684 31.9358 193.556 32.0275 193.354 31.9908L190.686 31.6607C190.594 31.6424 190.511 31.6148 190.438 31.5782C190.383 31.5231 190.365 31.4589 190.383 31.3856C190.53 30.2668 191.126 29.3498 192.171 28.6345C193.235 27.9192 194.565 27.5615 196.16 27.5615ZM195.5 39.5289C196.399 39.5289 197.169 39.2905 197.811 38.8136C198.453 38.3367 198.774 37.7315 198.774 36.9979V35.7048C198.774 35.6131 198.728 35.5673 198.636 35.5673H196.325C195.353 35.5673 194.583 35.7507 194.014 36.1175C193.464 36.4843 193.189 37.007 193.189 37.6856C193.189 38.2725 193.4 38.7311 193.822 39.0612C194.262 39.373 194.821 39.5289 195.5 39.5289Z" fill="#616161"/>
<path d="M182.59 42.0599C181.178 42.0599 179.958 41.7023 178.931 40.987C177.904 40.2534 177.189 39.2721 176.785 38.0433C176.492 37.218 176.345 36.1175 176.345 34.7419C176.345 33.4214 176.492 32.3393 176.785 31.4956C177.171 30.2851 177.877 29.3314 178.904 28.6345C179.949 27.9192 181.178 27.5615 182.59 27.5615C184.021 27.5615 185.268 27.9192 186.332 28.6345C187.396 29.3498 188.102 30.2485 188.45 31.3306C188.542 31.624 188.606 31.9175 188.643 32.2109V32.2659C188.643 32.4493 188.542 32.5594 188.34 32.5961L185.864 32.9537H185.809C185.644 32.9537 185.534 32.862 185.479 32.6786C185.479 32.5869 185.47 32.5135 185.451 32.4585C185.415 32.3118 185.378 32.1834 185.341 32.0734C185.176 31.5598 184.846 31.138 184.351 30.8078C183.856 30.4777 183.269 30.3126 182.59 30.3126C181.893 30.3126 181.297 30.4961 180.802 30.8629C180.325 31.2113 180.004 31.6974 179.839 32.321C179.656 32.9079 179.564 33.724 179.564 34.7695C179.564 35.7782 179.647 36.5944 179.812 37.218C179.995 37.8599 180.325 38.3734 180.802 38.7586C181.279 39.1254 181.875 39.3088 182.59 39.3088C183.287 39.3088 183.883 39.1346 184.378 38.7861C184.892 38.4193 185.222 37.9332 185.369 37.328C185.387 37.2913 185.396 37.2455 185.396 37.1904C185.415 37.1721 185.424 37.1446 185.424 37.1079C185.479 36.8878 185.607 36.7961 185.809 36.8328L188.285 37.218C188.377 37.2363 188.45 37.2821 188.505 37.3555C188.579 37.4105 188.606 37.4931 188.588 37.6031C188.533 37.8966 188.487 38.1075 188.45 38.2359C188.102 39.4097 187.396 40.3451 186.332 41.042C185.268 41.7206 184.021 42.0599 182.59 42.0599Z" fill="#616161"/>
<path d="M170.634 22.9127C170.634 22.821 170.661 22.7476 170.716 22.6926C170.79 22.6192 170.872 22.5825 170.964 22.5825H173.495C173.587 22.5825 173.66 22.6192 173.715 22.6926C173.788 22.7476 173.825 22.821 173.825 22.9127V41.5102C173.825 41.6019 173.788 41.6845 173.715 41.7578C173.66 41.8128 173.587 41.8404 173.495 41.8404H170.964C170.872 41.8404 170.79 41.8128 170.716 41.7578C170.661 41.6845 170.634 41.6019 170.634 41.5102V40.6849C170.634 40.6299 170.616 40.5932 170.579 40.5748C170.542 40.5565 170.505 40.5748 170.469 40.6299C169.662 41.5836 168.607 42.0604 167.305 42.0604C166.003 42.0604 164.902 41.7211 164.004 41.0425C163.105 40.3639 162.454 39.4194 162.05 38.2089C161.72 37.1818 161.555 36.0355 161.555 34.77C161.555 33.4678 161.711 32.349 162.023 31.4136C162.426 30.2031 163.077 29.2586 163.976 28.58C164.875 27.9013 166.003 27.562 167.36 27.562C168.626 27.562 169.662 28.0206 170.469 28.9376C170.505 28.9743 170.542 28.9926 170.579 28.9926C170.616 28.9743 170.634 28.9376 170.634 28.8826V22.9127ZM169.974 37.9888C170.395 37.2368 170.606 36.173 170.606 34.7975C170.606 33.3669 170.377 32.2756 169.919 31.5237C169.423 30.7167 168.726 30.3132 167.828 30.3132C166.892 30.3132 166.159 30.6983 165.627 31.4686C165.077 32.2756 164.801 33.3944 164.801 34.825C164.801 36.1089 165.022 37.1634 165.462 37.9888C165.975 38.8691 166.755 39.3093 167.8 39.3093C168.736 39.3093 169.46 38.8691 169.974 37.9888Z" fill="#616161"/>
<path d="M153.146 42.0599C151.697 42.0599 150.45 41.6931 149.405 40.9595C148.378 40.2258 147.653 39.2079 147.231 37.9057C146.92 36.9153 146.764 35.8699 146.764 34.7695C146.764 33.5956 146.91 32.5502 147.204 31.6332C147.626 30.3493 148.359 29.3498 149.405 28.6345C150.45 27.9192 151.707 27.5615 153.174 27.5615C154.568 27.5615 155.769 27.9192 156.778 28.6345C157.805 29.3498 158.529 30.3402 158.951 31.6057C159.281 32.486 159.446 33.5315 159.446 34.7419C159.446 35.8974 159.29 36.9428 158.979 37.8782C158.557 39.1804 157.832 40.2075 156.805 40.9595C155.778 41.6931 154.559 42.0599 153.146 42.0599ZM153.146 39.3088C153.825 39.3088 154.403 39.1162 154.879 38.7311C155.375 38.3459 155.732 37.8049 155.952 37.1079C156.136 36.5027 156.228 35.7323 156.228 34.797C156.228 33.8066 156.136 33.0363 155.952 32.486C155.751 31.7891 155.402 31.2572 154.907 30.8904C154.412 30.5052 153.807 30.3126 153.091 30.3126C152.413 30.3126 151.826 30.5052 151.331 30.8904C150.835 31.2572 150.478 31.7891 150.258 32.486C150.074 33.128 149.982 33.8983 149.982 34.797C149.982 35.6957 150.074 36.466 150.258 37.1079C150.459 37.8049 150.808 38.3459 151.303 38.7311C151.817 39.1162 152.431 39.3088 153.146 39.3088Z" fill="#616161"/>
<path d="M140.096 22.5547C141.252 22.5547 142.27 22.7931 143.15 23.27C144.03 23.7468 144.709 24.4254 145.186 25.3058C145.681 26.1678 145.929 27.1674 145.929 28.3045C145.929 29.4233 145.681 30.4137 145.186 31.2757C144.691 32.1378 143.985 32.8072 143.068 33.2841C142.169 33.7426 141.123 33.9718 139.931 33.9718H135.53C135.438 33.9718 135.392 34.0177 135.392 34.1094V41.5099C135.392 41.6016 135.355 41.6841 135.282 41.7575C135.227 41.8125 135.154 41.84 135.062 41.84H132.531C132.439 41.84 132.357 41.8125 132.283 41.7575C132.228 41.6841 132.201 41.6016 132.201 41.5099V22.8848C132.201 22.7931 132.228 22.7198 132.283 22.6647C132.357 22.5914 132.439 22.5547 132.531 22.5547H140.096ZM139.629 31.3858C140.564 31.3858 141.316 31.1107 141.885 30.5604C142.453 30.0102 142.737 29.2858 142.737 28.3871C142.737 27.47 142.453 26.7272 141.885 26.1587C141.316 25.5901 140.564 25.3058 139.629 25.3058H135.53C135.438 25.3058 135.392 25.3517 135.392 25.4434V31.2482C135.392 31.3399 135.438 31.3858 135.53 31.3858H139.629Z" fill="#616161"/>
<path d="M124.629 33.2288C124.703 33.6873 124.739 34.2009 124.739 34.7695L124.712 35.6223C124.712 35.8424 124.602 35.9524 124.382 35.9524H115.771C115.679 35.9524 115.633 35.9983 115.633 36.09C115.688 36.6952 115.771 37.1079 115.881 37.328C116.321 38.6485 117.394 39.318 119.1 39.3363C120.347 39.3363 121.337 38.8228 122.071 37.7957C122.144 37.6856 122.236 37.6306 122.346 37.6306C122.419 37.6306 122.483 37.6581 122.538 37.7132L124.244 39.1162C124.409 39.2446 124.437 39.3913 124.327 39.5564C123.758 40.3634 122.997 40.987 122.043 41.4272C121.108 41.8673 120.062 42.0874 118.907 42.0874C117.476 42.0874 116.257 41.7665 115.248 41.1245C114.258 40.4826 113.533 39.5839 113.075 38.4284C112.653 37.438 112.442 36.0625 112.442 34.3018C112.442 33.238 112.552 32.376 112.772 31.7157C113.139 30.4319 113.827 29.4231 114.835 28.6895C115.862 27.9375 117.091 27.5615 118.522 27.5615C122.135 27.5615 124.171 29.4506 124.629 33.2288ZM118.522 30.3126C117.843 30.3126 117.275 30.4869 116.816 30.8354C116.376 31.1655 116.064 31.6332 115.881 32.2384C115.771 32.5502 115.697 32.9537 115.661 33.4489C115.624 33.5406 115.661 33.5865 115.771 33.5865H121.356C121.447 33.5865 121.493 33.5406 121.493 33.4489C121.456 32.9904 121.401 32.6419 121.328 32.4035C121.163 31.7432 120.833 31.2297 120.338 30.8629C119.861 30.4961 119.256 30.3126 118.522 30.3126Z" fill="#616161"/>
<path d="M107.07 41.8404C106.979 41.8404 106.896 41.8128 106.823 41.7578C106.768 41.6845 106.74 41.6019 106.74 41.5102V22.9127C106.74 22.821 106.768 22.7476 106.823 22.6926C106.896 22.6192 106.979 22.5825 107.07 22.5825H109.601C109.693 22.5825 109.766 22.6192 109.821 22.6926C109.895 22.7476 109.932 22.821 109.932 22.9127V41.5102C109.932 41.6019 109.895 41.6845 109.821 41.7578C109.766 41.8128 109.693 41.8404 109.601 41.8404H107.07Z" fill="#616161"/>
<path d="M103.701 31.4131C104.031 32.3485 104.196 33.4948 104.196 34.852C104.196 36.1542 104.04 37.273 103.728 38.2084C103.325 39.4188 102.673 40.3634 101.775 41.042C100.894 41.7206 99.7756 42.0599 98.4184 42.0599C97.1162 42.0599 96.0708 41.5922 95.2821 40.6568C95.2455 40.6202 95.2088 40.611 95.1721 40.6293C95.1354 40.6477 95.1171 40.6844 95.1171 40.7394V46.7093C95.1171 46.801 95.0804 46.8744 95.007 46.9294C94.952 47.0028 94.8786 47.0394 94.7869 47.0394H92.2559C92.1642 47.0394 92.0817 47.0028 92.0083 46.9294C91.9533 46.8744 91.9258 46.801 91.9258 46.7093V28.1117C91.9258 28.02 91.9533 27.9467 92.0083 27.8917C92.0817 27.8183 92.1642 27.7816 92.2559 27.7816H94.7869C94.8786 27.7816 94.952 27.8183 95.007 27.8917C95.0804 27.9467 95.1171 28.02 95.1171 28.1117V28.9371C95.1171 28.9921 95.1354 29.0288 95.1721 29.0471C95.2088 29.0655 95.2455 29.0471 95.2821 28.9921C96.0891 28.0384 97.1437 27.5615 98.4459 27.5615C99.7481 27.5615 100.849 27.9008 101.747 28.5794C102.646 29.258 103.297 30.2026 103.701 31.4131ZM100.124 38.1533C100.674 37.3097 100.949 36.1909 100.949 34.797C100.949 33.4581 100.729 32.4035 100.289 31.6332C99.7756 30.7345 98.9962 30.2851 97.9507 30.2851C96.997 30.2851 96.2817 30.7253 95.8049 31.6057C95.383 32.321 95.1721 33.3847 95.1721 34.797C95.1721 36.2459 95.4014 37.3463 95.8599 38.0983C96.3367 38.9053 97.0245 39.3088 97.9232 39.3088C98.8953 39.3088 99.6289 38.9236 100.124 38.1533Z" fill="#616161"/>
<path d="M88.7489 31.4131C89.079 32.3485 89.2441 33.4948 89.2441 34.852C89.2441 36.1542 89.0882 37.273 88.7764 38.2084C88.3729 39.4188 87.7218 40.3634 86.8231 41.042C85.9428 41.7206 84.824 42.0599 83.4668 42.0599C82.1646 42.0599 81.1191 41.5922 80.3305 40.6568C80.2938 40.6202 80.2571 40.611 80.2204 40.6293C80.1838 40.6477 80.1654 40.6844 80.1654 40.7394V46.7093C80.1654 46.801 80.1287 46.8744 80.0554 46.9294C80.0004 47.0028 79.927 47.0394 79.8353 47.0394H77.3043C77.2126 47.0394 77.13 47.0028 77.0567 46.9294C77.0016 46.8744 76.9741 46.801 76.9741 46.7093V28.1117C76.9741 28.02 77.0016 27.9467 77.0567 27.8917C77.13 27.8183 77.2126 27.7816 77.3043 27.7816H79.8353C79.927 27.7816 80.0004 27.8183 80.0554 27.8917C80.1287 27.9467 80.1654 28.02 80.1654 28.1117V28.9371C80.1654 28.9921 80.1838 29.0288 80.2204 29.0471C80.2571 29.0655 80.2938 29.0471 80.3305 28.9921C81.1375 28.0384 82.1921 27.5615 83.4943 27.5615C84.7965 27.5615 85.8969 27.9008 86.7956 28.5794C87.6943 29.258 88.3454 30.2026 88.7489 31.4131ZM85.1725 38.1533C85.7227 37.3097 85.9978 36.1909 85.9978 34.797C85.9978 33.4581 85.7777 32.4035 85.3375 31.6332C84.824 30.7345 84.0445 30.2851 82.9991 30.2851C82.0454 30.2851 81.3301 30.7253 80.8532 31.6057C80.4314 32.321 80.2204 33.3847 80.2204 34.797C80.2204 36.2459 80.4497 37.3463 80.9082 38.0983C81.3851 38.9053 82.0729 39.3088 82.9716 39.3088C83.9436 39.3088 84.6773 38.9236 85.1725 38.1533Z" fill="#616161"/>
<path d="M71.7902 41.8404C71.6068 41.8404 71.4876 41.7486 71.4325 41.5652L70.5247 38.6215C70.488 38.5482 70.4421 38.5115 70.3871 38.5115H63.1242C63.0691 38.5115 63.0233 38.5482 62.9866 38.6215L62.0787 41.5652C62.0237 41.7486 61.9045 41.8404 61.7211 41.8404H58.97C58.8599 41.8404 58.7774 41.8128 58.7224 41.7578C58.6673 41.6845 58.6582 41.5836 58.6949 41.4552L64.6648 22.8576C64.7198 22.6742 64.839 22.5825 65.0224 22.5825H68.4613C68.6447 22.5825 68.764 22.6742 68.819 22.8576L74.8164 41.4552C74.8348 41.4919 74.8439 41.5377 74.8439 41.5928C74.8439 41.7578 74.7431 41.8404 74.5413 41.8404H71.7902ZM63.8395 35.8429C63.8211 35.953 63.8578 36.008 63.9495 36.008H69.5343C69.6443 36.008 69.681 35.953 69.6443 35.8429L66.8107 26.6267C66.7923 26.5533 66.7648 26.5166 66.7281 26.5166C66.6914 26.5166 66.6639 26.5533 66.6456 26.6267L63.8395 35.8429Z" fill="#616161"/>
<path d="M120.191 6.77018V12.036H118.846V3.28244H120.146V4.65018H120.26C120.465 4.20566 120.776 3.84853 121.194 3.57878C121.612 3.30523 122.152 3.16846 122.813 3.16846C123.405 3.16846 123.924 3.29003 124.368 3.53319C124.813 3.77254 125.159 4.13728 125.406 4.62738C125.653 5.11369 125.776 5.72918 125.776 6.47384V12.036H124.431V6.56502C124.431 5.87735 124.253 5.34165 123.895 4.95792C123.538 4.57039 123.048 4.37663 122.425 4.37663C121.996 4.37663 121.612 4.46971 121.274 4.65588C120.94 4.84204 120.676 5.11369 120.482 5.47083C120.288 5.82796 120.191 6.26108 120.191 6.77018Z" fill="black"/>
<path d="M112.827 12.2184C112.037 12.2184 111.343 12.0303 110.747 11.6542C110.154 11.278 109.69 10.7518 109.356 10.0756C109.026 9.39929 108.86 8.60904 108.86 7.70481C108.86 6.79298 109.026 5.99703 109.356 5.31695C109.69 4.63688 110.154 4.10878 110.747 3.73265C111.343 3.35652 112.037 3.16846 112.827 3.16846C113.617 3.16846 114.309 3.35652 114.901 3.73265C115.498 4.10878 115.961 4.63688 116.292 5.31695C116.626 5.99703 116.793 6.79298 116.793 7.70481C116.793 8.60904 116.626 9.39929 116.292 10.0756C115.961 10.7518 115.498 11.278 114.901 11.6542C114.309 12.0303 113.617 12.2184 112.827 12.2184ZM112.827 11.0102C113.427 11.0102 113.921 10.8563 114.309 10.5486C114.696 10.2408 114.983 9.83621 115.169 9.3347C115.355 8.8332 115.448 8.2899 115.448 7.70481C115.448 7.11972 115.355 6.57452 115.169 6.06921C114.983 5.56391 114.696 5.15549 114.309 4.84394C113.921 4.5324 113.427 4.37663 112.827 4.37663C112.227 4.37663 111.733 4.5324 111.345 4.84394C110.958 5.15549 110.671 5.56391 110.485 6.06921C110.298 6.57452 110.205 7.11972 110.205 7.70481C110.205 8.2899 110.298 8.8332 110.485 9.3347C110.671 9.83621 110.958 10.2408 111.345 10.5486C111.733 10.8563 112.227 11.0102 112.827 11.0102Z" fill="black"/>
<path d="M96.7146 6.77018V12.036H95.3696V3.28244H96.669V4.65018H96.783C96.9881 4.20566 97.2997 3.84853 97.7176 3.57878C98.1355 3.30523 98.675 3.16846 99.3361 3.16846C99.9288 3.16846 100.447 3.29003 100.892 3.53319C101.336 3.77254 101.682 4.13728 101.929 4.62738C102.176 5.11369 102.3 5.72918 102.3 6.47384V12.036H100.955V6.56502C100.955 5.87735 100.776 5.34165 100.419 4.95792C100.062 4.57039 99.5716 4.37663 98.9486 4.37663C98.5192 4.37663 98.1355 4.46971 97.7974 4.65588C97.463 4.84204 97.199 5.11369 97.0052 5.47083C96.8115 5.82796 96.7146 6.26108 96.7146 6.77018Z" fill="black"/>
<path d="M89.6991 12.2184C88.8556 12.2184 88.1281 12.0322 87.5164 11.6599C86.9085 11.2837 86.4393 10.7594 86.1088 10.087C85.782 9.41069 85.6187 8.62424 85.6187 7.7276C85.6187 6.83097 85.782 6.04072 86.1088 5.35685C86.4393 4.66918 86.899 4.13348 87.4879 3.74975C88.0806 3.36222 88.7721 3.16846 89.5623 3.16846C90.0182 3.16846 90.4684 3.24444 90.913 3.39641C91.3575 3.54839 91.7621 3.79534 92.1268 4.13728C92.4916 4.47541 92.7822 4.92373 92.9988 5.48222C93.2153 6.04072 93.3236 6.72839 93.3236 7.54524V8.11513H86.5761V6.95255H91.9559C91.9559 6.45864 91.8571 6.01792 91.6595 5.6304C91.4658 5.24287 91.1884 4.93703 90.8275 4.71287C90.4703 4.48871 90.0486 4.37663 89.5623 4.37663C89.0266 4.37663 88.5631 4.50961 88.1718 4.77556C87.7842 5.03771 87.486 5.37964 87.277 5.80136C87.0681 6.22308 86.9636 6.6752 86.9636 7.15771V7.93277C86.9636 8.59384 87.0776 9.15424 87.3055 9.61395C87.5373 10.0699 87.8583 10.4175 88.2687 10.6569C88.679 10.8924 89.1558 11.0102 89.6991 11.0102C90.0524 11.0102 90.3716 10.9608 90.6565 10.862C90.9453 10.7594 91.1941 10.6075 91.4031 10.4061C91.612 10.2009 91.7735 9.94639 91.8875 9.64245L93.1868 10.0072C93.0501 10.4479 92.8202 10.8354 92.4973 11.1698C92.1743 11.5003 91.7754 11.7586 91.3005 11.9448C90.8256 12.1272 90.2918 12.2184 89.6991 12.2184Z" fill="black"/>
<path d="M84.0998 3.28227V4.42205H79.5635V3.28227H84.0998ZM80.8856 1.18506H82.2306V9.5283C82.2306 9.90823 82.2857 10.1932 82.3958 10.3831C82.5098 10.5693 82.6542 10.6947 82.829 10.7593C83.0075 10.8201 83.1956 10.8504 83.3932 10.8504C83.5413 10.8504 83.6629 10.8428 83.7579 10.8277C83.8529 10.8087 83.9289 10.7935 83.9858 10.7821L84.2594 11.9902C84.1682 12.0244 84.0409 12.0586 83.8776 12.0928C83.7142 12.1308 83.5071 12.1498 83.2564 12.1498C82.8765 12.1498 82.5041 12.0681 82.1394 11.9048C81.7785 11.7414 81.4783 11.4925 81.239 11.1582C81.0034 10.8239 80.8856 10.4021 80.8856 9.89303V1.18506Z" fill="black"/>
<path d="M78.109 5.24287L76.9008 5.5848C76.8248 5.38344 76.7127 5.18778 76.5646 4.99781C76.4202 4.80405 76.2226 4.64448 75.9719 4.5191C75.7211 4.39373 75.4001 4.33104 75.0087 4.33104C74.473 4.33104 74.0266 4.45452 73.6695 4.70147C73.3162 4.94462 73.1395 5.25427 73.1395 5.6304C73.1395 5.96473 73.2611 6.22878 73.5042 6.42255C73.7474 6.61631 74.1273 6.77778 74.644 6.90696L75.9434 7.2261C76.726 7.41606 77.3092 7.70671 77.6929 8.09803C78.0767 8.48556 78.2685 8.98517 78.2685 9.59685C78.2685 10.0984 78.1242 10.5467 77.8354 10.9418C77.5505 11.3369 77.1515 11.6485 76.6386 11.8764C76.1257 12.1044 75.5292 12.2184 74.8492 12.2184C73.9563 12.2184 73.2174 12.0246 72.6323 11.6371C72.0472 11.2495 71.6768 10.6834 71.521 9.93879L72.7976 9.61965C72.9191 10.0908 73.149 10.4441 73.4871 10.6797C73.8291 10.9152 74.2755 11.033 74.8264 11.033C75.4533 11.033 75.951 10.9 76.3195 10.6341C76.6918 10.3643 76.878 10.0414 76.878 9.66524C76.878 9.3613 76.7716 9.10675 76.5589 8.90158C76.3461 8.69262 76.0194 8.53685 75.5786 8.43427L74.1197 8.09234C73.3181 7.90237 72.7292 7.60793 72.353 7.209C71.9807 6.80628 71.7945 6.30287 71.7945 5.69878C71.7945 5.20488 71.9332 4.76796 72.2106 4.38803C72.4917 4.0081 72.8735 3.70986 73.3561 3.4933C73.8424 3.27674 74.3933 3.16846 75.0087 3.16846C75.875 3.16846 76.5551 3.35842 77.049 3.73835C77.5467 4.11828 77.9 4.61979 78.109 5.24287Z" fill="black"/>
<path d="M68.1002 12.0361V3.28258H69.4452V12.0361H68.1002ZM68.7841 1.82366C68.5219 1.82366 68.2959 1.73438 68.1059 1.55581C67.9197 1.37724 67.8267 1.16258 67.8267 0.911829C67.8267 0.661076 67.9197 0.446416 68.1059 0.267849C68.2959 0.0892831 68.5219 0 68.7841 0C69.0462 0 69.2704 0.0892831 69.4566 0.267849C69.6465 0.446416 69.7415 0.661076 69.7415 0.911829C69.7415 1.16258 69.6465 1.37724 69.4566 1.55581C69.2704 1.73438 69.0462 1.82366 68.7841 1.82366Z" fill="black"/>
<path d="M59.2554 12.0366V0.365234H60.6687V10.7829H66.0941V12.0366H59.2554Z" fill="black"/>
</svg>
