<svg width="85" height="49" viewBox="0 0 85 49" fill="none" xmlns="http://www.w3.org/2000/svg">
<path d="M0.962639 22.3267C0.785279 22.3267 0.644507 22.4654 0.621575 22.6632L0 27.4378L0.621575 32.1302C0.644507 32.328 0.785193 32.4657 0.962639 32.4657C1.13442 32.4657 1.27433 32.3289 1.30173 32.132L2.03848 27.4377L1.30173 22.6622C1.27519 22.4653 1.13356 22.3267 0.962639 22.3267ZM4.45822 19.718C4.42893 19.5128 4.2836 19.3713 4.10444 19.3713C3.92433 19.3713 3.77532 19.5174 3.75067 19.718C3.75067 19.7198 2.91514 27.4378 2.91514 27.4378L3.75067 34.9866C3.77446 35.1891 3.92347 35.3352 4.10444 35.3352C4.28266 35.3352 4.42807 35.1928 4.45727 34.9886L5.40788 27.4378L4.45822 19.718ZM17.6253 12.5972C17.2825 12.5972 16.9991 12.8809 16.9827 13.2415L16.3172 27.4442L16.9827 36.6228C17 36.9815 17.2825 37.2644 17.6253 37.2644C17.9662 37.2644 18.2487 36.9805 18.2688 36.621V36.6238L19.0211 27.4442L18.2688 13.2415C18.2486 12.8809 17.9662 12.5972 17.6253 12.5972ZM10.8104 17.5335C10.5472 17.5335 10.3324 17.7462 10.3113 18.0299L9.56171 27.4405L10.3113 36.5451C10.3314 36.827 10.5471 37.0397 10.8104 37.0397C11.0709 37.0397 11.2858 36.827 11.3087 36.5451L12.1606 27.4405L11.3087 18.028C11.2858 17.7462 11.0709 17.5335 10.8104 17.5335ZM24.5507 37.2635C24.9758 37.2635 25.3213 36.9168 25.3387 36.473L25.9914 27.4488L25.3396 8.53977C25.3223 8.09602 24.9766 7.74938 24.5517 7.74938C24.1229 7.74938 23.7765 8.09698 23.7627 8.54073L23.1841 27.4479L23.7627 36.4758C23.7764 36.9159 24.1228 37.2635 24.5507 37.2635ZM38.7288 37.306C39.3138 37.306 39.7965 36.8189 39.8074 36.2198L40.2627 27.4544L39.8074 5.61585C39.7973 5.01776 39.3138 4.52972 38.7287 4.52972C38.1427 4.52972 37.6592 5.01689 37.65 5.6168L37.2432 27.447C37.2432 27.4609 37.65 36.2253 37.65 36.2253C37.6593 36.8188 38.1437 37.306 38.7288 37.306ZM31.5858 37.2718C32.095 37.2718 32.5054 36.8586 32.5191 36.3317V36.3381L33.073 27.4508L32.5182 8.40488C32.5044 7.87793 32.0941 7.46571 31.5848 7.46571C31.072 7.46571 30.6616 7.87801 30.6506 8.40488L30.1579 27.4517L30.6516 36.3373C30.6625 36.8586 31.0729 37.2718 31.5858 37.2718ZM14.2046 37.1886C14.5072 37.1886 14.7522 36.9436 14.7751 36.621L15.5777 27.4406L14.7751 18.7076C14.7532 18.385 14.5082 18.1418 14.2046 18.1418C13.8975 18.1418 13.6525 18.3867 13.6333 18.7113L12.9267 27.4406L13.6333 36.6201C13.6534 36.9436 13.8974 37.1886 14.2046 37.1886ZM7.44379 36.6857C7.66495 36.6857 7.84411 36.5091 7.86971 36.2651L8.77102 27.4387L7.87057 18.2795C7.84403 18.0346 7.66486 17.8579 7.4437 17.8579C7.2197 17.8579 7.04054 18.0355 7.01769 18.2795L6.22426 27.4387L7.01769 36.2633C7.03968 36.5082 7.21884 36.6857 7.44379 36.6857ZM35.1436 8.08777C34.5906 8.08777 34.1471 8.53247 34.1362 9.1019L33.6865 27.4526L34.1362 36.2826C34.1472 36.8447 34.5896 37.2894 35.1436 37.2894C35.6957 37.2894 36.1364 36.8456 36.1491 36.2762V36.2836L36.6537 27.4535L36.1491 9.09999C36.1363 8.53247 35.6956 8.08777 35.1436 8.08777ZM21.0752 37.282C21.4573 37.282 21.7727 36.9667 21.7909 36.5646L22.493 27.4469L21.7909 9.99574C21.7717 9.59264 21.4573 9.27839 21.0752 9.27839C20.6894 9.27839 20.375 9.59359 20.3585 9.99574L19.7369 27.4469L20.3594 36.5683C20.3749 36.9667 20.6893 37.282 21.0752 37.282ZM28.9147 36.4213V36.4166L29.518 27.4498L28.9147 7.90381C28.9 7.41855 28.5216 7.03768 28.0545 7.03768C27.5846 7.03768 27.2061 7.41759 27.1934 7.90381L26.6577 27.4488L27.1943 36.4204C27.2071 36.901 27.5856 37.2809 28.0545 37.2809C28.5225 37.2809 28.8992 36.901 28.9148 36.4176V36.4213H28.9147ZM74.5459 16.1829C73.1135 16.1829 71.7469 16.476 70.5018 17.0038C69.6699 7.47492 61.7683 0 52.1298 0C49.7714 0 47.4723 0.46963 45.4421 1.26367C44.6532 1.57244 44.4429 1.89042 44.4356 2.50701V36.0635C44.4439 36.7106 44.9402 37.2495 45.5646 37.3133C45.5912 37.3161 74.3586 37.3309 74.5451 37.3309C80.3187 37.3309 85 32.5969 85 26.7574C84.9999 20.9178 80.3196 16.1829 74.5459 16.1829ZM42.2984 2.47748C41.6704 2.47748 41.1549 2.99888 41.1457 3.63944L40.674 27.4572L41.1466 36.1014C41.1549 36.7329 41.6704 37.2533 42.2984 37.2533C42.9245 37.2533 43.4401 36.7329 43.4492 36.0922V36.1024L43.962 27.4572L43.4492 3.63762C43.4401 2.99888 42.9245 2.47748 42.2984 2.47748ZM8.44293 44.0524C7.20613 43.7584 6.87151 43.6013 6.87151 43.1058C6.87151 42.7564 7.1503 42.3949 7.98583 42.3949C8.69973 42.3949 9.25741 42.6879 9.7584 43.2065L10.8837 42.1028C10.1479 41.3254 9.25655 40.8631 8.0426 40.8631C6.50322 40.8631 5.25543 41.7423 5.25543 43.1742C5.25543 44.729 6.25921 45.1914 7.69621 45.5287C9.16697 45.8661 9.43485 46.0926 9.43485 46.6001C9.43485 47.1973 8.9988 47.457 8.0755 47.457C7.3287 47.457 6.62664 47.1982 6.08005 46.5539L4.95457 47.569C5.54505 48.4481 6.68316 49 7.98574 49C10.1157 49 11.0517 47.9859 11.0517 46.4874C11.0518 44.7735 9.68058 44.3455 8.44293 44.0524ZM15.6223 40.8631C13.4943 40.8631 12.2355 42.5309 12.2355 44.9316C12.2355 47.3324 13.4942 48.999 15.6223 48.999C17.7505 48.999 19.011 47.3324 19.011 44.9316C19.011 42.5309 17.7505 40.8631 15.6223 40.8631ZM15.6223 47.434C14.3637 47.434 13.8389 46.3404 13.8389 44.9324C13.8389 43.5236 14.3636 42.43 15.6223 42.43C16.8829 42.43 17.4058 43.5236 17.4058 44.9324C17.4058 46.3404 16.8829 47.434 15.6223 47.434ZM25.3085 45.4168C25.3085 46.6787 24.6942 47.457 23.7033 47.457C22.7115 47.457 22.1099 46.6564 22.1099 45.3947V40.9861H20.5487V45.4169C20.5487 47.715 21.8202 49 23.7033 49C25.6869 49 26.8688 47.6808 26.8688 45.3948V40.9861H25.3085V45.4168ZM33.5996 44.3233C33.5996 44.7633 33.6215 45.7544 33.6215 46.0474C33.521 45.844 33.2651 45.4502 33.0758 45.1563L30.3106 40.9853H28.8177V48.8762H30.3563V45.404C30.3563 44.9641 30.3343 43.9729 30.3343 43.6799C30.4339 43.8824 30.6917 44.2771 30.88 44.5711L33.7448 48.8761H35.1379V40.9852H33.5995L33.5996 44.3233ZM39.5844 40.9861H37.1437V48.877H39.4719C41.4784 48.877 43.463 47.7039 43.463 44.9316C43.463 42.0455 41.813 40.9861 39.5844 40.9861ZM39.4719 47.3443H38.7041V42.5198H39.5286C41.1786 42.5198 41.8588 43.3194 41.8588 44.9316C41.8587 46.3746 41.111 47.3443 39.4719 47.3443ZM48.2887 42.4292C48.9907 42.4292 49.4367 42.7453 49.7155 43.2861L51.1644 42.6103C50.6735 41.5851 49.7813 40.8631 48.3105 40.8631C46.2729 40.8631 44.845 42.5309 44.845 44.9316C44.845 47.422 46.2152 48.999 48.2547 48.999C49.6706 48.999 50.6067 48.3344 51.1415 47.2186L49.8269 46.4291C49.4146 47.1289 49.0015 47.4331 48.2994 47.4331C47.1293 47.4331 46.4493 46.3505 46.4493 44.9316C46.4485 43.4673 47.1195 42.4292 48.2887 42.4292ZM54.0759 40.9861H52.5155V48.877H57.205V47.3203H54.0759V40.9861ZM61.3158 40.8631C59.1859 40.8631 57.9272 42.5309 57.9272 44.9316C57.9272 47.3324 59.1859 48.999 61.3158 48.999C63.4439 48.999 64.7035 47.3324 64.7035 44.9316C64.7036 42.5309 63.4439 40.8631 61.3158 40.8631ZM61.3158 47.434C60.0552 47.434 59.5323 46.3404 59.5323 44.9324C59.5323 43.5236 60.0552 42.43 61.3158 42.43C62.5737 42.43 63.0974 43.5236 63.0974 44.9324C63.0974 46.3404 62.5737 47.434 61.3158 47.434ZM71.0001 45.4168C71.0001 46.6787 70.3886 47.457 69.3967 47.457C68.4031 47.457 67.8025 46.6564 67.8025 45.3947V40.9861H66.2421V45.4169C66.2421 47.715 67.5128 49 69.3967 49C71.3804 49 72.5615 47.6808 72.5615 45.3948V40.9861H71.0001V45.4168ZM76.952 40.9861H74.5122V48.877H76.8404C78.8478 48.877 80.8305 47.7039 80.8305 44.9316C80.8305 42.0455 79.1815 40.9861 76.952 40.9861ZM76.8404 47.3443H76.0716V42.5198H76.8971C78.5452 42.5198 79.2253 43.3194 79.2253 44.9316C79.2254 46.3746 78.4785 47.3443 76.8404 47.3443Z" fill="#9C9C9C"/>
</svg>
