<svg width="239" height="48" viewBox="0 0 239 48" fill="none" xmlns="http://www.w3.org/2000/svg">
<path d="M9.84724 0.818398C4.61283 0.803492 0.366272 5.13172 0.380897 10.4668V34.5336C0.366272 39.8686 4.61283 44.1969 9.84724 44.182H33.4599C38.6943 44.1969 42.9409 39.8686 42.9263 34.5336V10.4668C42.9409 5.13172 38.6943 0.803492 33.4599 0.818398H9.84724ZM21.4103 5.45423C25.5518 5.45423 29.2971 7.08579 32.1517 10.1334C34.3201 12.4276 35.538 14.8614 36.1616 18.0676C36.3756 19.1341 36.3756 22.0408 36.1735 23.2401C35.5088 27.0574 33.4599 30.475 30.4339 32.8112C29.3543 33.6446 26.7152 35.0919 26.2924 35.0919C26.1328 35.0919 26.1209 34.9293 26.19 34.2585C26.3216 33.1852 26.4453 32.9671 27.0409 32.7123C27.9889 32.3112 29.6096 31.1309 30.6001 30.1227C32.3298 28.357 33.5636 26.1495 34.1593 23.7279C34.5329 22.2373 34.4837 18.9268 34.0755 17.3968C32.7872 12.5252 28.881 8.74444 24.1039 7.72675C22.7199 7.43812 20.1911 7.43812 18.7858 7.72675C13.9515 8.74444 9.94829 12.7176 8.73043 17.7153C8.40469 19.0758 8.40469 22.3877 8.73043 23.7428C9.54012 27.0534 11.6395 30.0861 14.3876 31.8938C14.9288 32.261 15.5789 32.6351 15.8501 32.7489C16.4444 33.0091 16.5774 33.2299 16.6864 34.2937C16.7555 34.9509 16.7409 35.1339 16.5907 35.1339C16.4936 35.1339 15.7664 34.8154 14.9966 34.4414L14.9274 34.3859C10.5439 32.1906 7.73859 28.4722 6.71484 23.5233C6.46622 22.2454 6.41702 19.2045 6.66698 18.0324C7.30383 14.8845 8.52302 12.429 10.5506 10.2554C13.4742 7.11289 17.2342 5.45423 21.4156 5.45423H21.4103ZM21.6536 10.5373C22.3729 10.544 23.0735 10.6077 23.612 10.727C28.5513 11.849 32.0466 16.8832 31.3672 21.8782C31.0973 23.8959 30.4193 25.5492 29.2147 27.0872C28.6191 27.8637 27.1712 29.1633 26.9159 29.1633C26.8734 29.1633 26.8322 28.6686 26.8322 28.0751V26.9802L27.5661 26.0844C30.3488 22.6899 30.1494 17.947 27.1153 14.8424C25.9387 13.6283 24.5733 12.9141 22.8143 12.5916C21.6802 12.3734 21.4435 12.3734 20.2522 12.5767C18.4388 12.8735 17.0387 13.5849 15.7916 14.8424C12.7456 17.9199 12.5436 22.6899 15.3289 26.0844L16.0629 26.9802V28.0819C16.0629 28.689 16.0137 29.1755 15.9512 29.1755C15.9033 29.1755 15.4872 28.8868 15.0431 28.5264L14.9806 28.5047C13.5061 27.3054 12.2045 25.1806 11.6634 23.091C11.339 21.828 11.339 19.4363 11.678 18.1787C12.5715 14.7842 15.0298 12.1512 18.4308 10.9167C19.158 10.6552 20.4371 10.5142 21.6429 10.5359L21.6536 10.5373ZM21.4183 15.936C21.9727 15.936 22.5191 16.0498 22.922 16.2612C23.7795 16.7206 24.4948 17.6014 24.7634 18.5338C25.5877 21.3849 22.6242 23.8837 19.9358 22.6059H19.9159C18.6488 22.0056 17.9694 20.8768 17.9548 19.4078C17.9548 18.0812 18.6741 16.9307 19.9278 16.2531C20.3227 16.0417 20.8705 15.9347 21.4236 15.9347L21.4183 15.936ZM21.4036 24.4841C23.1573 24.4773 24.423 25.1115 24.8937 26.2335C25.246 27.0737 25.1157 29.7202 24.5055 34.0051C24.0973 36.9972 23.8686 37.752 23.3022 38.2615C22.5191 38.9661 21.4183 39.1653 20.3653 38.7832H20.3599C19.0929 38.317 18.8217 37.6883 18.2952 34.0037C17.6942 29.7202 17.5613 27.0723 17.9162 26.2322C18.3789 25.1169 19.6393 24.4908 21.405 24.4827L21.4036 24.4841Z" fill="white"/>
<path d="M232.957 42.0046C231.801 42.0046 230.783 41.8395 229.903 41.5094C229.041 41.1609 228.372 40.6932 227.895 40.1063C227.418 39.501 227.179 38.8316 227.179 38.098V37.8504C227.179 37.7587 227.207 37.6853 227.262 37.6303C227.335 37.5569 227.418 37.5202 227.51 37.5202H229.931C230.022 37.5202 230.096 37.5569 230.151 37.6303C230.224 37.6853 230.261 37.7587 230.261 37.8504V37.9054C230.261 38.3639 230.508 38.7674 231.003 39.1159C231.517 39.446 232.159 39.6111 232.929 39.6111C233.663 39.6111 234.259 39.4644 234.718 39.1709C235.176 38.8591 235.405 38.474 235.405 38.0154C235.405 37.5936 235.213 37.2818 234.828 37.0801C234.461 36.86 233.855 36.6307 233.012 36.3923L231.966 36.0621C231.031 35.787 230.242 35.4936 229.6 35.1818C228.958 34.87 228.417 34.4482 227.977 33.9163C227.537 33.366 227.317 32.6691 227.317 31.8254C227.317 30.5416 227.821 29.5237 228.83 28.7717C229.839 28.0014 231.169 27.6162 232.819 27.6162C233.938 27.6162 234.919 27.7996 235.763 28.1664C236.607 28.5149 237.258 29.0101 237.716 29.652C238.175 30.2756 238.404 30.9909 238.404 31.7979C238.404 31.8896 238.367 31.9721 238.294 32.0455C238.239 32.1005 238.166 32.128 238.074 32.128H235.735C235.644 32.128 235.561 32.1005 235.488 32.0455C235.433 31.9721 235.405 31.8896 235.405 31.7979C235.405 31.3211 235.167 30.9267 234.69 30.6149C234.231 30.2848 233.599 30.1197 232.792 30.1197C232.076 30.1197 231.49 30.2573 231.031 30.5324C230.591 30.7892 230.371 31.156 230.371 31.6328C230.371 32.073 230.582 32.4123 231.003 32.6508C231.444 32.8708 232.168 33.1184 233.177 33.3936L233.782 33.5586C234.754 33.8521 235.57 34.1547 236.231 34.4665C236.891 34.76 237.45 35.1818 237.909 35.732C238.367 36.2639 238.597 36.9608 238.597 37.8229C238.597 39.1251 238.083 40.1521 237.056 40.9041C236.029 41.6377 234.662 42.0046 232.957 42.0046Z" fill="white"/>
<path d="M225.446 30.0376C225.446 30.1293 225.409 30.2119 225.336 30.2852C225.281 30.3403 225.207 30.3678 225.116 30.3678H222.309C222.218 30.3678 222.172 30.4136 222.172 30.5053V37.1355C222.172 37.8325 222.319 38.3368 222.612 38.6486C222.924 38.9604 223.41 39.1163 224.07 39.1163H224.895C224.987 39.1163 225.061 39.153 225.116 39.2264C225.189 39.2814 225.226 39.3548 225.226 39.4465V41.5098C225.226 41.7116 225.116 41.8308 224.895 41.8674L223.465 41.895C222.016 41.895 220.934 41.6474 220.219 41.1522C219.503 40.657 219.136 39.7216 219.118 38.346V30.5053C219.118 30.4136 219.072 30.3678 218.981 30.3678H217.412C217.321 30.3678 217.238 30.3403 217.165 30.2852C217.11 30.2119 217.082 30.1293 217.082 30.0376V28.1119C217.082 28.0201 217.11 27.9468 217.165 27.8918C217.238 27.8184 217.321 27.7817 217.412 27.7817H218.981C219.072 27.7817 219.118 27.7359 219.118 27.6442V24.4253C219.118 24.3336 219.146 24.2603 219.201 24.2053C219.274 24.1319 219.357 24.0952 219.448 24.0952H221.842C221.933 24.0952 222.007 24.1319 222.062 24.2053C222.135 24.2603 222.172 24.3336 222.172 24.4253V27.6442C222.172 27.7359 222.218 27.7817 222.309 27.7817H225.116C225.207 27.7817 225.281 27.8184 225.336 27.8918C225.409 27.9468 225.446 28.0201 225.446 28.1119V30.0376Z" fill="white"/>
<path d="M210.227 42.0046C209.071 42.0046 208.053 41.8395 207.173 41.5094C206.311 41.1609 205.642 40.6932 205.165 40.1063C204.688 39.501 204.449 38.8316 204.449 38.098V37.8504C204.449 37.7587 204.477 37.6853 204.532 37.6303C204.605 37.5569 204.688 37.5202 204.78 37.5202H207.201C207.292 37.5202 207.366 37.5569 207.421 37.6303C207.494 37.6853 207.531 37.7587 207.531 37.8504V37.9054C207.531 38.3639 207.778 38.7674 208.274 39.1159C208.787 39.446 209.429 39.6111 210.199 39.6111C210.933 39.6111 211.529 39.4644 211.988 39.1709C212.446 38.8591 212.675 38.474 212.675 38.0154C212.675 37.5936 212.483 37.2818 212.098 37.0801C211.731 36.86 211.126 36.6307 210.282 36.3923L209.236 36.0621C208.301 35.787 207.512 35.4936 206.87 35.1818C206.229 34.87 205.687 34.4482 205.247 33.9163C204.807 33.366 204.587 32.6691 204.587 31.8254C204.587 30.5416 205.091 29.5237 206.1 28.7717C207.109 28.0014 208.439 27.6162 210.089 27.6162C211.208 27.6162 212.189 27.7996 213.033 28.1664C213.877 28.5149 214.528 29.0101 214.986 29.652C215.445 30.2756 215.674 30.9909 215.674 31.7979C215.674 31.8896 215.637 31.9721 215.564 32.0455C215.509 32.1005 215.436 32.128 215.344 32.128H213.005C212.914 32.128 212.831 32.1005 212.758 32.0455C212.703 31.9721 212.675 31.8896 212.675 31.7979C212.675 31.3211 212.437 30.9267 211.96 30.6149C211.501 30.2848 210.869 30.1197 210.062 30.1197C209.346 30.1197 208.76 30.2573 208.301 30.5324C207.861 30.7892 207.641 31.156 207.641 31.6328C207.641 32.073 207.852 32.4123 208.274 32.6508C208.714 32.8708 209.438 33.1184 210.447 33.3936L211.052 33.5586C212.024 33.8521 212.84 34.1547 213.501 34.4665C214.161 34.76 214.72 35.1818 215.179 35.732C215.637 36.2639 215.867 36.9608 215.867 37.8229C215.867 39.1251 215.353 40.1521 214.326 40.9041C213.299 41.6377 211.933 42.0046 210.227 42.0046Z" fill="white"/>
<path d="M196.541 27.5615C197.697 27.5615 198.714 27.7633 199.595 28.1668C200.475 28.5703 201.154 29.1297 201.631 29.845C202.108 30.5419 202.346 31.3397 202.346 32.2384V41.5097C202.346 41.6014 202.309 41.6839 202.236 41.7573C202.181 41.8123 202.108 41.8398 202.016 41.8398H199.485C199.393 41.8398 199.311 41.8123 199.237 41.7573C199.182 41.6839 199.155 41.6014 199.155 41.5097V40.6293C199.155 40.5743 199.136 40.5468 199.1 40.5468C199.063 40.5285 199.026 40.5376 198.99 40.5743C198.091 41.5647 196.789 42.0599 195.083 42.0599C193.707 42.0599 192.57 41.7114 191.672 41.0145C190.791 40.3175 190.351 39.2813 190.351 37.9057C190.351 36.4752 190.846 35.3655 191.837 34.5769C192.845 33.7699 194.258 33.3664 196.073 33.3664H199.017C199.109 33.3664 199.155 33.3205 199.155 33.2288V32.5686C199.155 31.8533 198.944 31.303 198.522 30.9179C198.1 30.5144 197.467 30.3126 196.624 30.3126C195.927 30.3126 195.358 30.441 194.918 30.6978C194.496 30.9362 194.23 31.2755 194.12 31.7157C194.065 31.9358 193.937 32.0275 193.735 31.9908L191.066 31.6607C190.975 31.6424 190.892 31.6148 190.819 31.5782C190.764 31.5231 190.745 31.4589 190.764 31.3856C190.91 30.2668 191.507 29.3498 192.552 28.6345C193.616 27.9192 194.945 27.5615 196.541 27.5615ZM195.881 39.5289C196.78 39.5289 197.55 39.2905 198.192 38.8136C198.834 38.3367 199.155 37.7315 199.155 36.9979V35.7048C199.155 35.6131 199.109 35.5673 199.017 35.5673H196.706C195.734 35.5673 194.964 35.7507 194.395 36.1175C193.845 36.4843 193.57 37.007 193.57 37.6856C193.57 38.2725 193.781 38.7311 194.203 39.0612C194.643 39.373 195.202 39.5289 195.881 39.5289Z" fill="white"/>
<path d="M182.971 42.0599C181.559 42.0599 180.339 41.7023 179.312 40.987C178.285 40.2534 177.57 39.2721 177.166 38.0433C176.873 37.218 176.726 36.1175 176.726 34.7419C176.726 33.4214 176.873 32.3393 177.166 31.4956C177.551 30.2851 178.258 29.3314 179.285 28.6345C180.33 27.9192 181.559 27.5615 182.971 27.5615C184.402 27.5615 185.649 27.9192 186.713 28.6345C187.776 29.3498 188.483 30.2485 188.831 31.3306C188.923 31.624 188.987 31.9175 189.024 32.2109V32.2659C189.024 32.4493 188.923 32.5594 188.721 32.5961L186.245 32.9537H186.19C186.025 32.9537 185.915 32.862 185.86 32.6786C185.86 32.5869 185.851 32.5135 185.832 32.4585C185.796 32.3118 185.759 32.1834 185.722 32.0734C185.557 31.5598 185.227 31.138 184.732 30.8078C184.237 30.4777 183.65 30.3126 182.971 30.3126C182.274 30.3126 181.678 30.4961 181.183 30.8629C180.706 31.2113 180.385 31.6974 180.22 32.321C180.037 32.9079 179.945 33.724 179.945 34.7695C179.945 35.7782 180.027 36.5944 180.192 37.218C180.376 37.8599 180.706 38.3734 181.183 38.7586C181.66 39.1254 182.256 39.3088 182.971 39.3088C183.668 39.3088 184.264 39.1346 184.759 38.7861C185.273 38.4193 185.603 37.9332 185.75 37.328C185.768 37.2913 185.777 37.2455 185.777 37.1904C185.796 37.1721 185.805 37.1446 185.805 37.1079C185.86 36.8878 185.988 36.7961 186.19 36.8328L188.666 37.218C188.758 37.2363 188.831 37.2821 188.886 37.3555C188.959 37.4105 188.987 37.4931 188.969 37.6031C188.914 37.8966 188.868 38.1075 188.831 38.2359C188.483 39.4097 187.776 40.3451 186.713 41.042C185.649 41.7206 184.402 42.0599 182.971 42.0599Z" fill="white"/>
<path d="M171.015 22.9127C171.015 22.821 171.043 22.7476 171.098 22.6926C171.171 22.6192 171.254 22.5825 171.345 22.5825H173.876C173.968 22.5825 174.041 22.6192 174.096 22.6926C174.17 22.7476 174.206 22.821 174.206 22.9127V41.5102C174.206 41.6019 174.17 41.6845 174.096 41.7578C174.041 41.8128 173.968 41.8404 173.876 41.8404H171.345C171.254 41.8404 171.171 41.8128 171.098 41.7578C171.043 41.6845 171.015 41.6019 171.015 41.5102V40.6849C171.015 40.6299 170.997 40.5932 170.96 40.5748C170.923 40.5565 170.887 40.5748 170.85 40.6299C170.043 41.5836 168.988 42.0604 167.686 42.0604C166.384 42.0604 165.284 41.7211 164.385 41.0425C163.486 40.3639 162.835 39.4194 162.432 38.2089C162.101 37.1818 161.936 36.0355 161.936 34.77C161.936 33.4678 162.092 32.349 162.404 31.4136C162.808 30.2031 163.459 29.2586 164.357 28.58C165.256 27.9013 166.384 27.562 167.741 27.562C169.007 27.562 170.043 28.0206 170.85 28.9376C170.887 28.9743 170.923 28.9926 170.96 28.9926C170.997 28.9743 171.015 28.9376 171.015 28.8826V22.9127ZM170.355 37.9888C170.777 37.2368 170.988 36.173 170.988 34.7975C170.988 33.3669 170.758 32.2756 170.3 31.5237C169.805 30.7167 169.108 30.3132 168.209 30.3132C167.274 30.3132 166.54 30.6983 166.008 31.4686C165.458 32.2756 165.183 33.3944 165.183 34.825C165.183 36.1089 165.403 37.1634 165.843 37.9888C166.357 38.8691 167.136 39.3093 168.181 39.3093C169.117 39.3093 169.841 38.8691 170.355 37.9888Z" fill="white"/>
<path d="M153.527 42.0599C152.078 42.0599 150.831 41.6931 149.785 40.9595C148.758 40.2258 148.034 39.2079 147.612 37.9057C147.3 36.9153 147.144 35.8699 147.144 34.7695C147.144 33.5956 147.291 32.5502 147.585 31.6332C148.006 30.3493 148.74 29.3498 149.785 28.6345C150.831 27.9192 152.087 27.5615 153.555 27.5615C154.948 27.5615 156.15 27.9192 157.158 28.6345C158.186 29.3498 158.91 30.3402 159.332 31.6057C159.662 32.486 159.827 33.5315 159.827 34.7419C159.827 35.8974 159.671 36.9428 159.359 37.8782C158.938 39.1804 158.213 40.2075 157.186 40.9595C156.159 41.6931 154.939 42.0599 153.527 42.0599ZM153.527 39.3088C154.206 39.3088 154.783 39.1162 155.26 38.7311C155.755 38.3459 156.113 37.8049 156.333 37.1079C156.517 36.5027 156.608 35.7323 156.608 34.797C156.608 33.8066 156.517 33.0363 156.333 32.486C156.131 31.7891 155.783 31.2572 155.288 30.8904C154.793 30.5052 154.187 30.3126 153.472 30.3126C152.793 30.3126 152.206 30.5052 151.711 30.8904C151.216 31.2572 150.858 31.7891 150.638 32.486C150.455 33.128 150.363 33.8983 150.363 34.797C150.363 35.6957 150.455 36.466 150.638 37.1079C150.84 37.8049 151.189 38.3459 151.684 38.7311C152.197 39.1162 152.812 39.3088 153.527 39.3088Z" fill="white"/>
<path d="M140.478 22.5547C141.633 22.5547 142.651 22.7931 143.531 23.27C144.412 23.7468 145.09 24.4254 145.567 25.3058C146.062 26.1678 146.31 27.1674 146.31 28.3045C146.31 29.4233 146.062 30.4137 145.567 31.2757C145.072 32.1378 144.366 32.8072 143.449 33.2841C142.55 33.7426 141.505 33.9718 140.313 33.9718H135.911C135.819 33.9718 135.773 34.0177 135.773 34.1094V41.5099C135.773 41.6016 135.737 41.6841 135.663 41.7575C135.608 41.8125 135.535 41.84 135.443 41.84H132.912C132.82 41.84 132.738 41.8125 132.664 41.7575C132.609 41.6841 132.582 41.6016 132.582 41.5099V22.8848C132.582 22.7931 132.609 22.7198 132.664 22.6647C132.738 22.5914 132.82 22.5547 132.912 22.5547H140.478ZM140.01 31.3858C140.945 31.3858 141.697 31.1107 142.266 30.5604C142.834 30.0102 143.119 29.2858 143.119 28.3871C143.119 27.47 142.834 26.7272 142.266 26.1587C141.697 25.5901 140.945 25.3058 140.01 25.3058H135.911C135.819 25.3058 135.773 25.3517 135.773 25.4434V31.2482C135.773 31.3399 135.819 31.3858 135.911 31.3858H140.01Z" fill="white"/>
<path d="M125.01 33.2288C125.084 33.6873 125.121 34.2009 125.121 34.7695L125.093 35.6223C125.093 35.8424 124.983 35.9524 124.763 35.9524H116.152C116.06 35.9524 116.014 35.9983 116.014 36.09C116.069 36.6952 116.152 37.1079 116.262 37.328C116.702 38.6485 117.775 39.318 119.481 39.3363C120.728 39.3363 121.718 38.8228 122.452 37.7957C122.525 37.6856 122.617 37.6306 122.727 37.6306C122.8 37.6306 122.865 37.6581 122.92 37.7132L124.625 39.1162C124.79 39.2446 124.818 39.3913 124.708 39.5564C124.139 40.3634 123.378 40.987 122.424 41.4272C121.489 41.8673 120.444 42.0874 119.288 42.0874C117.858 42.0874 116.638 41.7665 115.629 41.1245C114.639 40.4826 113.914 39.5839 113.456 38.4284C113.034 37.438 112.823 36.0625 112.823 34.3018C112.823 33.238 112.933 32.376 113.153 31.7157C113.52 30.4319 114.208 29.4231 115.216 28.6895C116.244 27.9375 117.472 27.5615 118.903 27.5615C122.516 27.5615 124.552 29.4506 125.01 33.2288ZM118.903 30.3126C118.224 30.3126 117.656 30.4869 117.197 30.8354C116.757 31.1655 116.445 31.6332 116.262 32.2384C116.152 32.5502 116.078 32.9537 116.042 33.4489C116.005 33.5406 116.042 33.5865 116.152 33.5865H121.737C121.828 33.5865 121.874 33.5406 121.874 33.4489C121.837 32.9904 121.782 32.6419 121.709 32.4035C121.544 31.7432 121.214 31.2297 120.719 30.8629C120.242 30.4961 119.637 30.3126 118.903 30.3126Z" fill="white"/>
<path d="M107.451 41.8404C107.36 41.8404 107.277 41.8128 107.204 41.7578C107.149 41.6845 107.121 41.6019 107.121 41.5102V22.9127C107.121 22.821 107.149 22.7476 107.204 22.6926C107.277 22.6192 107.36 22.5825 107.451 22.5825H109.982C110.074 22.5825 110.147 22.6192 110.202 22.6926C110.276 22.7476 110.312 22.821 110.312 22.9127V41.5102C110.312 41.6019 110.276 41.6845 110.202 41.7578C110.147 41.8128 110.074 41.8404 109.982 41.8404H107.451Z" fill="white"/>
<path d="M104.082 31.4131C104.412 32.3485 104.577 33.4948 104.577 34.852C104.577 36.1542 104.421 37.273 104.109 38.2084C103.706 39.4188 103.055 40.3634 102.156 41.042C101.276 41.7206 100.157 42.0599 98.7995 42.0599C97.4973 42.0599 96.4519 41.5922 95.6632 40.6568C95.6266 40.6202 95.5899 40.611 95.5532 40.6293C95.5165 40.6477 95.4982 40.6844 95.4982 40.7394V46.7093C95.4982 46.801 95.4615 46.8744 95.3881 46.9294C95.3331 47.0028 95.2598 47.0394 95.168 47.0394H92.637C92.5453 47.0394 92.4628 47.0028 92.3894 46.9294C92.3344 46.8744 92.3069 46.801 92.3069 46.7093V28.1117C92.3069 28.02 92.3344 27.9467 92.3894 27.8917C92.4628 27.8183 92.5453 27.7816 92.637 27.7816H95.168C95.2598 27.7816 95.3331 27.8183 95.3881 27.8917C95.4615 27.9467 95.4982 28.02 95.4982 28.1117V28.9371C95.4982 28.9921 95.5165 29.0288 95.5532 29.0471C95.5899 29.0655 95.6266 29.0471 95.6632 28.9921C96.4702 28.0384 97.5248 27.5615 98.827 27.5615C100.129 27.5615 101.23 27.9008 102.128 28.5794C103.027 29.258 103.678 30.2026 104.082 31.4131ZM100.505 38.1533C101.055 37.3097 101.331 36.1909 101.331 34.797C101.331 33.4581 101.11 32.4035 100.67 31.6332C100.157 30.7345 99.3773 30.2851 98.3318 30.2851C97.3781 30.2851 96.6628 30.7253 96.186 31.6057C95.7641 32.321 95.5532 33.3847 95.5532 34.797C95.5532 36.2459 95.7825 37.3463 96.241 38.0983C96.7178 38.9053 97.4056 39.3088 98.3043 39.3088C99.2764 39.3088 100.01 38.9236 100.505 38.1533Z" fill="white"/>
<path d="M89.1301 31.4131C89.4603 32.3485 89.6253 33.4948 89.6253 34.852C89.6253 36.1542 89.4694 37.273 89.1576 38.2084C88.7542 39.4188 88.1031 40.3634 87.2044 41.042C86.324 41.7206 85.2052 42.0599 83.848 42.0599C82.5458 42.0599 81.5004 41.5922 80.7117 40.6568C80.675 40.6202 80.6383 40.611 80.6017 40.6293C80.565 40.6477 80.5466 40.6844 80.5466 40.7394V46.7093C80.5466 46.801 80.51 46.8744 80.4366 46.9294C80.3816 47.0028 80.3082 47.0394 80.2165 47.0394H77.6855C77.5938 47.0394 77.5112 47.0028 77.4379 46.9294C77.3829 46.8744 77.3553 46.801 77.3553 46.7093V28.1117C77.3553 28.02 77.3829 27.9467 77.4379 27.8917C77.5112 27.8183 77.5938 27.7816 77.6855 27.7816H80.2165C80.3082 27.7816 80.3816 27.8183 80.4366 27.8917C80.51 27.9467 80.5466 28.02 80.5466 28.1117V28.9371C80.5466 28.9921 80.565 29.0288 80.6017 29.0471C80.6383 29.0655 80.675 29.0471 80.7117 28.9921C81.5187 28.0384 82.5733 27.5615 83.8755 27.5615C85.1777 27.5615 86.2781 27.9008 87.1768 28.5794C88.0755 29.258 88.7266 30.2026 89.1301 31.4131ZM85.5537 38.1533C86.1039 37.3097 86.379 36.1909 86.379 34.797C86.379 33.4581 86.1589 32.4035 85.7188 31.6332C85.2052 30.7345 84.4257 30.2851 83.3803 30.2851C82.4266 30.2851 81.7113 30.7253 81.2344 31.6057C80.8126 32.321 80.6017 33.3847 80.6017 34.797C80.6017 36.2459 80.8309 37.3463 81.2894 38.0983C81.7663 38.9053 82.4541 39.3088 83.3528 39.3088C84.3248 39.3088 85.0585 38.9236 85.5537 38.1533Z" fill="white"/>
<path d="M72.1712 41.8404C71.9878 41.8404 71.8685 41.7486 71.8135 41.5652L70.9057 38.6215C70.869 38.5482 70.8231 38.5115 70.7681 38.5115H63.5051C63.4501 38.5115 63.4043 38.5482 63.3676 38.6215L62.4597 41.5652C62.4047 41.7486 62.2855 41.8404 62.1021 41.8404H59.351C59.2409 41.8404 59.1584 41.8128 59.1034 41.7578C59.0483 41.6845 59.0392 41.5836 59.0758 41.4552L65.0458 22.8576C65.1008 22.6742 65.22 22.5825 65.4034 22.5825H68.8423C69.0257 22.5825 69.1449 22.6742 69.2 22.8576L75.1974 41.4552C75.2157 41.4919 75.2249 41.5377 75.2249 41.5928C75.2249 41.7578 75.124 41.8404 74.9223 41.8404H72.1712ZM64.2204 35.8429C64.2021 35.953 64.2388 36.008 64.3305 36.008H69.9153C70.0253 36.008 70.062 35.953 70.0253 35.8429L67.1916 26.6267C67.1733 26.5533 67.1458 26.5166 67.1091 26.5166C67.0724 26.5166 67.0449 26.5533 67.0266 26.6267L64.2204 35.8429Z" fill="white"/>
<path d="M120.572 6.77018V12.036H119.227V3.28244H120.527V4.65018H120.641C120.846 4.20566 121.157 3.84853 121.575 3.57878C121.993 3.30523 122.533 3.16846 123.194 3.16846C123.786 3.16846 124.305 3.29003 124.749 3.53319C125.194 3.77254 125.54 4.13728 125.787 4.62738C126.034 5.11369 126.157 5.72918 126.157 6.47384V12.036H124.812V6.56502C124.812 5.87735 124.634 5.34165 124.276 4.95792C123.919 4.57039 123.429 4.37663 122.806 4.37663C122.377 4.37663 121.993 4.46971 121.655 4.65588C121.321 4.84204 121.057 5.11369 120.863 5.47083C120.669 5.82796 120.572 6.26108 120.572 6.77018Z" fill="white"/>
<path d="M113.208 12.2184C112.417 12.2184 111.724 12.0303 111.128 11.6542C110.535 11.278 110.071 10.7518 109.737 10.0756C109.406 9.39929 109.241 8.60904 109.241 7.70481C109.241 6.79298 109.406 5.99703 109.737 5.31695C110.071 4.63688 110.535 4.10878 111.128 3.73265C111.724 3.35652 112.417 3.16846 113.208 3.16846C113.998 3.16846 114.689 3.35652 115.282 3.73265C115.879 4.10878 116.342 4.63688 116.673 5.31695C117.007 5.99703 117.174 6.79298 117.174 7.70481C117.174 8.60904 117.007 9.39929 116.673 10.0756C116.342 10.7518 115.879 11.278 115.282 11.6542C114.689 12.0303 113.998 12.2184 113.208 12.2184ZM113.208 11.0102C113.808 11.0102 114.302 10.8563 114.689 10.5486C115.077 10.2408 115.364 9.83621 115.55 9.3347C115.736 8.8332 115.829 8.2899 115.829 7.70481C115.829 7.11972 115.736 6.57452 115.55 6.06921C115.364 5.56391 115.077 5.15549 114.689 4.84394C114.302 4.5324 113.808 4.37663 113.208 4.37663C112.607 4.37663 112.113 4.5324 111.726 4.84394C111.338 5.15549 111.052 5.56391 110.865 6.06921C110.679 6.57452 110.586 7.11972 110.586 7.70481C110.586 8.2899 110.679 8.8332 110.865 9.3347C111.052 9.83621 111.338 10.2408 111.726 10.5486C112.113 10.8563 112.607 11.0102 113.208 11.0102Z" fill="white"/>
<path d="M97.0953 6.77018V12.036H95.7504V3.28244H97.0497V4.65018H97.1637C97.3689 4.20566 97.6804 3.84853 98.0983 3.57878C98.5162 3.30523 99.0557 3.16846 99.7168 3.16846C100.31 3.16846 100.828 3.29003 101.273 3.53319C101.717 3.77254 102.063 4.13728 102.31 4.62738C102.557 5.11369 102.68 5.72918 102.68 6.47384V12.036H101.335V6.56502C101.335 5.87735 101.157 5.34165 100.8 4.95792C100.442 4.57039 99.9524 4.37663 99.3293 4.37663C98.9 4.37663 98.5162 4.46971 98.1781 4.65588C97.8438 4.84204 97.5797 5.11369 97.386 5.47083C97.1922 5.82796 97.0953 6.26108 97.0953 6.77018Z" fill="white"/>
<path d="M90.0799 12.2184C89.2365 12.2184 88.5089 12.0322 87.8973 11.6599C87.2894 11.2837 86.8202 10.7594 86.4896 10.087C86.1629 9.41069 85.9995 8.62424 85.9995 7.7276C85.9995 6.83097 86.1629 6.04072 86.4896 5.35685C86.8202 4.66918 87.2799 4.13348 87.8688 3.74975C88.4614 3.36222 89.1529 3.16846 89.9432 3.16846C90.3991 3.16846 90.8493 3.24444 91.2938 3.39641C91.7383 3.54839 92.143 3.79534 92.5077 4.13728C92.8724 4.47541 93.1631 4.92373 93.3796 5.48222C93.5962 6.04072 93.7045 6.72839 93.7045 7.54524V8.11513H86.9569V6.95255H92.3367C92.3367 6.45864 92.2379 6.01792 92.0404 5.6304C91.8466 5.24287 91.5693 4.93703 91.2083 4.71287C90.8512 4.48871 90.4295 4.37663 89.9432 4.37663C89.4075 4.37663 88.944 4.50961 88.5526 4.77556C88.1651 5.03771 87.8669 5.37964 87.6579 5.80136C87.4489 6.22308 87.3445 6.6752 87.3445 7.15771V7.93277C87.3445 8.59384 87.4584 9.15424 87.6864 9.61395C87.9182 10.0699 88.2392 10.4175 88.6495 10.6569C89.0598 10.8924 89.5366 11.0102 90.0799 11.0102C90.4333 11.0102 90.7524 10.9608 91.0374 10.862C91.3261 10.7594 91.575 10.6075 91.7839 10.4061C91.9929 10.2009 92.1544 9.94639 92.2683 9.64245L93.5677 10.0072C93.4309 10.4479 93.2011 10.8354 92.8781 11.1698C92.5552 11.5003 92.1563 11.7586 91.6813 11.9448C91.2064 12.1272 90.6726 12.2184 90.0799 12.2184Z" fill="white"/>
<path d="M84.4808 3.28227V4.42205H79.9445V3.28227H84.4808ZM81.2666 1.18506H82.6116V9.5283C82.6116 9.90823 82.6666 10.1932 82.7768 10.3831C82.8908 10.5693 83.0352 10.6947 83.2099 10.7593C83.3885 10.8201 83.5766 10.8504 83.7741 10.8504C83.9223 10.8504 84.0439 10.8428 84.1389 10.8277C84.2339 10.8087 84.3098 10.7935 84.3668 10.7821L84.6404 11.9902C84.5492 12.0244 84.4219 12.0586 84.2586 12.0928C84.0952 12.1308 83.8881 12.1498 83.6374 12.1498C83.2574 12.1498 82.8851 12.0681 82.5204 11.9048C82.1594 11.7414 81.8593 11.4925 81.6199 11.1582C81.3844 10.8239 81.2666 10.4021 81.2666 9.89303V1.18506Z" fill="white"/>
<path d="M78.4898 5.24287L77.2816 5.5848C77.2057 5.38344 77.0936 5.18778 76.9454 4.99781C76.801 4.80405 76.6035 4.64448 76.3527 4.5191C76.102 4.39373 75.7809 4.33104 75.3896 4.33104C74.8539 4.33104 74.4075 4.45452 74.0504 4.70147C73.697 4.94462 73.5204 5.25427 73.5204 5.6304C73.5204 5.96473 73.6419 6.22878 73.8851 6.42255C74.1282 6.61631 74.5082 6.77778 75.0249 6.90696L76.3242 7.2261C77.1069 7.41606 77.6901 7.70671 78.0738 8.09803C78.4575 8.48556 78.6494 8.98517 78.6494 9.59685C78.6494 10.0984 78.505 10.5467 78.2163 10.9418C77.9313 11.3369 77.5324 11.6485 77.0195 11.8764C76.5066 12.1044 75.9101 12.2184 75.23 12.2184C74.3372 12.2184 73.5982 12.0246 73.0131 11.6371C72.4281 11.2495 72.0576 10.6834 71.9019 9.93879L73.1784 9.61965C73.3 10.0908 73.5299 10.4441 73.868 10.6797C74.2099 10.9152 74.6563 11.033 75.2072 11.033C75.8341 11.033 76.3318 10.9 76.7004 10.6341C77.0727 10.3643 77.2589 10.0414 77.2589 9.66524C77.2589 9.3613 77.1525 9.10675 76.9397 8.90158C76.727 8.69262 76.4002 8.53685 75.9595 8.43427L74.5006 8.09234C73.6989 7.90237 73.11 7.60793 72.7339 7.209C72.3616 6.80628 72.1754 6.30287 72.1754 5.69878C72.1754 5.20488 72.3141 4.76796 72.5914 4.38803C72.8726 4.0081 73.2544 3.70986 73.7369 3.4933C74.2232 3.27674 74.7741 3.16846 75.3896 3.16846C76.2558 3.16846 76.9359 3.35842 77.4298 3.73835C77.9275 4.11828 78.2809 4.61979 78.4898 5.24287Z" fill="white"/>
<path d="M68.4811 12.0361V3.28258H69.826V12.0361H68.4811ZM69.1649 1.82366C68.9028 1.82366 68.6767 1.73438 68.4868 1.55581C68.3006 1.37724 68.2075 1.16258 68.2075 0.911829C68.2075 0.661076 68.3006 0.446416 68.4868 0.267849C68.6767 0.0892831 68.9028 0 69.1649 0C69.4271 0 69.6512 0.0892831 69.8374 0.267849C70.0274 0.446416 70.1224 0.661076 70.1224 0.911829C70.1224 1.16258 70.0274 1.37724 69.8374 1.55581C69.6512 1.73438 69.4271 1.82366 69.1649 1.82366Z" fill="white"/>
<path d="M59.6362 12.0366V0.365234H61.0496V10.7829H66.4749V12.0366H59.6362Z" fill="white"/>
</svg>
