<svg width="270" height="53" viewBox="0 0 270 53" fill="none" xmlns="http://www.w3.org/2000/svg">
<path d="M266.176 42.9907C266.176 42.6862 266.095 42.4131 265.934 42.1713C265.773 41.9295 265.468 41.7101 265.021 41.5131C264.582 41.3071 263.937 41.1146 263.086 40.9355C262.334 40.7743 261.64 40.5728 261.004 40.331C260.368 40.0892 259.822 39.7981 259.365 39.4578C258.909 39.1085 258.55 38.7011 258.291 38.2354C258.04 37.7607 257.914 37.2145 257.914 36.5965C257.914 35.9965 258.044 35.4323 258.304 34.9039C258.564 34.3666 258.94 33.8965 259.432 33.4935C259.925 33.0815 260.525 32.7591 261.232 32.5263C261.94 32.2845 262.737 32.1636 263.624 32.1636C264.859 32.1636 265.921 32.3651 266.807 32.7681C267.703 33.1711 268.388 33.7263 268.863 34.4338C269.337 35.1323 269.575 35.9204 269.575 36.798H266.028C266.028 36.4129 265.939 36.0637 265.759 35.7502C265.589 35.4368 265.325 35.186 264.967 34.998C264.609 34.801 264.156 34.7024 263.61 34.7024C263.118 34.7024 262.701 34.783 262.361 34.9442C262.03 35.1054 261.779 35.3159 261.609 35.5756C261.438 35.8353 261.353 36.1219 261.353 36.4353C261.353 36.6682 261.398 36.8786 261.488 37.0667C261.586 37.2458 261.743 37.4115 261.958 37.5637C262.173 37.716 262.464 37.8548 262.831 37.9801C263.207 38.1055 263.668 38.2264 264.215 38.3428C265.298 38.5578 266.243 38.8444 267.049 39.2026C267.864 39.5518 268.5 40.0175 268.957 40.5996C269.413 41.1817 269.642 41.925 269.642 42.8295C269.642 43.4743 269.503 44.0654 269.225 44.6027C268.948 45.1311 268.545 45.5923 268.016 45.9863C267.488 46.3804 266.857 46.6893 266.122 46.9132C265.388 47.1282 264.559 47.2356 263.637 47.2356C262.303 47.2356 261.174 46.9983 260.252 46.5237C259.329 46.0401 258.631 45.4311 258.156 44.6967C257.682 43.9534 257.444 43.1833 257.444 42.3862H260.843C260.87 42.9504 261.022 43.4027 261.3 43.743C261.577 44.0833 261.927 44.3296 262.347 44.4818C262.777 44.6251 263.23 44.6967 263.704 44.6967C264.242 44.6967 264.694 44.6251 265.061 44.4818C265.428 44.3296 265.706 44.1281 265.894 43.8773C266.082 43.6176 266.176 43.3221 266.176 42.9907Z" fill="#616161"/>
<path d="M255.819 32.4321V34.9844H247.49V32.4321H255.819ZM249.72 28.8589H253.28V42.7757C253.28 43.2055 253.338 43.5369 253.455 43.7697C253.571 44.0026 253.746 44.1593 253.978 44.2399C254.211 44.3205 254.489 44.3608 254.811 44.3608C255.044 44.3608 255.259 44.3474 255.456 44.3205C255.653 44.2936 255.819 44.2668 255.953 44.2399L255.967 46.8997C255.671 46.9982 255.335 47.0788 254.959 47.1415C254.592 47.2042 254.175 47.2355 253.71 47.2355C252.913 47.2355 252.214 47.1012 251.614 46.8325C251.014 46.5549 250.549 46.1116 250.217 45.5026C249.886 44.8847 249.72 44.0697 249.72 43.0578V28.8589Z" fill="#616161"/>
<path d="M242.775 42.9907C242.775 42.6862 242.694 42.4131 242.533 42.1713C242.372 41.9295 242.068 41.7101 241.62 41.5131C241.181 41.3071 240.536 41.1146 239.685 40.9355C238.933 40.7743 238.239 40.5728 237.603 40.331C236.967 40.0892 236.421 39.7981 235.964 39.4578C235.508 39.1085 235.149 38.7011 234.89 38.2354C234.639 37.7607 234.514 37.2145 234.514 36.5965C234.514 35.9965 234.643 35.4323 234.903 34.9039C235.163 34.3666 235.539 33.8965 236.032 33.4935C236.524 33.0815 237.124 32.7591 237.832 32.5263C238.539 32.2845 239.336 32.1636 240.223 32.1636C241.459 32.1636 242.52 32.3651 243.406 32.7681C244.302 33.1711 244.987 33.7263 245.462 34.4338C245.936 35.1323 246.174 35.9204 246.174 36.798H242.627C242.627 36.4129 242.538 36.0637 242.359 35.7502C242.188 35.4368 241.924 35.186 241.566 34.998C241.208 34.801 240.756 34.7024 240.209 34.7024C239.717 34.7024 239.3 34.783 238.96 34.9442C238.629 35.1054 238.378 35.3159 238.208 35.5756C238.038 35.8353 237.953 36.1219 237.953 36.4353C237.953 36.6682 237.997 36.8786 238.087 37.0667C238.185 37.2458 238.342 37.4115 238.557 37.5637C238.772 37.716 239.063 37.8548 239.43 37.9801C239.806 38.1055 240.268 38.2264 240.814 38.3428C241.897 38.5578 242.842 38.8444 243.648 39.2026C244.463 39.5518 245.099 40.0175 245.556 40.5996C246.012 41.1817 246.241 41.925 246.241 42.8295C246.241 43.4743 246.102 44.0654 245.824 44.6027C245.547 45.1311 245.144 45.5923 244.615 45.9863C244.087 46.3804 243.456 46.6893 242.721 46.9132C241.987 47.1282 241.159 47.2356 240.236 47.2356C238.902 47.2356 237.773 46.9983 236.851 46.5237C235.929 46.0401 235.23 45.4311 234.755 44.6967C234.281 43.9534 234.043 43.1833 234.043 42.3862H237.442C237.469 42.9504 237.621 43.4027 237.899 43.743C238.176 44.0833 238.526 44.3296 238.947 44.4818C239.376 44.6251 239.829 44.6967 240.303 44.6967C240.841 44.6967 241.293 44.6251 241.66 44.4818C242.027 44.3296 242.305 44.1281 242.493 43.8773C242.681 43.6176 242.775 43.3221 242.775 42.9907Z" fill="#616161"/>
<path d="M228.012 43.8773V37.1742C228.012 36.6816 227.927 36.2562 227.757 35.898C227.587 35.5398 227.327 35.2622 226.978 35.0651C226.628 34.8681 226.185 34.7696 225.648 34.7696C225.173 34.7696 224.757 34.8502 224.399 35.0114C224.049 35.1726 223.781 35.401 223.593 35.6965C223.404 35.9831 223.31 36.3144 223.31 36.6906H219.751C219.751 36.0905 219.894 35.5219 220.18 34.9845C220.467 34.4383 220.875 33.9547 221.403 33.5338C221.94 33.1039 222.581 32.7681 223.324 32.5263C224.076 32.2845 224.918 32.1636 225.849 32.1636C226.951 32.1636 227.931 32.3516 228.791 32.7278C229.66 33.0949 230.34 33.6502 230.833 34.3935C231.335 35.1368 231.585 36.0726 231.585 37.201V43.5415C231.585 44.2669 231.63 44.8893 231.72 45.4087C231.818 45.9192 231.961 46.3625 232.149 46.7386V46.967H228.536C228.366 46.5998 228.236 46.1341 228.146 45.5699C228.057 44.9968 228.012 44.4326 228.012 43.8773ZM228.509 38.1145L228.536 40.2235H226.293C225.737 40.2235 225.249 40.2817 224.828 40.3981C224.407 40.5056 224.063 40.6668 223.794 40.8817C223.525 41.0877 223.324 41.3384 223.19 41.634C223.055 41.9206 222.988 42.2474 222.988 42.6146C222.988 42.9728 223.069 43.2952 223.23 43.5818C223.4 43.8684 223.642 44.0967 223.955 44.2669C224.278 44.4281 224.654 44.5087 225.084 44.5087C225.71 44.5087 226.257 44.3833 226.722 44.1326C227.188 43.8728 227.551 43.5594 227.811 43.1922C228.07 42.8251 228.209 42.4758 228.227 42.1444L229.248 43.6758C229.123 44.043 228.934 44.4326 228.684 44.8445C228.433 45.2565 228.111 45.6416 227.717 45.9998C227.322 46.358 226.848 46.6535 226.293 46.8864C225.737 47.1192 225.093 47.2356 224.358 47.2356C223.418 47.2356 222.576 47.0476 221.833 46.6714C221.089 46.2953 220.503 45.7804 220.073 45.1266C219.643 44.4729 219.428 43.7296 219.428 42.8967C219.428 42.1265 219.572 41.4459 219.858 40.8549C220.145 40.2638 220.57 39.7668 221.134 39.3638C221.698 38.9518 222.397 38.6429 223.23 38.4369C224.072 38.2219 225.034 38.1145 226.118 38.1145H228.509Z" fill="#616161"/>
<path d="M211.624 44.4415C212.125 44.4415 212.573 44.343 212.967 44.146C213.361 43.949 213.674 43.6713 213.907 43.3131C214.149 42.9549 214.279 42.5385 214.297 42.0638H217.642C217.624 43.0489 217.346 43.9311 216.809 44.7102C216.271 45.4893 215.555 46.1072 214.659 46.564C213.773 47.0117 212.779 47.2356 211.677 47.2356C210.558 47.2356 209.582 47.0476 208.749 46.6714C207.916 46.2953 207.222 45.7714 206.667 45.0997C206.12 44.4281 205.708 43.649 205.431 42.7624C205.162 41.8758 205.028 40.9265 205.028 39.9145V39.4847C205.028 38.4727 205.162 37.5234 205.431 36.6368C205.708 35.7502 206.12 34.9711 206.667 34.2995C207.222 33.6278 207.916 33.1039 208.749 32.7278C209.582 32.3516 210.553 32.1636 211.664 32.1636C212.837 32.1636 213.867 32.3919 214.753 32.8487C215.649 33.3054 216.348 33.9502 216.849 34.783C217.36 35.6159 217.624 36.5965 217.642 37.7249H214.297C214.279 37.2055 214.162 36.7398 213.947 36.3279C213.733 35.9159 213.428 35.5846 213.034 35.3338C212.64 35.0831 212.161 34.9577 211.597 34.9577C210.997 34.9577 210.495 35.0831 210.092 35.3338C209.698 35.5846 209.389 35.9293 209.165 36.3682C208.95 36.798 208.798 37.2816 208.709 37.819C208.628 38.3473 208.588 38.9026 208.588 39.4847V39.9145C208.588 40.5056 208.628 41.0698 208.709 41.6071C208.798 42.1444 208.95 42.628 209.165 43.0579C209.389 43.4788 209.698 43.8146 210.092 44.0654C210.495 44.3161 211.006 44.4415 211.624 44.4415Z" fill="#616161"/>
<path d="M198.876 43.8773V26.3335H202.449V46.9669H199.225L198.876 43.8773ZM189.54 39.8742V39.5921C189.54 38.4816 189.665 37.4741 189.916 36.5696C190.175 35.6561 190.552 34.8725 191.044 34.2188C191.537 33.565 192.132 33.0591 192.831 32.7008C193.538 32.3426 194.34 32.1635 195.235 32.1635C196.104 32.1635 196.861 32.3381 197.505 32.6874C198.159 33.0367 198.714 33.5337 199.171 34.1785C199.637 34.8233 200.008 35.589 200.286 36.4756C200.564 37.3532 200.765 38.3204 200.891 39.3771V40.1428C200.765 41.1727 200.564 42.1175 200.286 42.9772C200.008 43.837 199.637 44.5892 199.171 45.234C198.714 45.8698 198.159 46.3624 197.505 46.7117C196.852 47.0609 196.086 47.2356 195.208 47.2356C194.322 47.2356 193.525 47.052 192.817 46.6848C192.119 46.3176 191.523 45.8027 191.031 45.14C190.547 44.4773 190.175 43.6981 189.916 42.8026C189.665 41.9071 189.54 40.9309 189.54 39.8742ZM193.099 39.5921V39.8742C193.099 40.501 193.153 41.0876 193.261 41.6339C193.368 42.1802 193.543 42.6638 193.784 43.0847C194.026 43.4966 194.335 43.819 194.711 44.0519C195.096 44.2847 195.562 44.4011 196.108 44.4011C196.807 44.4011 197.38 44.2489 197.828 43.9444C198.285 43.631 198.638 43.2056 198.889 42.6683C199.14 42.122 199.301 41.5085 199.373 40.8279V38.7189C199.337 38.1816 199.243 37.6845 199.091 37.2278C198.947 36.7711 198.741 36.3771 198.473 36.0457C198.213 35.7143 197.891 35.4546 197.505 35.2666C197.12 35.0785 196.664 34.9845 196.135 34.9845C195.589 34.9845 195.123 35.1054 194.738 35.3472C194.353 35.58 194.04 35.9069 193.798 36.3278C193.556 36.7487 193.377 37.2368 193.261 37.792C193.153 38.3473 193.099 38.9473 193.099 39.5921Z" fill="#616161"/>
<path d="M173.943 39.8474V39.5653C173.943 38.4996 174.096 37.5189 174.4 36.6234C174.705 35.7189 175.148 34.9353 175.73 34.2726C176.312 33.6099 177.024 33.0949 177.866 32.7278C178.708 32.3516 179.666 32.1636 180.741 32.1636C181.833 32.1636 182.8 32.3516 183.642 32.7278C184.493 33.0949 185.209 33.6099 185.791 34.2726C186.374 34.9353 186.817 35.7189 187.121 36.6234C187.426 37.5189 187.578 38.4996 187.578 39.5653V39.8474C187.578 40.9041 187.426 41.8847 187.121 42.7892C186.817 43.6848 186.374 44.4684 185.791 45.14C185.209 45.8027 184.497 46.3177 183.656 46.6849C182.814 47.052 181.851 47.2356 180.767 47.2356C179.693 47.2356 178.73 47.052 177.879 46.6849C177.029 46.3177 176.312 45.8027 175.73 45.14C175.148 44.4684 174.705 43.6848 174.4 42.7892C174.096 41.8847 173.943 40.9041 173.943 39.8474ZM177.49 39.5653V39.8474C177.49 40.4832 177.552 41.0787 177.678 41.634C177.803 42.1892 177.996 42.6773 178.255 43.0982C178.515 43.5191 178.851 43.8505 179.263 44.0923C179.684 44.3251 180.185 44.4415 180.767 44.4415C181.341 44.4415 181.833 44.3251 182.245 44.0923C182.657 43.8505 182.993 43.5191 183.253 43.0982C183.521 42.6773 183.718 42.1892 183.844 41.634C183.969 41.0787 184.032 40.4832 184.032 39.8474V39.5653C184.032 38.9384 183.969 38.3518 183.844 37.8055C183.718 37.2503 183.521 36.7622 183.253 36.3413C182.993 35.9114 182.653 35.5756 182.232 35.3338C181.82 35.0831 181.323 34.9577 180.741 34.9577C180.167 34.9577 179.675 35.0831 179.263 35.3338C178.851 35.5756 178.515 35.9114 178.255 36.3413C177.996 36.7622 177.803 37.2503 177.678 37.8055C177.552 38.3518 177.49 38.9384 177.49 39.5653Z" fill="#616161"/>
<path d="M164.903 39.8344H159.866V36.9328H164.903C165.727 36.9328 166.394 36.7985 166.905 36.5298C167.424 36.2522 167.805 35.8761 168.046 35.4014C168.288 34.9178 168.409 34.3671 168.409 33.7492C168.409 33.1491 168.288 32.5894 168.046 32.07C167.805 31.5506 167.424 31.1297 166.905 30.8073C166.394 30.4849 165.727 30.3237 164.903 30.3237H161.075V46.9674H157.38V27.4087H164.903C166.425 27.4087 167.724 27.6818 168.799 28.2281C169.882 28.7654 170.706 29.5132 171.27 30.4715C171.843 31.4207 172.13 32.5044 172.13 33.7223C172.13 34.985 171.843 36.0731 171.27 36.9866C170.706 37.9 169.882 38.603 168.799 39.0956C167.724 39.5881 166.425 39.8344 164.903 39.8344Z" fill="#616161"/>
<path d="M141.986 47.2356C140.885 47.2356 139.895 47.0565 139.017 46.6983C138.14 46.3401 137.392 45.843 136.774 45.2072C136.165 44.5624 135.695 43.8146 135.363 42.9639C135.041 42.1041 134.88 41.1817 134.88 40.1966V39.6593C134.88 38.5399 135.041 37.5234 135.363 36.61C135.686 35.6875 136.143 34.895 136.734 34.2323C137.325 33.5696 138.032 33.0591 138.856 32.7009C139.68 32.3427 140.589 32.1636 141.583 32.1636C142.613 32.1636 143.522 32.3382 144.31 32.6875C145.098 33.0278 145.756 33.5114 146.285 34.1383C146.813 34.7651 147.212 35.5174 147.48 36.395C147.749 37.2637 147.883 38.2264 147.883 39.2832V40.7743H136.492V38.3294H144.391V38.0607C144.373 37.4966 144.265 36.9816 144.068 36.5159C143.871 36.0413 143.567 35.6652 143.155 35.3875C142.743 35.101 142.21 34.9577 141.556 34.9577C141.028 34.9577 140.567 35.0741 140.173 35.3069C139.787 35.5308 139.465 35.8532 139.205 36.2741C138.955 36.6861 138.767 37.1786 138.641 37.7518C138.516 38.3249 138.453 38.9608 138.453 39.6593V40.1966C138.453 40.8056 138.534 41.3698 138.695 41.8892C138.865 42.4086 139.111 42.8609 139.434 43.246C139.765 43.6221 140.159 43.9176 140.616 44.1326C141.082 44.3385 141.61 44.4415 142.201 44.4415C142.944 44.4415 143.616 44.2982 144.216 44.0117C144.825 43.7161 145.353 43.2818 145.801 42.7086L147.588 44.5624C147.283 45.0102 146.871 45.4401 146.352 45.852C145.841 46.264 145.223 46.5998 144.498 46.8595C143.773 47.1102 142.935 47.2356 141.986 47.2356Z" fill="#616161"/>
<path d="M132.072 26.3335V46.9669H128.513V26.3335H132.072Z" fill="#616161"/>
<path d="M121.89 32.4322H125.114V46.5237C125.114 47.8401 124.827 48.9551 124.254 49.8685C123.69 50.7909 122.897 51.4895 121.877 51.9641C120.856 52.4477 119.669 52.6895 118.317 52.6895C117.735 52.6895 117.103 52.6089 116.423 52.4477C115.751 52.2865 115.102 52.0313 114.475 51.682C113.857 51.3417 113.342 50.8984 112.93 50.3521L114.529 48.2565C115.012 48.8207 115.558 49.2461 116.167 49.5327C116.776 49.8282 117.435 49.976 118.142 49.976C118.859 49.976 119.468 49.8417 119.969 49.573C120.479 49.3133 120.869 48.9282 121.138 48.4177C121.415 47.9162 121.554 47.2983 121.554 46.564V35.7502L121.89 32.4322ZM112.07 39.8742V39.5921C112.07 38.4817 112.205 37.4742 112.473 36.5697C112.742 35.6562 113.127 34.8726 113.629 34.2189C114.139 33.5651 114.752 33.0591 115.469 32.7009C116.194 32.3427 117.009 32.1636 117.914 32.1636C118.872 32.1636 119.678 32.3382 120.332 32.6875C120.994 33.0367 121.541 33.5338 121.971 34.1786C122.409 34.8233 122.75 35.589 122.992 36.4756C123.242 37.3533 123.435 38.3205 123.569 39.3772V40.1429C123.444 41.1728 123.242 42.1176 122.965 42.9773C122.696 43.837 122.338 44.5893 121.89 45.2341C121.442 45.8699 120.887 46.3625 120.224 46.7117C119.562 47.061 118.782 47.2356 117.887 47.2356C116.991 47.2356 116.185 47.052 115.469 46.6849C114.752 46.3177 114.139 45.8027 113.629 45.14C113.127 44.4773 112.742 43.6982 112.473 42.8027C112.205 41.9071 112.07 40.931 112.07 39.8742ZM115.617 39.5921V39.8742C115.617 40.5011 115.679 41.0877 115.805 41.634C115.93 42.1803 116.123 42.6639 116.382 43.0848C116.642 43.4967 116.969 43.8191 117.363 44.052C117.757 44.2848 118.227 44.4012 118.773 44.4012C119.508 44.4012 120.108 44.249 120.574 43.9445C121.048 43.631 121.406 43.2057 121.648 42.6683C121.899 42.1221 122.06 41.5086 122.132 40.828V38.719C122.087 38.1816 121.988 37.6846 121.836 37.2279C121.693 36.7712 121.491 36.3771 121.232 36.0458C120.972 35.7144 120.641 35.4547 120.238 35.2666C119.835 35.0786 119.356 34.9845 118.8 34.9845C118.263 34.9845 117.793 35.1054 117.39 35.3472C116.987 35.5801 116.656 35.907 116.396 36.3279C116.136 36.7488 115.939 37.2368 115.805 37.7921C115.679 38.3473 115.617 38.9473 115.617 39.5921Z" fill="#616161"/>
<path d="M96.4341 39.8474V39.5653C96.4341 38.4996 96.5863 37.5189 96.8908 36.6234C97.1953 35.7189 97.6386 34.9353 98.2207 34.2726C98.8028 33.6099 99.5148 33.0949 100.357 32.7278C101.198 32.3516 102.157 32.1636 103.231 32.1636C104.324 32.1636 105.291 32.3516 106.133 32.7278C106.984 33.0949 107.7 33.6099 108.282 34.2726C108.864 34.9353 109.308 35.7189 109.612 36.6234C109.917 37.5189 110.069 38.4996 110.069 39.5653V39.8474C110.069 40.9041 109.917 41.8847 109.612 42.7892C109.308 43.6848 108.864 44.4684 108.282 45.14C107.7 45.8027 106.988 46.3177 106.146 46.6849C105.304 47.052 104.342 47.2356 103.258 47.2356C102.183 47.2356 101.221 47.052 100.37 46.6849C99.5192 46.3177 98.8028 45.8027 98.2207 45.14C97.6386 44.4684 97.1953 43.6848 96.8908 42.7892C96.5863 41.8847 96.4341 40.9041 96.4341 39.8474ZM99.9804 39.5653V39.8474C99.9804 40.4832 100.043 41.0787 100.169 41.634C100.294 42.1892 100.486 42.6773 100.746 43.0982C101.006 43.5191 101.342 43.8505 101.754 44.0923C102.175 44.3251 102.676 44.4415 103.258 44.4415C103.831 44.4415 104.324 44.3251 104.736 44.0923C105.148 43.8505 105.484 43.5191 105.743 43.0982C106.012 42.6773 106.209 42.1892 106.334 41.634C106.46 41.0787 106.522 40.4832 106.522 39.8474V39.5653C106.522 38.9384 106.46 38.3518 106.334 37.8055C106.209 37.2503 106.012 36.7622 105.743 36.3413C105.484 35.9114 105.143 35.5756 104.722 35.3338C104.31 35.0831 103.813 34.9577 103.231 34.9577C102.658 34.9577 102.166 35.0831 101.754 35.3338C101.342 35.5756 101.006 35.9114 100.746 36.3413C100.486 36.7622 100.294 37.2503 100.169 37.8055C100.043 38.3518 99.9804 38.9384 99.9804 39.5653Z" fill="#616161"/>
<path d="M80.8516 39.8474V39.5653C80.8516 38.4996 81.0038 37.5189 81.3083 36.6234C81.6128 35.7189 82.0561 34.9353 82.6382 34.2726C83.2203 33.6099 83.9322 33.0949 84.7741 32.7278C85.6159 32.3516 86.5741 32.1636 87.6488 32.1636C88.7413 32.1636 89.7085 32.3516 90.5503 32.7278C91.4011 33.0949 92.1175 33.6099 92.6996 34.2726C93.2817 34.9353 93.725 35.7189 94.0295 36.6234C94.334 37.5189 94.4863 38.4996 94.4863 39.5653V39.8474C94.4863 40.9041 94.334 41.8847 94.0295 42.7892C93.725 43.6848 93.2817 44.4684 92.6996 45.14C92.1175 45.8027 91.4056 46.3177 90.5638 46.6849C89.722 47.052 88.7592 47.2356 87.6756 47.2356C86.601 47.2356 85.6383 47.052 84.7875 46.6849C83.9367 46.3177 83.2203 45.8027 82.6382 45.14C82.0561 44.4684 81.6128 43.6848 81.3083 42.7892C81.0038 41.8847 80.8516 40.9041 80.8516 39.8474ZM84.3979 39.5653V39.8474C84.3979 40.4832 84.4606 41.0787 84.586 41.634C84.7114 42.1892 84.9039 42.6773 85.1636 43.0982C85.4233 43.5191 85.7592 43.8505 86.1711 44.0923C86.592 44.3251 87.0935 44.4415 87.6756 44.4415C88.2488 44.4415 88.7413 44.3251 89.1533 44.0923C89.5652 43.8505 89.9011 43.5191 90.1608 43.0982C90.4294 42.6773 90.6265 42.1892 90.7518 41.634C90.8772 41.0787 90.9399 40.4832 90.9399 39.8474V39.5653C90.9399 38.9384 90.8772 38.3518 90.7518 37.8055C90.6265 37.2503 90.4294 36.7622 90.1608 36.3413C89.9011 35.9114 89.5608 35.5756 89.1398 35.3338C88.7279 35.0831 88.2309 34.9577 87.6488 34.9577C87.0756 34.9577 86.5831 35.0831 86.1711 35.3338C85.7592 35.5756 85.4233 35.9114 85.1636 36.3413C84.9039 36.7622 84.7114 37.2503 84.586 37.8055C84.4606 38.3518 84.3979 38.9384 84.3979 39.5653Z" fill="#616161"/>
<path d="M78.2589 36.8521V44.4687C77.9723 44.8359 77.52 45.2344 76.9021 45.6643C76.2931 46.0941 75.4961 46.4658 74.511 46.7792C73.5259 47.0837 72.3169 47.236 70.884 47.236C69.6392 47.236 68.5019 47.03 67.472 46.618C66.4421 46.1971 65.5555 45.5837 64.8122 44.7777C64.0689 43.9717 63.4958 42.9866 63.0928 41.8224C62.6898 40.6582 62.4883 39.3283 62.4883 37.8327V36.5431C62.4883 35.0476 62.6763 33.7177 63.0525 32.5535C63.4376 31.3893 63.9838 30.4042 64.6913 29.5982C65.4078 28.7922 66.263 28.1787 67.2571 27.7578C68.2601 27.3369 69.3795 27.1265 70.6154 27.1265C72.2721 27.1265 73.6334 27.3996 74.6991 27.9459C75.7737 28.4922 76.5976 29.2444 77.1708 30.2027C77.7439 31.1519 78.1021 32.2445 78.2454 33.4804H74.6453C74.5468 32.7998 74.3498 32.2042 74.0543 31.6938C73.7587 31.1743 73.3378 30.7713 72.7915 30.4848C72.2542 30.1892 71.5557 30.0415 70.696 30.0415C69.9706 30.0415 69.3303 30.1848 68.775 30.4713C68.2198 30.7579 67.7541 31.1743 67.378 31.7206C67.0018 32.2669 66.7153 32.943 66.5182 33.749C66.3302 34.555 66.2361 35.4774 66.2361 36.5163V37.8327C66.2361 38.8805 66.3436 39.8119 66.5585 40.6268C66.7735 41.4328 67.0824 42.1134 67.4854 42.6687C67.8974 43.215 68.4034 43.6314 69.0034 43.918C69.6124 44.1956 70.3019 44.3344 71.0721 44.3344C71.7706 44.3344 72.3483 44.2762 72.805 44.1598C73.2707 44.0344 73.6423 43.8866 73.9199 43.7165C74.1976 43.5463 74.4125 43.3806 74.5647 43.2194V39.5522H70.6825V36.8521H78.2589Z" fill="#616161"/>
<path d="M137.197 6.29687V14.8706H135.333V3.96956H137.096L137.197 6.29687ZM136.754 9.00701L135.978 8.97679C135.985 8.23125 136.095 7.5428 136.31 6.91143C136.525 6.27336 136.827 5.71924 137.217 5.24908C137.607 4.77891 138.07 4.41622 138.607 4.16099C139.151 3.89904 139.753 3.76807 140.411 3.76807C140.948 3.76807 141.432 3.84195 141.862 3.98971C142.291 4.13076 142.657 4.35913 142.96 4.67481C143.269 4.99049 143.504 5.4002 143.665 5.90394C143.826 6.40097 143.907 7.00883 143.907 7.7275V14.8706H142.033V7.70735C142.033 7.13644 141.949 6.67971 141.781 6.33717C141.613 5.9879 141.368 5.73603 141.045 5.58155C140.723 5.42035 140.327 5.33975 139.857 5.33975C139.393 5.33975 138.97 5.43714 138.587 5.63192C138.211 5.8267 137.885 6.09537 137.61 6.43791C137.341 6.78046 137.13 7.17338 136.975 7.61668C136.827 8.05326 136.754 8.5167 136.754 9.00701Z" fill="#666666"/>
<path d="M123.072 9.54098V9.30926C123.072 8.52342 123.186 7.79467 123.414 7.12301C123.643 6.44463 123.972 5.85693 124.402 5.3599C124.832 4.85616 125.352 4.46659 125.963 4.19121C126.574 3.90912 127.26 3.76807 128.019 3.76807C128.784 3.76807 129.473 3.90912 130.084 4.19121C130.702 4.46659 131.226 4.85616 131.656 5.3599C132.092 5.85693 132.425 6.44463 132.653 7.12301C132.881 7.79467 132.996 8.52342 132.996 9.30926V9.54098C132.996 10.3268 132.881 11.0556 132.653 11.7272C132.425 12.3989 132.092 12.9866 131.656 13.4903C131.226 13.9874 130.705 14.3769 130.094 14.659C129.489 14.9344 128.804 15.0721 128.039 15.0721C127.273 15.0721 126.585 14.9344 125.973 14.659C125.362 14.3769 124.838 13.9874 124.402 13.4903C123.972 12.9866 123.643 12.3989 123.414 11.7272C123.186 11.0556 123.072 10.3268 123.072 9.54098ZM124.936 9.30926V9.54098C124.936 10.085 124.999 10.5988 125.127 11.0824C125.255 11.5593 125.446 11.9825 125.701 12.3519C125.963 12.7213 126.289 13.0135 126.679 13.2284C127.068 13.4366 127.522 13.5407 128.039 13.5407C128.549 13.5407 128.996 13.4366 129.379 13.2284C129.768 13.0135 130.091 12.7213 130.346 12.3519C130.601 11.9825 130.793 11.5593 130.92 11.0824C131.054 10.5988 131.122 10.085 131.122 9.54098V9.30926C131.122 8.77193 131.054 8.26483 130.92 7.78795C130.793 7.30436 130.598 6.87785 130.336 6.50844C130.081 6.13231 129.758 5.83678 129.369 5.62185C128.986 5.40692 128.536 5.29945 128.019 5.29945C127.508 5.29945 127.058 5.40692 126.669 5.62185C126.286 5.83678 125.963 6.13231 125.701 6.50844C125.446 6.87785 125.255 7.30436 125.127 7.78795C124.999 8.26483 124.936 8.77193 124.936 9.30926Z" fill="#666666"/>
<path d="M108.907 6.29687V14.8706H107.043V3.96956H108.806L108.907 6.29687ZM108.464 9.00701L107.688 8.97679C107.694 8.23125 107.805 7.5428 108.02 6.91143C108.235 6.27336 108.537 5.71924 108.927 5.24908C109.317 4.77891 109.78 4.41622 110.317 4.16099C110.861 3.89904 111.462 3.76807 112.121 3.76807C112.658 3.76807 113.142 3.84195 113.572 3.98971C114.001 4.13076 114.367 4.35913 114.67 4.67481C114.979 4.99049 115.214 5.4002 115.375 5.90394C115.536 6.40097 115.617 7.00883 115.617 7.7275V14.8706H113.743V7.70735C113.743 7.13644 113.659 6.67971 113.491 6.33717C113.323 5.9879 113.078 5.73603 112.755 5.58155C112.433 5.42035 112.037 5.33975 111.567 5.33975C111.103 5.33975 110.68 5.43714 110.297 5.63192C109.921 5.8267 109.595 6.09537 109.32 6.43791C109.051 6.78046 108.84 7.17338 108.685 7.61668C108.537 8.05326 108.464 8.5167 108.464 9.00701Z" fill="#666666"/>
<path d="M100.625 15.0721C99.8659 15.0721 99.1775 14.9445 98.5595 14.6893C97.9483 14.4273 97.4211 14.0613 96.9778 13.5911C96.5412 13.1209 96.2054 12.5635 95.9703 11.9187C95.7352 11.2739 95.6177 10.5686 95.6177 9.80293V9.37979C95.6177 8.49319 95.7486 7.70399 96.0106 7.01218C96.2725 6.31366 96.6285 5.7226 97.0785 5.239C97.5285 4.75541 98.039 4.38935 98.6099 4.14084C99.1808 3.89232 99.7719 3.76807 100.383 3.76807C101.162 3.76807 101.834 3.9024 102.398 4.17106C102.969 4.43973 103.436 4.81586 103.798 5.29945C104.161 5.77633 104.43 6.34052 104.604 6.99203C104.779 7.63683 104.866 8.34207 104.866 9.10776V9.94398H96.7259V8.42267H103.003V8.28162C102.976 7.79803 102.875 7.32786 102.7 6.87114C102.532 6.41441 102.264 6.03828 101.894 5.74275C101.525 5.44722 101.021 5.29945 100.383 5.29945C99.96 5.29945 99.5704 5.39013 99.2144 5.57147C98.8584 5.74611 98.5528 6.00805 98.2976 6.35732C98.0424 6.70658 97.8442 7.13308 97.7032 7.63683C97.5621 8.14057 97.4916 8.72156 97.4916 9.37979V9.80293C97.4916 10.3201 97.5621 10.8071 97.7032 11.2638C97.8509 11.7138 98.0625 12.1101 98.3379 12.4526C98.62 12.7952 98.9592 13.0638 99.3555 13.2586C99.7585 13.4534 100.215 13.5508 100.726 13.5508C101.384 13.5508 101.941 13.4165 102.398 13.1478C102.855 12.8791 103.254 12.5198 103.597 12.0698L104.725 12.9664C104.49 13.3224 104.191 13.6616 103.829 13.984C103.466 14.3064 103.019 14.5684 102.489 14.7699C101.965 14.9714 101.344 15.0721 100.625 15.0721Z" fill="#666666"/>
<path d="M93.9153 3.96903V5.39967H88.0215V3.96903H93.9153ZM90.0163 1.31934H91.8802V12.17C91.8802 12.5394 91.9373 12.8182 92.0514 13.0062C92.1656 13.1943 92.3134 13.3185 92.4947 13.379C92.6761 13.4394 92.8709 13.4697 93.0791 13.4697C93.2336 13.4697 93.3948 13.4562 93.5627 13.4294C93.7373 13.3958 93.8683 13.3689 93.9556 13.3488L93.9657 14.8701C93.8179 14.9171 93.6231 14.9607 93.3813 15.001C93.1462 15.0481 92.8608 15.0716 92.525 15.0716C92.0682 15.0716 91.6484 14.9809 91.2656 14.7995C90.8828 14.6182 90.5772 14.316 90.3488 13.8928C90.1271 13.4629 90.0163 12.8853 90.0163 12.1599V1.31934Z" fill="#666666"/>
<path d="M85.0391 11.9791C85.0391 11.7104 84.9787 11.4619 84.8578 11.2336C84.7436 10.9985 84.5052 10.7869 84.1425 10.5988C83.7865 10.4041 83.2492 10.2362 82.5305 10.0951C81.926 9.96749 81.3786 9.81636 80.8883 9.64173C80.4047 9.4671 79.9916 9.25553 79.6491 9.00701C79.3132 8.7585 79.0547 8.46633 78.8733 8.1305C78.692 7.79467 78.6013 7.40175 78.6013 6.95173C78.6013 6.52187 78.6953 6.11552 78.8834 5.73267C79.0782 5.34983 79.3502 5.01064 79.6995 4.71511C80.0554 4.41958 80.4819 4.18785 80.979 4.01994C81.476 3.85202 82.0301 3.76807 82.6413 3.76807C83.5145 3.76807 84.26 3.92255 84.8779 4.23151C85.4959 4.54048 85.9694 4.95355 86.2985 5.47072C86.6276 5.98119 86.7922 6.54874 86.7922 7.17338H84.9283C84.9283 6.87114 84.8376 6.57896 84.6563 6.29687C84.4817 6.00805 84.2231 5.76961 83.8805 5.58155C83.5447 5.39348 83.1316 5.29945 82.6413 5.29945C82.1241 5.29945 81.7044 5.38005 81.382 5.54125C81.0663 5.69573 80.8346 5.89387 80.6868 6.13567C80.5457 6.37747 80.4752 6.6327 80.4752 6.90136C80.4752 7.10286 80.5088 7.28421 80.576 7.4454C80.6498 7.59989 80.7775 7.74429 80.9588 7.87863C81.1402 8.00624 81.3954 8.12714 81.7245 8.24132C82.0536 8.3555 82.4734 8.46969 82.9839 8.58387C83.8772 8.78537 84.6126 9.02716 85.1903 9.30926C85.7679 9.59136 86.1978 9.93726 86.4799 10.347C86.762 10.7567 86.903 11.2537 86.903 11.8381C86.903 12.3149 86.8023 12.7515 86.6008 13.1478C86.406 13.5441 86.1205 13.8866 85.7444 14.1754C85.375 14.4575 84.9317 14.6792 84.4145 14.8404C83.904 14.9949 83.3298 15.0721 82.6917 15.0721C81.7312 15.0721 80.9185 14.9008 80.2536 14.5583C79.5886 14.2157 79.0849 13.7724 78.7423 13.2284C78.3998 12.6844 78.2285 12.1101 78.2285 11.5056H80.1024C80.1293 12.0161 80.2771 12.4224 80.5457 12.7247C80.8144 13.0202 81.1435 13.2318 81.5331 13.3594C81.9226 13.4803 82.3088 13.5407 82.6917 13.5407C83.2022 13.5407 83.6287 13.4736 83.9712 13.3392C84.3205 13.2049 84.5858 13.0202 84.7671 12.7851C84.9485 12.55 85.0391 12.2814 85.0391 11.9791Z" fill="#666666"/>
<path d="M75.7 3.96951V14.8706H73.8261V3.96951H75.7ZM73.6851 1.07801C73.6851 0.775767 73.7757 0.520536 73.9571 0.312322C74.1451 0.104107 74.4205 0 74.7832 0C75.1392 0 75.4112 0.104107 75.5993 0.312322C75.7941 0.520536 75.8915 0.775767 75.8915 1.07801C75.8915 1.36683 75.7941 1.61534 75.5993 1.82356C75.4112 2.02505 75.1392 2.1258 74.7832 2.1258C74.4205 2.1258 74.1451 2.02505 73.9571 1.82356C73.7757 1.61534 73.6851 1.36683 73.6851 1.07801Z" fill="#666666"/>
<path d="M71.7301 13.2885V14.8702H64.3956V13.2885H71.7301ZM64.7784 0.201172V14.8702H62.834V0.201172H64.7784Z" fill="#666666"/>
<path d="M3.3125 19.1758C1.76 19.1758 0.5 20.4354 0.5 21.9875V25.041C0.5 28.7904 6.125 28.7904 6.125 25.041V21.9875C6.125 20.4354 4.865 19.1758 3.3125 19.1758ZM42.6875 19.1758C41.135 19.1758 39.875 20.4354 39.875 21.9875V25.041C39.875 28.7904 45.5 28.7904 45.5 25.041V21.9875C45.5 20.4354 44.24 19.1758 42.6875 19.1758ZM13.0241 28.3799C11.4716 28.3799 10.2116 29.6396 10.2116 31.1916V34.2452C10.2116 37.9946 15.8366 37.9946 15.8366 34.2452V31.2141C15.8366 29.655 14.5836 28.4024 13.0241 28.4024V28.3799ZM13.0241 9.9716C11.4716 9.9716 10.2116 11.2312 10.2116 12.7833V22.8296C10.2116 26.579 15.8366 26.579 15.8366 22.8296V12.7693C15.8366 11.2102 14.5836 9.95754 13.0241 9.95754V9.9716ZM32.9759 9.9716C31.4164 9.9716 30.1634 11.2312 30.1634 12.7833V15.8593C30.1634 19.6088 35.7884 19.6088 35.7884 15.8593V12.7833C35.7884 11.2312 34.5284 9.9716 32.9759 9.9716ZM23 1.03174C21.4475 1.03174 20.1875 2.29139 20.1875 3.84346V6.89698C20.1875 10.6464 25.8125 10.6464 25.8125 6.89698V3.84346C25.8125 2.29139 24.5525 1.03174 23 1.03174ZM23 37.3212C21.4475 37.3212 20.1875 38.5808 20.1875 40.1329V43.2089C20.1734 46.9584 25.7984 46.9794 25.8125 43.2314V40.1554C25.8125 38.6174 24.5525 37.3437 23 37.3437V37.3212ZM32.9759 21.4603C31.4164 21.4603 30.1634 22.734 30.1634 24.272V34.2663C30.1634 38.0157 35.7884 38.0157 35.7884 34.2663V24.272C35.7884 22.7199 34.5284 21.4603 32.9759 21.4603ZM23 12.5204C21.4475 12.5204 20.1875 13.7941 20.1875 15.3321V31.6977C20.1875 35.4472 25.8125 35.4472 25.8125 31.6977V15.3546C25.8125 13.7955 24.5525 12.5429 23 12.5429V12.5204Z" fill="#616161"/>
</svg>
