<svg width="166" height="44" viewBox="0 0 166 44" fill="none" xmlns="http://www.w3.org/2000/svg">
<path d="M163.753 41.2524V39.6774C162.961 40.9155 161.797 41.5345 160.262 41.5345C159.266 41.5345 158.35 41.2603 157.511 40.7117C156.681 40.1632 156.034 39.3992 155.572 38.4197C155.117 37.4324 154.89 36.3001 154.89 35.0228C154.89 33.7769 155.098 32.6485 155.513 31.6376C155.928 30.6189 156.551 29.8392 157.382 29.2986C158.212 28.7579 159.141 28.4875 160.168 28.4875C160.92 28.4875 161.59 28.6482 162.177 28.9694C162.765 29.2829 163.243 29.6943 163.611 30.2036V24.021H165.715V41.2524H163.753ZM157.064 35.0228C157.064 36.6213 157.401 37.8163 158.075 38.6078C158.749 39.3992 159.545 39.7949 160.461 39.7949C161.386 39.7949 162.17 39.4188 162.812 38.6665C163.463 37.9064 163.788 36.7506 163.788 35.1991C163.788 33.4908 163.459 32.2371 162.8 31.4378C162.142 30.6385 161.331 30.2389 160.367 30.2389C159.427 30.2389 158.64 30.6229 158.005 31.3908C157.378 32.1587 157.064 33.3694 157.064 35.0228Z" fill="#666666"/>
<path d="M150.8 37.2326L152.986 37.5029C152.641 38.7802 152.002 39.7715 151.07 40.4767C150.137 41.1819 148.946 41.5346 147.497 41.5346C145.671 41.5346 144.221 40.9743 143.148 39.8537C142.082 38.7254 141.549 37.1464 141.549 35.1169C141.549 33.0168 142.09 31.3869 143.171 30.2272C144.253 29.0674 145.655 28.4876 147.379 28.4876C149.048 28.4876 150.412 29.0557 151.47 30.1919C152.527 31.3281 153.056 32.9267 153.056 34.9876C153.056 35.1129 153.052 35.301 153.045 35.5518H143.735C143.814 36.9231 144.202 37.9731 144.899 38.7018C145.596 39.4306 146.466 39.795 147.508 39.795C148.284 39.795 148.946 39.5912 149.495 39.1838C150.043 38.7763 150.478 38.1259 150.8 37.2326ZM143.853 33.8122H150.823C150.729 32.7621 150.463 31.9746 150.024 31.4496C149.35 30.6346 148.476 30.2272 147.403 30.2272C146.431 30.2272 145.612 30.5524 144.946 31.2028C144.288 31.8531 143.923 32.7229 143.853 33.8122Z" fill="#666666"/>
<path d="M137.4 37.2326L139.586 37.5029C139.241 38.7802 138.603 39.7715 137.67 40.4767C136.738 41.1819 135.547 41.5346 134.097 41.5346C132.271 41.5346 130.822 40.9743 129.748 39.8537C128.682 38.7254 128.149 37.1464 128.149 35.1169C128.149 33.0168 128.69 31.3869 129.772 30.2272C130.853 29.0674 132.256 28.4876 133.98 28.4876C135.649 28.4876 137.012 29.0557 138.07 30.1919C139.128 31.3281 139.657 32.9267 139.657 34.9876C139.657 35.1129 139.653 35.301 139.645 35.5518H130.336C130.414 36.9231 130.802 37.9731 131.499 38.7018C132.197 39.4306 133.067 39.795 134.109 39.795C134.885 39.795 135.547 39.5912 136.095 39.1838C136.644 38.7763 137.079 38.1259 137.4 37.2326ZM130.453 33.8122H137.423C137.329 32.7621 137.063 31.9746 136.624 31.4496C135.95 30.6346 135.077 30.2272 134.003 30.2272C133.031 30.2272 132.212 30.5524 131.546 31.2028C130.888 31.8531 130.524 32.7229 130.453 33.8122Z" fill="#666666"/>
<path d="M114.527 41.2524V24.021H126.151V26.0544H116.807V31.3908H124.894V33.4242H116.807V41.2524H114.527Z" fill="#666666"/>
<path d="M90.8774 35.7161L93.0284 35.528C93.1303 36.39 93.3654 37.0991 93.7337 37.6555C94.1098 38.204 94.6897 38.6507 95.4733 38.9955C96.2569 39.3324 97.1384 39.5009 98.1179 39.5009C98.9877 39.5009 99.7556 39.3716 100.422 39.113C101.088 38.8544 101.581 38.5018 101.903 38.0551C102.232 37.6007 102.396 37.107 102.396 36.5741C102.396 36.0334 102.24 35.5633 101.926 35.1637C101.613 34.7562 101.096 34.4153 100.375 34.141C99.9124 33.9608 98.8898 33.6826 97.3069 33.3065C95.724 32.9225 94.6152 32.5621 93.9805 32.2251C93.1577 31.7942 92.5426 31.2613 92.1351 30.6266C91.7355 29.984 91.5357 29.267 91.5357 28.4756C91.5357 27.6058 91.7825 26.7948 92.2762 26.0425C92.7698 25.2824 93.4907 24.7065 94.4389 24.3147C95.3871 23.9229 96.441 23.727 97.6007 23.727C98.878 23.727 100.002 23.9346 100.974 24.3499C101.954 24.7574 102.706 25.3608 103.231 26.16C103.756 26.9593 104.038 27.8644 104.077 28.8752L101.891 29.0398C101.773 27.9506 101.374 27.1278 100.692 26.5714C100.018 26.0151 99.0191 25.7369 97.6948 25.7369C96.3156 25.7369 95.3087 25.9916 94.674 26.5009C94.0471 27.0024 93.7337 27.6097 93.7337 28.3228C93.7337 28.9418 93.957 29.4512 94.4036 29.8508C94.8425 30.2505 95.9865 30.6618 97.8358 31.085C99.693 31.5003 100.966 31.8647 101.656 32.1781C102.659 32.6404 103.399 33.2282 103.877 33.9412C104.355 34.6465 104.594 35.4614 104.594 36.3861C104.594 37.3029 104.332 38.1688 103.807 38.9837C103.282 39.7908 102.526 40.4216 101.538 40.8761C100.559 41.3228 99.454 41.5461 98.2237 41.5461C96.6643 41.5461 95.3557 41.3189 94.2979 40.8644C93.2478 40.4099 92.4211 39.7281 91.8177 38.8192C91.2222 37.9023 90.9088 36.868 90.8774 35.7161Z" fill="#666666"/>
<path d="M74.8214 35.7161L76.9724 35.528C77.0742 36.39 77.3093 37.0991 77.6776 37.6555C78.0538 38.204 78.6336 38.6507 79.4172 38.9955C80.2008 39.3324 81.0824 39.5009 82.0619 39.5009C82.9317 39.5009 83.6996 39.3716 84.3657 39.113C85.0317 38.8544 85.5254 38.5018 85.8467 38.0551C86.1758 37.6007 86.3404 37.107 86.3404 36.5741C86.3404 36.0334 86.1836 35.5633 85.8702 35.1637C85.5567 34.7562 85.0396 34.4153 84.3187 34.141C83.8563 33.9608 82.8337 33.6826 81.2509 33.3065C79.668 32.9225 78.5592 32.5621 77.9245 32.2251C77.1017 31.7942 76.4865 31.2613 76.0791 30.6266C75.6794 29.984 75.4796 29.267 75.4796 28.4756C75.4796 27.6058 75.7264 26.7948 76.2201 26.0425C76.7138 25.2824 77.4347 24.7065 78.3829 24.3147C79.331 23.9229 80.385 23.727 81.5447 23.727C82.822 23.727 83.9464 23.9346 84.9181 24.3499C85.8976 24.7574 86.6499 25.3608 87.1749 26.16C87.6999 26.9593 87.982 27.8644 88.0212 28.8752L85.8349 29.0398C85.7174 27.9506 85.3178 27.1278 84.636 26.5714C83.9621 26.0151 82.963 25.7369 81.6387 25.7369C80.2596 25.7369 79.2527 25.9916 78.6179 26.5009C77.9911 27.0024 77.6776 27.6097 77.6776 28.3228C77.6776 28.9418 77.9009 29.4512 78.3476 29.8508C78.7864 30.2505 79.9305 30.6618 81.7798 31.085C83.6369 31.5003 84.9103 31.8647 85.5998 32.1781C86.6029 32.6404 87.3434 33.2282 87.8214 33.9412C88.2994 34.6465 88.5384 35.4614 88.5384 36.3861C88.5384 37.3029 88.2759 38.1688 87.7508 38.9837C87.2258 39.7908 86.4696 40.4216 85.4823 40.8761C84.5028 41.3228 83.3979 41.5461 82.1677 41.5461C80.6083 41.5461 79.2997 41.3189 78.2418 40.8644C77.1918 40.4099 76.3651 39.7281 75.7617 38.8192C75.1662 37.9023 74.8527 36.868 74.8214 35.7161Z" fill="#666666"/>
<path d="M58.2364 41.2524V24.021H65.8766C67.4124 24.021 68.58 24.1777 69.3793 24.4912C70.1786 24.7968 70.8172 25.3414 71.2952 26.125C71.7732 26.9086 72.0122 27.7745 72.0122 28.7226C72.0122 29.945 71.6165 30.9755 70.825 31.8139C70.0336 32.6524 68.8112 33.1852 67.1578 33.4125C67.7611 33.7024 68.2195 33.9884 68.533 34.2705C69.1991 34.8817 69.8299 35.6457 70.4254 36.5626L73.4227 41.2524H70.5547L68.2744 37.6674C67.6083 36.6331 67.0598 35.8417 66.6288 35.2931C66.1979 34.7446 65.81 34.3606 65.4652 34.1412C65.1282 33.9218 64.7834 33.769 64.4308 33.6828C64.1722 33.628 63.7491 33.6005 63.1614 33.6005H60.5167V41.2524H58.2364ZM60.5167 31.6259H65.4182C66.4604 31.6259 67.2753 31.5201 67.863 31.3085C68.4507 31.0891 68.8974 30.7443 69.203 30.2741C69.5086 29.7962 69.6614 29.279 69.6614 28.7226C69.6614 27.9077 69.3636 27.2377 68.7681 26.7127C68.1804 26.1877 67.2479 25.9251 65.9706 25.9251H60.5167V31.6259Z" fill="#666666"/>
<path d="M150.298 12.7145C149.776 13.1585 149.272 13.472 148.786 13.6548C148.305 13.8376 147.788 13.9291 147.234 13.9291C146.32 13.9291 145.617 13.707 145.126 13.263C144.635 12.8137 144.39 12.2417 144.39 11.5469C144.39 11.1394 144.481 10.7685 144.664 10.4342C144.852 10.0946 145.095 9.82298 145.393 9.61925C145.696 9.41551 146.035 9.2614 146.411 9.15692C146.688 9.08378 147.106 9.01326 147.665 8.94535C148.804 8.80952 149.642 8.64758 150.181 8.45951C150.186 8.26622 150.188 8.14346 150.188 8.09122C150.188 7.51658 150.055 7.11171 149.789 6.87663C149.428 6.55797 148.893 6.39864 148.182 6.39864C147.519 6.39864 147.028 6.51618 146.709 6.75126C146.396 6.98111 146.163 7.3912 146.012 7.98151L144.633 7.79345C144.758 7.20314 144.964 6.72775 145.252 6.36729C145.539 6.00161 145.954 5.72212 146.498 5.52884C147.041 5.33032 147.67 5.23107 148.386 5.23107C149.097 5.23107 149.674 5.31465 150.118 5.48182C150.562 5.64899 150.888 5.86056 151.097 6.11654C151.306 6.36729 151.453 6.68596 151.536 7.07253C151.583 7.31284 151.607 7.74643 151.607 8.37332V10.254C151.607 11.5652 151.635 12.3958 151.693 12.7458C151.756 13.0906 151.876 13.4223 152.053 13.741H150.58C150.434 13.4485 150.34 13.1063 150.298 12.7145ZM150.181 9.56439C149.669 9.77335 148.901 9.95097 147.877 10.0972C147.297 10.1808 146.887 10.2749 146.646 10.3793C146.406 10.4838 146.221 10.6379 146.09 10.8417C145.96 11.0402 145.894 11.2622 145.894 11.5077C145.894 11.8839 146.035 12.1973 146.317 12.4481C146.605 12.6988 147.023 12.8242 147.571 12.8242C148.114 12.8242 148.598 12.7066 149.021 12.4716C149.444 12.2313 149.755 11.9048 149.953 11.4921C150.105 11.1734 150.181 10.7032 150.181 10.0816V9.56439Z" fill="#666666"/>
<path d="M141.302 3.8757V2.25364H142.713V3.8757H141.302ZM141.302 13.7413V5.4194H142.713V13.7413H141.302Z" fill="#666666"/>
<path d="M135.582 13.741L132.416 5.41914H133.905L135.692 10.4029C135.885 10.9409 136.063 11.4999 136.225 12.0798C136.35 11.641 136.525 11.1133 136.75 10.4969L138.599 5.41914H140.049L136.898 13.741H135.582Z" fill="#666666"/>
<path d="M125.568 11.0611L127.025 11.2413C126.795 12.0928 126.369 12.7537 125.748 13.2238C125.126 13.694 124.332 13.9291 123.366 13.9291C122.148 13.9291 121.182 13.5555 120.466 12.8085C119.756 12.0563 119.401 11.0036 119.401 9.65059C119.401 8.25055 119.761 7.16396 120.482 6.3908C121.203 5.61764 122.138 5.23107 123.287 5.23107C124.4 5.23107 125.309 5.60981 126.014 6.36729C126.719 7.12477 127.072 8.19048 127.072 9.56439C127.072 9.64798 127.069 9.77335 127.064 9.94052H120.858C120.91 10.8547 121.169 11.5547 121.634 12.0406C122.099 12.5264 122.679 12.7693 123.373 12.7693C123.891 12.7693 124.332 12.6335 124.698 12.3619C125.063 12.0902 125.353 11.6566 125.568 11.0611ZM120.936 8.78079H125.583C125.52 8.08077 125.343 7.55576 125.05 7.20575C124.601 6.66245 124.019 6.3908 123.303 6.3908C122.655 6.3908 122.109 6.6076 121.665 7.04119C121.226 7.47478 120.983 8.05465 120.936 8.78079Z" fill="#666666"/>
<path d="M112.238 13.7413H110.93V2.25364H112.34V6.35189C112.936 5.60485 113.696 5.23133 114.621 5.23133C115.133 5.23133 115.616 5.33581 116.07 5.54477C116.53 5.74851 116.906 6.03844 117.199 6.41457C117.496 6.78548 117.729 7.23475 117.896 7.76237C118.063 8.29 118.147 8.85419 118.147 9.45495C118.147 10.8811 117.794 11.9834 117.089 12.7618C116.384 13.5401 115.537 13.9293 114.55 13.9293C113.568 13.9293 112.797 13.5192 112.238 12.6991V13.7413ZM112.223 9.51764C112.223 10.5154 112.359 11.2363 112.63 11.6804C113.074 12.4065 113.675 12.7696 114.432 12.7696C115.049 12.7696 115.582 12.5032 116.031 11.9703C116.48 11.4322 116.705 10.633 116.705 9.57249C116.705 8.4859 116.488 7.68401 116.055 7.16683C115.626 6.64965 115.106 6.39107 114.495 6.39107C113.879 6.39107 113.346 6.6601 112.897 7.19818C112.447 7.73103 112.223 8.50418 112.223 9.51764Z" fill="#666666"/>
<path d="M107.372 3.8757V2.25364H108.783V3.8757H107.372ZM107.372 13.7413V5.4194H108.783V13.7413H107.372Z" fill="#666666"/>
<path d="M102.005 13.741V5.41913H103.274V6.68073C103.598 6.09042 103.896 5.70123 104.167 5.51316C104.444 5.3251 104.747 5.23107 105.076 5.23107C105.552 5.23107 106.035 5.38256 106.526 5.68556L106.04 6.99417C105.695 6.79044 105.351 6.68857 105.006 6.68857C104.698 6.68857 104.421 6.7826 104.175 6.97067C103.93 7.15351 103.755 7.40948 103.65 7.7386C103.493 8.2401 103.415 8.78863 103.415 9.38416V13.741H102.005Z" fill="#666666"/>
<path d="M99.4265 10.6928L100.814 10.873C100.662 11.829 100.273 12.5787 99.6459 13.122C99.0243 13.66 98.259 13.9291 97.35 13.9291C96.2111 13.9291 95.2943 13.5582 94.5995 12.8163C93.91 12.0693 93.5652 11.001 93.5652 9.61141C93.5652 8.71288 93.7141 7.92666 94.0118 7.25276C94.3096 6.57886 94.7615 6.07475 95.3675 5.74041C95.9787 5.40085 96.6421 5.23107 97.3578 5.23107C98.2616 5.23107 99.0008 5.46092 99.5754 5.92064C100.15 6.37513 100.518 7.02291 100.68 7.86397L99.309 8.07555C99.1784 7.51658 98.9459 7.09604 98.6116 6.81395C98.2825 6.53185 97.8828 6.3908 97.4127 6.3908C96.7022 6.3908 96.125 6.64678 95.6809 7.15873C95.2369 7.66546 95.0148 8.46996 95.0148 9.57223C95.0148 10.6902 95.229 11.5025 95.6574 12.0092C96.0858 12.516 96.6447 12.7693 97.3343 12.7693C97.8881 12.7693 98.3504 12.5996 98.7213 12.26C99.0922 11.9204 99.3273 11.398 99.4265 10.6928Z" fill="#666666"/>
<path d="M85.4079 11.257L86.8027 11.0376C86.8811 11.5965 87.0979 12.0249 87.4531 12.3227C87.8135 12.6204 88.3151 12.7693 88.9576 12.7693C89.6054 12.7693 90.086 12.6387 90.3994 12.3775C90.7129 12.1111 90.8696 11.8003 90.8696 11.445C90.8696 11.1264 90.7312 10.8756 90.4543 10.6928C90.261 10.5674 89.7804 10.4081 89.0125 10.2148C87.9781 9.95358 87.2598 9.72895 86.8575 9.54088C86.4605 9.3476 86.1575 9.08378 85.9486 8.74945C85.7448 8.40988 85.643 8.03637 85.643 7.62889C85.643 7.25799 85.7265 6.91581 85.8937 6.60237C86.0661 6.28371 86.2986 6.01989 86.5911 5.81093C86.8105 5.64899 87.1083 5.51316 87.4844 5.40346C87.8658 5.28853 88.2733 5.23107 88.7069 5.23107C89.3599 5.23107 89.9319 5.3251 90.4229 5.51316C90.9192 5.70123 91.2849 5.95721 91.52 6.2811C91.7551 6.59976 91.917 7.02813 92.0058 7.5662L90.6267 7.75427C90.564 7.3259 90.3812 6.99156 90.0782 6.75126C89.7804 6.51095 89.3572 6.3908 88.8087 6.3908C88.1609 6.3908 87.6986 6.49789 87.4217 6.71208C87.1449 6.92626 87.0064 7.17701 87.0064 7.46434C87.0064 7.64718 87.0639 7.81173 87.1788 7.95801C87.2938 8.1095 87.474 8.23488 87.7195 8.33414C87.8606 8.38638 88.2759 8.50653 88.9654 8.69459C89.9632 8.96102 90.658 9.18043 91.0498 9.35282C91.4469 9.51999 91.7577 9.76552 91.9823 10.0894C92.207 10.4133 92.3193 10.8155 92.3193 11.2962C92.3193 11.7663 92.1808 12.2104 91.904 12.6283C91.6323 13.041 91.2379 13.3623 90.7207 13.5921C90.2035 13.8167 89.6184 13.9291 88.9654 13.9291C87.8841 13.9291 87.0587 13.7044 86.4893 13.2552C85.9251 12.8059 85.5646 12.1398 85.4079 11.257Z" fill="#666666"/>
<path d="M78.3398 13.7413H77.0312V2.25364H78.4417V6.35189C79.0372 5.60485 79.7973 5.23133 80.7219 5.23133C81.2339 5.23133 81.7171 5.33581 82.1716 5.54477C82.6313 5.74851 83.0074 6.03844 83.3 6.41457C83.5978 6.78548 83.8302 7.23475 83.9974 7.76237C84.1646 8.29 84.2482 8.85419 84.2482 9.45495C84.2482 10.8811 83.8955 11.9834 83.1903 12.7618C82.485 13.5401 81.6388 13.9293 80.6514 13.9293C79.6693 13.9293 78.8988 13.5192 78.3398 12.6991V13.7413ZM78.3241 9.51764C78.3241 10.5154 78.4599 11.2363 78.7316 11.6804C79.1756 12.4065 79.7764 12.7696 80.5339 12.7696C81.1503 12.7696 81.6832 12.5032 82.1324 11.9703C82.5817 11.4322 82.8063 10.633 82.8063 9.57249C82.8063 8.4859 82.5895 7.68401 82.1559 7.16683C81.7276 6.64965 81.2078 6.39107 80.5966 6.39107C79.9801 6.39107 79.4473 6.6601 78.998 7.19818C78.5487 7.73103 78.3241 8.50418 78.3241 9.51764Z" fill="#666666"/>
<path d="M73.5598 13.741V12.5186C72.912 13.4589 72.0317 13.9291 70.919 13.9291C70.428 13.9291 69.9683 13.835 69.5399 13.647C69.1167 13.4589 68.8007 13.2238 68.5917 12.9417C68.388 12.6544 68.2443 12.3044 68.1608 11.8917C68.1033 11.6148 68.0746 11.176 68.0746 10.5753V5.41914H69.485V10.0346C69.485 10.7712 69.5138 11.2674 69.5712 11.5234C69.66 11.8943 69.8481 12.1869 70.1354 12.401C70.4228 12.61 70.778 12.7145 71.2011 12.7145C71.6243 12.7145 72.0213 12.6074 72.3922 12.3932C72.7631 12.1738 73.0243 11.8786 73.1758 11.5077C73.3325 11.1316 73.4109 10.5883 73.4109 9.87785V5.41914H74.8214V13.741H73.5598Z" fill="#666666"/>
<path d="M57.0649 10.0504L58.4989 9.92499C58.5668 10.4996 58.7236 10.9724 58.9691 11.3433C59.2199 11.709 59.6064 12.0068 60.1288 12.2366C60.6512 12.4613 61.2389 12.5736 61.8919 12.5736C62.4718 12.5736 62.9838 12.4874 63.4278 12.315C63.8718 12.1426 64.201 11.9075 64.4151 11.6097C64.6345 11.3067 64.7443 10.9776 64.7443 10.6224C64.7443 10.2619 64.6398 9.9485 64.4308 9.68208C64.2219 9.41043 63.8771 9.18318 63.3965 9.00034C63.0882 8.88019 62.4065 8.69474 61.3513 8.44398C60.296 8.18801 59.5568 7.9477 59.1337 7.72307C58.5851 7.43575 58.175 7.08051 57.9034 6.65737C57.637 6.229 57.5038 5.751 57.5038 5.22337C57.5038 4.64351 57.6683 4.10282 57.9974 3.60132C58.3265 3.09459 58.8072 2.71062 59.4393 2.44942C60.0714 2.18822 60.774 2.05762 61.5472 2.05762C62.3987 2.05762 63.1483 2.19605 63.7961 2.47293C64.4491 2.74458 64.9506 3.14683 65.3006 3.67968C65.6506 4.21253 65.8387 4.8159 65.8648 5.4898L64.4073 5.5995C64.3289 4.87336 64.0625 4.32484 63.608 3.95394C63.1588 3.58303 62.4927 3.39758 61.6098 3.39758C60.6904 3.39758 60.0191 3.56736 59.596 3.90692C59.1781 4.24126 58.9691 4.64612 58.9691 5.12151C58.9691 5.5342 59.118 5.87376 59.4158 6.14019C59.7083 6.40662 60.471 6.68088 61.7039 6.96297C62.942 7.23985 63.7909 7.48276 64.2506 7.69172C64.9193 7.99994 65.4129 8.39174 65.7316 8.86713C66.0503 9.33729 66.2096 9.88059 66.2096 10.497C66.2096 11.1082 66.0346 11.6855 65.6846 12.2288C65.3346 12.7669 64.8304 13.1874 64.1722 13.4904C63.5192 13.7882 62.7826 13.937 61.9625 13.937C60.9229 13.937 60.0505 13.7855 59.3452 13.4826C58.6452 13.1796 58.0941 12.7251 57.6918 12.1191C57.2948 11.5079 57.0858 10.8183 57.0649 10.0504Z" fill="#666666"/>
<path d="M38.5661 0.181641H5.13754C2.61995 0.181641 0.579102 2.26174 0.579102 4.82774V38.8992C0.579102 41.4652 2.61995 43.5453 5.13754 43.5453H38.5661C41.0837 43.5453 43.1246 41.4652 43.1246 38.8992V4.82774C43.1246 2.26174 41.0837 0.181641 38.5661 0.181641ZM11.2155 37.3505C8.69788 37.3505 6.65702 35.2704 6.65702 32.7044C6.65702 30.1384 8.69788 28.0583 11.2155 28.0583C13.7331 28.0583 15.7739 30.1384 15.7739 32.7044C15.7739 35.2704 13.7331 37.3505 11.2155 37.3505ZM26.176 37.3505H22.9153C22.3444 37.3505 21.8658 36.9017 21.8287 36.3212C21.3335 28.5728 15.2528 22.3906 7.66681 21.887C7.09729 21.8492 6.65702 21.3613 6.65702 20.7796V17.4561C6.65702 16.8236 7.17631 16.3162 7.79606 16.3503C18.2943 16.9285 26.6943 25.5008 27.261 36.1895C27.2944 36.8212 26.7966 37.3505 26.176 37.3505ZM35.9602 37.3505H32.6996C32.1145 37.3505 31.6383 36.8779 31.6144 36.2821C31.0828 23.0663 20.6738 12.4552 7.70537 11.9132C7.12066 11.8888 6.65702 11.4034 6.65702 10.8071V7.48377C6.65702 6.85906 7.16396 6.35476 7.77641 6.37722C23.7148 6.9604 36.4765 20.0436 37.0459 36.2096C37.0679 36.8338 36.5731 37.3505 35.9602 37.3505Z" fill="#616161"/>
</svg>
