<svg width="143" height="43" viewBox="0 0 143 43" fill="none" xmlns="http://www.w3.org/2000/svg">
<path d="M21.6755 0C9.91506 0 0.380859 9.62581 0.380859 21.4996C0.380859 33.3747 9.91506 43 21.6755 43C33.4365 43 42.9702 33.3747 42.9702 21.4996C42.9702 9.62657 33.437 0.00102616 21.6753 0.00102616L21.6755 0ZM31.4411 31.0086C31.0587 31.642 30.2414 31.8404 29.6161 31.4546C24.6156 28.3688 18.3215 27.6718 10.909 29.3814C10.1948 29.5468 9.48276 29.0946 9.32003 28.3737C9.15652 27.6525 9.60228 26.9337 10.3183 26.7694C18.4301 24.897 25.3881 25.7029 31.001 29.1658C31.6265 29.5534 31.8248 30.3776 31.4409 31.0091L31.4411 31.0086ZM34.0476 25.1553C33.5659 25.9442 32.5442 26.1917 31.7638 25.7073C26.0411 22.1556 17.3148 21.1268 10.5444 23.2018C9.66636 23.4696 8.73898 22.97 8.47249 22.085C8.20803 21.1985 8.70313 20.2639 9.57965 19.9944C17.3133 17.6252 26.9273 18.7728 33.5006 22.8511C34.2813 23.3363 34.5279 24.3684 34.0473 25.1555L34.0476 25.1553ZM34.2713 19.0593C27.4071 14.9436 16.0848 14.5652 9.53208 16.5731C8.47986 16.8953 7.3671 16.2956 7.04822 15.2332C6.72935 14.1703 7.32285 13.0476 8.37585 12.7246C15.8979 10.4191 28.4024 10.8646 36.3041 15.6006C37.2505 16.1677 37.561 17.4018 37.0001 18.3561C36.4406 19.3117 35.215 19.6267 34.2716 19.0593H34.2713ZM58.3166 19.848C54.6399 18.9628 53.9854 18.3415 53.9854 17.036C53.9854 15.8026 55.1355 14.9726 56.8458 14.9726C58.5038 14.9726 60.1477 15.6029 61.8713 16.9004C61.9234 16.9397 61.9888 16.9554 62.0531 16.9451C62.1175 16.9354 62.1744 16.8997 62.212 16.846L64.0073 14.291C64.0811 14.1857 64.061 14.0407 63.9615 13.9603C61.9102 12.2984 59.6003 11.4905 56.9003 11.4905C52.9304 11.4905 50.1574 13.8958 50.1574 17.3374C50.1574 21.028 52.5494 22.3348 56.6831 23.3435C60.2014 24.1617 60.7952 24.8472 60.7952 26.0726C60.7952 27.4305 59.5944 28.2746 57.6621 28.2746C55.516 28.2746 53.7655 27.5447 51.8072 25.8326C51.7586 25.7902 51.692 25.7709 51.6305 25.7745C51.5656 25.7799 51.5064 25.8102 51.4652 25.8603L49.4522 28.279C49.3678 28.3794 49.3785 28.5293 49.4762 28.6161C51.7546 30.6697 54.5568 31.7545 57.5808 31.7545C61.8586 31.7545 64.623 29.3945 64.623 25.7419C64.6306 22.6585 62.8023 20.9512 58.3243 19.8514L58.3166 19.848ZM74.3011 16.187C72.4468 16.187 70.9259 16.9243 69.6718 18.4352V16.7346C69.6718 16.6003 69.564 16.4909 69.4312 16.4909H66.139C66.006 16.4909 65.8984 16.6003 65.8984 16.7346V35.6309C65.8984 35.7652 66.006 35.8745 66.139 35.8745H69.4312C69.564 35.8745 69.6718 35.7652 69.6718 35.6309V29.6661C70.9262 31.0874 72.4473 31.7819 74.3011 31.7819C77.7464 31.7819 81.2342 29.1042 81.2342 23.9853C81.2393 18.8652 77.7505 16.1867 74.3049 16.1867L74.3011 16.187ZM77.4059 23.9853C77.4059 26.592 75.8156 28.411 73.5384 28.411C71.2873 28.411 69.5891 26.5093 69.5891 23.9853C69.5891 21.4616 71.2873 19.5597 73.5384 19.5597C75.7787 19.5595 77.4062 21.4203 77.4062 23.9851L77.4059 23.9853ZM90.1736 16.187C85.7366 16.187 82.2605 19.6365 82.2605 24.041C82.2605 28.3976 85.7127 31.8109 90.1192 31.8109C94.572 31.8109 98.0588 28.373 98.0588 23.9853C98.0588 19.6128 94.5954 16.1875 90.1734 16.1875L90.1736 16.187ZM90.1736 28.4369C87.8136 28.4369 86.0343 26.5224 86.0343 23.984C86.0343 21.4349 87.7521 19.5851 90.1192 19.5851C92.4945 19.5851 94.2857 21.4996 94.2857 24.0398C94.2857 26.5884 92.5565 28.4369 90.1738 28.4369H90.1736ZM107.534 16.491H103.911V12.7513C103.911 12.6173 103.804 12.5079 103.671 12.5079H100.379C100.246 12.5079 100.138 12.6173 100.138 12.7513V16.491H98.5546C98.4221 16.491 98.3148 16.6003 98.3148 16.7346V19.5913C98.3148 19.7253 98.4221 19.8349 98.5546 19.8349H100.138V27.2266C100.138 30.2138 101.61 31.7283 104.514 31.7283C105.695 31.7283 106.675 31.482 107.598 30.9534C107.673 30.9111 107.72 30.8294 107.72 30.7427V28.0223C107.72 27.9383 107.677 27.859 107.605 27.8151C107.534 27.7696 107.444 27.7673 107.371 27.804C106.737 28.1263 106.124 28.2749 105.438 28.2749C104.382 28.2749 103.911 27.7907 103.911 26.7055V19.8362H107.534C107.667 19.8362 107.774 19.7269 107.774 19.5926V16.7361C107.779 16.6019 107.672 16.4925 107.537 16.4925L107.534 16.491ZM120.156 16.5056V16.0463C120.156 14.6951 120.67 14.0925 121.821 14.0925C122.507 14.0925 123.058 14.2301 123.676 14.4381C123.752 14.4622 123.831 14.4501 123.893 14.4042C123.956 14.3582 123.992 14.2845 123.992 14.2065V11.4055C123.992 11.2984 123.924 11.2037 123.822 11.1721C123.17 10.9762 122.335 10.7752 121.085 10.7752C118.045 10.7752 116.437 12.5041 116.437 15.7731V16.4765H114.856C114.723 16.4765 114.614 16.5859 114.614 16.7199V19.5913C114.614 19.7253 114.723 19.8349 114.856 19.8349H116.437V31.2363C116.437 31.3706 116.545 31.48 116.677 31.48H119.97C120.103 31.48 120.211 31.3706 120.211 31.2363V19.8357H123.285L127.993 31.2343C127.459 32.432 126.933 32.6702 126.216 32.6702C125.636 32.6702 125.025 32.4954 124.4 32.1503C124.342 32.1177 124.272 32.1123 124.209 32.1321C124.146 32.1544 124.093 32.2017 124.066 32.2633L122.95 34.7349C122.897 34.8517 122.943 34.9888 123.054 35.0494C124.219 35.6863 125.27 35.9582 126.57 35.9582C129.001 35.9582 130.345 34.815 131.529 31.7393L137.241 16.8383C137.269 16.7633 137.261 16.6786 137.215 16.6121C137.17 16.5461 137.097 16.5063 137.017 16.5063H133.59C133.487 16.5063 133.395 16.5723 133.362 16.6696L129.851 26.7948L126.005 16.663C125.97 16.5687 125.88 16.5063 125.781 16.5063H120.156L120.156 16.5056ZM112.838 16.491H109.546C109.413 16.491 109.305 16.6003 109.305 16.7346V31.2363C109.305 31.3706 109.413 31.48 109.546 31.48H112.838C112.971 31.48 113.079 31.3706 113.079 31.2363V16.7356C113.08 16.7036 113.073 16.6718 113.061 16.6422C113.049 16.6126 113.031 16.5857 113.009 16.5631C112.986 16.5404 112.96 16.5225 112.93 16.5103C112.901 16.4981 112.87 16.4919 112.838 16.492L112.838 16.491ZM111.211 9.88795C109.906 9.88795 108.848 10.9539 108.848 12.2707C108.848 13.5883 109.907 14.6556 111.211 14.6556C112.514 14.6556 113.572 13.5883 113.572 12.2707C113.572 10.9542 112.514 9.88795 111.212 9.88795H111.211ZM140.052 21.1535C138.749 21.1535 137.735 20.097 137.735 18.8141C137.735 17.5312 138.762 16.4627 140.064 16.4627C141.367 16.4627 142.381 17.5189 142.381 18.8008C142.381 20.0837 141.354 21.1535 140.052 21.1535H140.052ZM140.065 16.6953C138.878 16.6953 137.98 17.6478 137.98 18.8141C137.98 19.98 138.871 20.9196 140.053 20.9196C141.239 20.9196 142.138 19.9679 142.138 18.8008C142.138 17.635 141.245 16.6953 140.066 16.6953H140.065ZM140.578 19.0413L141.234 19.9677H140.681L140.091 19.1179H139.584V19.9677H139.121V17.5122H140.206C140.771 17.5122 141.142 17.8041 141.142 18.2955C141.145 18.6981 140.913 18.9441 140.58 19.0414L140.578 19.0413ZM140.187 17.9335H139.583V18.7102H140.187C140.488 18.7102 140.667 18.5615 140.667 18.3215C140.667 18.0689 140.487 17.9336 140.187 17.9336L140.187 17.9335Z" fill="white"/>
</svg>
