<svg width="86" height="49" viewBox="0 0 86 49" fill="none" xmlns="http://www.w3.org/2000/svg">
<path d="M1.3435 22.3267C1.16614 22.3267 1.02537 22.4654 1.00243 22.6632L0.380859 27.4378L1.00243 32.1302C1.02537 32.328 1.16605 32.4657 1.3435 32.4657C1.51528 32.4657 1.65519 32.3289 1.68259 32.132L2.41934 27.4377L1.68259 22.6622C1.65605 22.4653 1.51442 22.3267 1.3435 22.3267ZM4.83907 19.718C4.80979 19.5128 4.66446 19.3713 4.4853 19.3713C4.30519 19.3713 4.15618 19.5174 4.13153 19.718C4.13153 19.7198 3.296 27.4378 3.296 27.4378L4.13153 34.9866C4.15532 35.1891 4.30433 35.3352 4.4853 35.3352C4.66352 35.3352 4.80893 35.1928 4.83813 34.9886L5.78874 27.4378L4.83907 19.718ZM18.0061 12.5972C17.6633 12.5972 17.3799 12.8809 17.3635 13.2415L16.698 27.4442L17.3635 36.6228C17.3809 36.9815 17.6633 37.2644 18.0061 37.2644C18.3471 37.2644 18.6296 36.9805 18.6497 36.621V36.6238L19.402 27.4442L18.6497 13.2415C18.6295 12.8809 18.347 12.5972 18.0061 12.5972ZM11.1913 17.5335C10.9281 17.5335 10.7132 17.7462 10.6921 18.0299L9.94257 27.4405L10.6921 36.5451C10.7122 36.827 10.928 37.0397 11.1913 37.0397C11.4518 37.0397 11.6666 36.827 11.6895 36.5451L12.5415 27.4405L11.6895 18.028C11.6666 17.7462 11.4518 17.5335 11.1913 17.5335ZM24.9316 37.2635C25.3566 37.2635 25.7022 36.9168 25.7195 36.473L26.3723 27.4488L25.7205 8.53977C25.7031 8.09602 25.3575 7.74938 24.9325 7.74938C24.5038 7.74938 24.1574 8.09698 24.1436 8.54073L23.5649 27.4479L24.1436 36.4758C24.1573 36.9159 24.5037 37.2635 24.9316 37.2635ZM39.1096 37.306C39.6947 37.306 40.1774 36.8189 40.1883 36.2198L40.6436 27.4544L40.1882 5.61585C40.1782 5.01776 39.6946 4.52972 39.1095 4.52972C38.5236 4.52972 38.0401 5.01689 38.0309 5.6168L37.6241 27.447C37.6241 27.4609 38.0309 36.2253 38.0309 36.2253C38.0401 36.8188 38.5246 37.306 39.1096 37.306ZM31.9666 37.2718C32.4759 37.2718 32.8862 36.8586 32.9 36.3317V36.3381L33.4539 27.4508L32.899 8.40488C32.8853 7.87793 32.4749 7.46571 31.9657 7.46571C31.4528 7.46571 31.0425 7.87801 31.0315 8.40488L30.5388 27.4517L31.0324 36.3373C31.0434 36.8586 31.4538 37.2718 31.9666 37.2718ZM14.5854 37.1886C14.888 37.1886 15.1331 36.9436 15.1559 36.621L15.9585 27.4406L15.1559 18.7076C15.134 18.385 14.8891 18.1418 14.5854 18.1418C14.2784 18.1418 14.0334 18.3867 14.0142 18.7113L13.3075 27.4406L14.0142 36.6201C14.0343 36.9436 14.2783 37.1886 14.5854 37.1886ZM7.82465 36.6857C8.04581 36.6857 8.22497 36.5091 8.25057 36.2651L9.15188 27.4387L8.25143 18.2795C8.22489 18.0346 8.04572 17.8579 7.82456 17.8579C7.60056 17.8579 7.4214 18.0355 7.39855 18.2795L6.60511 27.4387L7.39855 36.2633C7.42054 36.5082 7.5997 36.6857 7.82465 36.6857ZM35.5245 8.08777C34.9714 8.08777 34.528 8.53247 34.5171 9.1019L34.0674 27.4526L34.5171 36.2826C34.5281 36.8447 34.9705 37.2894 35.5245 37.2894C36.0766 37.2894 36.5173 36.8456 36.53 36.2762V36.2836L37.0346 27.4535L36.53 9.09999C36.5172 8.53247 36.0765 8.08777 35.5245 8.08777ZM21.456 37.282C21.8381 37.282 22.1535 36.9667 22.1718 36.5646L22.8739 27.4469L22.1718 9.99574C22.1526 9.59264 21.8381 9.27839 21.456 9.27839C21.0703 9.27839 20.7558 9.59359 20.7394 9.99574L20.1178 27.4469L20.7403 36.5683C20.7558 36.9667 21.0702 37.282 21.456 37.282ZM29.2956 36.4213V36.4166L29.8989 27.4498L29.2956 7.90381C29.2809 7.41855 28.9025 7.03768 28.4353 7.03768C27.9654 7.03768 27.587 7.41759 27.5743 7.90381L27.0386 27.4488L27.5751 36.4204C27.5879 36.901 27.9664 37.2809 28.4354 37.2809C28.9034 37.2809 29.28 36.901 29.2957 36.4176V36.4213H29.2956ZM74.9268 16.1829C73.4943 16.1829 72.1277 16.476 70.8827 17.0038C70.0508 7.47492 62.1491 0 52.5106 0C50.1522 0 47.8532 0.46963 45.8229 1.26367C45.034 1.57244 44.8238 1.89042 44.8165 2.50701V36.0635C44.8247 36.7106 45.3211 37.2495 45.9455 37.3133C45.972 37.3161 74.7394 37.3309 74.926 37.3309C80.6996 37.3309 85.3809 32.5969 85.3809 26.7574C85.3808 20.9178 80.7005 16.1829 74.9268 16.1829ZM42.6792 2.47748C42.0512 2.47748 41.5357 2.99888 41.5265 3.63944L41.0548 27.4572L41.5275 36.1014C41.5357 36.7329 42.0513 37.2533 42.6792 37.2533C43.3054 37.2533 43.8209 36.7329 43.8301 36.0922V36.1024L44.3429 27.4572L43.8301 3.63762C43.8209 2.99888 43.3054 2.47748 42.6792 2.47748ZM8.82379 44.0524C7.58699 43.7584 7.25237 43.6013 7.25237 43.1058C7.25237 42.7564 7.53116 42.3949 8.36669 42.3949C9.08059 42.3949 9.63827 42.6879 10.1393 43.2065L11.2646 42.1028C10.5288 41.3254 9.63741 40.8631 8.42346 40.8631C6.88408 40.8631 5.63629 41.7423 5.63629 43.1742C5.63629 44.729 6.64007 45.1914 8.07707 45.5287C9.54783 45.8661 9.81571 46.0926 9.81571 46.6001C9.81571 47.1973 9.37966 47.457 8.45636 47.457C7.70956 47.457 7.0075 47.1982 6.46091 46.5539L5.33542 47.569C5.92591 48.4481 7.06402 49 8.3666 49C10.4966 49 11.4326 47.9859 11.4326 46.4874C11.4326 44.7735 10.0614 44.3455 8.82379 44.0524ZM16.0032 40.8631C13.8751 40.8631 12.6164 42.5309 12.6164 44.9316C12.6164 47.3324 13.8751 48.999 16.0032 48.999C18.1314 48.999 19.3919 47.3324 19.3919 44.9316C19.3919 42.5309 18.1314 40.8631 16.0032 40.8631ZM16.0032 47.434C14.7445 47.434 14.2197 46.3404 14.2197 44.9324C14.2197 43.5236 14.7444 42.43 16.0032 42.43C17.2638 42.43 17.7867 43.5236 17.7867 44.9324C17.7867 46.3404 17.2638 47.434 16.0032 47.434ZM25.6894 45.4168C25.6894 46.6787 25.0751 47.457 24.0842 47.457C23.0924 47.457 22.4908 46.6564 22.4908 45.3947V40.9861H20.9295V45.4169C20.9295 47.715 22.2011 49 24.0841 49C26.0678 49 27.2497 47.6808 27.2497 45.3948V40.9861H25.6894V45.4168ZM33.9804 44.3233C33.9804 44.7633 34.0023 45.7544 34.0023 46.0474C33.9019 45.844 33.6459 45.4502 33.4566 45.1563L30.6914 40.9853H29.1986V48.8762H30.7371V45.404C30.7371 44.9641 30.7151 43.9729 30.7151 43.6799C30.8148 43.8824 31.0725 44.2771 31.2609 44.5711L34.1257 48.8761H35.5188V40.9852H33.9804L33.9804 44.3233ZM39.9652 40.9861H37.5246V48.877H39.8527C41.8593 48.877 43.8439 47.7039 43.8439 44.9316C43.8439 42.0455 42.1939 40.9861 39.9652 40.9861ZM39.8527 47.3443H39.085V42.5198H39.9095C41.5595 42.5198 42.2397 43.3194 42.2397 44.9316C42.2396 46.3746 41.4918 47.3443 39.8527 47.3443ZM48.6695 42.4292C49.3716 42.4292 49.8176 42.7453 50.0964 43.2861L51.5452 42.6103C51.0544 41.5851 50.1622 40.8631 48.6913 40.8631C46.6537 40.8631 45.2258 42.5309 45.2258 44.9316C45.2258 47.422 46.5961 48.999 48.6355 48.999C50.0515 48.999 50.9876 48.3344 51.5223 47.2186L50.2078 46.4291C49.7954 47.1289 49.3823 47.4331 48.6803 47.4331C47.5102 47.4331 46.8301 46.3505 46.8301 44.9316C46.8294 43.4673 47.5003 42.4292 48.6695 42.4292ZM54.4568 40.9861H52.8964V48.877H57.5859V47.3203H54.4568V40.9861ZM61.6967 40.8631C59.5668 40.8631 58.308 42.5309 58.308 44.9316C58.308 47.3324 59.5668 48.999 61.6967 48.999C63.8247 48.999 65.0844 47.3324 65.0844 44.9316C65.0845 42.5309 63.8247 40.8631 61.6967 40.8631ZM61.6967 47.434C60.4361 47.434 59.9132 46.3404 59.9132 44.9324C59.9132 43.5236 60.4361 42.43 61.6967 42.43C62.9546 42.43 63.4783 43.5236 63.4783 44.9324C63.4783 46.3404 62.9546 47.434 61.6967 47.434ZM71.381 45.4168C71.381 46.6787 70.7694 47.457 69.7776 47.457C68.7839 47.457 68.1833 46.6564 68.1833 45.3947V40.9861H66.623V45.4169C66.623 47.715 67.8936 49 69.7776 49C71.7613 49 72.9423 47.6808 72.9423 45.3948V40.9861H71.381V45.4168ZM77.3328 40.9861H74.893V48.877H77.2213C79.2287 48.877 81.2114 47.7039 81.2114 44.9316C81.2114 42.0455 79.5623 40.9861 77.3328 40.9861ZM77.2213 47.3443H76.4525V42.5198H77.278C78.9261 42.5198 79.6061 43.3194 79.6061 44.9316C79.6062 46.3746 78.8594 47.3443 77.2213 47.3443Z" fill="white"/>
</svg>
