<svg width="143" height="43" viewBox="0 0 143 43" fill="none" xmlns="http://www.w3.org/2000/svg">
<path d="M21.7947 0C10.0342 0 0.5 9.62581 0.5 21.4996C0.5 33.3747 10.0342 43 21.7947 43C33.5557 43 43.0894 33.3747 43.0894 21.4996C43.0894 9.62657 33.5562 0.00102616 21.7944 0.00102616L21.7947 0ZM31.5603 31.0086C31.1778 31.642 30.3606 31.8404 29.7353 31.4546C24.7347 28.3688 18.4406 27.6718 11.0282 29.3814C10.3139 29.5468 9.6019 29.0946 9.43917 28.3737C9.27566 27.6525 9.72142 26.9337 10.4375 26.7694C18.5492 24.897 25.5073 25.7029 31.1201 29.1658C31.7457 29.5534 31.944 30.3776 31.56 31.0091L31.5603 31.0086ZM34.1667 25.1553C33.6851 25.9442 32.6634 26.1917 31.883 25.7073C26.1603 22.1556 17.4339 21.1268 10.6636 23.2018C9.7855 23.4696 8.85812 22.97 8.59163 22.085C8.32717 21.1985 8.82228 20.2639 9.69879 19.9944C17.4324 17.6252 27.0464 18.7728 33.6197 22.8511C34.4004 23.3363 34.647 24.3684 34.1664 25.1555L34.1667 25.1553ZM34.3905 19.0593C27.5263 14.9436 16.2039 14.5652 9.65122 16.5731C8.599 16.8953 7.48624 16.2956 7.16736 15.2332C6.84849 14.1703 7.44199 13.0476 8.49499 12.7246C16.017 10.4191 28.5216 10.8646 36.4232 15.6006C37.3697 16.1677 37.6802 17.4018 37.1192 18.3561C36.5598 19.3117 35.3341 19.6267 34.3907 19.0593H34.3905ZM58.4358 19.848C54.7591 18.9628 54.1045 18.3415 54.1045 17.036C54.1045 15.8026 55.2546 14.9726 56.965 14.9726C58.6229 14.9726 60.2669 15.6029 61.9904 16.9004C62.0426 16.9397 62.1079 16.9554 62.1723 16.9451C62.2366 16.9354 62.2936 16.8997 62.3312 16.846L64.1265 14.291C64.2002 14.1857 64.1801 14.0407 64.0807 13.9603C62.0294 12.2984 59.7194 11.4905 57.0194 11.4905C53.0495 11.4905 50.2765 13.8958 50.2765 17.3374C50.2765 21.028 52.6686 22.3348 56.8023 23.3435C60.3206 24.1617 60.9143 24.8472 60.9143 26.0726C60.9143 27.4305 59.7136 28.2746 57.7813 28.2746C55.6351 28.2746 53.8846 27.5447 51.9263 25.8326C51.8778 25.7902 51.8111 25.7709 51.7496 25.7745C51.6848 25.7799 51.6255 25.8102 51.5843 25.8603L49.5714 28.279C49.487 28.3794 49.4976 28.5293 49.5953 28.6161C51.8737 30.6697 54.6759 31.7545 57.6999 31.7545C61.9777 31.7545 64.7421 29.3945 64.7421 25.7419C64.7497 22.6585 62.9214 20.9512 58.4434 19.8514L58.4358 19.848ZM74.4202 16.187C72.566 16.187 71.0451 16.9243 69.7909 18.4352V16.7346C69.7909 16.6003 69.6831 16.4909 69.5504 16.4909H66.2581C66.1251 16.4909 66.0176 16.6003 66.0176 16.7346V35.6309C66.0176 35.7652 66.1251 35.8745 66.2581 35.8745H69.5504C69.6831 35.8745 69.7909 35.7652 69.7909 35.6309V29.6661C71.0453 31.0874 72.5665 31.7819 74.4202 31.7819C77.8655 31.7819 81.3533 29.1042 81.3533 23.9853C81.3584 18.8652 77.8696 16.1867 74.424 16.1867L74.4202 16.187ZM77.525 23.9853C77.525 26.592 75.9347 28.411 73.6576 28.411C71.4064 28.411 69.7083 26.5093 69.7083 23.9853C69.7083 21.4616 71.4064 19.5597 73.6576 19.5597C75.8979 19.5595 77.5253 21.4203 77.5253 23.9851L77.525 23.9853ZM90.2928 16.187C85.8557 16.187 82.3796 19.6365 82.3796 24.041C82.3796 28.3976 85.8318 31.8109 90.2383 31.8109C94.6911 31.8109 98.1779 28.373 98.1779 23.9853C98.1779 19.6128 94.7145 16.1875 90.2925 16.1875L90.2928 16.187ZM90.2928 28.4369C87.9327 28.4369 86.1535 26.5224 86.1535 23.984C86.1535 21.4349 87.8712 19.5851 90.2383 19.5851C92.6136 19.5851 94.4048 21.4996 94.4048 24.0398C94.4048 26.5884 92.6757 28.4369 90.293 28.4369H90.2928ZM107.653 16.491H104.03V12.7513C104.03 12.6173 103.923 12.5079 103.79 12.5079H100.498C100.365 12.5079 100.257 12.6173 100.257 12.7513V16.491H98.6738C98.5413 16.491 98.434 16.6003 98.434 16.7346V19.5913C98.434 19.7253 98.5413 19.8349 98.6738 19.8349H100.257V27.2266C100.257 30.2138 101.729 31.7283 104.633 31.7283C105.814 31.7283 106.794 31.482 107.717 30.9534C107.792 30.9111 107.839 30.8294 107.839 30.7427V28.0223C107.839 27.9383 107.796 27.859 107.725 27.8151C107.653 27.7696 107.564 27.7673 107.49 27.804C106.856 28.1263 106.243 28.2749 105.558 28.2749C104.501 28.2749 104.03 27.7907 104.03 26.7055V19.8362H107.653C107.786 19.8362 107.893 19.7269 107.893 19.5926V16.7361C107.898 16.6019 107.791 16.4925 107.656 16.4925L107.653 16.491ZM120.276 16.5056V16.0463C120.276 14.6951 120.789 14.0925 121.94 14.0925C122.626 14.0925 123.177 14.2301 123.795 14.4381C123.871 14.4622 123.95 14.4501 124.012 14.4042C124.075 14.3582 124.111 14.2845 124.111 14.2065V11.4055C124.111 11.2984 124.043 11.2037 123.941 11.1721C123.289 10.9762 122.454 10.7752 121.205 10.7752C118.164 10.7752 116.556 12.5041 116.556 15.7731V16.4765H114.975C114.842 16.4765 114.733 16.5859 114.733 16.7199V19.5913C114.733 19.7253 114.842 19.8349 114.975 19.8349H116.556V31.2363C116.556 31.3706 116.664 31.48 116.797 31.48H120.089C120.222 31.48 120.33 31.3706 120.33 31.2363V19.8357H123.404L128.112 31.2343C127.578 32.432 127.052 32.6702 126.335 32.6702C125.755 32.6702 125.144 32.4954 124.519 32.1503C124.461 32.1177 124.391 32.1123 124.328 32.1321C124.265 32.1544 124.212 32.2017 124.185 32.2633L123.069 34.7349C123.016 34.8517 123.062 34.9888 123.173 35.0494C124.338 35.6863 125.39 35.9582 126.689 35.9582C129.12 35.9582 130.464 34.815 131.648 31.7393L137.36 16.8383C137.389 16.7633 137.38 16.6786 137.334 16.6121C137.289 16.5461 137.216 16.5063 137.136 16.5063H133.709C133.606 16.5063 133.515 16.5723 133.481 16.6696L129.97 26.7948L126.124 16.663C126.089 16.5687 125.999 16.5063 125.9 16.5063H120.275L120.276 16.5056ZM112.957 16.491H109.665C109.532 16.491 109.424 16.6003 109.424 16.7346V31.2363C109.424 31.3706 109.532 31.48 109.665 31.48H112.957C113.09 31.48 113.199 31.3706 113.199 31.2363V16.7356C113.199 16.7036 113.192 16.6718 113.18 16.6422C113.168 16.6126 113.15 16.5857 113.128 16.5631C113.106 16.5404 113.079 16.5225 113.05 16.5103C113.02 16.4981 112.989 16.4919 112.957 16.492L112.957 16.491ZM111.33 9.88795C110.026 9.88795 108.967 10.9539 108.967 12.2707C108.967 13.5883 110.026 14.6556 111.33 14.6556C112.634 14.6556 113.691 13.5883 113.691 12.2707C113.691 10.9542 112.633 9.88795 111.331 9.88795H111.33ZM140.171 21.1535C138.868 21.1535 137.854 20.097 137.854 18.8141C137.854 17.5312 138.881 16.4627 140.183 16.4627C141.486 16.4627 142.5 17.5189 142.5 18.8008C142.5 20.0837 141.473 21.1535 140.171 21.1535H140.171ZM140.184 16.6953C138.997 16.6953 138.099 17.6478 138.099 18.8141C138.099 19.98 138.991 20.9196 140.172 20.9196C141.358 20.9196 142.257 19.9679 142.257 18.8008C142.257 17.635 141.365 16.6953 140.185 16.6953H140.184ZM140.697 19.0413L141.353 19.9677H140.8L140.21 19.1179H139.703V19.9677H139.24V17.5122H140.325C140.89 17.5122 141.261 17.8041 141.261 18.2955C141.264 18.6981 141.033 18.9441 140.699 19.0414L140.697 19.0413ZM140.306 17.9335H139.703V18.7102H140.306C140.607 18.7102 140.787 18.5615 140.787 18.3215C140.787 18.0689 140.606 17.9336 140.306 17.9336L140.306 17.9335Z" fill="#616161"/>
</svg>
