<svg width="270" height="53" viewBox="0 0 270 53" fill="none" xmlns="http://www.w3.org/2000/svg">
<path d="M266.057 42.9907C266.057 42.6862 265.976 42.4131 265.815 42.1713C265.654 41.9295 265.349 41.7101 264.902 41.5131C264.463 41.3071 263.818 41.1146 262.967 40.9355C262.215 40.7743 261.521 40.5728 260.885 40.331C260.249 40.0892 259.703 39.7981 259.246 39.4578C258.789 39.1085 258.431 38.7011 258.171 38.2354C257.921 37.7607 257.795 37.2145 257.795 36.5965C257.795 35.9965 257.925 35.4323 258.185 34.9039C258.445 34.3666 258.821 33.8965 259.313 33.4935C259.806 33.0815 260.406 32.7591 261.113 32.5263C261.821 32.2845 262.618 32.1636 263.504 32.1636C264.74 32.1636 265.802 32.3651 266.688 32.7681C267.584 33.1711 268.269 33.7263 268.743 34.4338C269.218 35.1323 269.455 35.9204 269.455 36.798H265.909C265.909 36.4129 265.819 36.0637 265.64 35.7502C265.47 35.4368 265.206 35.186 264.848 34.998C264.49 34.801 264.037 34.7024 263.491 34.7024C262.998 34.7024 262.582 34.783 262.242 34.9442C261.91 35.1054 261.66 35.3159 261.489 35.5756C261.319 35.8353 261.234 36.1219 261.234 36.4353C261.234 36.6682 261.279 36.8786 261.369 37.0667C261.467 37.2458 261.624 37.4115 261.839 37.5637C262.054 37.716 262.345 37.8548 262.712 37.9801C263.088 38.1055 263.549 38.2264 264.096 38.3428C265.179 38.5578 266.124 38.8444 266.93 39.2026C267.745 39.5518 268.381 40.0175 268.837 40.5996C269.294 41.1817 269.523 41.925 269.523 42.8295C269.523 43.4743 269.384 44.0654 269.106 44.6027C268.828 45.1311 268.425 45.5923 267.897 45.9863C267.369 46.3804 266.737 46.6893 266.003 46.9132C265.269 47.1282 264.44 47.2356 263.518 47.2356C262.184 47.2356 261.055 46.9983 260.133 46.5237C259.21 46.0401 258.512 45.4311 258.037 44.6967C257.563 43.9534 257.325 43.1833 257.325 42.3862H260.724C260.751 42.9504 260.903 43.4027 261.181 43.743C261.458 44.0833 261.807 44.3296 262.228 44.4818C262.658 44.6251 263.11 44.6967 263.585 44.6967C264.122 44.6967 264.575 44.6251 264.942 44.4818C265.309 44.3296 265.587 44.1281 265.775 43.8773C265.963 43.6176 266.057 43.3221 266.057 42.9907Z" fill="white"/>
<path d="M255.7 32.4321V34.9844H247.371V32.4321H255.7ZM249.601 28.8589H253.161V42.7757C253.161 43.2055 253.219 43.5369 253.335 43.7697C253.452 44.0026 253.626 44.1593 253.859 44.2399C254.092 44.3205 254.37 44.3608 254.692 44.3608C254.925 44.3608 255.14 44.3474 255.337 44.3205C255.534 44.2936 255.7 44.2668 255.834 44.2399L255.847 46.8997C255.552 46.9982 255.216 47.0788 254.84 47.1415C254.473 47.2042 254.056 47.2355 253.591 47.2355C252.794 47.2355 252.095 47.1012 251.495 46.8325C250.895 46.5549 250.429 46.1116 250.098 45.5026C249.767 44.8847 249.601 44.0697 249.601 43.0578V28.8589Z" fill="white"/>
<path d="M242.656 42.9907C242.656 42.6862 242.576 42.4131 242.414 42.1713C242.253 41.9295 241.949 41.7101 241.501 41.5131C241.062 41.3071 240.417 41.1146 239.567 40.9355C238.814 40.7743 238.12 40.5728 237.484 40.331C236.849 40.0892 236.302 39.7981 235.846 39.4578C235.389 39.1085 235.031 38.7011 234.771 38.2354C234.52 37.7607 234.395 37.2145 234.395 36.5965C234.395 35.9965 234.525 35.4323 234.784 34.9039C235.044 34.3666 235.42 33.8965 235.913 33.4935C236.405 33.0815 237.005 32.7591 237.713 32.5263C238.42 32.2845 239.217 32.1636 240.104 32.1636C241.34 32.1636 242.401 32.3651 243.287 32.7681C244.183 33.1711 244.868 33.7263 245.343 34.4338C245.817 35.1323 246.055 35.9204 246.055 36.798H242.508C242.508 36.4129 242.419 36.0637 242.24 35.7502C242.07 35.4368 241.805 35.186 241.447 34.998C241.089 34.801 240.637 34.7024 240.09 34.7024C239.598 34.7024 239.181 34.783 238.841 34.9442C238.51 35.1054 238.259 35.3159 238.089 35.5756C237.919 35.8353 237.834 36.1219 237.834 36.4353C237.834 36.6682 237.878 36.8786 237.968 37.0667C238.066 37.2458 238.223 37.4115 238.438 37.5637C238.653 37.716 238.944 37.8548 239.311 37.9801C239.687 38.1055 240.149 38.2264 240.695 38.3428C241.779 38.5578 242.723 38.8444 243.529 39.2026C244.344 39.5518 244.98 40.0175 245.437 40.5996C245.894 41.1817 246.122 41.925 246.122 42.8295C246.122 43.4743 245.983 44.0654 245.705 44.6027C245.428 45.1311 245.025 45.5923 244.496 45.9863C243.968 46.3804 243.337 46.6893 242.602 46.9132C241.868 47.1282 241.04 47.2356 240.117 47.2356C238.783 47.2356 237.655 46.9983 236.732 46.5237C235.81 46.0401 235.111 45.4311 234.637 44.6967C234.162 43.9534 233.925 43.1833 233.925 42.3862H237.323C237.35 42.9504 237.502 43.4027 237.78 43.743C238.058 44.0833 238.407 44.3296 238.828 44.4818C239.258 44.6251 239.71 44.6967 240.184 44.6967C240.722 44.6967 241.174 44.6251 241.541 44.4818C241.908 44.3296 242.186 44.1281 242.374 43.8773C242.562 43.6176 242.656 43.3221 242.656 42.9907Z" fill="white"/>
<path d="M227.893 43.8773V37.1742C227.893 36.6816 227.808 36.2562 227.638 35.898C227.468 35.5398 227.208 35.2622 226.859 35.0651C226.509 34.8681 226.066 34.7696 225.529 34.7696C225.054 34.7696 224.638 34.8502 224.279 35.0114C223.93 35.1726 223.661 35.401 223.473 35.6965C223.285 35.9831 223.191 36.3144 223.191 36.6906H219.631C219.631 36.0905 219.775 35.5219 220.061 34.9845C220.348 34.4383 220.755 33.9547 221.284 33.5338C221.821 33.1039 222.461 32.7681 223.205 32.5263C223.957 32.2845 224.799 32.1636 225.73 32.1636C226.832 32.1636 227.812 32.3516 228.672 32.7278C229.541 33.0949 230.221 33.6502 230.714 34.3935C231.215 35.1368 231.466 36.0726 231.466 37.201V43.5415C231.466 44.2669 231.511 44.8893 231.6 45.4087C231.699 45.9192 231.842 46.3625 232.03 46.7386V46.967H228.417C228.247 46.5998 228.117 46.1341 228.027 45.5699C227.938 44.9968 227.893 44.4326 227.893 43.8773ZM228.39 38.1145L228.417 40.2235H226.173C225.618 40.2235 225.13 40.2817 224.709 40.3981C224.288 40.5056 223.944 40.6668 223.675 40.8817C223.406 41.0877 223.205 41.3384 223.07 41.634C222.936 41.9206 222.869 42.2474 222.869 42.6146C222.869 42.9728 222.949 43.2952 223.111 43.5818C223.281 43.8684 223.523 44.0967 223.836 44.2669C224.158 44.4281 224.535 44.5087 224.964 44.5087C225.591 44.5087 226.138 44.3833 226.603 44.1326C227.069 43.8728 227.432 43.5594 227.691 43.1922C227.951 42.8251 228.09 42.4758 228.108 42.1444L229.129 43.6758C229.003 44.043 228.815 44.4326 228.565 44.8445C228.314 45.2565 227.991 45.6416 227.597 45.9998C227.203 46.358 226.729 46.6535 226.173 46.8864C225.618 47.1192 224.973 47.2356 224.239 47.2356C223.299 47.2356 222.457 47.0476 221.714 46.6714C220.97 46.2953 220.384 45.7804 219.954 45.1266C219.524 44.4729 219.309 43.7296 219.309 42.8967C219.309 42.1265 219.452 41.4459 219.739 40.8549C220.026 40.2638 220.451 39.7668 221.015 39.3638C221.579 38.9518 222.278 38.6429 223.111 38.4369C223.952 38.2219 224.915 38.1145 225.999 38.1145H228.39Z" fill="white"/>
<path d="M211.505 44.4415C212.006 44.4415 212.454 44.343 212.848 44.146C213.242 43.949 213.555 43.6713 213.788 43.3131C214.03 42.9549 214.16 42.5385 214.178 42.0638H217.523C217.505 43.0489 217.227 43.9311 216.69 44.7102C216.153 45.4893 215.436 46.1072 214.541 46.564C213.654 47.0117 212.66 47.2356 211.558 47.2356C210.439 47.2356 209.463 47.0476 208.63 46.6714C207.797 46.2953 207.103 45.7714 206.548 45.0997C206.002 44.4281 205.59 43.649 205.312 42.7624C205.043 41.8758 204.909 40.9265 204.909 39.9145V39.4847C204.909 38.4727 205.043 37.5234 205.312 36.6368C205.59 35.7502 206.002 34.9711 206.548 34.2995C207.103 33.6278 207.797 33.1039 208.63 32.7278C209.463 32.3516 210.434 32.1636 211.545 32.1636C212.718 32.1636 213.748 32.3919 214.635 32.8487C215.53 33.3054 216.229 33.9502 216.73 34.783C217.241 35.6159 217.505 36.5965 217.523 37.7249H214.178C214.16 37.2055 214.044 36.7398 213.829 36.3279C213.614 35.9159 213.309 35.5846 212.915 35.3338C212.521 35.0831 212.042 34.9577 211.478 34.9577C210.878 34.9577 210.376 35.0831 209.973 35.3338C209.579 35.5846 209.27 35.9293 209.046 36.3682C208.831 36.798 208.679 37.2816 208.59 37.819C208.509 38.3473 208.469 38.9026 208.469 39.4847V39.9145C208.469 40.5056 208.509 41.0698 208.59 41.6071C208.679 42.1444 208.831 42.628 209.046 43.0579C209.27 43.4788 209.579 43.8146 209.973 44.0654C210.376 44.3161 210.887 44.4415 211.505 44.4415Z" fill="white"/>
<path d="M198.756 43.8773V26.3335H202.33V46.9669H199.106L198.756 43.8773ZM189.42 39.8742V39.5921C189.42 38.4816 189.546 37.4741 189.797 36.5696C190.056 35.6561 190.432 34.8725 190.925 34.2188C191.417 33.565 192.013 33.0591 192.712 32.7008C193.419 32.3426 194.221 32.1635 195.116 32.1635C195.985 32.1635 196.742 32.3381 197.386 32.6874C198.04 33.0367 198.595 33.5337 199.052 34.1785C199.518 34.8233 199.889 35.589 200.167 36.4756C200.445 37.3532 200.646 38.3204 200.771 39.3771V40.1428C200.646 41.1727 200.445 42.1175 200.167 42.9772C199.889 43.837 199.518 44.5892 199.052 45.234C198.595 45.8698 198.04 46.3624 197.386 46.7117C196.733 47.0609 195.967 47.2356 195.089 47.2356C194.203 47.2356 193.406 47.052 192.698 46.6848C192 46.3176 191.404 45.8027 190.911 45.14C190.428 44.4773 190.056 43.6981 189.797 42.8026C189.546 41.9071 189.42 40.9309 189.42 39.8742ZM192.98 39.5921V39.8742C192.98 40.501 193.034 41.0876 193.141 41.6339C193.249 42.1802 193.424 42.6638 193.665 43.0847C193.907 43.4966 194.216 43.819 194.592 44.0519C194.977 44.2847 195.443 44.4011 195.989 44.4011C196.688 44.4011 197.261 44.2489 197.709 43.9444C198.165 43.631 198.519 43.2056 198.77 42.6683C199.021 42.122 199.182 41.5085 199.254 40.8279V38.7189C199.218 38.1816 199.124 37.6845 198.971 37.2278C198.828 36.7711 198.622 36.3771 198.353 36.0457C198.094 35.7143 197.771 35.4546 197.386 35.2666C197.001 35.0785 196.544 34.9845 196.016 34.9845C195.47 34.9845 195.004 35.1054 194.619 35.3472C194.234 35.58 193.921 35.9069 193.679 36.3278C193.437 36.7487 193.258 37.2368 193.141 37.792C193.034 38.3473 192.98 38.9473 192.98 39.5921Z" fill="white"/>
<path d="M173.824 39.8474V39.5653C173.824 38.4996 173.977 37.5189 174.281 36.6234C174.586 35.7189 175.029 34.9353 175.611 34.2726C176.193 33.6099 176.905 33.0949 177.747 32.7278C178.589 32.3516 179.547 32.1636 180.622 32.1636C181.714 32.1636 182.681 32.3516 183.523 32.7278C184.374 33.0949 185.09 33.6099 185.673 34.2726C186.255 34.9353 186.698 35.7189 187.002 36.6234C187.307 37.5189 187.459 38.4996 187.459 39.5653V39.8474C187.459 40.9041 187.307 41.8847 187.002 42.7892C186.698 43.6848 186.255 44.4684 185.673 45.14C185.09 45.8027 184.378 46.3177 183.537 46.6849C182.695 47.052 181.732 47.2356 180.649 47.2356C179.574 47.2356 178.611 47.052 177.76 46.6849C176.91 46.3177 176.193 45.8027 175.611 45.14C175.029 44.4684 174.586 43.6848 174.281 42.7892C173.977 41.8847 173.824 40.9041 173.824 39.8474ZM177.371 39.5653V39.8474C177.371 40.4832 177.434 41.0787 177.559 41.634C177.684 42.1892 177.877 42.6773 178.137 43.0982C178.396 43.5191 178.732 43.8505 179.144 44.0923C179.565 44.3251 180.066 44.4415 180.649 44.4415C181.222 44.4415 181.714 44.3251 182.126 44.0923C182.538 43.8505 182.874 43.5191 183.134 43.0982C183.402 42.6773 183.599 42.1892 183.725 41.634C183.85 41.0787 183.913 40.4832 183.913 39.8474V39.5653C183.913 38.9384 183.85 38.3518 183.725 37.8055C183.599 37.2503 183.402 36.7622 183.134 36.3413C182.874 35.9114 182.534 35.5756 182.113 35.3338C181.701 35.0831 181.204 34.9577 180.622 34.9577C180.049 34.9577 179.556 35.0831 179.144 35.3338C178.732 35.5756 178.396 35.9114 178.137 36.3413C177.877 36.7622 177.684 37.2503 177.559 37.8055C177.434 38.3518 177.371 38.9384 177.371 39.5653Z" fill="white"/>
<path d="M164.784 39.8344H159.746V36.9328H164.784C165.608 36.9328 166.275 36.7985 166.785 36.5298C167.305 36.2522 167.685 35.8761 167.927 35.4014C168.169 34.9178 168.29 34.3671 168.29 33.7492C168.29 33.1491 168.169 32.5894 167.927 32.07C167.685 31.5506 167.305 31.1297 166.785 30.8073C166.275 30.4849 165.608 30.3237 164.784 30.3237H160.955V46.9674H157.261V27.4087H164.784C166.306 27.4087 167.605 27.6818 168.679 28.2281C169.763 28.7654 170.587 29.5132 171.151 30.4715C171.724 31.4207 172.011 32.5044 172.011 33.7223C172.011 34.985 171.724 36.0731 171.151 36.9866C170.587 37.9 169.763 38.603 168.679 39.0956C167.605 39.5881 166.306 39.8344 164.784 39.8344Z" fill="white"/>
<path d="M141.867 47.2356C140.765 47.2356 139.776 47.0565 138.898 46.6983C138.021 46.3401 137.273 45.843 136.655 45.2072C136.046 44.5624 135.576 43.8146 135.244 42.9639C134.922 42.1041 134.761 41.1817 134.761 40.1966V39.6593C134.761 38.5399 134.922 37.5234 135.244 36.61C135.567 35.6875 136.023 34.895 136.615 34.2323C137.206 33.5696 137.913 33.0591 138.737 32.7009C139.561 32.3427 140.47 32.1636 141.464 32.1636C142.494 32.1636 143.403 32.3382 144.191 32.6875C144.979 33.0278 145.637 33.5114 146.166 34.1383C146.694 34.7651 147.092 35.5174 147.361 36.395C147.63 37.2637 147.764 38.2264 147.764 39.2832V40.7743H136.373V38.3294H144.271V38.0607C144.254 37.4966 144.146 36.9816 143.949 36.5159C143.752 36.0413 143.448 35.6652 143.036 35.3875C142.624 35.101 142.091 34.9577 141.437 34.9577C140.909 34.9577 140.447 35.0741 140.053 35.3069C139.668 35.5308 139.346 35.8532 139.086 36.2741C138.835 36.6861 138.647 37.1786 138.522 37.7518C138.397 38.3249 138.334 38.9608 138.334 39.6593V40.1966C138.334 40.8056 138.415 41.3698 138.576 41.8892C138.746 42.4086 138.992 42.8609 139.315 43.246C139.646 43.6221 140.04 43.9176 140.497 44.1326C140.962 44.3385 141.491 44.4415 142.082 44.4415C142.825 44.4415 143.497 44.2982 144.097 44.0117C144.706 43.7161 145.234 43.2818 145.682 42.7086L147.469 44.5624C147.164 45.0102 146.752 45.4401 146.233 45.852C145.722 46.264 145.104 46.5998 144.379 46.8595C143.654 47.1102 142.816 47.2356 141.867 47.2356Z" fill="white"/>
<path d="M131.953 26.3335V46.9669H128.393V26.3335H131.953Z" fill="white"/>
<path d="M121.771 32.4322H124.995V46.5237C124.995 47.8401 124.708 48.9551 124.135 49.8685C123.571 50.7909 122.778 51.4895 121.757 51.9641C120.736 52.4477 119.55 52.6895 118.198 52.6895C117.616 52.6895 116.984 52.6089 116.304 52.4477C115.632 52.2865 114.983 52.0313 114.356 51.682C113.738 51.3417 113.223 50.8984 112.811 50.3521L114.409 48.2565C114.893 48.8207 115.439 49.2461 116.048 49.5327C116.657 49.8282 117.315 49.976 118.023 49.976C118.739 49.976 119.348 49.8417 119.85 49.573C120.36 49.3133 120.75 48.9282 121.019 48.4177C121.296 47.9162 121.435 47.2983 121.435 46.564V35.7502L121.771 32.4322ZM111.951 39.8742V39.5921C111.951 38.4817 112.086 37.4742 112.354 36.5697C112.623 35.6562 113.008 34.8726 113.509 34.2189C114.02 33.5651 114.633 33.0591 115.35 32.7009C116.075 32.3427 116.89 32.1636 117.795 32.1636C118.753 32.1636 119.559 32.3382 120.213 32.6875C120.875 33.0367 121.422 33.5338 121.851 34.1786C122.29 34.8233 122.631 35.589 122.872 36.4756C123.123 37.3533 123.316 38.3205 123.45 39.3772V40.1429C123.325 41.1728 123.123 42.1176 122.845 42.9773C122.577 43.837 122.219 44.5893 121.771 45.2341C121.323 45.8699 120.768 46.3625 120.105 46.7117C119.442 47.061 118.663 47.2356 117.768 47.2356C116.872 47.2356 116.066 47.052 115.35 46.6849C114.633 46.3177 114.02 45.8027 113.509 45.14C113.008 44.4773 112.623 43.6982 112.354 42.8027C112.086 41.9071 111.951 40.931 111.951 39.8742ZM115.498 39.5921V39.8742C115.498 40.5011 115.56 41.0877 115.686 41.634C115.811 42.1803 116.004 42.6639 116.263 43.0848C116.523 43.4967 116.85 43.8191 117.244 44.052C117.638 44.2848 118.108 44.4012 118.654 44.4012C119.389 44.4012 119.989 44.249 120.454 43.9445C120.929 43.631 121.287 43.2057 121.529 42.6683C121.78 42.1221 121.941 41.5086 122.013 40.828V38.719C121.968 38.1816 121.869 37.6846 121.717 37.2279C121.574 36.7712 121.372 36.3771 121.113 36.0458C120.853 35.7144 120.522 35.4547 120.119 35.2666C119.716 35.0786 119.236 34.9845 118.681 34.9845C118.144 34.9845 117.674 35.1054 117.271 35.3472C116.868 35.5801 116.536 35.907 116.277 36.3279C116.017 36.7488 115.82 37.2368 115.686 37.7921C115.56 38.3473 115.498 38.9473 115.498 39.5921Z" fill="white"/>
<path d="M96.3149 39.8474V39.5653C96.3149 38.4996 96.4672 37.5189 96.7717 36.6234C97.0762 35.7189 97.5195 34.9353 98.1016 34.2726C98.6837 33.6099 99.3956 33.0949 100.237 32.7278C101.079 32.3516 102.037 32.1636 103.112 32.1636C104.205 32.1636 105.172 32.3516 106.014 32.7278C106.864 33.0949 107.581 33.6099 108.163 34.2726C108.745 34.9353 109.188 35.7189 109.493 36.6234C109.797 37.5189 109.95 38.4996 109.95 39.5653V39.8474C109.95 40.9041 109.797 41.8847 109.493 42.7892C109.188 43.6848 108.745 44.4684 108.163 45.14C107.581 45.8027 106.869 46.3177 106.027 46.6849C105.185 47.052 104.223 47.2356 103.139 47.2356C102.064 47.2356 101.102 47.052 100.251 46.6849C99.4001 46.3177 98.6837 45.8027 98.1016 45.14C97.5195 44.4684 97.0762 43.6848 96.7717 42.7892C96.4672 41.8847 96.3149 40.9041 96.3149 39.8474ZM99.8613 39.5653V39.8474C99.8613 40.4832 99.924 41.0787 100.049 41.634C100.175 42.1892 100.367 42.6773 100.627 43.0982C100.887 43.5191 101.223 43.8505 101.634 44.0923C102.055 44.3251 102.557 44.4415 103.139 44.4415C103.712 44.4415 104.205 44.3251 104.617 44.0923C105.029 43.8505 105.364 43.5191 105.624 43.0982C105.893 42.6773 106.09 42.1892 106.215 41.634C106.341 41.0787 106.403 40.4832 106.403 39.8474V39.5653C106.403 38.9384 106.341 38.3518 106.215 37.8055C106.09 37.2503 105.893 36.7622 105.624 36.3413C105.364 35.9114 105.024 35.5756 104.603 35.3338C104.191 35.0831 103.694 34.9577 103.112 34.9577C102.539 34.9577 102.046 35.0831 101.634 35.3338C101.223 35.5756 100.887 35.9114 100.627 36.3413C100.367 36.7622 100.175 37.2503 100.049 37.8055C99.924 38.3518 99.8613 38.9384 99.8613 39.5653Z" fill="white"/>
<path d="M80.7324 39.8474V39.5653C80.7324 38.4996 80.8847 37.5189 81.1892 36.6234C81.4936 35.7189 81.9369 34.9353 82.519 34.2726C83.1011 33.6099 83.8131 33.0949 84.6549 32.7278C85.4967 32.3516 86.455 32.1636 87.5296 32.1636C88.6222 32.1636 89.5894 32.3516 90.4312 32.7278C91.282 33.0949 91.9984 33.6099 92.5805 34.2726C93.1626 34.9353 93.6059 35.7189 93.9104 36.6234C94.2149 37.5189 94.3671 38.4996 94.3671 39.5653V39.8474C94.3671 40.9041 94.2149 41.8847 93.9104 42.7892C93.6059 43.6848 93.1626 44.4684 92.5805 45.14C91.9984 45.8027 91.2864 46.3177 90.4446 46.6849C89.6028 47.052 88.6401 47.2356 87.5565 47.2356C86.4818 47.2356 85.5191 47.052 84.6683 46.6849C83.8176 46.3177 83.1011 45.8027 82.519 45.14C81.9369 44.4684 81.4936 43.6848 81.1892 42.7892C80.8847 41.8847 80.7324 40.9041 80.7324 39.8474ZM84.2788 39.5653V39.8474C84.2788 40.4832 84.3415 41.0787 84.4669 41.634C84.5922 42.1892 84.7848 42.6773 85.0445 43.0982C85.3042 43.5191 85.64 43.8505 86.052 44.0923C86.4729 44.3251 86.9744 44.4415 87.5565 44.4415C88.1296 44.4415 88.6222 44.3251 89.0341 44.0923C89.4461 43.8505 89.7819 43.5191 90.0416 43.0982C90.3103 42.6773 90.5073 42.1892 90.6327 41.634C90.7581 41.0787 90.8208 40.4832 90.8208 39.8474V39.5653C90.8208 38.9384 90.7581 38.3518 90.6327 37.8055C90.5073 37.2503 90.3103 36.7622 90.0416 36.3413C89.7819 35.9114 89.4416 35.5756 89.0207 35.3338C88.6088 35.0831 88.1117 34.9577 87.5296 34.9577C86.9565 34.9577 86.4639 35.0831 86.052 35.3338C85.64 35.5756 85.3042 35.9114 85.0445 36.3413C84.7848 36.7622 84.5922 37.2503 84.4669 37.8055C84.3415 38.3518 84.2788 38.9384 84.2788 39.5653Z" fill="white"/>
<path d="M78.1397 36.8521V44.4687C77.8531 44.8359 77.4009 45.2344 76.783 45.6643C76.174 46.0941 75.377 46.4658 74.3919 46.7792C73.4068 47.0837 72.1978 47.236 70.7649 47.236C69.5201 47.236 68.3827 47.03 67.3529 46.618C66.323 46.1971 65.4364 45.5837 64.6931 44.7777C63.9498 43.9717 63.3766 42.9866 62.9736 41.8224C62.5706 40.6582 62.3691 39.3283 62.3691 37.8327V36.5431C62.3691 35.0476 62.5572 33.7177 62.9333 32.5535C63.3184 31.3893 63.8647 30.4042 64.5722 29.5982C65.2886 28.7922 66.1439 28.1787 67.1379 27.7578C68.1409 27.3369 69.2604 27.1265 70.4962 27.1265C72.153 27.1265 73.5142 27.3996 74.5799 27.9459C75.6546 28.4922 76.4785 29.2444 77.0516 30.2027C77.6248 31.1519 77.983 32.2445 78.1263 33.4804H74.5262C74.4277 32.7998 74.2307 32.2042 73.9351 31.6938C73.6396 31.1743 73.2187 30.7713 72.6724 30.4848C72.1351 30.1892 71.4366 30.0415 70.5768 30.0415C69.8514 30.0415 69.2111 30.1848 68.6559 30.4713C68.1006 30.7579 67.635 31.1743 67.2588 31.7206C66.8827 32.2669 66.5961 32.943 66.3991 33.749C66.211 34.555 66.117 35.4774 66.117 36.5163V37.8327C66.117 38.8805 66.2245 39.8119 66.4394 40.6268C66.6543 41.4328 66.9633 42.1134 67.3663 42.6687C67.7782 43.215 68.2842 43.6314 68.8842 43.918C69.4932 44.1956 70.1828 44.3344 70.953 44.3344C71.6515 44.3344 72.2291 44.2762 72.6858 44.1598C73.1515 44.0344 73.5232 43.8866 73.8008 43.7165C74.0784 43.5463 74.2933 43.3806 74.4456 43.2194V39.5522H70.5634V36.8521H78.1397Z" fill="white"/>
<path d="M137.078 6.29687V14.8706H135.214V3.96956H136.977L137.078 6.29687ZM136.635 9.00701L135.859 8.97679C135.866 8.23125 135.976 7.5428 136.191 6.91143C136.406 6.27336 136.709 5.71924 137.098 5.24908C137.488 4.77891 137.951 4.41622 138.488 4.16099C139.032 3.89904 139.634 3.76807 140.292 3.76807C140.829 3.76807 141.313 3.84195 141.743 3.98971C142.173 4.13076 142.539 4.35913 142.841 4.67481C143.15 4.99049 143.385 5.4002 143.546 5.90394C143.707 6.40097 143.788 7.00883 143.788 7.7275V14.8706H141.914V7.70735C141.914 7.13644 141.83 6.67971 141.662 6.33717C141.494 5.9879 141.249 5.73603 140.927 5.58155C140.604 5.42035 140.208 5.33975 139.738 5.33975C139.274 5.33975 138.851 5.43714 138.468 5.63192C138.092 5.8267 137.766 6.09537 137.491 6.43791C137.222 6.78046 137.011 7.17338 136.856 7.61668C136.709 8.05326 136.635 8.5167 136.635 9.00701Z" fill="white"/>
<path d="M122.953 9.54098V9.30926C122.953 8.52342 123.067 7.79467 123.295 7.12301C123.524 6.44463 123.853 5.85693 124.283 5.3599C124.713 4.85616 125.233 4.46659 125.844 4.19121C126.456 3.90912 127.141 3.76807 127.9 3.76807C128.665 3.76807 129.354 3.90912 129.965 4.19121C130.583 4.46659 131.107 4.85616 131.537 5.3599C131.973 5.85693 132.306 6.44463 132.534 7.12301C132.762 7.79467 132.877 8.52342 132.877 9.30926V9.54098C132.877 10.3268 132.762 11.0556 132.534 11.7272C132.306 12.3989 131.973 12.9866 131.537 13.4903C131.107 13.9874 130.586 14.3769 129.975 14.659C129.371 14.9344 128.685 15.0721 127.92 15.0721C127.154 15.0721 126.466 14.9344 125.854 14.659C125.243 14.3769 124.719 13.9874 124.283 13.4903C123.853 12.9866 123.524 12.3989 123.295 11.7272C123.067 11.0556 122.953 10.3268 122.953 9.54098ZM124.817 9.30926V9.54098C124.817 10.085 124.881 10.5988 125.008 11.0824C125.136 11.5593 125.327 11.9825 125.582 12.3519C125.844 12.7213 126.17 13.0135 126.56 13.2284C126.949 13.4366 127.403 13.5407 127.92 13.5407C128.43 13.5407 128.877 13.4366 129.26 13.2284C129.649 13.0135 129.972 12.7213 130.227 12.3519C130.482 11.9825 130.674 11.5593 130.801 11.0824C130.936 10.5988 131.003 10.085 131.003 9.54098V9.30926C131.003 8.77193 130.936 8.26483 130.801 7.78795C130.674 7.30436 130.479 6.87785 130.217 6.50844C129.962 6.13231 129.639 5.83678 129.25 5.62185C128.867 5.40692 128.417 5.29945 127.9 5.29945C127.389 5.29945 126.939 5.40692 126.55 5.62185C126.167 5.83678 125.844 6.13231 125.582 6.50844C125.327 6.87785 125.136 7.30436 125.008 7.78795C124.881 8.26483 124.817 8.77193 124.817 9.30926Z" fill="white"/>
<path d="M108.787 6.29687V14.8706H106.924V3.96956H108.687L108.787 6.29687ZM108.344 9.00701L107.568 8.97679C107.575 8.23125 107.686 7.5428 107.901 6.91143C108.116 6.27336 108.418 5.71924 108.808 5.24908C109.197 4.77891 109.661 4.41622 110.198 4.16099C110.742 3.89904 111.343 3.76807 112.001 3.76807C112.539 3.76807 113.022 3.84195 113.452 3.98971C113.882 4.13076 114.248 4.35913 114.55 4.67481C114.859 4.99049 115.094 5.4002 115.256 5.90394C115.417 6.40097 115.497 7.00883 115.497 7.7275V14.8706H113.623V7.70735C113.623 7.13644 113.539 6.67971 113.372 6.33717C113.204 5.9879 112.958 5.73603 112.636 5.58155C112.314 5.42035 111.917 5.33975 111.447 5.33975C110.984 5.33975 110.561 5.43714 110.178 5.63192C109.802 5.8267 109.476 6.09537 109.201 6.43791C108.932 6.78046 108.72 7.17338 108.566 7.61668C108.418 8.05326 108.344 8.5167 108.344 9.00701Z" fill="white"/>
<path d="M100.506 15.0721C99.747 15.0721 99.0586 14.9445 98.4406 14.6893C97.8294 14.4273 97.3022 14.0613 96.8589 13.5911C96.4223 13.1209 96.0865 12.5635 95.8514 11.9187C95.6163 11.2739 95.4988 10.5686 95.4988 9.80293V9.37979C95.4988 8.49319 95.6298 7.70399 95.8917 7.01218C96.1536 6.31366 96.5096 5.7226 96.9596 5.239C97.4097 4.75541 97.9201 4.38935 98.491 4.14084C99.0619 3.89232 99.653 3.76807 100.264 3.76807C101.043 3.76807 101.715 3.9024 102.279 4.17106C102.85 4.43973 103.317 4.81586 103.68 5.29945C104.042 5.77633 104.311 6.34052 104.486 6.99203C104.66 7.63683 104.748 8.34207 104.748 9.10776V9.94398H96.607V8.42267H102.884V8.28162C102.857 7.79803 102.756 7.32786 102.581 6.87114C102.414 6.41441 102.145 6.03828 101.775 5.74275C101.406 5.44722 100.902 5.29945 100.264 5.29945C99.8411 5.29945 99.4515 5.39013 99.0955 5.57147C98.7395 5.74611 98.4339 6.00805 98.1787 6.35732C97.9235 6.70658 97.7253 7.13308 97.5843 7.63683C97.4432 8.14057 97.3727 8.72156 97.3727 9.37979V9.80293C97.3727 10.3201 97.4432 10.8071 97.5843 11.2638C97.732 11.7138 97.9436 12.1101 98.219 12.4526C98.5011 12.7952 98.8403 13.0638 99.2366 13.2586C99.6396 13.4534 100.096 13.5508 100.607 13.5508C101.265 13.5508 101.822 13.4165 102.279 13.1478C102.736 12.8791 103.136 12.5198 103.478 12.0698L104.606 12.9664C104.371 13.3224 104.073 13.6616 103.71 13.984C103.347 14.3064 102.9 14.5684 102.37 14.7699C101.846 14.9714 101.225 15.0721 100.506 15.0721Z" fill="white"/>
<path d="M93.7962 3.96903V5.39967H87.9023V3.96903H93.7962ZM89.8972 1.31934H91.761V12.17C91.761 12.5394 91.8181 12.8182 91.9323 13.0062C92.0465 13.1943 92.1943 13.3185 92.3756 13.379C92.5569 13.4394 92.7517 13.4697 92.9599 13.4697C93.1144 13.4697 93.2756 13.4562 93.4435 13.4294C93.6182 13.3958 93.7491 13.3689 93.8365 13.3488L93.8465 14.8701C93.6988 14.9171 93.504 14.9607 93.2622 15.001C93.0271 15.0481 92.7417 15.0716 92.4058 15.0716C91.9491 15.0716 91.5293 14.9809 91.1465 14.7995C90.7636 14.6182 90.458 14.316 90.2296 13.8928C90.008 13.4629 89.8972 12.8853 89.8972 12.1599V1.31934Z" fill="white"/>
<path d="M84.92 11.9791C84.92 11.7104 84.8596 11.4619 84.7387 11.2336C84.6245 10.9985 84.386 10.7869 84.0233 10.5988C83.6674 10.4041 83.13 10.2362 82.4114 10.0951C81.8069 9.96749 81.2595 9.81636 80.7691 9.64173C80.2856 9.4671 79.8725 9.25553 79.5299 9.00701C79.1941 8.7585 78.9355 8.46633 78.7542 8.1305C78.5728 7.79467 78.4821 7.40175 78.4821 6.95173C78.4821 6.52187 78.5762 6.11552 78.7642 5.73267C78.959 5.34983 79.231 5.01064 79.5803 4.71511C79.9363 4.41958 80.3628 4.18785 80.8598 4.01994C81.3569 3.85202 81.911 3.76807 82.5222 3.76807C83.3953 3.76807 84.1409 3.92255 84.7588 4.23151C85.3767 4.54048 85.8503 4.95355 86.1794 5.47072C86.5085 5.98119 86.673 6.54874 86.673 7.17338H84.8092C84.8092 6.87114 84.7185 6.57896 84.5372 6.29687C84.3625 6.00805 84.1039 5.76961 83.7614 5.58155C83.4256 5.39348 83.0125 5.29945 82.5222 5.29945C82.005 5.29945 81.5852 5.38005 81.2628 5.54125C80.9471 5.69573 80.7154 5.89387 80.5677 6.13567C80.4266 6.37747 80.3561 6.6327 80.3561 6.90136C80.3561 7.10286 80.3897 7.28421 80.4568 7.4454C80.5307 7.59989 80.6583 7.74429 80.8397 7.87863C81.021 8.00624 81.2763 8.12714 81.6054 8.24132C81.9345 8.3555 82.3543 8.46969 82.8647 8.58387C83.758 8.78537 84.4935 9.02716 85.0711 9.30926C85.6488 9.59136 86.0786 9.93726 86.3607 10.347C86.6428 10.7567 86.7839 11.2537 86.7839 11.8381C86.7839 12.3149 86.6831 12.7515 86.4816 13.1478C86.2868 13.5441 86.0014 13.8866 85.6252 14.1754C85.2558 14.4575 84.8125 14.6792 84.2954 14.8404C83.7849 14.9949 83.2106 15.0721 82.5726 15.0721C81.6121 15.0721 80.7994 14.9008 80.1344 14.5583C79.4695 14.2157 78.9657 13.7724 78.6232 13.2284C78.2806 12.6844 78.1094 12.1101 78.1094 11.5056H79.9833C80.0102 12.0161 80.1579 12.4224 80.4266 12.7247C80.6953 13.0202 81.0244 13.2318 81.4139 13.3594C81.8035 13.4803 82.1897 13.5407 82.5726 13.5407C83.083 13.5407 83.5095 13.4736 83.8521 13.3392C84.2013 13.2049 84.4666 13.0202 84.648 12.7851C84.8293 12.55 84.92 12.2814 84.92 11.9791Z" fill="white"/>
<path d="M75.5807 3.96951V14.8706H73.7067V3.96951H75.5807ZM73.5657 1.07801C73.5657 0.775767 73.6563 0.520536 73.8377 0.312322C74.0258 0.104107 74.3011 0 74.6638 0C75.0198 0 75.2918 0.104107 75.4799 0.312322C75.6747 0.520536 75.7721 0.775767 75.7721 1.07801C75.7721 1.36683 75.6747 1.61534 75.4799 1.82356C75.2918 2.02505 75.0198 2.1258 74.6638 2.1258C74.3011 2.1258 74.0258 2.02505 73.8377 1.82356C73.6563 1.61534 73.5657 1.36683 73.5657 1.07801Z" fill="white"/>
<path d="M71.6112 13.2885V14.8702H64.2767V13.2885H71.6112ZM64.6595 0.201172V14.8702H62.7151V0.201172H64.6595Z" fill="white"/>
<path d="M3.19336 19.1758C1.64086 19.1758 0.380859 20.4354 0.380859 21.9875V25.041C0.380859 28.7904 6.00586 28.7904 6.00586 25.041V21.9875C6.00586 20.4354 4.74586 19.1758 3.19336 19.1758ZM42.5684 19.1758C41.0159 19.1758 39.7559 20.4354 39.7559 21.9875V25.041C39.7559 28.7904 45.3809 28.7904 45.3809 25.041V21.9875C45.3809 20.4354 44.1209 19.1758 42.5684 19.1758ZM12.9049 28.3799C11.3524 28.3799 10.0924 29.6396 10.0924 31.1916V34.2452C10.0924 37.9946 15.7174 37.9946 15.7174 34.2452V31.2141C15.7174 29.655 14.4645 28.4024 12.9049 28.4024V28.3799ZM12.9049 9.9716C11.3524 9.9716 10.0924 11.2312 10.0924 12.7833V22.8296C10.0924 26.579 15.7174 26.579 15.7174 22.8296V12.7693C15.7174 11.2102 14.4645 9.95754 12.9049 9.95754V9.9716ZM32.8568 9.9716C31.2973 9.9716 30.0443 11.2312 30.0443 12.7833V15.8593C30.0443 19.6088 35.6693 19.6088 35.6693 15.8593V12.7833C35.6693 11.2312 34.4093 9.9716 32.8568 9.9716ZM22.8809 1.03174C21.3284 1.03174 20.0684 2.29139 20.0684 3.84346V6.89698C20.0684 10.6464 25.6934 10.6464 25.6934 6.89698V3.84346C25.6934 2.29139 24.4334 1.03174 22.8809 1.03174ZM22.8809 37.3212C21.3284 37.3212 20.0684 38.5808 20.0684 40.1329V43.2089C20.0543 46.9584 25.6793 46.9794 25.6934 43.2314V40.1554C25.6934 38.6174 24.4334 37.3437 22.8809 37.3437V37.3212ZM32.8568 21.4603C31.2973 21.4603 30.0443 22.734 30.0443 24.272V34.2663C30.0443 38.0157 35.6693 38.0157 35.6693 34.2663V24.272C35.6693 22.7199 34.4093 21.4603 32.8568 21.4603ZM22.8809 12.5204C21.3284 12.5204 20.0684 13.7941 20.0684 15.3321V31.6977C20.0684 35.4472 25.6934 35.4472 25.6934 31.6977V15.3546C25.6934 13.7955 24.4334 12.5429 22.8809 12.5429V12.5204Z" fill="white"/>
</svg>
