<svg width="166" height="44" viewBox="0 0 166 44" fill="none" xmlns="http://www.w3.org/2000/svg">
<path d="M163.554 41.2524V39.6774C162.763 40.9155 161.599 41.5345 160.063 41.5345C159.068 41.5345 158.151 41.2603 157.313 40.7117C156.482 40.1632 155.836 39.3992 155.373 38.4197C154.919 37.4324 154.692 36.3001 154.692 35.0228C154.692 33.7769 154.899 32.6485 155.315 31.6376C155.73 30.6189 156.353 29.8392 157.184 29.2986C158.014 28.7579 158.943 28.4875 159.969 28.4875C160.722 28.4875 161.392 28.6482 161.979 28.9694C162.567 29.2829 163.045 29.6943 163.413 30.2036V24.021H165.517V41.2524H163.554ZM156.866 35.0228C156.866 36.6213 157.203 37.8163 157.877 38.6078C158.551 39.3992 159.346 39.7949 160.263 39.7949C161.188 39.7949 161.971 39.4188 162.614 38.6665C163.264 37.9064 163.59 36.7506 163.59 35.1991C163.59 33.4908 163.26 32.2371 162.602 31.4378C161.944 30.6385 161.133 30.2389 160.169 30.2389C159.229 30.2389 158.441 30.6229 157.807 31.3908C157.18 32.1587 156.866 33.3694 156.866 35.0228Z" fill="white"/>
<path d="M150.601 37.2326L152.788 37.5029C152.443 38.7802 151.804 39.7715 150.872 40.4767C149.939 41.1819 148.748 41.5346 147.298 41.5346C145.473 41.5346 144.023 40.9743 142.949 39.8537C141.884 38.7254 141.351 37.1464 141.351 35.1169C141.351 33.0168 141.892 31.3869 142.973 30.2272C144.054 29.0674 145.457 28.4876 147.181 28.4876C148.85 28.4876 150.213 29.0557 151.271 30.1919C152.329 31.3281 152.858 32.9267 152.858 34.9876C152.858 35.1129 152.854 35.301 152.846 35.5518H143.537C143.616 36.9231 144.003 37.9731 144.701 38.7018C145.398 39.4306 146.268 39.795 147.31 39.795C148.086 39.795 148.748 39.5912 149.297 39.1838C149.845 38.7763 150.28 38.1259 150.601 37.2326ZM143.655 33.8122H150.625C150.531 32.7621 150.264 31.9746 149.826 31.4496C149.152 30.6346 148.278 30.2272 147.204 30.2272C146.233 30.2272 145.414 30.5524 144.748 31.2028C144.09 31.8531 143.725 32.7229 143.655 33.8122Z" fill="white"/>
<path d="M137.202 37.2326L139.388 37.5029C139.043 38.7802 138.405 39.7715 137.472 40.4767C136.54 41.1819 135.348 41.5346 133.899 41.5346C132.073 41.5346 130.623 40.9743 129.55 39.8537C128.484 38.7254 127.951 37.1464 127.951 35.1169C127.951 33.0168 128.492 31.3869 129.573 30.2272C130.655 29.0674 132.057 28.4876 133.781 28.4876C135.45 28.4876 136.814 29.0557 137.872 30.1919C138.93 31.3281 139.458 32.9267 139.458 34.9876C139.458 35.1129 139.455 35.301 139.447 35.5518H130.138C130.216 36.9231 130.604 37.9731 131.301 38.7018C131.999 39.4306 132.868 39.795 133.911 39.795C134.686 39.795 135.348 39.5912 135.897 39.1838C136.446 38.7763 136.88 38.1259 137.202 37.2326ZM130.255 33.8122H137.225C137.131 32.7621 136.865 31.9746 136.426 31.4496C135.752 30.6346 134.878 30.2272 133.805 30.2272C132.833 30.2272 132.014 30.5524 131.348 31.2028C130.69 31.8531 130.326 32.7229 130.255 33.8122Z" fill="white"/>
<path d="M114.328 41.2524V24.021H125.953V26.0544H116.609V31.3908H124.695V33.4242H116.609V41.2524H114.328Z" fill="white"/>
<path d="M90.6792 35.7161L92.8302 35.528C92.932 36.39 93.1671 37.0991 93.5354 37.6555C93.9115 38.204 94.4914 38.6507 95.275 38.9955C96.0586 39.3324 96.9402 39.5009 97.9197 39.5009C98.7895 39.5009 99.5574 39.3716 100.223 39.113C100.89 38.8544 101.383 38.5018 101.704 38.0551C102.034 37.6007 102.198 37.107 102.198 36.5741C102.198 36.0334 102.041 35.5633 101.728 35.1637C101.415 34.7562 100.897 34.4153 100.176 34.141C99.7141 33.9608 98.6915 33.6826 97.1086 33.3065C95.5258 32.9225 94.417 32.5621 93.7823 32.2251C92.9595 31.7942 92.3443 31.2613 91.9369 30.6266C91.5372 29.984 91.3374 29.267 91.3374 28.4756C91.3374 27.6058 91.5842 26.7948 92.0779 26.0425C92.5716 25.2824 93.2925 24.7065 94.2407 24.3147C95.1888 23.9229 96.2428 23.727 97.4025 23.727C98.6798 23.727 99.8042 23.9346 100.776 24.3499C101.755 24.7574 102.508 25.3608 103.033 26.16C103.558 26.9593 103.84 27.8644 103.879 28.8752L101.693 29.0398C101.575 27.9506 101.176 27.1278 100.494 26.5714C99.8199 26.0151 98.8208 25.7369 97.4965 25.7369C96.1174 25.7369 95.1105 25.9916 94.4757 26.5009C93.8489 27.0024 93.5354 27.6097 93.5354 28.3228C93.5354 28.9418 93.7587 29.4512 94.2054 29.8508C94.6442 30.2505 95.7883 30.6618 97.6376 31.085C99.4947 31.5003 100.768 31.8647 101.458 32.1781C102.461 32.6404 103.201 33.2282 103.679 33.9412C104.157 34.6465 104.396 35.4614 104.396 36.3861C104.396 37.3029 104.134 38.1688 103.609 38.9837C103.084 39.7908 102.327 40.4216 101.34 40.8761C100.361 41.3228 99.2557 41.5461 98.0255 41.5461C96.4661 41.5461 95.1575 41.3189 94.0996 40.8644C93.0496 40.4099 92.2229 39.7281 91.6195 38.8192C91.024 37.9023 90.7105 36.868 90.6792 35.7161Z" fill="white"/>
<path d="M74.6231 35.7161L76.7741 35.528C76.876 36.39 77.1111 37.0991 77.4794 37.6555C77.8555 38.204 78.4354 38.6507 79.219 38.9955C80.0026 39.3324 80.8841 39.5009 81.8636 39.5009C82.7334 39.5009 83.5014 39.3716 84.1674 39.113C84.8335 38.8544 85.3272 38.5018 85.6484 38.0551C85.9776 37.6007 86.1421 37.107 86.1421 36.5741C86.1421 36.0334 85.9854 35.5633 85.6719 35.1637C85.3585 34.7562 84.8413 34.4153 84.1204 34.141C83.6581 33.9608 82.6355 33.6826 81.0526 33.3065C79.4697 32.9225 78.3609 32.5621 77.7262 32.2251C76.9034 31.7942 76.2883 31.2613 75.8808 30.6266C75.4812 29.984 75.2814 29.267 75.2814 28.4756C75.2814 27.6058 75.5282 26.7948 76.0219 26.0425C76.5155 25.2824 77.2365 24.7065 78.1846 24.3147C79.1328 23.9229 80.1867 23.727 81.3465 23.727C82.6237 23.727 83.7482 23.9346 84.7199 24.3499C85.6994 24.7574 86.4516 25.3608 86.9767 26.16C87.5017 26.9593 87.7838 27.8644 87.8229 28.8752L85.6367 29.0398C85.5191 27.9506 85.1195 27.1278 84.4378 26.5714C83.7639 26.0151 82.7648 25.7369 81.4405 25.7369C80.0614 25.7369 79.0544 25.9916 78.4197 26.5009C77.7928 27.0024 77.4794 27.6097 77.4794 28.3228C77.4794 28.9418 77.7027 29.4512 78.1494 29.8508C78.5882 30.2505 79.7322 30.6618 81.5815 31.085C83.4387 31.5003 84.712 31.8647 85.4016 32.1781C86.4046 32.6404 87.1451 33.2282 87.6231 33.9412C88.1011 34.6465 88.3401 35.4614 88.3401 36.3861C88.3401 37.3029 88.0776 38.1688 87.5526 38.9837C87.0276 39.7908 86.2714 40.4216 85.2841 40.8761C84.3046 41.3228 83.1997 41.5461 81.9694 41.5461C80.4101 41.5461 79.1014 41.3189 78.0436 40.8644C76.9935 40.4099 76.1668 39.7281 75.5635 38.8192C74.9679 37.9023 74.6545 36.868 74.6231 35.7161Z" fill="white"/>
<path d="M58.0382 41.2524V24.021H65.6783C67.2142 24.021 68.3818 24.1777 69.181 24.4912C69.9803 24.7968 70.6189 25.3414 71.0969 26.125C71.5749 26.9086 71.8139 27.7745 71.8139 28.7226C71.8139 29.945 71.4182 30.9755 70.6268 31.8139C69.8353 32.6524 68.6129 33.1852 66.9595 33.4125C67.5629 33.7024 68.0213 33.9884 68.3347 34.2705C69.0008 34.8817 69.6316 35.6457 70.2271 36.5626L73.2244 41.2524H70.3564L68.0762 37.6674C67.4101 36.6331 66.8616 35.8417 66.4306 35.2931C65.9996 34.7446 65.6117 34.3606 65.2669 34.1412C64.93 33.9218 64.5852 33.769 64.2326 33.6828C63.974 33.628 63.5508 33.6005 62.9631 33.6005H60.3185V41.2524H58.0382ZM60.3185 31.6259H65.2199C66.2621 31.6259 67.0771 31.5201 67.6648 31.3085C68.2525 31.0891 68.6991 30.7443 69.0047 30.2741C69.3103 29.7962 69.4631 29.279 69.4631 28.7226C69.4631 27.9077 69.1654 27.2377 68.5698 26.7127C67.9821 26.1877 67.0496 25.9251 65.7724 25.9251H60.3185V31.6259Z" fill="white"/>
<path d="M150.1 12.7145C149.577 13.1585 149.073 13.472 148.587 13.6548C148.107 13.8376 147.59 13.9291 147.036 13.9291C146.122 13.9291 145.419 13.707 144.928 13.263C144.437 12.8137 144.191 12.2417 144.191 11.5469C144.191 11.1394 144.283 10.7685 144.466 10.4342C144.654 10.0946 144.897 9.82298 145.194 9.61925C145.497 9.41551 145.837 9.2614 146.213 9.15692C146.49 9.08378 146.908 9.01326 147.467 8.94535C148.606 8.80952 149.444 8.64758 149.982 8.45951C149.988 8.26622 149.99 8.14346 149.99 8.09122C149.99 7.51658 149.857 7.11171 149.59 6.87663C149.23 6.55797 148.695 6.39864 147.984 6.39864C147.321 6.39864 146.83 6.51618 146.511 6.75126C146.197 6.98111 145.965 7.3912 145.814 7.98151L144.434 7.79345C144.56 7.20314 144.766 6.72775 145.053 6.36729C145.341 6.00161 145.756 5.72212 146.299 5.52884C146.843 5.33032 147.472 5.23107 148.188 5.23107C148.898 5.23107 149.476 5.31465 149.92 5.48182C150.364 5.64899 150.69 5.86056 150.899 6.11654C151.108 6.36729 151.254 6.68596 151.338 7.07253C151.385 7.31284 151.408 7.74643 151.408 8.37332V10.254C151.408 11.5652 151.437 12.3958 151.495 12.7458C151.557 13.0906 151.677 13.4223 151.855 13.741H150.382C150.236 13.4485 150.142 13.1063 150.1 12.7145ZM149.982 9.56439C149.47 9.77335 148.702 9.95097 147.678 10.0972C147.099 10.1808 146.689 10.2749 146.448 10.3793C146.208 10.4838 146.022 10.6379 145.892 10.8417C145.761 11.0402 145.696 11.2622 145.696 11.5077C145.696 11.8839 145.837 12.1973 146.119 12.4481C146.406 12.6988 146.824 12.8242 147.373 12.8242C147.916 12.8242 148.399 12.7066 148.823 12.4716C149.246 12.2313 149.557 11.9048 149.755 11.4921C149.907 11.1734 149.982 10.7032 149.982 10.0816V9.56439Z" fill="white"/>
<path d="M141.104 3.8757V2.25364H142.515V3.8757H141.104ZM141.104 13.7413V5.4194H142.515V13.7413H141.104Z" fill="white"/>
<path d="M135.384 13.741L132.218 5.41914H133.707L135.493 10.4029C135.687 10.9409 135.864 11.4999 136.026 12.0798C136.152 11.641 136.327 11.1133 136.551 10.4969L138.401 5.41914H139.85L136.7 13.741H135.384Z" fill="white"/>
<path d="M125.369 11.0611L126.827 11.2413C126.597 12.0928 126.171 12.7537 125.549 13.2238C124.928 13.694 124.134 13.9291 123.167 13.9291C121.95 13.9291 120.984 13.5555 120.268 12.8085C119.558 12.0563 119.202 11.0036 119.202 9.65059C119.202 8.25055 119.563 7.16396 120.284 6.3908C121.005 5.61764 121.94 5.23107 123.089 5.23107C124.202 5.23107 125.111 5.60981 125.816 6.36729C126.521 7.12477 126.874 8.19048 126.874 9.56439C126.874 9.64798 126.871 9.77335 126.866 9.94052H120.66C120.712 10.8547 120.971 11.5547 121.436 12.0406C121.901 12.5264 122.48 12.7693 123.175 12.7693C123.692 12.7693 124.134 12.6335 124.499 12.3619C124.865 12.0902 125.155 11.6566 125.369 11.0611ZM120.738 8.78079H125.385C125.322 8.08077 125.145 7.55576 124.852 7.20575C124.403 6.66245 123.82 6.3908 123.105 6.3908C122.457 6.3908 121.911 6.6076 121.467 7.04119C121.028 7.47478 120.785 8.05465 120.738 8.78079Z" fill="white"/>
<path d="M112.04 13.7413H110.732V2.25364H112.142V6.35189C112.738 5.60485 113.498 5.23133 114.422 5.23133C114.934 5.23133 115.417 5.33581 115.872 5.54477C116.332 5.74851 116.708 6.03844 117 6.41457C117.298 6.78548 117.531 7.23475 117.698 7.76237C117.865 8.29 117.949 8.85419 117.949 9.45495C117.949 10.8811 117.596 11.9834 116.891 12.7618C116.185 13.5401 115.339 13.9293 114.352 13.9293C113.37 13.9293 112.599 13.5192 112.04 12.6991V13.7413ZM112.025 9.51764C112.025 10.5154 112.16 11.2363 112.432 11.6804C112.876 12.4065 113.477 12.7696 114.234 12.7696C114.851 12.7696 115.384 12.5032 115.833 11.9703C116.282 11.4322 116.507 10.633 116.507 9.57249C116.507 8.4859 116.29 7.68401 115.856 7.16683C115.428 6.64965 114.908 6.39107 114.297 6.39107C113.681 6.39107 113.148 6.6601 112.698 7.19818C112.249 7.73103 112.025 8.50418 112.025 9.51764Z" fill="white"/>
<path d="M107.174 3.8757V2.25364H108.584V3.8757H107.174ZM107.174 13.7413V5.4194H108.584V13.7413H107.174Z" fill="white"/>
<path d="M101.806 13.741V5.41913H103.076V6.68073C103.4 6.09042 103.697 5.70123 103.969 5.51316C104.246 5.3251 104.549 5.23107 104.878 5.23107C105.353 5.23107 105.837 5.38256 106.328 5.68556L105.842 6.99417C105.497 6.79044 105.152 6.68857 104.808 6.68857C104.499 6.68857 104.222 6.7826 103.977 6.97067C103.731 7.15351 103.556 7.40948 103.452 7.7386C103.295 8.2401 103.217 8.78863 103.217 9.38416V13.741H101.806Z" fill="white"/>
<path d="M99.2283 10.6928L100.615 10.873C100.464 11.829 100.075 12.5787 99.4477 13.122C98.826 13.66 98.0607 13.9291 97.1517 13.9291C96.0129 13.9291 95.0961 13.5582 94.4013 12.8163C93.7117 12.0693 93.3669 11.001 93.3669 9.61141C93.3669 8.71288 93.5158 7.92666 93.8136 7.25276C94.1114 6.57886 94.5632 6.07475 95.1692 5.74041C95.7804 5.40085 96.4439 5.23107 97.1596 5.23107C98.0633 5.23107 98.8025 5.46092 99.3772 5.92064C99.9518 6.37513 100.32 7.02291 100.482 7.86397L99.1107 8.07555C98.9801 7.51658 98.7477 7.09604 98.4133 6.81395C98.0842 6.53185 97.6846 6.3908 97.2144 6.3908C96.504 6.3908 95.9267 6.64678 95.4827 7.15873C95.0386 7.66546 94.8166 8.46996 94.8166 9.57223C94.8166 10.6902 95.0308 11.5025 95.4592 12.0092C95.8875 12.516 96.4465 12.7693 97.1361 12.7693C97.6898 12.7693 98.1521 12.5996 98.523 12.26C98.894 11.9204 99.129 11.398 99.2283 10.6928Z" fill="white"/>
<path d="M85.2096 11.257L86.6045 11.0376C86.6828 11.5965 86.8996 12.0249 87.2548 12.3227C87.6153 12.6204 88.1168 12.7693 88.7594 12.7693C89.4071 12.7693 89.8878 12.6387 90.2012 12.3775C90.5146 12.1111 90.6714 11.8003 90.6714 11.445C90.6714 11.1264 90.5329 10.8756 90.256 10.6928C90.0628 10.5674 89.5821 10.4081 88.8142 10.2148C87.7799 9.95358 87.0616 9.72895 86.6593 9.54088C86.2623 9.3476 85.9593 9.08378 85.7503 8.74945C85.5466 8.40988 85.4447 8.03637 85.4447 7.62889C85.4447 7.25799 85.5283 6.91581 85.6955 6.60237C85.8679 6.28371 86.1003 6.01989 86.3929 5.81093C86.6123 5.64899 86.9101 5.51316 87.2862 5.40346C87.6675 5.28853 88.075 5.23107 88.5086 5.23107C89.1616 5.23107 89.7336 5.3251 90.2247 5.51316C90.721 5.70123 91.0867 5.95721 91.3218 6.2811C91.5568 6.59976 91.7188 7.02813 91.8076 7.5662L90.4284 7.75427C90.3657 7.3259 90.1829 6.99156 89.8799 6.75126C89.5821 6.51095 89.159 6.3908 88.6105 6.3908C87.9627 6.3908 87.5004 6.49789 87.2235 6.71208C86.9466 6.92626 86.8082 7.17701 86.8082 7.46434C86.8082 7.64718 86.8657 7.81173 86.9806 7.95801C87.0955 8.1095 87.2757 8.23488 87.5213 8.33414C87.6623 8.38638 88.0776 8.50653 88.7672 8.69459C89.765 8.96102 90.4598 9.18043 90.8516 9.35282C91.2486 9.51999 91.5594 9.76552 91.7841 10.0894C92.0087 10.4133 92.121 10.8155 92.121 11.2962C92.121 11.7663 91.9826 12.2104 91.7057 12.6283C91.4341 13.041 91.0396 13.3623 90.5225 13.5921C90.0053 13.8167 89.4202 13.9291 88.7672 13.9291C87.6858 13.9291 86.8604 13.7044 86.291 13.2552C85.7268 12.8059 85.3664 12.1398 85.2096 11.257Z" fill="white"/>
<path d="M78.1415 13.7413H76.8329V2.25364H78.2434V6.35189C78.839 5.60485 79.599 5.23133 80.5237 5.23133C81.0357 5.23133 81.5189 5.33581 81.9734 5.54477C82.4331 5.74851 82.8092 6.03844 83.1018 6.41457C83.3995 6.78548 83.632 7.23475 83.7992 7.76237C83.9663 8.29 84.0499 8.85419 84.0499 9.45495C84.0499 10.8811 83.6973 11.9834 82.992 12.7618C82.2868 13.5401 81.4405 13.9293 80.4532 13.9293C79.4711 13.9293 78.7005 13.5192 78.1415 12.6991V13.7413ZM78.1259 9.51764C78.1259 10.5154 78.2617 11.2363 78.5333 11.6804C78.9774 12.4065 79.5782 12.7696 80.3356 12.7696C80.9521 12.7696 81.4849 12.5032 81.9342 11.9703C82.3834 11.4322 82.6081 10.633 82.6081 9.57249C82.6081 8.4859 82.3913 7.68401 81.9577 7.16683C81.5293 6.64965 81.0095 6.39107 80.3983 6.39107C79.7819 6.39107 79.249 6.6601 78.7998 7.19818C78.3505 7.73103 78.1259 8.50418 78.1259 9.51764Z" fill="white"/>
<path d="M73.3615 13.741V12.5186C72.7138 13.4589 71.8335 13.9291 70.7208 13.9291C70.2297 13.9291 69.77 13.835 69.3417 13.647C68.9185 13.4589 68.6025 13.2238 68.3935 12.9417C68.1898 12.6544 68.0461 12.3044 67.9625 11.8917C67.905 11.6148 67.8763 11.176 67.8763 10.5753V5.41914H69.2868V10.0346C69.2868 10.7712 69.3155 11.2674 69.373 11.5234C69.4618 11.8943 69.6499 12.1869 69.9372 12.401C70.2245 12.61 70.5797 12.7145 71.0029 12.7145C71.426 12.7145 71.8231 12.6074 72.194 12.3932C72.5649 12.1738 72.8261 11.8786 72.9776 11.5077C73.1343 11.1316 73.2127 10.5883 73.2127 9.87785V5.41914H74.6231V13.741H73.3615Z" fill="white"/>
<path d="M56.8667 10.0504L58.3007 9.92499C58.3686 10.4996 58.5253 10.9724 58.7709 11.3433C59.0216 11.709 59.4082 12.0068 59.9306 12.2366C60.453 12.4613 61.0407 12.5736 61.6937 12.5736C62.2736 12.5736 62.7855 12.4874 63.2296 12.315C63.6736 12.1426 64.0027 11.9075 64.2169 11.6097C64.4363 11.3067 64.546 10.9776 64.546 10.6224C64.546 10.2619 64.4415 9.9485 64.2326 9.68208C64.0236 9.41043 63.6788 9.18318 63.1982 9.00034C62.89 8.88019 62.2083 8.69474 61.153 8.44398C60.0978 8.18801 59.3586 7.9477 58.9354 7.72307C58.3869 7.43575 57.9768 7.08051 57.7052 6.65737C57.4387 6.229 57.3055 5.751 57.3055 5.22337C57.3055 4.64351 57.4701 4.10282 57.7992 3.60132C58.1283 3.09459 58.6089 2.71062 59.241 2.44942C59.8731 2.18822 60.5758 2.05762 61.3489 2.05762C62.2004 2.05762 62.9501 2.19605 63.5979 2.47293C64.2509 2.74458 64.7524 3.14683 65.1024 3.67968C65.4524 4.21253 65.6404 4.8159 65.6666 5.4898L64.2091 5.5995C64.1307 4.87336 63.8643 4.32484 63.4098 3.95394C62.9605 3.58303 62.2945 3.39758 61.4116 3.39758C60.4922 3.39758 59.8209 3.56736 59.3977 3.90692C58.9798 4.24126 58.7709 4.64612 58.7709 5.12151C58.7709 5.5342 58.9197 5.87376 59.2175 6.14019C59.5101 6.40662 60.2728 6.68088 61.5056 6.96297C62.7437 7.23985 63.5926 7.48276 64.0523 7.69172C64.721 7.99994 65.2147 8.39174 65.5334 8.86713C65.852 9.33729 66.0113 9.88059 66.0113 10.497C66.0113 11.1082 65.8363 11.6855 65.4863 12.2288C65.1363 12.7669 64.6322 13.1874 63.974 13.4904C63.321 13.7882 62.5844 13.937 61.7642 13.937C60.7246 13.937 59.8522 13.7855 59.147 13.4826C58.447 13.1796 57.8958 12.7251 57.4936 12.1191C57.0966 11.5079 56.8876 10.8183 56.8667 10.0504Z" fill="white"/>
<path d="M38.3679 0.181641H4.9393C2.42171 0.181641 0.380859 2.26174 0.380859 4.82774V38.8992C0.380859 41.4652 2.42171 43.5453 4.9393 43.5453H38.3679C40.8855 43.5453 42.9263 41.4652 42.9263 38.8992V4.82774C42.9263 2.26174 40.8855 0.181641 38.3679 0.181641ZM11.0172 37.3505C8.49963 37.3505 6.45878 35.2704 6.45878 32.7044C6.45878 30.1384 8.49963 28.0583 11.0172 28.0583C13.5348 28.0583 15.5757 30.1384 15.5757 32.7044C15.5757 35.2704 13.5348 37.3505 11.0172 37.3505ZM25.9777 37.3505H22.717C22.1462 37.3505 21.6675 36.9017 21.6304 36.3212C21.1353 28.5728 15.0546 22.3906 7.46857 21.887C6.89905 21.8492 6.45878 21.3613 6.45878 20.7796V17.4561C6.45878 16.8236 6.97806 16.3162 7.59782 16.3503C18.0961 16.9285 26.4961 25.5008 27.0627 36.1895C27.0962 36.8212 26.5984 37.3505 25.9777 37.3505ZM35.762 37.3505H32.5013C31.9163 37.3505 31.4401 36.8779 31.4162 36.2821C30.8845 23.0663 20.4755 12.4552 7.50713 11.9132C6.92241 11.8888 6.45878 11.4034 6.45878 10.8071V7.48377C6.45878 6.85906 6.96572 6.35476 7.57816 6.37722C23.5166 6.9604 36.2783 20.0436 36.8476 36.2096C36.8697 36.8338 36.3749 37.3505 35.762 37.3505Z" fill="white"/>
</svg>
