<svg width="916" height="677" viewBox="0 0 916 677" fill="none" xmlns="http://www.w3.org/2000/svg">
<path d="M246.307 420.545V391.907C246.307 386.517 246.501 379.248 246.896 370.091C247.287 360.94 247.595 356.137 247.823 355.688H245.967C242.149 364.339 237.824 372.426 232.998 379.947L205.707 420.545H246.307ZM339.127 470.244H312.005V517.918H246.307V470.244H148.094V421.389L250.516 271.628H312.005V420.545H339.127V470.244Z" fill="#F58800"/>
<path d="M422.681 395.109C422.681 422.963 424.42 442.111 427.904 452.555C431.383 462.998 437.224 468.221 445.424 468.221C453.733 468.221 459.599 462.831 463.026 452.048C466.452 441.267 468.164 422.289 468.164 395.109C468.164 367.818 466.421 348.697 462.944 337.746C459.46 326.798 453.619 321.323 445.424 321.323C437.224 321.323 431.383 326.604 427.904 337.157C424.42 347.716 422.681 367.034 422.681 395.109ZM534.37 395.109C534.37 438.686 527.068 470.608 512.469 490.879C497.87 511.152 475.52 521.286 445.424 521.286C415.998 521.286 393.817 510.703 378.881 489.531C363.945 468.364 356.478 436.888 356.478 395.109C356.478 351.309 363.775 319.192 378.376 298.748C392.974 278.309 415.325 268.089 445.424 268.089C474.736 268.089 496.887 278.731 511.879 300.013C526.874 321.298 534.37 352.993 534.37 395.109Z" fill="#F58800"/>
<path d="M650.608 420.545V391.907C650.608 386.517 650.803 379.248 651.198 370.091C651.591 360.94 651.899 356.137 652.125 355.688H650.271C646.453 364.339 642.128 372.426 637.3 379.947L610.011 420.545H650.608ZM743.429 470.244H716.309V517.918H650.608V470.244H552.396V421.389L654.82 271.628H716.309V420.545H743.429V470.244Z" fill="#F58800"/>
<path d="M49.377 326.275H148.946" stroke="#131112" stroke-width="2.88375" stroke-miterlimit="10" stroke-linecap="round" stroke-linejoin="round"/>
<path d="M172.843 326.275H194.098" stroke="#131112" stroke-width="2.88375" stroke-miterlimit="10" stroke-linecap="round" stroke-linejoin="round"/>
<path d="M31.3428 298.251H209.593" stroke="#131112" stroke-width="2.88375" stroke-miterlimit="10" stroke-linecap="round" stroke-linejoin="round"/>
<path d="M16.6723 298.251H2" stroke="#131112" stroke-width="2.88375" stroke-miterlimit="10" stroke-linecap="round" stroke-linejoin="round"/>
<path d="M31.3428 271.628H90.5228" stroke="#131112" stroke-width="2.88375" stroke-miterlimit="10" stroke-linecap="round" stroke-linejoin="round"/>
<path d="M106.364 271.628H230.651" stroke="#131112" stroke-width="2.88375" stroke-miterlimit="10" stroke-linecap="round" stroke-linejoin="round"/>
<path d="M753.187 548.61H859.737" stroke="#131112" stroke-width="2.88375" stroke-miterlimit="10" stroke-linecap="round" stroke-linejoin="round"/>
<path d="M877.07 548.61H892.482" stroke="#131112" stroke-width="2.88375" stroke-miterlimit="10" stroke-linecap="round" stroke-linejoin="round"/>
<path d="M774.469 520.584H914.105" stroke="#131112" stroke-width="2.88375" stroke-miterlimit="10" stroke-linecap="round" stroke-linejoin="round"/>
<path d="M763.825 520.584H753.187" stroke="#131112" stroke-width="2.88375" stroke-miterlimit="10" stroke-linecap="round" stroke-linejoin="round"/>
<path d="M753.187 493.961H817.375" stroke="#131112" stroke-width="2.88375" stroke-miterlimit="10" stroke-linecap="round" stroke-linejoin="round"/>
<path d="M828.863 493.961H877.067" stroke="#131112" stroke-width="2.88375" stroke-miterlimit="10" stroke-linecap="round" stroke-linejoin="round"/>
<path d="M259.051 419.606V390.966C259.051 385.576 259.245 378.307 259.64 369.15C260.033 359.999 260.341 355.196 260.567 354.747H258.714C254.895 363.398 250.57 371.485 245.742 379.006L218.451 419.606H259.051ZM351.873 469.303H324.751V516.977H259.051V469.303H160.838V420.448L263.262 270.687H324.751V419.606H351.873V469.303Z" stroke="#131112" stroke-width="4.35668" stroke-miterlimit="10"/>
<path d="M435.433 394.168C435.433 422.022 437.172 441.17 440.656 451.614C444.135 462.057 449.976 467.28 458.176 467.28C466.485 467.28 472.351 461.89 475.778 451.107C479.204 440.326 480.914 421.348 480.914 394.168C480.914 366.877 479.173 347.756 475.694 336.805C472.212 325.857 466.371 320.382 458.176 320.382C449.976 320.382 444.135 325.662 440.656 336.216C437.172 346.775 435.433 366.093 435.433 394.168ZM547.12 394.168C547.12 437.744 539.818 469.667 525.221 489.94C510.622 510.211 488.27 520.344 458.176 520.344C428.75 520.344 406.567 509.762 391.633 488.591C376.695 467.423 369.228 435.947 369.228 394.168C369.228 350.368 376.527 318.251 391.128 297.806C405.726 277.368 428.075 267.15 458.176 267.15C487.486 267.15 509.637 277.79 524.631 299.072C539.626 320.357 547.12 352.054 547.12 394.168Z" stroke="#131112" stroke-width="4.35668" stroke-miterlimit="10"/>
<path d="M663.359 419.606V390.966C663.359 385.576 663.552 378.307 663.949 369.15C664.34 359.999 664.648 355.196 664.876 354.747H663.022C659.204 363.398 654.877 371.485 650.051 379.006L622.759 419.606H663.359ZM756.18 469.303H729.058V516.977H663.359V469.303H565.146V420.448L667.571 270.687H729.058V419.606H756.18V469.303Z" stroke="#131112" stroke-width="4.35668" stroke-miterlimit="10"/>
<path d="M799.69 320.202V297.368" stroke="#131112" stroke-width="2.88375" stroke-miterlimit="10" stroke-linecap="round" stroke-linejoin="round"/>
<path d="M783.748 326.804L767.604 310.658" stroke="#131112" stroke-width="2.88375" stroke-miterlimit="10" stroke-linecap="round" stroke-linejoin="round"/>
<path d="M777.147 342.744H754.313" stroke="#131112" stroke-width="2.88375" stroke-miterlimit="10" stroke-linecap="round" stroke-linejoin="round"/>
<path d="M783.748 358.681L767.604 374.828" stroke="#131112" stroke-width="2.88375" stroke-miterlimit="10" stroke-linecap="round" stroke-linejoin="round"/>
<path d="M799.69 365.284V388.118" stroke="#131112" stroke-width="2.88375" stroke-miterlimit="10" stroke-linecap="round" stroke-linejoin="round"/>
<path d="M815.629 358.681L831.775 374.828" stroke="#131112" stroke-width="2.88375" stroke-miterlimit="10" stroke-linecap="round" stroke-linejoin="round"/>
<path d="M822.228 342.744H845.061" stroke="#131112" stroke-width="2.88375" stroke-miterlimit="10" stroke-linecap="round" stroke-linejoin="round"/>
<path d="M815.629 326.804L831.775 310.658" stroke="#131112" stroke-width="2.88375" stroke-miterlimit="10" stroke-linecap="round" stroke-linejoin="round"/>
<path d="M83.5303 433.897V417.393" stroke="#131112" stroke-width="2.88375" stroke-miterlimit="10" stroke-linecap="round" stroke-linejoin="round"/>
<path d="M72.0096 438.671L60.3389 426.999" stroke="#131112" stroke-width="2.88375" stroke-miterlimit="10" stroke-linecap="round" stroke-linejoin="round"/>
<path d="M67.2326 450.192H50.7285" stroke="#131112" stroke-width="2.88375" stroke-miterlimit="10" stroke-linecap="round" stroke-linejoin="round"/>
<path d="M72.0096 461.714L60.3389 473.384" stroke="#131112" stroke-width="2.88375" stroke-miterlimit="10" stroke-linecap="round" stroke-linejoin="round"/>
<path d="M83.5303 466.486V482.99" stroke="#131112" stroke-width="2.88375" stroke-miterlimit="10" stroke-linecap="round" stroke-linejoin="round"/>
<path d="M95.0508 461.714L106.721 473.384" stroke="#131112" stroke-width="2.88375" stroke-miterlimit="10" stroke-linecap="round" stroke-linejoin="round"/>
<path d="M99.8203 450.192H116.325" stroke="#131112" stroke-width="2.88375" stroke-miterlimit="10" stroke-linecap="round" stroke-linejoin="round"/>
<path d="M95.0508 438.671L106.721 426.999" stroke="#131112" stroke-width="2.88375" stroke-miterlimit="10" stroke-linecap="round" stroke-linejoin="round"/>
<path d="M530.156 92.989V76.4826" stroke="#131112" stroke-width="2.88375" stroke-miterlimit="10" stroke-linecap="round" stroke-linejoin="round"/>
<path d="M518.635 97.761L506.965 86.0907" stroke="#131112" stroke-width="2.88375" stroke-miterlimit="10" stroke-linecap="round" stroke-linejoin="round"/>
<path d="M513.86 109.282H497.354" stroke="#131112" stroke-width="2.88375" stroke-miterlimit="10" stroke-linecap="round" stroke-linejoin="round"/>
<path d="M518.635 120.804L506.965 132.474" stroke="#131112" stroke-width="2.88375" stroke-miterlimit="10" stroke-linecap="round" stroke-linejoin="round"/>
<path d="M530.156 125.576V142.08" stroke="#131112" stroke-width="2.88375" stroke-miterlimit="10" stroke-linecap="round" stroke-linejoin="round"/>
<path d="M541.676 120.804L553.346 132.474" stroke="#131112" stroke-width="2.88375" stroke-miterlimit="10" stroke-linecap="round" stroke-linejoin="round"/>
<path d="M546.451 109.282H562.955" stroke="#131112" stroke-width="2.88375" stroke-miterlimit="10" stroke-linecap="round" stroke-linejoin="round"/>
<path d="M541.676 97.761L553.346 86.0907" stroke="#131112" stroke-width="2.88375" stroke-miterlimit="10" stroke-linecap="round" stroke-linejoin="round"/>
<path d="M209.596 231.46V160.038H580.871V318.731" stroke="#131112" stroke-width="2.88375" stroke-miterlimit="10" stroke-linecap="round" stroke-linejoin="round"/>
<path d="M450.013 109.282V198.7H696.216V239.385" stroke="#131112" stroke-width="2.88375" stroke-miterlimit="10" stroke-linecap="round" stroke-linejoin="round"/>
<path d="M218.455 240.32C218.455 245.211 214.49 249.179 209.596 249.179C204.704 249.179 200.736 245.211 200.736 240.32C200.736 235.426 204.704 231.46 209.596 231.46C214.49 231.46 218.455 235.426 218.455 240.32Z" stroke="#131112" stroke-width="2.88375" stroke-miterlimit="10" stroke-linecap="round" stroke-linejoin="round"/>
<path d="M458.868 100.421C458.868 105.315 454.901 109.282 450.009 109.282C445.115 109.282 441.147 105.315 441.147 100.421C441.147 95.529 445.115 91.5616 450.009 91.5616C454.901 91.5616 458.868 95.529 458.868 100.421Z" stroke="#131112" stroke-width="2.88375" stroke-miterlimit="10" stroke-linecap="round" stroke-linejoin="round"/>
<path d="M705.072 249.179C705.072 254.073 701.105 258.038 696.213 258.038C691.319 258.038 687.352 254.073 687.352 249.179C687.352 244.287 691.319 240.32 696.213 240.32C701.105 240.32 705.072 244.287 705.072 249.179Z" stroke="#131112" stroke-width="2.88375" stroke-miterlimit="10" stroke-linecap="round" stroke-linejoin="round"/>
<path d="M589.73 329.061C589.73 333.955 585.765 337.92 580.871 337.92C575.979 337.92 572.012 333.955 572.012 329.061C572.012 324.169 575.979 320.202 580.871 320.202C585.765 320.202 589.73 324.169 589.73 329.061Z" stroke="#131112" stroke-width="2.88375" stroke-miterlimit="10" stroke-linecap="round" stroke-linejoin="round"/>
<path d="M151.858 506.494L130.896 527.458" stroke="#131112" stroke-width="2.88375" stroke-miterlimit="10" stroke-linecap="round" stroke-linejoin="round"/>
<path d="M130.896 506.494L151.858 527.458" stroke="#131112" stroke-width="2.88375" stroke-miterlimit="10" stroke-linecap="round" stroke-linejoin="round"/>
<path d="M162.341 202.092L141.379 223.054" stroke="#131112" stroke-width="2.88375" stroke-miterlimit="10" stroke-linecap="round" stroke-linejoin="round"/>
<path d="M141.379 202.092L162.341 223.054" stroke="#131112" stroke-width="2.88375" stroke-miterlimit="10" stroke-linecap="round" stroke-linejoin="round"/>
<path d="M842.259 439.709L821.295 460.673" stroke="#131112" stroke-width="2.88375" stroke-miterlimit="10" stroke-linecap="round" stroke-linejoin="round"/>
<path d="M821.295 439.709L842.259 460.673" stroke="#131112" stroke-width="2.88375" stroke-miterlimit="10" stroke-linecap="round" stroke-linejoin="round"/>
<path d="M247.37 82.4543C240.685 82.4543 234.566 84.8599 229.815 88.8438C224.962 74.2383 211.211 63.6912 194.976 63.6912C176.798 63.6912 161.746 76.9067 158.804 94.2466C156.887 93.6985 154.872 93.3861 152.779 93.3861C140.693 93.3861 130.896 103.184 130.896 115.268C130.896 126.386 139.195 135.548 149.931 136.946V137.153H247.37C262.474 137.153 274.719 124.908 274.719 109.804C274.719 94.6996 262.474 82.4543 247.37 82.4543Z" stroke="#266867" stroke-width="3.01525" stroke-miterlimit="10" stroke-linecap="round" stroke-linejoin="round"/>
<path d="M754.422 221.571C759.279 221.571 763.724 223.319 767.175 226.212C770.701 215.601 780.69 207.94 792.486 207.94C805.689 207.94 816.625 217.541 818.764 230.136C820.154 229.739 821.621 229.512 823.139 229.512C831.92 229.512 839.037 236.629 839.037 245.41C839.037 253.487 833.01 260.141 825.209 261.157V261.308H754.422C743.449 261.308 734.553 252.412 734.553 241.438C734.553 230.467 743.449 221.571 754.422 221.571Z" stroke="#266867" stroke-width="2.88375" stroke-miterlimit="10" stroke-linecap="round" stroke-linejoin="round"/>
<path d="M852.02 597.403C847.947 597.403 844.217 598.87 841.324 601.296C838.368 592.398 829.988 585.971 820.097 585.971C809.022 585.971 799.853 594.023 798.059 604.587C796.893 604.254 795.664 604.064 794.388 604.064C787.026 604.064 781.057 610.033 781.057 617.397C781.057 624.169 786.112 629.75 792.652 630.602V630.728H852.02C861.222 630.728 868.681 623.269 868.681 614.067C868.681 604.864 861.222 597.403 852.02 597.403Z" stroke="#266867" stroke-width="2.88375" stroke-miterlimit="10" stroke-linecap="round" stroke-linejoin="round"/>
<path d="M46.277 562.241C51.134 562.241 55.5795 563.989 59.0305 566.883C62.5564 556.272 72.5457 548.61 84.3409 548.61C97.546 548.61 108.481 558.21 110.619 570.807C112.011 570.408 113.475 570.182 114.995 570.182C123.775 570.182 130.893 577.3 130.893 586.08C130.893 594.158 124.864 600.812 117.065 601.828V601.977H46.277C35.3044 601.977 26.4092 593.082 26.4092 582.109C26.4092 571.136 35.3044 562.241 46.277 562.241Z" stroke="#266867" stroke-width="2.88375" stroke-miterlimit="10" stroke-linecap="round" stroke-linejoin="round"/>
<path d="M274.717 69.334C274.717 69.334 399.735 -32.5938 569.597 14.3645C748.029 63.6913 783.748 190.923 783.748 190.923" stroke="#131112" stroke-width="2.88375" stroke-miterlimit="10" stroke-linecap="round" stroke-linejoin="round" stroke-dasharray="4.36 10.17"/>
<path d="M85.9498 365.584C37.4832 373.101 13.1189 475.964 67.6358 516.797" stroke="#131112" stroke-width="2.68887" stroke-miterlimit="10" stroke-linecap="round" stroke-linejoin="round" stroke-dasharray="4.06 9.48"/>
<path d="M696.211 662.38C696.211 662.38 779.233 698.673 815.626 648.037" stroke="#131112" stroke-width="2.88375" stroke-miterlimit="10" stroke-linecap="round" stroke-linejoin="round" stroke-dasharray="4.36 10.17"/>
<path d="M301.234 249.179V196.751" stroke="#131112" stroke-width="2.88375" stroke-miterlimit="10" stroke-linecap="round" stroke-linejoin="round"/>
<path d="M288.582 249.179V223.054" stroke="#131112" stroke-width="2.88375" stroke-miterlimit="10" stroke-linecap="round" stroke-linejoin="round"/>
<path d="M493.93 261.308V222.965" stroke="#131112" stroke-width="2.88375" stroke-miterlimit="10" stroke-linecap="round" stroke-linejoin="round"/>
<path d="M479.555 258.038V242.136" stroke="#131112" stroke-width="2.88375" stroke-miterlimit="10" stroke-linecap="round" stroke-linejoin="round"/>
<path d="M466.799 258.038V231.46" stroke="#131112" stroke-width="2.88375" stroke-miterlimit="10" stroke-linecap="round" stroke-linejoin="round"/>
<path d="M313.403 249.179V222.965" stroke="#131112" stroke-width="2.88375" stroke-miterlimit="10" stroke-linecap="round" stroke-linejoin="round"/>
<path d="M660.905 256.476V244.75" stroke="#131112" stroke-width="2.88375" stroke-miterlimit="10" stroke-linecap="round" stroke-linejoin="round"/>
<path d="M648.252 256.476V227.911" stroke="#131112" stroke-width="2.88375" stroke-miterlimit="10" stroke-linecap="round" stroke-linejoin="round"/>
<path d="M673.074 256.476V236.073" stroke="#131112" stroke-width="2.88375" stroke-miterlimit="10" stroke-linecap="round" stroke-linejoin="round"/>
</svg>
