<svg width="180" height="52" viewBox="0 0 180 52" fill="none" xmlns="http://www.w3.org/2000/svg">
<path d="M42.4235 29.309C42.4235 36.6077 36.5406 42.5453 29.3089 42.5453C22.0777 42.5453 16.1943 36.6077 16.1943 29.309H13.2363C13.2363 31.4983 13.6616 33.6228 14.5 35.6237C15.3097 37.5555 16.4684 39.2905 17.944 40.7798C19.4196 42.2691 21.1382 43.4386 23.0522 44.2553C24.2994 44.7876 25.5947 45.1545 26.9235 45.3541L29.3026 52L31.6802 45.3561C33.0144 45.1569 34.3145 44.7895 35.5656 44.2553C37.4796 43.4386 39.1987 42.2691 40.6743 40.7798C42.1499 39.2905 43.3085 37.5555 44.1183 35.6237C44.9567 33.6228 45.382 31.4983 45.382 29.309H42.4235Z" fill="#F58800"/>
<path d="M10.1326 24.5815C7.25673 21.8038 5.67236 18.1103 5.67236 14.1815C5.67236 10.2527 7.25673 6.55917 10.1326 3.78143L12.2906 5.86569C7.54301 10.4507 7.54301 17.9118 12.2906 22.4973L10.1326 24.5815Z" fill="#FBBC24"/>
<path d="M5.59797 28.3638C3.77385 26.4496 2.36123 24.2172 1.39938 21.7284C0.470876 19.3249 0 16.7862 0 14.1819C0 11.5776 0.470876 9.03841 1.39938 6.63539C2.36123 4.14657 3.77385 1.91416 5.59797 -2.28882e-05L7.56368 2.06225C1.19522 8.74511 1.19522 19.6186 7.56368 26.301L5.59797 28.3638Z" fill="#FBBC24"/>
<path d="M118.914 8.93886L117.466 10.3741C114.313 7.18459 109.155 7.1586 105.97 10.3162L104.537 8.86643C106.466 6.95368 109.025 5.90747 111.741 5.92115C114.456 5.93483 117.004 7.00677 118.914 8.93886Z" fill="#FBBC24"/>
<path d="M121.142 5.92399L119.768 7.06684C117.632 5.25155 114.784 4.24345 111.749 4.22816C108.714 4.21287 105.856 5.19223 103.701 6.9859L102.34 5.82927C103.614 4.76874 105.098 3.94996 106.75 3.39569C108.346 2.86063 110.031 2.59369 111.757 2.60239C113.483 2.61109 115.165 2.89498 116.755 3.44609C118.402 4.01698 119.878 4.85067 121.142 5.92399Z" fill="#FBBC24"/>
<path d="M29.309 38.6036C24.1852 38.6036 20.0164 34.4368 20.0164 29.3153V26.8235H24.4132V23.8266H20.0164V21.3229H24.4132V18.3264H20.0164V15.8228H24.4132V12.8258H20.0258C20.2386 7.89146 24.3206 3.94228 29.309 3.94228C34.2975 3.94228 38.3795 7.89146 38.5928 12.8258H34.2068V15.8228H38.6022V18.3264H34.2068V21.3229H38.6022V23.8266H34.2068V26.8235H38.6022V29.3153C38.6022 34.4368 34.4334 38.6036 29.309 38.6036ZM38.0002 4.54393C35.6787 2.22346 32.5921 0.945812 29.309 0.945812C26.026 0.945812 22.9394 2.22346 20.6179 4.54393C18.2968 6.8644 17.0181 9.94951 17.0181 13.2311V29.3153C17.0181 32.5969 18.2968 35.682 20.6179 38.0019C22.9394 40.3224 26.026 41.6006 29.309 41.6006C32.5921 41.6006 35.6787 40.3224 38.0002 38.0019C40.3218 35.682 41.6 32.5969 41.6 29.3153V13.2311C41.6 9.94951 40.3218 6.8644 38.0002 4.54393Z" fill="#F58800"/>
<path d="M68.52 42C68.2 42 68.0267 41.8533 68 41.56L67.24 37.36C67.24 37.2267 67.16 37.16 67 37.16H61.16C61 37.16 60.92 37.2267 60.92 37.36L60.16 41.56C60.1333 41.8533 59.96 42 59.64 42H56C55.6267 42 55.48 41.8267 55.56 41.48L61.48 14.44C61.5333 14.1467 61.7067 14 62 14H66.24C66.5333 14 66.7067 14.1467 66.76 14.44L72.68 41.48V41.64C72.68 41.88 72.5333 42 72.24 42H68.52ZM61.64 33.32C61.6133 33.4533 61.68 33.52 61.84 33.52H66.28C66.44 33.52 66.5067 33.4533 66.48 33.32L64.16 20.68C64.1333 20.6 64.0933 20.56 64.04 20.56C63.9867 20.56 63.9467 20.6 63.92 20.68L61.64 33.32ZM83.8925 22.04C83.8925 21.9067 83.9325 21.8 84.0125 21.72C84.1192 21.6133 84.2392 21.56 84.3725 21.56H88.0525C88.1858 21.56 88.2925 21.6133 88.3725 21.72C88.4792 21.8 88.5325 21.9067 88.5325 22.04V41.52C88.5325 41.6533 88.4792 41.7733 88.3725 41.88C88.2925 41.96 88.1858 42 88.0525 42H84.3725C84.2392 42 84.1192 41.96 84.0125 41.88C83.9325 41.7733 83.8925 41.6533 83.8925 41.52V40.64C83.8925 40.56 83.8658 40.5067 83.8125 40.48C83.7592 40.4533 83.7058 40.48 83.6525 40.56C82.8792 41.7067 81.6392 42.28 79.9325 42.28C78.3058 42.28 76.9858 41.8 75.9725 40.84C74.9858 39.8533 74.4925 38.3467 74.4925 36.32V22.04C74.4925 21.9067 74.5325 21.8 74.6125 21.72C74.7192 21.6133 74.8392 21.56 74.9725 21.56H78.6525C78.7858 21.56 78.8925 21.6133 78.9725 21.72C79.0792 21.8 79.1325 21.9067 79.1325 22.04V35.32C79.1325 37.32 79.9058 38.32 81.4525 38.32C82.2258 38.32 82.8258 38.04 83.2525 37.48C83.6792 36.8933 83.8925 36.1067 83.8925 35.12V22.04ZM101.352 14.48C101.352 14.3467 101.392 14.24 101.472 14.16C101.578 14.0533 101.698 14 101.832 14H105.512C105.645 14 105.752 14.0533 105.832 14.16C105.938 14.24 105.992 14.3467 105.992 14.48V41.52C105.992 41.6533 105.938 41.7733 105.832 41.88C105.752 41.96 105.645 42 105.512 42H101.832C101.698 42 101.578 41.96 101.472 41.88C101.392 41.7733 101.352 41.6533 101.352 41.52V41.04C101.352 40.96 101.325 40.9067 101.272 40.88C101.218 40.8533 101.165 40.8667 101.112 40.92C100.152 41.8533 98.9516 42.32 97.5116 42.32C95.7249 42.32 94.3382 41.7333 93.3516 40.56C92.3649 39.3867 91.8716 37.8133 91.8716 35.84V27.72C91.8716 25.6933 92.3649 24.1067 93.3516 22.96C94.3649 21.8133 95.7516 21.24 97.5116 21.24C98.1249 21.24 98.7516 21.36 99.3916 21.6C100.032 21.8133 100.605 22.1733 101.112 22.68C101.165 22.7333 101.218 22.7467 101.272 22.72C101.325 22.6933 101.352 22.64 101.352 22.56V14.48ZM98.9516 38.32C99.5916 38.32 100.125 38.12 100.552 37.72C100.978 37.2933 101.245 36.7333 101.352 36.04V27.52C101.245 26.8267 100.978 26.28 100.552 25.88C100.125 25.4533 99.5916 25.24 98.9516 25.24C98.2049 25.24 97.6049 25.5067 97.1516 26.04C96.6982 26.5467 96.4716 27.2267 96.4716 28.08V35.48C96.4716 36.3333 96.6982 37.0267 97.1516 37.56C97.6049 38.0667 98.2049 38.32 98.9516 38.32ZM112.093 18.76C111.266 18.76 110.586 18.4933 110.053 17.96C109.519 17.4267 109.253 16.7467 109.253 15.92C109.253 15.0933 109.519 14.4133 110.053 13.88C110.586 13.3467 111.266 13.08 112.093 13.08C112.919 13.08 113.586 13.3467 114.093 13.88C114.626 14.4133 114.893 15.0933 114.893 15.92C114.893 16.7467 114.626 17.4267 114.093 17.96C113.559 18.4933 112.893 18.76 112.093 18.76ZM110.293 42C110.159 42 110.039 41.96 109.933 41.88C109.853 41.7733 109.813 41.6533 109.813 41.52V22.04C109.813 21.9067 109.853 21.8 109.933 21.72C110.039 21.6133 110.159 21.56 110.293 21.56H113.973C114.106 21.56 114.213 21.6133 114.293 21.72C114.399 21.8 114.453 21.9067 114.453 22.04V41.52C114.453 41.6533 114.399 41.7733 114.293 41.88C114.213 41.96 114.106 42 113.973 42H110.293Z" fill="white"/>
<path d="M125.606 42.32C123.34 42.32 121.513 41.64 120.126 40.28C118.766 38.8933 118.086 37.0667 118.086 34.8V21.16C118.086 18.8667 118.766 17.0533 120.126 15.72C121.513 14.36 123.34 13.68 125.606 13.68C127.9 13.68 129.74 14.36 131.126 15.72C132.513 17.0533 133.206 18.8667 133.206 21.16V21.64C133.206 21.7733 133.153 21.8933 133.046 22C132.966 22.1067 132.86 22.16 132.726 22.16L129.006 22.32C128.686 22.32 128.526 22.16 128.526 21.84V20.84C128.526 19.9067 128.26 19.1467 127.726 18.56C127.193 17.9733 126.486 17.68 125.606 17.68C124.753 17.68 124.06 17.9733 123.526 18.56C122.993 19.1467 122.726 19.9067 122.726 20.84V35.16C122.726 36.0933 122.993 36.8533 123.526 37.44C124.06 38.0267 124.753 38.32 125.606 38.32C126.486 38.32 127.193 38.0267 127.726 37.44C128.26 36.8533 128.526 36.0933 128.526 35.16V34.16C128.526 34.0267 128.566 33.92 128.646 33.84C128.753 33.7333 128.873 33.68 129.006 33.68L132.726 33.84C132.86 33.84 132.966 33.8933 133.046 34C133.153 34.08 133.206 34.1867 133.206 34.32V34.8C133.206 37.0667 132.513 38.8933 131.126 40.28C129.74 41.64 127.9 42.32 125.606 42.32ZM143.488 21.24C145.594 21.24 147.301 21.8533 148.608 23.08C149.914 24.3067 150.568 25.92 150.568 27.92V41.52C150.568 41.6533 150.514 41.7733 150.408 41.88C150.328 41.96 150.221 42 150.088 42H146.408C146.274 42 146.154 41.96 146.048 41.88C145.968 41.7733 145.928 41.6533 145.928 41.52V40.76C145.928 40.68 145.901 40.6267 145.848 40.6C145.794 40.5733 145.741 40.6 145.688 40.68C144.754 41.7733 143.394 42.32 141.608 42.32C140.088 42.32 138.741 41.8933 137.568 41.04C136.421 40.16 135.848 38.5733 135.848 36.28C135.848 33.88 136.541 32.1733 137.928 31.16C139.341 30.1467 141.248 29.64 143.648 29.64H145.728C145.861 29.64 145.928 29.5733 145.928 29.44V28.4C145.928 27.44 145.688 26.68 145.208 26.12C144.728 25.5333 144.128 25.24 143.408 25.24C142.848 25.24 142.381 25.4267 142.008 25.8C141.634 26.1467 141.408 26.6267 141.328 27.24C141.301 27.56 141.128 27.72 140.808 27.72H136.928C136.608 27.72 136.461 27.56 136.488 27.24C136.621 25.4267 137.328 23.9733 138.608 22.88C139.914 21.7867 141.541 21.24 143.488 21.24ZM142.888 38.48C143.688 38.48 144.394 38.2267 145.008 37.72C145.621 37.2133 145.928 36.5067 145.928 35.6V33.32C145.928 33.1867 145.861 33.12 145.728 33.12H143.648C142.741 33.12 142.008 33.3733 141.448 33.88C140.888 34.36 140.608 35.0667 140.608 36C140.608 36.8267 140.821 37.4533 141.248 37.88C141.674 38.28 142.221 38.48 142.888 38.48ZM160.151 42.24C158.045 42.24 156.365 41.7333 155.111 40.72C153.858 39.7067 153.231 38.3333 153.231 36.6V36.32C153.231 36.1867 153.271 36.08 153.351 36C153.458 35.8933 153.578 35.84 153.711 35.84H157.151C157.285 35.84 157.391 35.8933 157.471 36C157.578 36.08 157.631 36.1867 157.631 36.32V36.52C157.631 37.16 157.871 37.6933 158.351 38.12C158.858 38.5467 159.471 38.76 160.191 38.76C160.885 38.76 161.431 38.56 161.831 38.16C162.231 37.76 162.431 37.2533 162.431 36.64C162.431 36.1067 162.258 35.6667 161.911 35.32C161.565 34.9467 161.191 34.6667 160.791 34.48C160.391 34.2933 159.671 33.9867 158.631 33.56C157.111 32.9733 155.858 32.2267 154.871 31.32C153.911 30.4133 153.431 29.0667 153.431 27.28C153.431 25.4133 154.018 23.96 155.191 22.92C156.391 21.8533 158.005 21.32 160.031 21.32C162.111 21.32 163.751 21.88 164.951 23C166.178 24.0933 166.791 25.5733 166.791 27.44C166.791 27.5733 166.738 27.6933 166.631 27.8C166.551 27.88 166.445 27.92 166.311 27.92H162.951C162.818 27.92 162.698 27.88 162.591 27.8C162.511 27.6933 162.471 27.5733 162.471 27.44V27.2C162.471 26.56 162.245 26.0267 161.791 25.6C161.365 25.1733 160.818 24.96 160.151 24.96C159.458 24.96 158.898 25.1867 158.471 25.64C158.071 26.0667 157.871 26.5867 157.871 27.2C157.871 27.7067 158.031 28.1333 158.351 28.48C158.671 28.8267 159.031 29.1067 159.431 29.32C159.831 29.5067 160.498 29.8 161.431 30.2C162.551 30.6533 163.485 31.1067 164.231 31.56C165.005 31.9867 165.671 32.6133 166.231 33.44C166.818 34.24 167.111 35.24 167.111 36.44C167.111 38.2267 166.485 39.64 165.231 40.68C163.978 41.72 162.285 42.24 160.151 42.24ZM178.369 24.36C178.369 24.4933 178.315 24.6133 178.209 24.72C178.129 24.8 178.022 24.84 177.889 24.84H175.409C175.275 24.84 175.209 24.9067 175.209 25.04V35.52C175.209 36.4533 175.382 37.1067 175.729 37.48C176.075 37.8267 176.595 37.9867 177.289 37.96H177.569C177.702 37.96 177.809 38.0133 177.889 38.12C177.995 38.2 178.049 38.3067 178.049 38.44V41.52C178.049 41.6533 177.995 41.7733 177.889 41.88C177.809 41.96 177.702 42 177.569 42H176.209C174.395 42 173.022 41.6667 172.089 41C171.182 40.3333 170.729 39.08 170.729 37.24V25.04C170.729 24.9067 170.662 24.84 170.529 24.84H169.129C168.995 24.84 168.875 24.8 168.769 24.72C168.689 24.6133 168.649 24.4933 168.649 24.36V22.04C168.649 21.9067 168.689 21.8 168.769 21.72C168.875 21.6133 168.995 21.56 169.129 21.56H170.529C170.662 21.56 170.729 21.4933 170.729 21.36V16.96C170.729 16.8267 170.769 16.72 170.849 16.64C170.955 16.5333 171.075 16.48 171.209 16.48H174.729C174.862 16.48 174.969 16.5333 175.049 16.64C175.155 16.72 175.209 16.8267 175.209 16.96V21.36C175.209 21.4933 175.275 21.56 175.409 21.56H177.889C178.022 21.56 178.129 21.6133 178.209 21.72C178.315 21.8 178.369 21.9067 178.369 22.04V24.36Z" fill="#FBBC24"/>
</svg>
